<?xml version="1.0" encoding="utf-8"?>
<!-- Generator: Adobe Illustrator 22.1.0, SVG Export Plug-In . SVG Version: 6.00 Build 0)  -->
<svg version="1.1" id="Layer_1" xmlns="http://www.w3.org/2000/svg" xmlns:xlink="http://www.w3.org/1999/xlink" x="0px" y="0px"
	 viewBox="0 0 612 792" enable-background="new 0 0 612 792" xml:space="preserve">
<path fill="#B53736" d="M305.9,401.2"/>
<path fill="#B53736" d="M305.7,410.8c0.1-0.2,0.3-0.3,0.4-0.5c0,0.3,0.2,0.6-0.1,0.8C305.8,411.2,305.7,411,305.7,410.8z"/>
<g>
	<path fill="#E1E1D6" d="M232.7,435.2c5.1,1.3,9.4,3.7,13.6,6.7c0,0,0,0,0,0.1c-0.9,1.2-1.1,3-1.2,4.5c0,0.6-0.2,2.2,0.8,2.1
		c1.3-0.1,1.7-2.3,1.8-3.3c0.1-0.8,0-1.8-0.3-2.6c0.1,0.1,0.1,0.1,0.2,0.2c2.5,1.8,4.7,3.6,6.7,5.7c0,0,0,0.1-0.1,0.1
		c0,0-0.1,0.1-0.1,0.2c-0.4,1-0.7,2-0.9,3c-0.2,0.6-0.8,2.4,0.1,2.8c1.1,0.5,1.8-1.2,2-1.9c0.2-0.9,0.3-2.1,0-3.1
		c0.1,0.1,0.1,0.2,0.2,0.2c0,0.1,0.1,0.1,0.1,0.2c1.4,1.6,2.6,3.3,3.7,5.2c0.2,0.3,0.4,0.6,0.6,0.9c-1.2,1.1-3,6.4-0.2,6.6
		c1.7,0.1,1.6-3,1.2-5.1c1.6,2.5,3.3,4.9,5.2,7.2c-0.6,0.3-0.9,1.8-0.9,2.2c-0.1,1.1-0.2,2.9,0.6,3.8c0.9,1,1.8-0.6,1.9-1.3
		c0.2-1.2-0.2-2.4-0.6-3.5c0.6,0.7,1.3,1.4,1.9,2.1c1.7,1.8,3.5,3.6,5.6,5.1c0,0,0,0.1,0,0.1c0,0,0,0.1,0,0.1c0,0,0,0,0,0
		c-0.3,0.5-0.3,1.2-0.5,1.8c-0.1,0.7-0.1,1.3,0,1.9c0.1,0.6,0.6,1.7,1.4,1.4c1-0.4,1.3-1.5,1.1-2.4c-0.1-0.7-0.4-1.5-0.9-2.1
		c1.9,1,3.9,1.3,5.8,2.2c0.1,0.1,0.2-0.1,0.1-0.2c-0.8-0.4-1.6-0.7-2.4-1c-1.8-0.5-3.3-1.4-4.8-2.5c-1.4-1.1-2.8-2.4-4.1-3.7
		c0.2,0,0.5,0,0.7-0.1c0.6,0.2,1.2,0.3,1.8,0.2c0.5,0,2.5-0.5,2.3-1.3c-0.1-0.8-1.3-0.9-1.9-0.9c-1.2-0.1-2.9,0.2-3.7,1.2
		c-0.6-0.6-1.2-1.3-1.7-1.9c-1.7-1.9-3.1-3.9-4.5-6c0.1,0,0.2,0,0.3,0c1,0.5,2.1,0.8,3.1,1c0.7,0.1,2.5-0.2,2.1-1.4
		c-0.4-1.1-2-1.3-2.9-1.4c-1-0.1-2.5,0-3.3,0.8c-1.5-2.3-2.9-4.6-4.4-6.9c-0.5-0.7-1-1.5-1.6-2.1c0,0,0,0,0,0c2,1.2,5.6,2.8,5.7-0.1
		c0.1-1.2-1.7-1.4-2.5-1.4c-0.9,0-1.8,0.1-2.6,0.2c-0.4,0.1-1,0.1-1.4,0.4c-1.5-1.7-3.2-3.2-5.1-4.6c2.2,1.2,5.5,2.4,6.6,0.3
		c0.9-1.5-5.8-2.6-7.1-1c-0.3-0.1-0.7-0.3-1-0.4c0,0,0,0,0,0c-0.9-0.6-1.7-1.3-2.6-1.9c-4.2-3-9-6.4-14.2-6.9
		C232.4,434.5,232.3,435.1,232.7,435.2z M275.5,474.8c0.2,0.6,0.3,1.3,0.2,2c0,0.1,0.1,0.1,0.2,0.1c0.3-0.7,0.3-1.3,0.2-2.1
		c0.5,1.1,0.7,2.3-0.3,3.1c-0.8,0.6-0.9-1.7-0.9-2c0-0.5,0.3-1.1,0.4-1.7C275.3,474.4,275.4,474.6,275.5,474.8z M272.7,467.4
		c0.4-0.1,0.8,0,1.2,0c0.2,0,0.4,0.1,0.6,0.2c0.5,0.2-0.2,0.4-0.4,0.5c-0.6,0.3-1.3,0.4-1.9,0.3c0.4-0.1,0.7-0.3,1.1-0.4
		c0.2-0.1,0.1-0.4-0.1-0.4c-0.5,0.1-1,0.2-1.5,0.4c-0.4,0.1-0.8,0.1-1.2,0.1C271.2,467.8,271.9,467.5,272.7,467.4z M267,467.5
		c0-0.4-0.1-0.8-0.1-1.3c0-0.3-0.1-0.6-0.2-0.8c0,0,0,0,0,0c0,0,0.1,0.1,0.1,0.1c0.2,0.8,0.3,1.7,0.4,2.5c0.1,0.5,0.1,1,0,1.6
		c-0.1,0.3-0.5,1.3-0.9,0.7c-0.5-0.7-0.4-2-0.4-2.8c0-0.5,0.1-0.9,0.2-1.3c0.1,0.3,0.2,0.6,0.2,0.9c0.1,0.5,0.3,1.4,0,1.8
		c0,0.1,0.1,0.2,0.1,0.1C267,468.6,267,468.1,267,467.5z M268.3,459.7c0.5,0.4-0.4,0.8-0.7,0.8c-0.6,0.1-1.2,0-1.8-0.2
		c-0.2-0.1-0.5-0.1-0.7-0.2c0.6,0,1.2-0.2,1.8-0.5c0.1,0,0-0.2-0.1-0.1c-1,0.5-2,0.1-3.1,0C265.1,458.7,267.1,458.6,268.3,459.7z
		 M259.9,457.4c0,0.1,0,0.2,0,0.3c0.1,0.8,0.1,1.7-0.5,2.3c-0.1,0.1,0,0.2,0.1,0.1c0.6-0.4,0.8-0.9,0.9-1.6c0-0.3,0.1-0.6,0.1-1
		c0,0.3,0.1,0.7,0.1,1c0.1,1,0.2,2.5-0.5,3.4c-0.6,0.7-1.2-0.4-1.2-0.8c-0.1-0.6,0.1-1.2,0.2-1.8C259.4,458.7,259.6,458,259.9,457.4
		z M262.1,450.1c-0.1,1.7-2.3,0.8-4.2,0c0.6,0,1.2-0.1,1.8-0.2c0.2,0,0.2-0.3,0-0.3c-0.7,0-1.5-0.1-2.2-0.1
		C259.3,449.2,262.1,448.6,262.1,450.1z M254.6,450.8c0,0.7-0.2,1.4-0.7,1.9c-0.1,0.1,0,0.2,0.1,0.1c0.7-0.4,1.1-1.4,1.1-2.3
		c0,0.6,0,1.1-0.1,1.6c-0.1,0.7-0.3,1.4-0.8,1.8c-0.5,0.5-0.8,0.1-0.7-0.5c0.1-1.2,0.6-2.3,1-3.5
		C254.6,450.3,254.6,450.5,254.6,450.8z M252.3,444.2c0.6,0,1.1,0,1.7-0.1c0.2,0,0.2-0.3,0-0.3c-0.4-0.1-0.8-0.1-1.2-0.2
		c0.6-0.1,1.2-0.1,1.9,0c0.4,0,0.9,0.1,1.3,0.2c0.4,0.1,0.7,0.2,1.1,0.4c0.8,0.5-1,1.1-1.1,1.1c-1.5,0.3-2.9-0.5-4.2-1.1
		C251.9,444.2,252.1,444.2,252.3,444.2z M246.5,443c0,0.3,0.1,0.6,0.1,0.9c-0.1,0.7-0.2,1.4-0.3,2.1c0,0.1,0.2,0.2,0.2,0.1
		c0.3-0.7,0.7-1.7,0.8-2.7c0.3,1.4,0.1,3.1-0.8,4.1c-1,1.3-0.8-1.1-0.7-1.7C245.8,444.9,246,443.9,246.5,443z"/>
	<g>
		<path fill="#E1E1D6" d="M276.8,473.2c0,0,0,0.1,0,0.1c0,0.3,0.5,0.2,0.5-0.1c0-0.3,0.1-0.5,0.2-0.8c0.5-0.6,1.2-1,1.9-1.4
			c0.8-0.4,1.7-0.7,2.3-0.9c0.4-0.1,0.9-0.3,1.3-0.4c2.3-0.7,4.6-1,6.9-1c0,0,0,0,0,0c0.8,1.1,1.7,2,2.5,3c0.5,0.6,0.9,1.4,1.5,1.9
			c-0.3,0.7-0.1,1.7,0.1,2.3c0.3,0.9,1.1,1.4,2,1.1c1.5-0.5-0.3-2.5-1.3-3.3c0,0,0,0,0,0c-1.2-1.9-2.9-3.5-4.5-5.1
			c0.8,0,1.7,0,2.6,0.1c3.1,0.2,6.1,0.8,9.1,1.5c0.6,0.1,1.2,0.3,1.8,0.4c0,0,0,0,0,0c1.3,0.3,2.1,1.6,2,2.9c0,0.8-0.7,1.3-1.5,1.3
			c-0.4,0-0.8-0.2-0.9-0.6c-0.2-0.4,0.3-1.1,0.3-0.6c0,0.3,0.6,0.3,0.6,0c0.1-1.1-1.1-1.2-1.5-0.3c-0.6,1.3,1,2.1,2.1,1.8
			c1.9-0.4,1.6-3.1,0.4-4.3c1.4,0.3,2.8,0.6,4.2,0.8c0.1,0.8,0.2,1.7,0.7,2.4c0.3,0.5,1.2,0.7,1.5,0c0.2-0.5-0.3-1.7-0.9-2.3
			c1.9,0.2,3.7,0.3,5.6,0.3c0.9,0.4,1.8,0.8,2.6,1.4c0.7,0.5,1.3,1.2,2,1.8c-0.7,0.1-1.2,1-1.5,1.5c-0.3,0.6-0.7,1.8-0.1,2.4
			c0.6,0.6,1.5,0,1.8-0.6c0.3-0.5,0.3-1.2,0.2-1.9c0.2,0.5,0.4,0.9,0.6,1.3c0.3,0.5,0.8,1.5,1.5,1.4c0.8,0,1-1.3,0.9-1.9
			c-0.3-1.1-1.5-1.8-2.5-2c-0.1,0-0.1,0-0.1,0.1c0,0,0,0,0-0.1c-0.5-0.9-1.6-1.7-2.4-2.3c-0.6-0.4-1.3-0.8-2.1-1.1
			c3.3-0.1,6.6-0.7,9.7-1.9c1.2,0.1,2.5,0.7,2.8,2c0.2,0.9-0.3,2.2-1.4,1.9c-0.5-0.1-0.7-0.6-0.6-1.1c0.1-0.3,0.2-0.1,0.4,0
			c0.2,0.1,0.3-0.1,0.3-0.2c0-0.3-0.4-0.7-0.8-0.5c-0.4,0.2-0.6,0.6-0.6,1.1c0,1.2,1.7,1.9,2.5,1c1.6-1.7,0-3.9-1.9-4.4
			c0,0,0,0,0.1,0c2.5-1.1,4.9-2.5,7.4-3.6c0,0,0.1,0,0.1,0c0,0,0,0-0.1,0c0,0-0.1,0-0.2,0c-0.1,0-0.2,0.1-0.2,0.2
			c-0.1,0.4,0.4,0.9,0.6,1.2c0.2,0.4,0.6,0.8,1,1c0.6,0.4,1.7,0.5,2.1-0.2c0.5-0.8-0.1-1.7-0.8-2.2c-0.4-0.3-1-0.5-1.6-0.5
			c0,0,0,0,0,0c0.2-0.1,0.3-0.1,0.5-0.2c0.4-0.1,0.8-0.3,1.3-0.4c0,0,0,0,0,0c0,0,0,0,0,0c0.1,0,0.1-0.1,0.2-0.1
			c0,0.1,0.2,0.2,0.3,0.2c0.5-0.1,0.9-0.1,1.4,0.1c0.4,0.1,0.8,0.4,1.2,0.5c0.1,0.1,0.2-0.1,0.1-0.2c-0.4-0.4-1-0.8-1.6-1
			c0.8-0.2,1.6-0.5,2.5-0.6c0.8,0,1.5,0.2,2.2,0.5c0.4,0.2,0.8,0.4,1.2,0.6c0.2,0.1,0.3,0.3,0.5,0.4c0,0,0,0.1,0,0.1
			c0.2,0.7,0.9,1.3,1.5,1.7c0.4,0.3,1.2,0.9,1.7,0.5c0.5-0.4-0.2-1.4-0.5-1.7c-0.4-0.4-1.4-1-2.1-0.7c-0.3-0.6-1.3-1-1.9-1.3
			c-0.4-0.2-0.9-0.3-1.4-0.4c2.5-0.4,5-0.5,7.4,0.1c-0.2,0.1-0.2,0.3,0,0.4c0,0,0,0,0.1,0c0.1,0.8,0.3,1.5,0.8,2.2
			c0.4,0.4,1.1,0.8,1.5,0.1c0.5-0.9-0.5-3.4-1.8-2.8c-0.5-0.2-1-0.3-1.5-0.5c0.6-0.1,1.2-0.4,1.7-0.8c0.6-0.5,0.8-1.8,0.1-2.3
			c-0.5-0.4-1.7-0.6-1.8,0.3c-0.1,0.8,0.8,1,1.3,0.5c0.1-0.1,0.1-0.2,0.1-0.4c0.3,0.2,0.3,0.7,0.2,1.1c-0.3,1.1-2,1.4-2.9,1.4
			c0,0-0.1,0-0.1,0c-1.9-0.2-3.9,0-5.9,0.4c1-0.5,1.7-1.6,2.2-2.5c0,0.1,0.1,0.1,0.2,0c0.2-0.1,0.3-0.2,0.5-0.4
			c0.3-0.1,0.6-0.1,0.9-0.2c0.5-0.2,0.8-0.6,1.1-1c0.2-0.4,0.4-1.2-0.2-1.4c-0.5-0.2-1.2,0.2-1.5,0.5c-0.5,0.4-1,1-1,1.7
			c-0.1,0-0.2,0-0.3,0.2c-0.3,0.7-0.7,1.3-1.1,1.9c-0.4,0.5-1,0.9-1.5,1.3c-1.4,0-3,0.8-4.2,1.3c-1.3,0.5-2.6,1.1-3.9,1.7
			c-1.3,0.5-2.5,1-3.8,1.6c0.5-0.5,1.1-1,1.4-1.7c0.3-0.5,0.4-1,0.6-1.5c0.2-0.4,0.4-0.8,0.6-1.2c0.1-0.2-0.2-0.4-0.4-0.3
			c-0.6,0.4-0.8,1.5-1,2.1c-0.4,1.1-1.2,1.7-1.8,2.7c0,0,0,0,0,0c-1.2,0.5-2.5,1.1-3.8,1.6c0.3-0.1,0.5-0.3,0.8-0.5
			c0.7-0.5,1.4-1.2,1.1-2.1c-0.5-1.7-2.5,1.2-2.8,1.7c-0.1,0.1-0.5,0.7-0.4,1.1c-0.1,0.1-0.3,0.2-0.4,0.2c-0.1,0-0.1,0.1,0,0.2
			c0,0,0,0,0,0c-0.7,0.2-1.5,0.4-2.2,0.6c-2.6,0.5-5.4,0.6-8.1,0.4c1.4-0.7,2.9-1.5,3.8-2.8c0.2-0.3-0.2-0.6-0.4-0.3
			c-1.1,1.4-2.6,2.2-4.2,3c-2.4-0.2-4.7-0.5-7-0.9c-2.4-0.5-4.9-1.1-7.3-1.6c2-0.7,3.9-1.5,5.6-2.7c0.1,0.1,0.2,0.1,0.3,0
			c0.8,0.2,1.9-0.1,2.5-0.4c0.7-0.3,1.6-1.2,1.3-2c-0.3-0.9-1.4-0.7-2.1-0.4c-0.9,0.3-1.8,1.3-2.2,2.2c-1.2,0.6-2.2,1.5-3.4,2
			c-0.9,0.4-1.9,0.6-2.6,1.2c-1.4-0.3-2.8-0.5-4.2-0.7c0.8-0.1,1.6-0.6,2-1.2c0.4-0.5,0.5-1.5-0.1-1.9c-0.6-0.3-1.3,0-1.8,0.3
			c-0.6,0.4-1.2,1.5-0.9,2.3c0.1,0.1,0.2,0.2,0.3,0.1c0,0,0,0,0,0c-0.1,0-0.2,0-0.3,0.1c-0.1,0-0.1,0.1-0.1,0.2
			c-2.7-0.3-5.4-0.2-8.2,0.5c-1.4,0.4-5,1.2-6.8,2.7c-0.5,0.4-0.9,0.8-1.2,1.3C276.5,472.9,276.6,473.1,276.8,473.2z M294.6,474.7
			C294.6,474.8,294.6,474.8,294.6,474.7c0.3,0.4,0.5,0.8,0.6,1.2c0,0.2,0.3,0.1,0.3-0.1c0-0.5-0.1-0.9-0.3-1.3c0,0,0-0.1-0.1-0.1
			c0.7,0.7,1.6,1.7,1.2,2.1c-0.2,0.2-0.7,0.2-1,0c-0.3-0.2-0.5-0.6-0.5-0.9C294.6,475.4,294.6,475,294.6,474.7z M321.1,477.8
			c0,0.4-0.1,0.7-0.3,1c-0.2,0.3-0.8,0.5-1.1,0.2c-0.4-0.4,0.1-1.4,0.3-1.8c0.2-0.4,0.4-0.6,0.7-0.8c-0.2,0.5-0.3,1-0.5,1.5
			c-0.1,0.2,0.3,0.4,0.4,0.2c0.2-0.6,0.3-1.2,0.4-1.8c0,0,0,0,0,0C321.2,476.7,321.2,477.3,321.1,477.8z M321.8,475.8
			C321.8,475.8,321.8,475.8,321.8,475.8c0.8,0.5,1.7,1,2.1,1.9c0.2,0.5-0.1,1.9-0.7,1.3c-0.6-0.6-0.9-1.4-1.1-2.2
			c0.3,0.3,0.6,0.7,0.8,1.2c0.1,0.3,0.6,0.1,0.4-0.2c-0.3-0.6-0.8-1.3-1.5-1.7c0-0.1,0-0.1-0.1-0.2
			C321.8,475.9,321.8,475.8,321.8,475.8z M348.4,467c-0.3-0.3-0.6-0.6-1-0.9c0,0-0.1,0-0.1-0.1c0.4,0.1,0.8,0.4,1.1,0.7
			c0.2,0.2,0.4,0.5,0.5,0.8c0,0.1,0,0.1,0,0.2c0,0,0,0,0,0c-0.4-0.1-0.9-0.4-1.2-0.7c-0.1-0.1-0.2-0.2-0.3-0.3
			c0.3,0.2,0.5,0.4,0.8,0.5C348.3,467.4,348.5,467.1,348.4,467z M351.7,465.1c0.2,0.2,0.4,0.5,0.6,0.8c0.1,0.1,0.3,0,0.2-0.1
			c-0.2-0.4-0.5-1.1-1-1.5c0,0,0,0,0,0c0,0,0.1,0,0.1,0c0.3,0.1,0.6,0.3,0.8,0.7c0.3,0.5,0.5,1.1,0.3,1.6c-0.3,0.6-1-0.5-1.1-0.7
			c-0.1-0.3-0.2-0.6-0.2-1C351.6,464.9,351.6,465,351.7,465.1z M345.6,459.6c0.3-0.4,0.7-0.8,1.2-0.9c0.5-0.1,0.3,0.3,0.2,0.6
			c-0.2,0.5-0.6,0.8-1.1,1c0.2-0.2,0.4-0.5,0.5-0.8c0.1-0.2-0.1-0.4-0.3-0.2c-0.2,0.3-0.4,0.5-0.6,0.8c-0.1,0.1-0.1,0.1-0.2,0.2
			C345.4,460.1,345.5,459.9,345.6,459.6z M337.2,466.7c0.4,0.1,0.7,0.3,1,0.6c0.3,0.3,0.4,0.9,0.1,1.2c-0.6,0.5-1.5-0.3-1.9-0.7
			c-0.1-0.1-0.2-0.3-0.3-0.6c0.1,0.1,0.3,0.1,0.4,0.2c0.3,0.2,0.6,0.4,0.9,0.6c0.1,0.1,0.3-0.1,0.2-0.2c-0.4-0.6-1-1.2-1.7-1.5
			C336.3,466.5,336.7,466.6,337.2,466.7z M325.9,468.5c0.3-0.3,0.6-0.7,0.9-0.9c0.2-0.1,0.1,0.2,0.2,0.3c0,0.3-0.2,0.6-0.4,0.8
			c-0.2,0.2-0.5,0.5-0.7,0.6c0.2-0.3,0.4-0.5,0.6-0.8c0.1-0.2-0.1-0.3-0.2-0.2c-0.3,0.3-0.6,0.5-0.8,0.8
			C325.6,469,325.7,468.7,325.9,468.5z M310.5,473.3c0,0.1,0.2,0.1,0.3,0c0.2-0.3,0-0.7-0.2-1c0.5,0.5,0.9,1.3,0.8,1.8
			c-0.1,0.2-0.4,0.2-0.6,0.1c-0.3-0.2-0.4-0.6-0.4-0.8c0-0.2-0.1-0.3-0.1-0.5C310.4,473,310.5,473.2,310.5,473.3z M306.3,464.8
			c-0.4,0.1-0.8,0.2-1.1,0.4c0.2-0.2,0.4-0.4,0.6-0.6c0.3-0.2,1.9-1.1,1.9-0.3c0,0.8-1.1,1.3-1.7,1.5c-0.2,0.1-0.5,0.1-0.8,0.1
			c0.4-0.3,0.8-0.6,1.2-0.7C306.6,465.1,306.5,464.7,306.3,464.8z M294,466.4c-0.1,0.5-0.4,0.9-0.7,1.3c0.1-0.2,0-0.4,0.1-0.7
			c0.1-0.3,0.2-0.6,0.4-0.8c0.3-0.4,0.8-0.6,1.3-0.6c0.6,0.1,0.3,1,0.1,1.3c-0.3,0.5-0.7,0.7-1.2,0.8c0.2-0.4,0.4-0.9,0.3-1.3
			C294.3,466.3,294.1,466.2,294,466.4z"/>
		<path fill="#E1E1D6" d="M318.3,467.9c0,0.2,0.3,0.3,0.4,0.2c0,0,0.1,0,0.1,0c0.2,0.1,0.4-0.2,0.2-0.3c0,0,0,0,0,0
			c0,0,0-0.1,0.1-0.1c0.1-0.2,0-0.3-0.2-0.4c0,0,0,0,0,0c0-0.3-0.4-0.3-0.5,0c0,0.1-0.1,0.3-0.1,0.4
			C318.3,467.7,318.3,467.8,318.3,467.9C318.3,467.8,318.3,467.9,318.3,467.9z"/>
		<path fill="#E1E1D6" d="M319.1,466.5c0,0.2,0.1,0.3,0.2,0.4c0,0,0.1,0,0.1,0c0.1,0,0.1,0,0.2,0c0.1,0,0.2-0.1,0.3-0.2
			c0,0,0,0,0-0.1c0,0,0,0,0,0c0-0.1,0-0.3,0-0.4c0-0.3-0.5-0.4-0.6-0.1c0,0,0,0,0,0C319.2,466.2,319.1,466.3,319.1,466.5z"/>
		<path fill="#E1E1D6" d="M332.5,463c0.2-0.1,0.4-0.1,0.6-0.2c0,0,0.1-0.1,0.1-0.1c0.1,0,0.1,0,0.1-0.1c0,0,0,0,0,0
			c0-0.1,0-0.1,0-0.2c0,0,0,0,0,0c0,0,0.1-0.1,0.1-0.1c0.2-0.3-0.2-0.6-0.4-0.3c-0.1,0.1-0.1,0.2-0.2,0.3c0,0-0.1,0.1-0.1,0.1
			c-0.1,0-0.1,0-0.2,0c-0.2,0.1-0.2,0.2-0.3,0.4C332.2,462.8,332.3,463,332.5,463z"/>
		<path fill="#E1E1D6" d="M334.1,461c0.1-0.1,0.1-0.1,0.2-0.2c0.1,0,0.1,0,0.2-0.1c0,0,0.1-0.1,0.1-0.1c0,0,0,0,0,0c0,0,0,0,0,0
			c0.2-0.2,0.2-0.5-0.1-0.5c-0.1-0.1-0.3-0.2-0.4,0c-0.1,0.1-0.2,0.2-0.2,0.3c0,0,0,0,0,0l0,0c-0.1,0.1-0.1,0.2,0,0.3
			c0,0.1,0,0.1,0,0.2C333.6,461,333.9,461.2,334.1,461z"/>
	</g>
	<path fill="#E1E1D6" d="M343.2,470.9c1.2-5.1,3.7-9.4,6.7-13.7c0,0,0,0,0.1,0c1.2,0.9,3,1.1,4.5,1.2c0.6,0,2.2,0.2,2.1-0.8
		c-0.1-1.3-2.3-1.7-3.3-1.8c-0.8-0.1-1.8,0-2.6,0.3c0.1-0.1,0.1-0.1,0.2-0.2c1.8-2.5,3.6-4.7,5.7-6.8c0,0,0.1,0,0.1,0.1
		c0,0,0.1,0.1,0.2,0.1c1,0.4,2,0.7,3,0.9c0.6,0.2,2.4,0.7,2.8-0.1c0.5-1.1-1.2-1.8-1.9-2c-0.9-0.2-2.1-0.3-3.1,0
		c0.1-0.1,0.2-0.1,0.2-0.2c0.1,0,0.1-0.1,0.2-0.1c1.6-1.4,3.3-2.6,5.2-3.7c0.3-0.2,0.6-0.4,0.9-0.6c1.1,1.2,6.4,3,6.6,0.2
		c0.1-1.7-3-1.6-5.1-1.2c2.5-1.6,4.9-3.4,7.2-5.3c0.3,0.6,1.8,0.8,2.2,0.9c1.1,0.1,2.9,0.2,3.8-0.6c1-0.9-0.6-1.8-1.3-1.9
		c-1.2-0.1-2.4,0.2-3.5,0.6c0.7-0.6,1.4-1.3,2.1-1.9c1.8-1.7,3.6-3.5,5.1-5.6c0,0,0.1,0,0.1,0c0,0,0.1,0,0.1,0c0,0,0,0,0,0
		c0.5,0.3,1.2,0.3,1.8,0.5c0.7,0.1,1.3,0.1,1.9,0c0.6-0.1,1.7-0.6,1.4-1.4c-0.4-0.9-1.5-1.3-2.4-1.1c-0.7,0.1-1.5,0.4-2.1,0.9
		c1-1.9,1.3-3.9,2.2-5.8c0.1-0.1-0.1-0.2-0.2-0.1c-0.4,0.8-0.7,1.6-0.9,2.4c-0.5,1.8-1.3,3.3-2.5,4.8c-1.1,1.4-2.4,2.8-3.7,4.1
		c0-0.2,0-0.5-0.1-0.7c0.2-0.6,0.3-1.2,0.2-1.8c0-0.5-0.5-2.5-1.3-2.3c-0.8,0.1-0.9,1.3-0.9,1.9c-0.1,1.2,0.2,2.9,1.2,3.7
		c-0.6,0.6-1.3,1.2-1.9,1.7c-1.9,1.7-3.9,3.1-5.9,4.5c0-0.1,0-0.2,0-0.3c0.5-1,0.8-2.1,1-3.1c0.1-0.7-0.2-2.5-1.4-2.1
		c-1.1,0.4-1.3,2-1.4,2.9c-0.1,1,0,2.5,0.8,3.3c-2.3,1.5-4.6,2.9-6.9,4.4c-0.7,0.5-1.4,1-2.1,1.6c0,0,0,0,0,0c1.2-2,2.7-5.6-0.1-5.7
		c-1.2-0.1-1.4,1.7-1.4,2.5c0,0.9,0.1,1.8,0.2,2.6c0.1,0.4,0.1,1,0.4,1.4c-1.7,1.5-3.2,3.3-4.6,5.1c1.2-2.2,2.4-5.5,0.3-6.6
		c-1.6-0.9-2.6,5.8-1,7.1c-0.1,0.3-0.3,0.7-0.4,1c0,0,0,0,0,0c-0.6,0.9-1.3,1.7-1.9,2.6c-3,4.2-6.3,9-6.9,14.2
		C342.6,471.2,343.1,471.3,343.2,470.9z M382.7,428c0.6-0.2,1.3-0.3,2-0.2c0.1,0,0.1-0.1,0.1-0.2c-0.7-0.3-1.3-0.3-2.1-0.2
		c1.1-0.5,2.3-0.7,3.1,0.3c0.6,0.8-1.7,0.9-2,0.9c-0.5,0-1.1-0.3-1.7-0.4C382.3,428.2,382.5,428.1,382.7,428z M375.3,430.8
		c-0.1-0.4,0-0.8,0-1.2c0-0.2,0.1-0.4,0.2-0.6c0.2-0.5,0.4,0.2,0.5,0.3c0.3,0.6,0.4,1.3,0.3,1.9c-0.1-0.4-0.3-0.7-0.4-1.1
		c-0.1-0.2-0.4-0.1-0.4,0.1c0.1,0.5,0.2,1,0.4,1.5c0.1,0.4,0.1,0.8,0.1,1.2C375.7,432.3,375.4,431.6,375.3,430.8z M375.4,436.5
		c-0.4,0-0.8,0.1-1.3,0.1c-0.3,0-0.6,0.1-0.8,0.2c0,0,0,0,0,0c0,0,0.1-0.1,0.1-0.1c0.8-0.2,1.7-0.3,2.5-0.4c0.5-0.1,1-0.1,1.6,0
		c0.3,0,1.3,0.5,0.7,0.9c-0.7,0.5-2,0.4-2.8,0.4c-0.5,0-0.9-0.1-1.3-0.2c0.3-0.1,0.6-0.2,0.9-0.2c0.5-0.1,1.4-0.3,1.8,0
		c0.1,0,0.2-0.1,0.1-0.1C376.5,436.5,376,436.5,375.4,436.5z M367.6,435.2c0.4-0.5,0.8,0.4,0.8,0.7c0.1,0.6,0,1.2-0.2,1.8
		c-0.1,0.2-0.1,0.5-0.2,0.7c0-0.6-0.2-1.2-0.5-1.8c0-0.1-0.2,0-0.1,0.1c0.5,1,0.1,2,0,3.1C366.7,438.4,366.6,436.5,367.6,435.2z
		 M365.3,443.6c0.1,0,0.2,0,0.3,0c0.8-0.1,1.7-0.1,2.3,0.5c0.1,0.1,0.2,0,0.1-0.1c-0.4-0.5-0.9-0.8-1.6-0.8c-0.3,0-0.6-0.1-1-0.1
		c0.3,0,0.7-0.1,1-0.1c1-0.1,2.5-0.2,3.4,0.5c0.7,0.6-0.4,1.2-0.8,1.2c-0.6,0.1-1.2-0.1-1.8-0.2
		C366.6,444.2,365.9,443.9,365.3,443.6z M358,441.5c1.7,0.1,0.8,2.3,0,4.2c0-0.6-0.1-1.2-0.2-1.8c0-0.2-0.3-0.2-0.3,0
		c0,0.7-0.1,1.5-0.1,2.2C357.1,444.3,356.6,441.4,358,441.5z M358.7,449c0.7,0,1.4,0.2,1.9,0.7c0.1,0.1,0.2,0,0.1-0.1
		c-0.4-0.7-1.4-1.1-2.3-1.1c0.6,0,1.1,0,1.6,0.1c0.7,0.1,1.4,0.3,1.8,0.8c0.5,0.5,0.1,0.8-0.5,0.7c-1.2-0.1-2.3-0.6-3.5-1
		C358.2,449,358.5,448.9,358.7,449z M352.2,451.3c0-0.6,0-1.1-0.1-1.7c0-0.2-0.3-0.2-0.3,0c-0.1,0.4-0.1,0.8-0.2,1.2
		c-0.1-0.6-0.1-1.2,0-1.9c0-0.4,0.1-0.9,0.2-1.3c0.1-0.4,0.2-0.7,0.4-1.1c0.5-0.8,1.1,1,1.1,1.1c0.3,1.5-0.4,2.9-1.1,4.2
		C352.2,451.7,352.2,451.5,352.2,451.3z M351,457.1c0.3,0,0.6-0.1,0.9-0.1c0.7,0,1.4,0.2,2.1,0.3c0.1,0,0.2-0.2,0.1-0.2
		c-0.7-0.3-1.7-0.7-2.7-0.8c1.4-0.3,3.1-0.1,4.1,0.8c1.3,1-1.1,0.8-1.7,0.7C352.9,457.8,351.9,457.6,351,457.1z"/>
	<path fill="#203F1F" d="M291,473.4c-1.4,0.7-3.5,0.4-4.9,1.4c-1-0.5-4-1.3-5-0.7c1.1,0.6,2.7,0.3,3.7,1.2c-1.6,0.2-3.4-0.2-4.9-1
		c-0.3-0.2-2.4-0.7-2.4-0.1c1.2-0.5,3.9,1.7,5.3,1.7c-0.8,0.5-6.7-2-6.8-1.4c0,0.1,3.3,1.6,3.4,1.6c0,0,0.9,0.2,1.1,0.3
		c-1.2,0.3-2.9-0.1-4-1c-0.1-0.3-2.7-1.2-3.3-0.6c1,0.2,4.7,1.7,4.7,2.2c-1.2,0.4-8.2-2.9-8.4-2.3c0.2,0.3,2.5,0.9,2.3,1.1
		c0.5-0.2,2.6,1.2,3.1,1.4c-2.6-0.3-5.5-1.9-7.9-1.2c0.9,0.7,2.9,0.8,4,1.1c-1.1,0.2-2.7,0-3.7,0.6c0.7,0.2,1,0.3,2.1,0.2
		c1.2-0.1,2.5-0.3,3.8-0.1c-0.3,0.2-1.2,0.5-1.5,0.5c-0.8,0-0.3,0.2-0.3,0.2c-0.6,0.2-1.4,0.2-1.9,0.5c0.3,0.2,0.6,0.2,0.8-0.1
		c0.9,0.7,3.7-0.5,4.8-1.1c-0.2,0.9-1.9,1.2-2.4,2c2.2,0,3.1-2.3,5.4-2.3c-1.1,1-2.3,1.9-3.5,2.9c0.8,1.3,5.6-4.4,6.4-3.6
		c-0.8,0.6-2.8,1.9-3,2.8c1.2,0,4-3.2,4.7-2.8c-0.6,1-2.1,1.4-2.5,2.4c1.3,0.1,1.9-1.2,3-1.5c-0.1,0.2-0.2,0.4-0.2,0.7
		c1.2,0.1,2.5-1.7,3-2.4c0.9-1.2,3.3-1.4,4.9-1.7c3.7-0.6,7.8-0.1,11.6,0c1.2,0,3.8-0.3,4.9,0.2c0.4-0.3,2.1-0.1,2.4,0.1
		c0.4,0.3,2.7-0.8,3.5-0.7c1.4,0.1,2.6-0.6,4-0.4c-2.1,1.1-3.7,2.5-5.6,3.7c-1.3,0.8-1.5,1.2-3.1,0.8c-1.1-0.3-2.1-0.5-3.2-0.3
		c1.3,0.5,2.8,0.6,4.1,1.1c-0.9-0.1,0.2,0.6-1.3,0.2c-0.6-0.2-1.1-0.3-1.7-0.5c-1.2-0.3-2.4-0.3-3.5,0.1c0.2,0.3,4.4,0.7,5.2,0.9
		c-0.3,1.6-5.2-0.5-6.7,0c0.4,0.6,3.7,0.8,4.6,1.1c-1.5,1.6-5.4-1.3-7.2-0.6c1.6,0.8,3.4,1.1,5,1.7c-2.8,1.3-4.8-1.5-7.7-1.2
		c1.4,0.7,3.5,1.8,4.9,2c-1.4,0.7-4.2-0.3-5.7-0.8c-0.3-0.1-2.9-0.4-2.6,0.3c1.8,0,3.5,0.4,5.1,0.9c-2.7,0-5.1,0.4-7.3,1.3
		c0.1,0.2,4.8-0.6,5.6-0.5c-0.5,0.1-3.7,1.4-3.6,1.8c1.5-0.3,4.8-2.4,6.1-2c-0.8,1.2-2.8,2-4.2,2.7c2.9,0.5,4.6-2.9,7.2-3.1
		c-0.7,1.1-3.2,2.1-3.3,3c2.9-0.3,3.5-3.5,6-3.8c-0.4,0.6-3.6,3.9-1.3,2.1c1.1-0.8,2.1-2.8,3.5-3.2c0.1,0.8-2.3,3.3-1.9,3.7
		c1.1-0.5,3.3-5,4.1-4.6c-0.3,0.5-1.8,2.5-1,2.9c0.7-0.6,1.6-3.9,2.2-4c0.8,1-0.9,2-0.3,2.8c0.8-0.6,1.2-1.4,1.2-2.3
		c0-1.4,0-1.3,1.4-2.3c2-1.4,4-2.7,6.2-3.9c2.5-1.3,4.7-0.5,7.4-1.4c1.3-0.4,3.4-0.4,4.5-1.1c1.3-0.9,1.7-1.6,3-2.7
		c1.5-1.3,0.2-0.3,1.4-1.8c-0.9-0.1,0.7-0.6,0,0c-0.7,0.6-0.7-0.1-1.3,0.5c-1.6,1.5-1.3,2.2-3.4,3c-4.3,1.5-10.3,1.7-14.9,1.3
		c-0.7-0.1-1.9-0.6-2.5-0.4c-0.2-0.2-0.5-1-0.8-1.1c0.6-0.3-0.8-1.6-1.5-1.6c-0.3,0.2,1.1,1.6,1.2,1.9c-1.5-0.2-3.1-2.5-3.8-3.4
		c-1.2,0.4,2.5,3.2,2.9,3.7c-1.9,0.4-3.3-2.6-4.7-3.6c-0.8,0.4,2,2.8,2.3,3.2c-1.6,0.4-4.5-3.8-4.8-3.6c-0.4-0.5-1-0.2-0.2,0.6
		c0.8,0.8,1.6,1.6,2.4,2.4c-0.8,0.1-1.8-0.7-2.3-1.1c-0.4-0.4-2-2.5-2.8-2.6c0,0.1-0.1,0.2-0.2,0.2c0.8,0.9,1.8,1.9,2.6,2.9
		c-1.8-0.4-2.2-1-3.6-2c-0.3-0.2-1.9-1.6-2.2-1.3c-0.6,0.5,2.1,2,2.5,2.3c-1.9,0.3-3.4-2.5-5.2-1.2c0.9,0.1,2.2,0.3,2.7,1.1
		c-1-0.1-2.3-0.3-3.2,0.1c0.8,0.4,1.8,0.2,2.6,0.4c-0.6,0.5-1.9,0-2.2,0.8c2.3,0.4,3.6-0.9,6-0.2c-1.2,0.7-3.1,0.2-4.3,1
		c2.3,0.5,4.5-1.1,6.7-0.3c-0.9,0.6-3.3,0.3-3.7,1.2c1.3,0,2.6-0.3,3.9-0.6c1.6-0.4,0.8,0.1,2.1,0.3c-0.5,0.1-3.3,0.7-3.2,1.1
		c1.2,0.2,2.4-0.2,3.5-0.6c1-0.3,1.9,0,2.9,0.2c-1.1,0.8-2.7,0.5-3.8,1.2c2.1,0.8,4.1-1.6,6.2-0.8c-0.8,0.7-1.8,1.1-2.8,1.6
		c1.1,0.5,2.3-0.7,3.3-0.9c-0.2,0.2-0.4,0.4-0.5,0.6c1.3,0.2,1.5-1.1,3-0.8c1.4,0.3,3.2,0.4,4.6,0.3c-0.8,0.2-1.8,0.3-2.6,0.2
		c-0.4,0.5-1.2,0.7-1.9,0.7c-1.2,0.1-2.2,0.2-3.2,0.3c-2.7,0.2-5.7-0.5-8.5,0c-3.3,0-7.3-0.9-10-2.8c-1.4-1-1.5-1.2-1.2-2.8
		c0.2-1.1,0.4-2,0.1-3.1c-0.1,0-0.2,0-0.3,0c-0.1,1.3-0.5,2.6-0.6,4c-0.7,0.5-0.3-2.8-0.3-3c0.1-1,0.1-2.1-0.7-2.9
		c-0.5,0.1,0.1,3.6-0.3,4.5c-1-0.4-0.9-1.7-0.9-2.5c0.1,0,0.1,0,0.1,0.1c0.2-0.5-0.7-4.4-1.4-4.3c0.1,0.8,1.2,4.9,0.5,5.2
		c-1.2-1-1.5-2-1.7-3c0.5-0.4-0.9-3.3-1.5-3.8c-0.6,0.3,0.5,2.4,0.6,2.9c-0.1,0-0.1,0-0.1-0.1c-0.1,0.5,0.6,1.1,0.5,1.7
		c-2.1,0.2-1.1-3.6-2.7-3.9c0.2,0-1.1-1.5-1.4-1.9c0.1,0.4-0.3-0.2-0.5-0.2c0,0.9,1.6,3.2,2,3.9c-1.3-0.3-1.6-1.4-2.2-1.9
		c-1-0.8-2.7-3-4.1-2.5c1.2,0.7,2.2,1.6,3.1,2.6c-1.1-0.1-2.1-0.7-3.2-1c-0.7-0.2-0.6,0.4-1,0.4c0.4,0.2,2,0.7,2,0.7
		c1.1,0.5,2.5,0.7,3.2,1.4c-1.4,0-2.2-0.7-3.5-0.3c1.3,0.3,2.5,0.8,3.8,1.1c0.1,0,2.4,1,2,1.2c-1.1,0.6-3.2-1.4-3.9-0.3
		c1.1,0.6,2.4,0.7,3.6,0.9c0.9,0.2,1.3,0,1.9,0.7c0.2,0.2,0.7,0.8,1,0.9c-1.4,0-2.8-1.6-4.2-0.7c0.8,0.5,5.1,1.3,5.2,1.8
		c-1,0.2-1.8-0.7-2.8-0.3c-0.1,0.8,1.3,0.8,2,0.9c1.8,0.4,1.7,0.5,3,1.4c-1.3,0.2-2.6-0.9-3.8-0.2c1.3,1,4.3,0.2,5.1,1.9
		c-0.2,0-0.3,0-0.1,0.1c-1.1,0.2-2.4-0.6-3.4,0c2.7,0.9,5.5,0.6,7.7,2.5 M283.1,477.8c0-0.5,1.3-1.6,1.8-1.9
		C284.3,476.6,284,477.3,283.1,477.8z"/>
	<path fill="#203F1F" stroke="#203F1F" stroke-width="0.25" stroke-miterlimit="10" d="M384.1,434c0.2-0.3,2.6,1.7,3.2,1.8
		c0-0.3-0.8-0.9-0.4-1.1c0.5-0.2-0.2-1.1-0.3-1.2c-0.2-0.3-1.4-1.9-1.4-1.8c-0.5,0.1-1.2-0.3-1.7-0.3c0-0.3-0.1-0.6-0.2-0.9
		c1-0.1,3.2,2.2,3.7,1.7c0-0.5-0.7-1.1-1-1.5c0.1,0,0.3,0,0.4-0.1c-0.1-0.8-1.9-1.9-1.9-1.8c-1.4,0.3-2.1-0.7-2.5-1.8
		c-0.5-1.2-0.8-2.5-1.3-3.7c-0.1-0.1-0.1-0.3-0.3-0.3c-0.1-0.1-0.3-0.1-0.4,0.1c-0.2,0.2-0.2,0.4-0.3,0.7c-0.1,0.3-0.4,0.4-0.5,0.7
		c-0.2,0.3-0.1,0.7-0.2,1c-0.1,0.5-0.4,0.9-0.4,1.4c-0.6,3.8-1.2,8.1-3.4,11.6c-1.1,1.7-2.5,3.2-4,4.6c-0.4,0.4-1.5,0.9-1.8,1.4
		c-0.3,0-1-0.3-1.2-0.2c0.2-0.5-1.5-0.5-1.9,0c0,0.3,1.7,0.3,2,0.5c-1,0.9-3.5,0.4-4.5,0.3c-0.5,1,3.6,0.4,4.1,0.5
		c-1,1.5-3.7,0.5-5.2,0.7c-0.3,0.9,3,0.5,3.5,0.6c-0.8,1.4-5.2,0.5-5.3,0.8c-0.5-0.1-0.8,0.5,0.2,0.5c1,0,2,0,3,0
		c-0.5,0.6-1.6,0.8-2.2,0.8c-0.5,0-2.8-0.3-3.4,0.1c0.1,0.1,0.1,0.2,0,0.3c1,0.1,2.3,0,3.5,0.1c-1.4,1-2,0.8-3.5,1.1
		c-0.3,0.1-2.2,0.3-2.2,0.6c-0.1,0.7,2.5-0.1,3-0.2c-1,1.5-3.7,0.6-4,2.7c0.6-0.5,1.6-1.3,2.4-1.1c-0.7,0.6-1.6,1.3-2,2.1
		c0.8-0.3,1.2-1.1,1.9-1.5c0,0.7-1.2,1.3-0.9,2c1.7-1.2,1.7-3,3.7-4.1c-0.3,1.3-1.8,2.1-2.1,3.5c1.7-1.2,2.2-3.7,4-4.7
		c-0.2,1-1.9,2.4-1.5,3.2c0.9-0.9,1.5-2,2-3c0.7-1.3,0.6-0.5,1.5-1.2c-0.2,0.4-1.6,2.7-1.3,2.9c0.9-0.7,1.4-1.8,1.8-2.7
		c0.4-0.8,1.2-1.3,1.9-1.8c-0.2,1.2-1.4,2.1-1.6,3.4c1.9-0.9,1.5-3.8,3.4-4.6c-0.1,1-0.4,1.9-0.8,2.9c1-0.4,1-2,1.5-2.8
		c0,0.3,0,0.5,0.1,0.8c0.9-0.7,0.3-1.8,1.4-2.5c1-0.7,2.3-1.9,3.1-2.9c-0.4,0.7-0.9,1.4-1.5,1.9c0.1,0.6-0.3,1.2-0.7,1.7
		c-0.7,0.9-1.2,1.6-1.8,2.3c-1.6,1.9-3.9,3.5-5.3,5.6c-2.1,2.2-5.2,4.3-8,4.8c-1.6,0.3-1.6,0.2-2.6-1c-0.6-0.8-1-1.6-1.9-2.1
		c-0.1,0.1-0.1,0.1-0.2,0.2c0.8,0.9,1.3,2.1,2.1,3c-0.1,0.8-1.9-1.6-2.1-1.7c-0.6-0.7-1.3-1.4-2.3-1.4c-0.2,0.4,2.3,2.3,2.6,3.1
		c-0.9,0.4-1.7-0.6-2.1-1c0,0,0.1-0.1,0.1,0c-0.2-0.4-3.2-2.5-3.6-1.9c0.6,0.4,3.8,2.4,3.6,3.1c-1.4,0.2-2.1-0.3-2.9-0.8
		c0.1-0.6-2.7-1.6-3.3-1.5c-0.2,0.6,1.9,1.2,2.2,1.4c0,0-0.1,0.1-0.1,0c0.3,0.4,1,0.3,1.4,0.8c-1.2,1.6-3-1.6-4.2-0.8
		c0.1-0.1-1.6-0.2-2-0.3c0.3,0.2-0.4,0.1-0.5,0.2c0.5,0.6,3,1.1,3.7,1.2c-1,0.7-1.9,0.1-2.6,0.2c-1.1,0.1-3.6-0.2-4.1,1.1
		c1.2-0.3,2.4-0.4,3.6-0.4c-0.8,0.7-1.8,0.9-2.6,1.4c-0.6,0.4-0.2,0.6-0.4,0.9c0.4-0.1,1.7-0.9,1.7-0.9c1-0.4,2-1.2,2.9-1.2
		c-0.9,0.9-1.8,1-2.4,2.1c1-0.6,2.1-1.1,3.1-1.8c0.1-0.1,2.1-1,2-0.6c-0.3,1.1-2.9,1.3-2.6,2.5c1-0.3,1.9-1.2,2.8-1.8
		c0.7-0.5,0.8-0.9,1.7-0.8c0.2,0,1,0.1,1.2-0.1c-0.9,1-2.8,0.8-3.1,2.4c0.8-0.2,4-2.6,4.4-2.2c-0.5,0.8-1.6,0.8-2,1.7
		c0.4,0.6,1.3-0.4,1.8-0.8c1.4-1,1.4-0.8,2.7-1c-0.7,1-2.2,1.1-2.5,2.4c1.5-0.2,2.9-2.7,4.4-2.2c-0.1,0.1-0.1,0.2,0,0.1
		c-0.6,0.9-1.8,1.2-2.1,2.3c2.3-1.2,3.8-3.2,6.4-3.5c-0.2,0.7-2.8,2.8-3.5,2.5c-1,0.7-2.6,1.4-3.8,1.9c-3.1,1.3-6.4,2.6-9.4,3.1
		c-0.5,0.1-1.7-0.3-2-0.1c-0.2,0.2-0.4,0.3-0.6,0.4l0,0c0,0,0,0,0,0c-0.4,0.2-0.9,0.2-1.3,0.3c-0.1,0-0.2,0-0.3,0.1
		c-0.2,0-0.4,0-0.6,0.1c-0.9,0.2-1.8,0.3-2.8,0.5c0,0-0.1,0-0.1,0c-0.6,0-1.1-0.2-1.3-0.6c-0.4-0.8-0.6-1.7-1.5-2.1
		c0.1,1,0.8,1.6,1.1,2.5c-0.7,0.8-2.4-3-3.6-2.9c0.6,1,1.7,1.8,2,3c-1.1-0.4-1.3-0.1-1.8-1.4c-0.3-1-1-2.4-2.2-2.5
		c0.9,0.8,1.6,2.5,2.1,3.8c-2.8,0.3-2.7-5.5-4.8-5.1c0.9,1.5,1.7,3.2,2.5,4.7c-1.5-0.1-1.8-0.8-2.2-2.1c-0.2-0.6-1.2-3.5-2-3.4
		c0.7,1,1.2,3.4,1.7,4.8c-2.4-0.8-1.9-4.1-3.9-5.2c-0.2,0.2,1.5,3.6,1.7,4.1c-1.1-0.1-2.1-4.9-4-4c0.8,1.1,2.1,1.8,2.6,3.1
		c-0.9-0.9-3.2-3.5-4.6-2.3c0.5,0.1,3.3,1.1,2.7,1.8c-1-0.1-1.9-0.7-3-0.5c-0.6,1,4.8,1,4.5,1.8c-0.8,0-1.9-0.3-2.6-0.1
		c1,1.3,3.3,0,4.3,1.1c-0.7,0.1-2.8,0.2-3.3,0.7c1.1,0.5,4.6-1,5,0.1c-1.1,0.6-2.4,0.2-3.3,1c0.4,0.3,2.1-0.1,2.8-0.2
		c1.3-0.2,1.7-0.2,3-0.1c-0.3,0.6-4.6,1-4.3,1.6c1.2-0.1,2.4-0.1,3.5-0.6c0.5-0.2,1.9-1.4,2.3-0.6c0.1,0.3-3.1,2-3.5,2.6
		c0.3,0.1,1.3-0.5,1.2-0.1c-0.1,0.5,1.1,0.1,1.3,0c0.4-0.2,2.6-0.8,2.5-0.9c0.2-0.5,1-1.1,1.2-1.5c0.3,0,0.6,0,1,0
		c-0.5,1-3.9,2.5-3.7,3c0.5,0.1,1.5-0.4,2-0.6c-0.1,0.1-0.2,0.3-0.2,0.4c0.8,0.1,2.8-1.4,2.8-1.4c0.3-0.9,1-1.4,1.8-1.6
		c0,0,0,0,0.1,0c0.5,0.1,1,0.1,1.6,0c0.2,0,0.9-0.2,1-0.2c0.4,0.1,1.6,0.1,1.7-0.1c0.4-0.1,0.7-0.1,1.1,0c-1.1,1.2-1.6,3.5-3.3,3.1
		c-0.6-0.1-3,0.3-2.9,1c0.5,0.1,3.4-0.6,3.3-0.1c-1,0.9-5.2,0-5.4,1.7c1.4-0.1,2.8-0.5,4.2-0.6c-0.7,0.8-3.5,1-3.5,0.8
		c-0.6,0.2-1.6-0.1-1.9,0.8c1.1-0.1,2.5,0.3,3.7-0.1c-0.9,2.3-5.2-0.2-5.6,1.2c0.6,0.7,2.6,0.6,3.8,0.6c-0.6,0.3-1,0.7-1.3,0.7
		c-0.8-0.5-2.4-0.7-3.3-0.6c-2.5,0.2,1.5,0.8,1.5,0.8c-0.2,0.6,1.1-0.1,0.9,0.6c-1.3,0.7-2.4-0.8-3.9-0.2c0.1-0.1,0.2-0.1,0.3-0.2
		c-0.4-0.1-1.6,0-1.8,0.6c0.9,0.4,2.7,0.5,3.6,0.6c-0.5,0.1-1.9-0.1-1.8,0.2c-0.7-0.2-3.3-0.1-3.8,0.9c0.5,0.2,1.7-0.4,2,0
		c-2.1,0.7-2,1.7,0.2,0.6c0.2,0,1.5-0.3,1.5-0.3c-0.2,0.1-1.9,1.6-2,1.4c-0.3,0.8,1.5-0.2,1.6-0.4c0.9-0.5,1.8-1.3,2.4-1.2
		c0.1-0.4,0.3-0.6,0.6-0.7c-0.4,0.6-2.9,2.6-2.5,2.9c0.6-0.6,1.3-0.7,1.9-1.2c-0.1,0-0.1,0.1,0,0.1c0.4-0.6,1-1.1,1.4-1.6
		c0.1,0.6-0.6,1.3-0.7,1.9c1.3,0.1,1.9-3.6,3.4-4c-0.6,0.4-1.9,3-1.7,3.5c0.8-0.8,2.7-5.1,3.5-5.2c-0.3,0.4-1.7,3.4-1.6,3.7
		c1.5,0.1,2.1-4.9,3.3-5.5c-0.3,0.3-0.3,0.5,0,0.5c0-0.1,0-0.1,0.1-0.2c-0.2,0.6-0.6,2.1-1,2.2c-0.1,0.6-0.6,1.1-0.7,1.7
		c1.5,0.4,2.3-5.1,2.9-5.1c-0.1,0.5-1,3.2-0.6,3.2c0.5-0.8,1.2-4,1.6-4.1c0.2,0.5-0.5,2.1,0.3,2.2c0.4-1.1,0.2-2.3,0.7-3.3
		c0.4-0.8,1.3-1.5,1.7-2.2c0.6-1.2,2.2-1.5,3.4-1.8c1.8-0.4,3.4-1.3,5.2-2c1.1-0.4,2.3-0.8,3.4-1.2c0.3-0.1,3.9-0.7,3.7-1.2
		c-0.4,0.2-0.7,0.3-1.1,0.4c0.4-0.7,1.4-1.1,2.1-1.3c-0.4,1.3-1.9,2.6-2.2,4.2c-0.9,0.4-3.3,1.8-3.6,2.8c1.1-0.4,1.9-1.6,3-1.7
		c-0.9,1.2-2.3,2.1-3.7,2.6c-0.3,0.1-1.9,1.1-1.5,1.5c0.4-1.1,3.5-1.4,4.4-2.4c-0.2,0.9-5.4,3.1-5.1,3.6c0,0.1,3.1-1.1,3.1-1.2
		c0,0,0.7-0.4,0.8-0.5c-0.5,1-1.9,1.9-3.1,2c-0.2-0.1-2.5,1-2.4,1.8c0.8-0.5,4-2,4.3-1.6c-0.5,1.1-7,3.6-6.7,4.1
		c0.3,0,2.2-1.1,2.2-0.8c0.2-0.5,2.4-0.9,2.8-1.1c-1.8,1.5-4.6,2.4-5.7,4.5c1-0.1,2.3-1.4,3.2-1.9c-0.6,0.9-1.6,1.8-1.9,2.8
		c0.6-0.3,0.8-0.4,1.4-1.2c0.7-0.9,1.4-1.9,2.3-2.6c-0.1,0.4-0.4,1.1-0.6,1.3c-0.5,0.5,0,0.3-0.1,0.3c-0.2,0.6-0.8,1-0.9,1.6
		c0.3-0.1,0.5-0.3,0.5-0.6c1-0.1,2-2.8,2.3-3.9c0.5,0.7-0.5,2.1-0.2,2.9c1.4-1.5,0.5-3.6,2-5.1c0,1.4-0.3,2.8-0.4,4.2
		c1.3,0.3,0.8-6.6,1.8-6.6c-0.1,0.9-0.5,3.1-0.1,3.8c0.8-0.8,0.5-4.8,1.2-4.9c0.2,1-0.4,2.3,0,3.3c0.8-0.8,0.5-2.1,0.9-3
		c0,0.2,0.1,0.4,0.3,0.6c0.8-0.8,0.5-2.8,0.4-3.6c-0.2-1.4,1.2-3.1,2-4.4c1.9-2.9,4.8-5.3,7.3-7.7c0.8-0.8,2.2-2.8,3.3-3.1
		c0.1-0.4,1.3-1.5,1.6-1.5c0.4-0.1,1.2-2.3,1.7-2.8c1-0.8,1.3-2.2,2.3-3c-0.6,2.1-0.8,4.1-1.2,6.1c-0.3,1.4-0.2,1.8-1.5,2.6
		c-0.8,0.5-1.7,1-2.2,1.9c1.1-0.6,2.1-1.5,3.3-2c-0.6,0.5,0.5,0.3-0.7,1c-0.5,0.3-0.9,0.5-1.3,0.8c-0.9,0.6-1.7,1.4-2.1,2.4
		c0.3,0,3.2-2.4,3.9-2.9c0.8,1.2-3.6,3.1-4.2,4.5c0.6,0.1,2.8-1.9,3.6-2.4c0.1,2.1-4.2,2.7-4.9,4.3c1.5-0.6,2.8-1.5,4.2-2.3
		c-0.9,2.7-3.9,2.2-5.6,4.4c1.3-0.5,3.3-1.1,4.3-1.9c-0.5,1.4-2.9,2.6-4.1,3.2c-0.3,0.1-2.1,1.7-1.4,1.9c1.1-1.2,2.4-2,3.8-2.8
		c-1.7,1.8-3,3.7-3.8,5.7c0.2,0,2.7-3.6,3.2-4.1c-0.3,0.4-1.4,3.4-1.1,3.6c0.8-1.2,1.5-4.8,2.6-5.4c0.3,1.4-0.5,3.2-0.9,4.6
		c2.2-1.6,1.1-4.9,2.5-6.8c0.3,1.2-0.7,3.5-0.2,4.2c1.6-2.2,0-4.6,1.4-6.5c0.1,0.7,0.2,5,0.5,2.2c0.2-1.3-0.4-3.2,0.2-4.4
		c0.5,0.5,0.7,3.7,1.1,3.7c0.4-1.1-1.1-5.5-0.3-5.8c0.2,0.5,0.5,2.8,1.2,2.6c0.1-0.9-1.4-3.7-1.1-4.1c1.1,0.1,0.7,1.9,1.6,2
		c0.1-0.9-0.1-1.8-0.7-2.3c-0.9-0.9-0.8-0.8-0.6-2.4c0.3-2.2,0.8-4.4,1.5-6.7c0.8-2.5,2.2-4.4,3.4-6.8c0.6-1.2,0.9-2.4,1.1-3.6
		c0.1-0.7,1-1.4,0.6-1.8c-0.1,0.1-0.2,0.1-0.3,0.2c0.2-2.1,0.4-4.3,0.6-6.4c1,0.1,0.1,2,0.9,2.2c0.5,0.9,1.6,2.9,0.8,3.9
		c-0.6,0.8-1.5,1.6-1.6,2.6c0.9-0.6,1.3-1.7,2.1-2.5c1,0.2-2.2,4-1.9,5c0.8-1.2,1.3-2.6,2.4-3.6c-0.1,1.2,0.2,1.3-0.9,2.4
		c-0.8,0.9-2,2.3-1.8,3.4c0.6-1.4,2-2.9,3.1-4.1c0.9,2.4-4.5,5.7-3.6,7.3c1.2-1.7,2.6-3.4,3.8-5.1c0.3,1.5-0.3,2.2-1.5,3.2
		c-0.5,0.5-3,3.2-2.8,3.8c0.8-1.2,2.9-3.1,4.1-4.3c-0.2,2.7-3.4,4.1-4,6.7c0.2,0.1,3-3.4,3.4-3.9c0.2,1.1-4.1,4.8-2.8,6
		c0.9-1.3,1.2-3,2.3-4.2c-0.6,1.4-2.6,5-1.1,5.6c0-0.5,0.2-3.7,1-3.5c0.1,1-0.2,2.1,0.2,3c1,0-0.2-5,0.6-5.2
		c0.2,0.8,0.2,1.9,0.5,2.5c1-1.7-0.8-3.1,0.1-4.7c0.3,0.6,0.8,2.5,1.5,2.7c0.2-1.3-2-3.7-1-4.7c0.8,0.7,0.7,2.1,1.7,2.5
		c0.2-0.6-0.6-1.9-0.9-2.5c-0.5-1-0.6-1.5-0.8-2.7c0.7-0.1,2,3.7,2.5,3.1c-0.4-1-0.7-2.1-1.4-3C384.9,435.4,383.4,434.8,384.1,434z
		 M329,478.6c-0.3-0.4,0.2-0.7,0.5-1.1C329.4,477.9,329.2,478.2,329,478.6z M354.7,468.5c-0.3-0.4-0.2-1.9,0-2.4
		C354.7,466.9,355,467.6,354.7,468.5z M385.5,430.2c-0.2,0-2.3-0.4-2.4-0.6C383.3,429.1,385.6,429.5,385.5,430.2z M383.8,432
		c1,0.3,2.1,1.1,2.5,2.5C385.2,434.2,383.8,433,383.8,432z"/>
	<path fill="#203F1F" stroke="#203F1F" stroke-width="0.25" stroke-miterlimit="10" d="M274.8,477.9"/>
	<path fill="#203F1F" stroke="#203F1F" stroke-width="0.25" stroke-miterlimit="10" d="M295.2,472.7c0.2,1-1.9,0.7-1.8,1.5"/>
	<path fill="#203F1F" stroke="#203F1F" stroke-width="0.25" stroke-miterlimit="10" d="M295.8,473.2c0.1-0.1,0.2-0.2,0.2-0.3
		c0-0.1,0-0.3-0.2-0.4c-0.2-0.1-0.5-0.1-0.7-0.1c-0.3-0.1-0.5-0.3-0.8-0.3c-0.3-0.1-0.6,0.1-1,0.1c-0.5,0-1-0.1-1.4,0
		c-3.8,0.5-8.1,1.2-12.1,0c-1.9-0.6-3.8-1.5-5.5-2.6c-0.5-0.3-1.3-1.2-1.9-1.3c-0.1-0.3,0-1-0.2-1.2c0.6,0,0.1-1.6-0.5-1.9
		c-0.3,0.1,0.2,1.7,0.1,2c-1.1-0.8-1.4-3.2-1.6-4.3c-1.1-0.2,0.6,3.6,0.7,4.1c-1.7-0.5-1.5-3.4-2.2-4.8c-0.9,0,0.4,3,0.5,3.5
		c-1.5-0.4-1.9-4.8-2.3-4.8c-0.1-0.6-0.7-0.6-0.4,0.4c0.3,1,0.6,1.9,0.9,2.9c-0.7-0.3-1.2-1.3-1.4-1.8c-0.2-0.4-0.5-2.8-1.1-3.3
		c-0.1,0.1-0.1,0.1-0.3,0.1c0.2,1,0.6,2.2,0.8,3.4c-1.3-1.1-1.3-1.7-2-3c-0.1-0.3-0.9-2.1-1.2-2c-0.7,0.1,0.8,2.4,1,2.8
		c-1.7-0.5-1.6-3.4-3.7-3.1c0.7,0.4,1.7,1.2,1.8,2c-0.8-0.5-1.7-1.2-2.6-1.3c0.5,0.6,1.4,0.9,2,1.4c-0.7,0.2-1.6-0.8-2.1-0.3
		c1.7,1.3,3.3,0.8,5,2.3c-1.3,0.1-2.6-1.1-3.9-1c1.6,1.3,4.2,1,5.6,2.5c-1,0.1-2.9-1.1-3.5-0.6c1.1,0.6,2.3,0.8,3.5,1.1
		c1.5,0.3,0.6,0.4,1.6,1.1c-0.4-0.1-3-0.8-3.1-0.5c0.9,0.7,2.1,0.8,3.1,1c0.9,0.1,1.6,0.8,2.3,1.3c-1.2,0.2-2.4-0.7-3.7-0.6
		c1.3,1.5,4,0.4,5.4,1.9c-1,0.2-1.9,0.1-3,0.1c0.7,0.8,2.2,0.4,3.1,0.7c-0.3,0.1-0.5,0.2-0.7,0.3c0.9,0.7,1.8-0.2,2.8,0.6
		c1,0.8,2.5,1.6,3.6,2.2c-0.8-0.2-1.6-0.5-2.2-0.9c-0.6,0.2-1.3,0-1.9-0.2c-1-0.4-1.9-0.7-2.7-1.1c-2.3-1-4.5-2.7-6.9-3.5
		c-2.7-1.4-5.6-3.8-6.9-6.3c-0.7-1.4-0.7-1.5,0.3-2.7c0.6-0.8,1.2-1.4,1.5-2.4c-0.1,0-0.2-0.1-0.2-0.1c-0.7,1-1.6,1.9-2.3,2.9
		c-0.8,0.1,1-2.3,1.1-2.5c0.5-0.7,1-1.6,0.7-2.6c-0.5-0.1-1.6,2.9-2.3,3.4c-0.6-0.7,0.1-1.7,0.4-2.3c0.1,0,0.1,0.1,0.1,0.1
		c0.3-0.3,1.5-3.8,0.8-4c-0.2,0.7-1.2,4.3-2,4.3c-0.5-1.3-0.3-2.1-0.1-3c0.6-0.1,0.7-3,0.5-3.6c-0.6,0-0.6,2.1-0.8,2.5
		c-0.1,0-0.1-0.1-0.1-0.1c-0.3,0.4,0,1.1-0.3,1.5c-1.9-0.7,0.7-3.3-0.4-4.2c0.1,0.1-0.2-1.6-0.3-2c-0.1,0.4-0.2-0.3-0.3-0.4
		c-0.4,0.7-0.2,3.2-0.1,3.9c-0.9-0.7-0.7-1.8-1-2.4c-0.5-1-0.8-3.5-2.2-3.6c0.7,1.1,1.1,2.2,1.4,3.3c-0.9-0.6-1.4-1.4-2.1-2.1
		c-0.5-0.4-0.7,0-1-0.1c0.2,0.3,1.4,1.4,1.3,1.3c0.7,0.9,1.7,1.6,2,2.4c-1.2-0.6-1.5-1.5-2.7-1.7c0.9,0.8,1.7,1.7,2.6,2.4
		c0.1,0.1,1.5,1.8,1.1,1.8c-1.1,0-2-2.4-3.1-1.8c0.6,0.9,1.7,1.5,2.5,2.2c0.7,0.5,1.1,0.5,1.3,1.4c0.1,0.2,0.2,1,0.4,1.2
		c-1.2-0.6-1.6-2.4-3.2-2.3c0.5,0.7,3.6,3.1,3.4,3.6c-0.9-0.3-1.2-1.3-2.2-1.4c-0.4,0.6,0.7,1.1,1.2,1.5c1.3,1,1.2,1.1,1.8,2.3
		c-1.1-0.4-1.7-1.8-3-1.7c0.6,1.3,3.4,2,3.3,3.6c-0.2-0.1-0.2-0.1-0.1,0c-1-0.3-1.7-1.4-2.8-1.4c1.8,1.8,4.2,2.7,5.2,5.1
		c-0.7,0-3.5-1.9-3.4-2.6c-1-0.7-2.1-2.1-2.9-3.1c-2.1-2.6-4.3-5.4-5.6-8.1c-0.2-0.4-0.2-1.7-0.5-1.9c-0.2-0.1-0.4-0.3-0.5-0.5l0,0
		c0,0,0,0,0,0c-0.3-0.4-0.5-0.8-0.7-1.2c0-0.1-0.1-0.2-0.1-0.3c0-0.2-0.1-0.4-0.3-0.6c-0.4-0.8-0.8-1.7-1.2-2.5c0,0,0-0.1-0.1-0.1
		c-0.2-0.6-0.2-1.1,0.2-1.4c0.6-0.6,1.5-1.1,1.6-2c-0.9,0.4-1.3,1.3-2.1,1.8c-1-0.4,2.2-3.2,1.8-4.3c-0.8,0.9-1.2,2.2-2.3,2.8
		c0.1-1.1-0.3-1.3,0.8-2.1c0.8-0.6,2-1.6,1.8-2.8c-0.5,1.1-2,2.2-3,3c-1.1-2.6,4.5-4.2,3.5-6c-1.2,1.3-2.6,2.5-3.8,3.8
		c-0.3-1.5,0.3-2,1.4-2.7c0.5-0.3,3-2.2,2.8-2.8c-0.8,1-2.9,2.1-4.2,3c0.1-2.5,3.4-3,3.9-5.3c-0.2-0.1-3,2.4-3.4,2.8
		c-0.3-1.1,4.1-3.4,2.7-5c-0.9,1-1.1,2.5-2.3,3.4c0.6-1.1,2.5-4,0.9-5.1c0,0.5-0.1,3.5-0.9,3.1c-0.2-1,0.1-2-0.4-3
		c-1.1-0.2,0.4,4.9-0.4,4.8c-0.2-0.8-0.3-1.9-0.7-2.5c-1,1.4,1,3.2,0.1,4.5c-0.3-0.6-1-2.6-1.6-3c-0.1,1.2,2.2,4.1,1.3,4.8
		c-0.8-0.9-0.8-2.2-1.9-2.8c-0.2,0.5,0.7,2,1,2.6c0.6,1.1,0.7,1.6,1,2.8c-0.7-0.1-2.2-4.1-2.8-3.6c0.5,1.1,0.8,2.2,1.6,3.2
		c0.3,0.4,1.9,1.4,1.2,2c-0.2,0.2-2.8-2.4-3.4-2.6c0,0.3,0.9,1.1,0.4,1.2c-0.5,0.1,0.3,1.1,0.4,1.2c0.3,0.4,1.5,2.2,1.6,2.2
		c0.6,0.1,1.3,0.6,1.8,0.7c0.1,0.3,0.1,0.6,0.3,0.9c-1.1-0.2-3.5-3-3.9-2.7c0,0.5,0.8,1.3,1.1,1.7c-0.1-0.1-0.3-0.1-0.4,0
		c0.1,0.8,2.1,2.3,2.1,2.3c1,0.1,1.6,0.6,2.1,1.3c0,0,0,0.1,0,0.1c0,0.5,0.2,1,0.4,1.5c0.1,0.2,0.4,0.8,0.4,0.9
		c0,0.4,0.3,1.5,0.6,1.6c0.2,0.3,0.2,0.7,0.3,1.1c-1.4-0.7-3.9-0.6-4-2.3c0-0.6-1.1-2.8-1.8-2.5c0,0.5,1.5,3.1,1,3.1
		c-1.2-0.7-1.5-5-3.1-4.7c0.5,1.3,1.3,2.5,1.7,3.8c-0.9-0.4-2-3.1-1.8-3.1c-0.4-0.5-0.4-1.6-1.3-1.6c0.4,1,0.4,2.5,1.1,3.5
		c-2.5-0.2-1.2-5-2.8-5c-0.5,0.8,0.2,2.7,0.5,3.8c-0.5-0.5-0.9-0.8-1-1c0.2-0.9-0.1-2.5-0.4-3.3c-0.9-2.4-0.3,1.6-0.3,1.6
		c-0.6,0,0.4,1-0.3,1c-1-1.1,0.1-2.5-0.9-3.8c0.1,0.1,0.2,0.2,0.2,0.3c0-0.4-0.5-1.5-1.1-1.6c-0.1,1,0.3,2.8,0.5,3.6
		c-0.3-0.5-0.4-1.8-0.7-1.6c0-0.7-0.9-3.2-1.9-3.3c-0.1,0.6,0.9,1.5,0.6,1.9c-1.3-1.8-2.2-1.5-0.6,0.4c0.1,0.2,0.7,1.3,0.7,1.3
		c-0.2-0.2-2.1-1.4-1.9-1.5c-0.9-0.1,0.6,1.4,0.8,1.4c0.7,0.8,1.8,1.3,1.8,1.9c0.4,0,0.6,0.1,0.8,0.4c-0.7-0.2-3.3-2-3.5-1.6
		c0.7,0.4,1,1,1.7,1.5c-0.1,0-0.1,0-0.1,0c0.7,0.2,1.3,0.6,2,0.9c-0.6,0.3-1.4-0.2-2.1-0.1c0.3,1.2,4,0.8,4.8,2.1
		c-0.5-0.5-3.4-1-3.8-0.6c0.9,0.5,5.6,1.1,6,1.9c-0.5-0.2-3.7-0.7-4-0.5c0.3,1.5,5.3,0.7,6.2,1.6c-0.4-0.2-0.6-0.1-0.4,0.1
		c0.1-0.1,0.1-0.1,0.2,0c-0.6,0-2.2,0-2.4-0.3c-0.6,0.1-1.2-0.3-1.8-0.2c0,1.6,5.5,0.8,5.8,1.4c-0.5,0.1-3.4,0-3.2,0.3
		c0.9,0.3,4.1,0,4.4,0.3c-0.4,0.4-2.1,0.1-2,0.9c1.1,0.1,2.3-0.5,3.4-0.3c0.9,0.2,1.8,0.9,2.6,1c1.3,0.2,2.1,1.7,2.7,2.8
		c0.9,1.6,2.2,2.9,3.4,4.5c0.7,1,1.4,2,2.2,2.9c0.2,0.2,1.8,3.5,2.3,3.2c-0.3-0.3-0.5-0.6-0.7-0.9c0.8,0.2,1.5,1,1.8,1.6
		c-1.4,0-3.1-1.1-4.6-1c-0.6-0.8-2.7-2.7-3.7-2.7c0.7,0.9,2.1,1.4,2.5,2.4c-1.4-0.5-2.7-1.6-3.6-2.8c-0.2-0.3-1.6-1.5-1.9-1
		c1.2,0.1,2.4,3,3.5,3.5c-0.9,0.1-4.5-4.3-4.9-3.9c0,0,2,2.7,2,2.7c0,0,0.6,0.6,0.8,0.6c-1.1-0.2-2.4-1.3-2.8-2.4
		c0-0.3-1.7-2.1-2.4-1.8c0.7,0.6,3.1,3.3,2.8,3.7c-1.2-0.2-5.4-5.7-5.9-5.3c0.1,0.3,1.7,1.8,1.4,1.8c0.5,0,1.6,2.1,1.9,2.3
		c-2-1.3-3.6-3.7-5.9-4.2c0.4,1,2,1.8,2.8,2.6c-1-0.3-2.2-1.1-3.3-1c0.5,0.5,0.6,0.7,1.6,1c1.1,0.4,2.2,0.8,3.1,1.5
		c-0.4,0-1.2-0.1-1.4-0.2c-0.7-0.3-0.3,0-0.3,0c-0.6-0.1-1.2-0.4-1.8-0.4c0.2,0.3,0.4,0.4,0.7,0.3c0.4,0.9,3.3,1.1,4.4,1.1
		c-0.5,0.7-2.1,0.1-2.8,0.6c1.8,0.9,3.6-0.5,5.4,0.4c-1.3,0.4-2.8,0.6-4.2,0.8c0.1,1.4,6.5-1.1,6.8-0.1c-0.9,0.1-3.1,0.3-3.7,1
		c0.9,0.5,4.7-0.9,5.1-0.3c-0.9,0.5-2.3,0.2-3.1,0.9c1,0.6,2.1-0.1,3.1,0c-0.2,0.1-0.4,0.2-0.5,0.4c1,0.6,2.8-0.3,3.6-0.7
		c1.3-0.5,3.3,0.3,4.8,0.7c3.3,1,6.4,3.1,9.5,4.8c1,0.5,3.3,1.3,3.9,2.2c0.4,0,1.8,0.8,1.9,1.1c0.2,0.4,2.6,0.5,3.1,0.9
		c1.1,0.7,2.4,0.6,3.5,1.3c-2.2,0-4.1,0.4-6.2,0.6c-1.4,0.1-1.8,0.3-2.9-0.7c-0.7-0.7-1.5-1.3-2.5-1.5c0.9,0.9,2,1.6,2.8,2.6
		c-0.7-0.4-0.1,0.6-1.2-0.4c-0.4-0.4-0.8-0.7-1.2-1.1c-0.8-0.7-1.8-1.2-2.9-1.4c0,0.3,3.2,2.4,3.8,2.9c-1,1.1-4-2.6-5.5-2.7
		c0.1,0.6,2.6,2.2,3.3,2.8c-2,0.6-3.8-3.3-5.5-3.5c0.9,1.3,2.2,2.3,3.4,3.4c-2.9-0.1-3.3-3.1-5.8-4.2c0.8,1.1,2,2.8,3.1,3.6
		c-1.4-0.1-3.3-2-4.2-3c-0.2-0.2-2.2-1.5-2.2-0.8c1.4,0.7,2.6,1.8,3.8,2.8c-2.2-1.1-4.4-1.8-6.6-2c0,0.2,4.2,1.5,4.8,2
		c-0.4-0.2-3.7-0.4-3.7-0.1c1.3,0.4,5,0.1,5.9,0.9c-1.2,0.6-3.2,0.4-4.6,0.4c2.2,1.6,5-0.4,7.3,0.5c-1,0.6-3.5,0.3-4.1,1
		c2.6,0.9,4.4-1.3,6.7-0.5c-0.6,0.3-4.7,1.6-2,1.1c1.3-0.2,3-1.3,4.3-1c-0.3,0.6-3.3,1.7-3.2,2.1c1.1,0.1,5-2.6,5.5-1.9
		c-0.5,0.3-2.6,1.3-2.1,1.8c0.9-0.2,3.1-2.4,3.6-2.2c0.2,1.1-1.6,1.2-1.5,2.1c0.9-0.1,1.6-0.6,2-1.3c0.6-1.1,0.5-1,2.1-1.2
		c2.2-0.3,4.5-0.5,6.8-0.5c2.6,0,4.9,0.9,7.5,1.3c1.3,0.2,2.6,0.2,3.8,0c0.7-0.1,1.6,0.5,1.9,0.1c-0.1-0.1-0.2-0.1-0.2-0.3"/>
	<path fill="#203F1F" stroke="#203F1F" stroke-width="0.25" stroke-miterlimit="10" d="M228.1,439.3c0.3-0.4,0.7,0,1.2,0.2
		C228.9,439.5,228.5,439.4,228.1,439.3z"/>
	<path fill="#203F1F" stroke="#203F1F" stroke-width="0.25" stroke-miterlimit="10" d="M245.1,461.1c0.3-0.4,1.8-0.7,2.3-0.7
		C246.5,460.6,246,461.1,245.1,461.1z"/>
	<path fill="#203F1F" stroke="#203F1F" stroke-width="0.25" stroke-miterlimit="10" d="M290.3,477.3"/>
</g>
<g>
	<path fill="#203F1F" d="M111.2,391.2v-20.9l14.3,15v-13.6h3v20.8l-14.3-14.9v13.7H111.2z"/>
	<path fill="#203F1F" d="M143.9,374.4h-7.9v4.7h7.6v2.8h-7.6v6.6h7.9v2.8h-10.8v-19.6h10.8V374.4z"/>
	<path fill="#203F1F" d="M148.8,371.6l5.1,13.1l5.3-14.1l5.1,14.1l5.4-13.1h3.2l-8.8,20.8l-5-13.9l-5.3,13.9l-8.3-20.9H148.8z"/>
	<path fill="#203F1F" d="M186.4,371.6v16.8h5.8v2.8h-8.7v-19.6H186.4z"/>
	<path fill="#203F1F" d="M205.7,374.4h-7.9v4.7h7.6v2.8h-7.6v6.6h7.9v2.8h-10.8v-19.6h10.8V374.4z"/>
	<path fill="#203F1F" d="M221.1,386.4h-8.4l-2.2,4.8h-3.2l9.7-20.8l9.4,20.8h-3.2L221.1,386.4z M219.9,383.7L217,377l-3,6.7H219.9z"
		/>
	<path fill="#203F1F" d="M238.7,374.4h-6.8v4.7h6.6v2.8h-6.6v9.3h-3v-19.6h9.8V374.4z"/>
	<path fill="#203F1F" d="M260.2,381h8.1v0.6c0,1.5-0.2,2.8-0.5,3.9c-0.3,1-0.9,2-1.7,2.9c-1.8,2-4.1,3.1-6.9,3.1c-2.7,0-5.1-1-7-3
		c-2-2-2.9-4.4-2.9-7.2c0-2.8,1-5.3,3-7.2c2-2,4.4-3,7.3-3c1.5,0,3,0.3,4.3,0.9c1.3,0.6,2.5,1.6,3.7,3l-2.1,2
		c-1.6-2.1-3.6-3.2-5.9-3.2c-2.1,0-3.8,0.7-5.2,2.1c-1.4,1.4-2.1,3.2-2.1,5.3c0,2.2,0.8,4,2.3,5.4c1.5,1.3,3.1,2,4.8,2
		c1.5,0,2.8-0.5,3.9-1.5c1.2-1,1.8-2.2,1.9-3.6h-4.9V381z"/>
	<path fill="#203F1F" d="M282.7,386.4h-8.4l-2.2,4.8h-3.2l9.7-20.8l9.4,20.8h-3.2L282.7,386.4z M281.4,383.7l-2.9-6.7l-3,6.7H281.4z
		"/>
	<path fill="#203F1F" d="M297,382.8l6.1,8.4h-3.6l-5.6-8h-0.5v8h-3v-19.6h3.5c2.6,0,4.5,0.5,5.6,1.5c1.3,1.1,1.9,2.5,1.9,4.3
		c0,1.4-0.4,2.6-1.2,3.6S298.3,382.6,297,382.8z M293.4,380.6h0.9c2.8,0,4.2-1.1,4.2-3.2c0-2-1.4-3-4.1-3h-1.1V380.6z"/>
	<path fill="#203F1F" d="M306,391.2v-19.6h4.1c2,0,3.5,0.2,4.7,0.6c1.2,0.4,2.3,1,3.3,1.9c2,1.8,3,4.3,3,7.3c0,3-1.1,5.5-3.2,7.3
		c-1.1,0.9-2.2,1.6-3.3,1.9c-1.1,0.4-2.6,0.5-4.6,0.5H306z M309,388.4h1.3c1.3,0,2.4-0.1,3.3-0.4c0.9-0.3,1.7-0.8,2.4-1.4
		c1.5-1.3,2.2-3.1,2.2-5.2c0-2.1-0.7-3.9-2.2-5.2c-1.3-1.2-3.2-1.8-5.7-1.8H309V388.4z"/>
	<path fill="#203F1F" d="M335.7,374.4h-7.9v4.7h7.6v2.8h-7.6v6.6h7.9v2.8h-10.8v-19.6h10.8V374.4z"/>
	<path fill="#203F1F" d="M339.6,391.2v-20.9l14.3,15v-13.6h3v20.8l-14.3-14.9v13.7H339.6z"/>
	<path fill="#203F1F" d="M384.1,372.6v3.5c-1.7-1.4-3.5-2.1-5.3-2.1c-2,0-3.7,0.7-5.1,2.2c-1.4,1.4-2.1,3.2-2.1,5.3
		c0,2.1,0.7,3.8,2.1,5.2s3.1,2.1,5.1,2.1c1,0,1.9-0.2,2.7-0.5c0.4-0.2,0.8-0.4,1.3-0.7c0.4-0.3,0.9-0.6,1.4-1v3.6
		c-1.7,1-3.5,1.4-5.3,1.4c-2.8,0-5.2-1-7.2-2.9c-2-2-3-4.4-3-7.1c0-2.5,0.8-4.7,2.5-6.7c2-2.4,4.7-3.6,7.9-3.6
		C380.7,371.2,382.4,371.7,384.1,372.6z"/>
	<path fill="#203F1F" d="M386.7,381.3c0-2.8,1-5.1,3-7.1c2-2,4.4-3,7.3-3c2.8,0,5.2,1,7.2,3c2,2,3,4.4,3,7.2c0,2.8-1,5.2-3,7.2
		c-2,2-4.5,3-7.3,3c-2.5,0-4.8-0.9-6.8-2.6C387.8,387,386.7,384.4,386.7,381.3z M389.7,381.3c0,2.2,0.7,3.9,2.2,5.3
		c1.4,1.4,3.1,2.1,5,2.1c2.1,0,3.8-0.7,5.2-2.1c1.4-1.4,2.1-3.2,2.1-5.3c0-2.1-0.7-3.8-2.1-5.3c-1.4-1.4-3.1-2.1-5.2-2.1
		c-2,0-3.8,0.7-5.2,2.1C390.4,377.5,389.7,379.3,389.7,381.3z"/>
	<path fill="#203F1F" d="M410.2,391.2l4.1-21.1l6.7,15.2l7-15.2l3.7,21.1h-3l-1.9-11.8l-5.8,12.7l-5.6-12.7l-2.1,11.8H410.2z"/>
	<path fill="#203F1F" d="M438.9,383.2v8h-3v-19.6h3.4c1.6,0,2.9,0.1,3.7,0.3c0.8,0.2,1.6,0.7,2.2,1.3c1.1,1.1,1.7,2.5,1.7,4.2
		c0,1.8-0.6,3.2-1.8,4.3s-2.8,1.6-4.9,1.6H438.9z M438.9,380.5h1.1c2.7,0,4.1-1,4.1-3.1c0-2-1.4-3-4.2-3h-1V380.5z"/>
	<path fill="#203F1F" d="M460,386.4h-8.4l-2.2,4.8h-3.2l9.7-20.8l9.4,20.8h-3.2L460,386.4z M458.8,383.7l-2.9-6.7l-3,6.7H458.8z"/>
	<path fill="#203F1F" d="M467.8,391.2v-20.9l14.3,15v-13.6h3v20.8l-14.3-14.9v13.7H467.8z"/>
	<path fill="#203F1F" d="M493.7,382.7l-6.4-11.1h3.4l4.5,7.8l4.5-7.8h3.4l-6.4,11.1v8.5h-3V382.7z"/>
</g>
<g>
	<path fill="#B53736" d="M194.3,405.4h2v8.6h-2v-0.9c-0.8,0.8-1.7,1.1-2.6,1.1c-1.2,0-2.2-0.4-2.9-1.3c-0.8-0.9-1.2-2-1.2-3.3
		c0-1.3,0.4-2.4,1.2-3.2s1.7-1.3,2.9-1.3c1,0,1.9,0.4,2.7,1.2V405.4z M189.6,409.7c0,0.8,0.2,1.5,0.7,2c0.5,0.5,1,0.8,1.7,0.8
		c0.7,0,1.3-0.3,1.8-0.8c0.5-0.5,0.7-1.2,0.7-2s-0.2-1.5-0.7-2c-0.5-0.5-1-0.8-1.8-0.8c-0.7,0-1.2,0.3-1.7,0.8
		C189.9,408.2,189.6,408.9,189.6,409.7z"/>
	<path fill="#B53736" d="M200.8,407.2v6.7h-2v-6.7H198v-1.8h0.8v-3.1h2v3.1h1.5v1.8H200.8z"/>
	<path fill="#B53736" d="M211.7,405.7h5.9v-5.3h2V414h-2v-6.3h-5.9v6.3h-2v-13.6h2V405.7z"/>
	<path fill="#B53736" d="M228.8,405.4h2v8.6h-2v-0.9c-0.8,0.8-1.7,1.1-2.6,1.1c-1.2,0-2.2-0.4-2.9-1.3c-0.8-0.9-1.2-2-1.2-3.3
		c0-1.3,0.4-2.4,1.2-3.2s1.7-1.3,2.9-1.3c1,0,1.9,0.4,2.7,1.2V405.4z M224.1,409.7c0,0.8,0.2,1.5,0.7,2c0.5,0.5,1,0.8,1.7,0.8
		c0.7,0,1.3-0.3,1.8-0.8c0.5-0.5,0.7-1.2,0.7-2s-0.2-1.5-0.7-2c-0.5-0.5-1-0.8-1.8-0.8c-0.7,0-1.2,0.3-1.7,0.8
		C224.3,408.2,224.1,408.9,224.1,409.7z"/>
	<path fill="#B53736" d="M235.3,399.1V414h-2v-14.8H235.3z"/>
	<path fill="#B53736" d="M239.7,399.1V414h-2v-14.8H239.7z"/>
	<path fill="#B53736" d="M244.1,399.8l1.8,0.7l-2.5,5L242,405L244.1,399.8z"/>
	<path fill="#B53736" d="M253.1,406.9l-1.6,0.9c-0.3-0.5-0.6-0.8-1-0.8c-0.2,0-0.3,0.1-0.5,0.2c-0.1,0.1-0.2,0.3-0.2,0.5
		c0,0.3,0.4,0.7,1.1,1c1,0.5,1.8,0.9,2.1,1.2s0.5,0.9,0.5,1.5c0,0.8-0.3,1.5-0.9,2.1c-0.6,0.5-1.3,0.8-2.1,0.8c-1.4,0-2.5-0.7-3-2.1
		l1.7-0.8c0.2,0.4,0.4,0.7,0.5,0.8c0.2,0.2,0.5,0.3,0.9,0.3c0.7,0,1-0.3,1-0.9c0-0.4-0.3-0.7-0.8-1c-0.2-0.1-0.4-0.2-0.6-0.3
		s-0.4-0.2-0.6-0.3c-0.6-0.3-1-0.6-1.2-0.8c-0.3-0.4-0.4-0.8-0.4-1.4c0-0.7,0.3-1.4,0.8-1.8c0.5-0.5,1.2-0.7,1.9-0.7
		C251.7,405.2,252.6,405.7,253.1,406.9z"/>
	<path fill="#B53736" d="M271.4,401.1v2.4c-1.2-1-2.4-1.5-3.7-1.5c-1.4,0-2.6,0.5-3.5,1.5c-1,1-1.4,2.2-1.4,3.7
		c0,1.4,0.5,2.6,1.4,3.6s2.1,1.5,3.5,1.5c0.7,0,1.3-0.1,1.8-0.4c0.3-0.1,0.6-0.3,0.9-0.5s0.6-0.4,1-0.7v2.5c-1.2,0.7-2.4,1-3.7,1
		c-1.9,0-3.6-0.7-5-2c-1.4-1.4-2-3-2-4.9c0-1.7,0.6-3.3,1.7-4.6c1.4-1.7,3.2-2.5,5.5-2.5C269.1,400.1,270.2,400.5,271.4,401.1z"/>
	<path fill="#B53736" d="M273.6,399.1h2v7c0.7-0.6,1.5-0.9,2.3-0.9c1,0,1.7,0.3,2.3,0.9c0.5,0.5,0.7,1.4,0.7,2.6v5.2h-2v-5.1
		c0-0.7-0.1-1.2-0.4-1.5c-0.2-0.3-0.6-0.5-1.2-0.5c-0.7,0-1.2,0.2-1.5,0.6c-0.3,0.4-0.4,1.2-0.4,2.2v4.1h-2V399.1z"/>
	<path fill="#B53736" d="M283.5,405.4h2v0.8c0.4-0.4,0.7-0.6,1-0.8c0.3-0.1,0.6-0.2,1-0.2c0.5,0,1.1,0.2,1.6,0.5l-0.9,1.8
		c-0.4-0.3-0.7-0.4-1.1-0.4c-1.1,0-1.6,0.8-1.6,2.4v4.4h-2V405.4z"/>
	<path fill="#B53736" d="M290.2,401.8c0-0.3,0.1-0.6,0.4-0.9s0.6-0.4,0.9-0.4c0.4,0,0.7,0.1,0.9,0.4c0.3,0.2,0.4,0.5,0.4,0.9
		s-0.1,0.7-0.4,0.9c-0.2,0.3-0.5,0.4-0.9,0.4s-0.7-0.1-0.9-0.4S290.2,402.2,290.2,401.8z M292.4,405.4v8.6h-2v-8.6H292.4z"/>
	<path fill="#B53736" d="M299.9,406.9l-1.6,0.9c-0.3-0.5-0.6-0.8-1-0.8c-0.2,0-0.3,0.1-0.5,0.2c-0.1,0.1-0.2,0.3-0.2,0.5
		c0,0.3,0.4,0.7,1.1,1c1,0.5,1.8,0.9,2.1,1.2s0.5,0.9,0.5,1.5c0,0.8-0.3,1.5-0.9,2.1c-0.6,0.5-1.3,0.8-2.1,0.8c-1.4,0-2.5-0.7-3-2.1
		l1.7-0.8c0.2,0.4,0.4,0.7,0.5,0.8c0.2,0.2,0.5,0.3,0.9,0.3c0.7,0,1-0.3,1-0.9c0-0.4-0.3-0.7-0.8-1c-0.2-0.1-0.4-0.2-0.6-0.3
		s-0.4-0.2-0.6-0.3c-0.6-0.3-1-0.6-1.2-0.8c-0.3-0.4-0.4-0.8-0.4-1.4c0-0.7,0.3-1.4,0.8-1.8c0.5-0.5,1.2-0.7,1.9-0.7
		C298.6,405.2,299.4,405.7,299.9,406.9z"/>
	<path fill="#B53736" d="M304.3,407.2v6.7h-2v-6.7h-0.8v-1.8h0.8v-3.1h2v3.1h1.5v1.8H304.3z"/>
	<path fill="#B53736" d="M307.2,405.4h2v0.8c0.4-0.4,0.7-0.7,1-0.8c0.3-0.1,0.6-0.2,1.1-0.2c1,0,1.7,0.4,2.3,1.3
		c0.6-0.8,1.5-1.3,2.5-1.3c1.9,0,2.9,1.2,2.9,3.5v5.3h-2v-4.8c0-0.8-0.1-1.4-0.3-1.7c-0.2-0.3-0.5-0.5-1-0.5c-0.5,0-0.9,0.2-1.2,0.6
		c-0.2,0.4-0.4,1.1-0.4,2v4.4h-2v-4.7c0-1.5-0.4-2.3-1.3-2.3c-0.6,0-1,0.2-1.2,0.6c-0.3,0.4-0.4,1.1-0.4,2v4.4h-2V405.4z"/>
	<path fill="#B53736" d="M327.7,405.4h2v8.6h-2v-0.9c-0.8,0.8-1.7,1.1-2.6,1.1c-1.2,0-2.2-0.4-2.9-1.3c-0.8-0.9-1.2-2-1.2-3.3
		c0-1.3,0.4-2.4,1.2-3.2s1.7-1.3,2.9-1.3c1,0,1.9,0.4,2.7,1.2V405.4z M323,409.7c0,0.8,0.2,1.5,0.7,2c0.5,0.5,1,0.8,1.7,0.8
		c0.7,0,1.3-0.3,1.8-0.8c0.5-0.5,0.7-1.2,0.7-2s-0.2-1.5-0.7-2c-0.5-0.5-1-0.8-1.8-0.8c-0.7,0-1.2,0.3-1.7,0.8
		C323.3,408.2,323,408.9,323,409.7z"/>
	<path fill="#B53736" d="M337.2,406.9l-1.6,0.9c-0.3-0.5-0.6-0.8-1-0.8c-0.2,0-0.3,0.1-0.5,0.2c-0.1,0.1-0.2,0.3-0.2,0.5
		c0,0.3,0.4,0.7,1.1,1c1,0.5,1.8,0.9,2.1,1.2s0.5,0.9,0.5,1.5c0,0.8-0.3,1.5-0.9,2.1c-0.6,0.5-1.3,0.8-2.1,0.8c-1.4,0-2.5-0.7-3-2.1
		l1.7-0.8c0.2,0.4,0.4,0.7,0.5,0.8c0.2,0.2,0.5,0.3,0.9,0.3c0.7,0,1-0.3,1-0.9c0-0.4-0.3-0.7-0.8-1c-0.2-0.1-0.4-0.2-0.6-0.3
		s-0.4-0.2-0.6-0.3c-0.6-0.3-1-0.6-1.2-0.8c-0.3-0.4-0.4-0.8-0.4-1.4c0-0.7,0.3-1.4,0.8-1.8c0.5-0.5,1.2-0.7,1.9-0.7
		C335.8,405.2,336.6,405.7,337.2,406.9z"/>
	<path fill="#B53736" d="M349.2,402.3V414h-2v-11.6H344v-1.9h8.3v1.9H349.2z"/>
	<path fill="#B53736" d="M353.1,405.4h2v0.8c0.4-0.4,0.7-0.6,1-0.8c0.3-0.1,0.6-0.2,1-0.2c0.5,0,1.1,0.2,1.6,0.5l-0.9,1.8
		c-0.4-0.3-0.7-0.4-1.1-0.4c-1.1,0-1.6,0.8-1.6,2.4v4.4h-2V405.4z"/>
	<path fill="#B53736" d="M367.5,410.1h-6.1c0.1,0.7,0.3,1.3,0.7,1.7c0.4,0.4,0.9,0.6,1.6,0.6c0.5,0,0.9-0.1,1.2-0.4
		c0.3-0.2,0.7-0.7,1.1-1.3l1.7,0.9c-0.3,0.4-0.5,0.8-0.8,1.1c-0.3,0.3-0.6,0.6-0.9,0.8c-0.3,0.2-0.7,0.3-1.1,0.4s-0.8,0.1-1.2,0.1
		c-1.3,0-2.3-0.4-3.1-1.2c-0.8-0.8-1.2-1.9-1.2-3.3c0-1.4,0.4-2.4,1.1-3.3c0.8-0.8,1.8-1.2,3-1.2c1.3,0,2.3,0.4,3,1.2
		c0.7,0.8,1.1,1.9,1.1,3.3L367.5,410.1z M365.5,408.5c-0.3-1.1-0.9-1.6-2-1.6c-0.2,0-0.5,0-0.7,0.1c-0.2,0.1-0.4,0.2-0.6,0.3
		c-0.2,0.1-0.3,0.3-0.4,0.5s-0.2,0.4-0.3,0.7H365.5z"/>
	<path fill="#B53736" d="M377.5,410.1h-6.1c0.1,0.7,0.3,1.3,0.7,1.7c0.4,0.4,0.9,0.6,1.6,0.6c0.5,0,0.9-0.1,1.2-0.4
		c0.3-0.2,0.7-0.7,1.1-1.3l1.7,0.9c-0.3,0.4-0.5,0.8-0.8,1.1c-0.3,0.3-0.6,0.6-0.9,0.8c-0.3,0.2-0.7,0.3-1.1,0.4s-0.8,0.1-1.2,0.1
		c-1.3,0-2.3-0.4-3.1-1.2c-0.8-0.8-1.2-1.9-1.2-3.3c0-1.4,0.4-2.4,1.1-3.3c0.8-0.8,1.8-1.2,3-1.2c1.3,0,2.3,0.4,3,1.2
		c0.7,0.8,1.1,1.9,1.1,3.3L377.5,410.1z M375.5,408.5c-0.3-1.1-0.9-1.6-2-1.6c-0.2,0-0.5,0-0.7,0.1c-0.2,0.1-0.4,0.2-0.6,0.3
		c-0.2,0.1-0.3,0.3-0.4,0.5s-0.2,0.4-0.3,0.7H375.5z"/>
	<path fill="#B53736" d="M392.4,402.3h-4.7v3.3h4.6v1.9h-4.6v6.5h-2v-13.6h6.8V402.3z"/>
	<path fill="#B53736" d="M400.6,405.4h2v8.6h-2v-0.9c-0.8,0.8-1.7,1.1-2.6,1.1c-1.2,0-2.2-0.4-2.9-1.3c-0.8-0.9-1.2-2-1.2-3.3
		c0-1.3,0.4-2.4,1.2-3.2s1.7-1.3,2.9-1.3c1,0,1.9,0.4,2.7,1.2V405.4z M395.9,409.7c0,0.8,0.2,1.5,0.7,2c0.5,0.5,1,0.8,1.7,0.8
		c0.7,0,1.3-0.3,1.8-0.8c0.5-0.5,0.7-1.2,0.7-2s-0.2-1.5-0.7-2c-0.5-0.5-1-0.8-1.8-0.8c-0.7,0-1.2,0.3-1.7,0.8
		C396.1,408.2,395.9,408.9,395.9,409.7z"/>
	<path fill="#B53736" d="M405,405.4h2v0.8c0.4-0.4,0.7-0.6,1-0.8c0.3-0.1,0.6-0.2,1-0.2c0.5,0,1.1,0.2,1.6,0.5l-0.9,1.8
		c-0.4-0.3-0.7-0.4-1.1-0.4c-1.1,0-1.6,0.8-1.6,2.4v4.4h-2V405.4z"/>
	<path fill="#B53736" d="M412,405.4h2v0.8c0.4-0.4,0.7-0.7,1-0.8c0.3-0.1,0.6-0.2,1.1-0.2c1,0,1.7,0.4,2.3,1.3
		c0.6-0.8,1.5-1.3,2.5-1.3c1.9,0,2.9,1.2,2.9,3.5v5.3h-2v-4.8c0-0.8-0.1-1.4-0.3-1.7c-0.2-0.3-0.5-0.5-1-0.5c-0.5,0-0.9,0.2-1.2,0.6
		c-0.2,0.4-0.4,1.1-0.4,2v4.4h-2v-4.7c0-1.5-0.4-2.3-1.3-2.3c-0.6,0-1,0.2-1.2,0.6c-0.3,0.4-0.4,1.1-0.4,2v4.4h-2V405.4z"/>
</g>
<g>
	<g>
		<path fill="#E1E1D6" d="M384.2,363c0,0,0.1-0.1,0.1-0.1c0.2-0.2-0.1-0.6-0.4-0.3c-0.2,0.2-0.4,0.3-0.7,0.3c-0.8,0-1.5-0.3-2.3-0.6
			c-0.8-0.4-1.6-0.8-2.2-1.2c-0.4-0.2-0.8-0.5-1.1-0.7c-2-1.3-3.7-2.9-5.2-4.7c0,0,0,0,0,0c0.3-1.3,0.4-2.6,0.7-3.9
			c0.1-0.7,0.4-1.6,0.5-2.4c0.7-0.2,1.4-1,1.7-1.6c0.5-0.8,0.3-1.7-0.5-2.2c-1.3-0.9-1.8,1.8-1.7,3.1c0,0,0,0,0,0
			c-0.6,2.1-0.8,4.5-1,6.7c-0.5-0.7-1.1-1.3-1.6-2c-1.8-2.5-3.3-5.2-4.7-7.9c-0.3-0.5-0.5-1.1-0.8-1.6c0,0,0,0,0,0
			c-0.6-1.1-0.1-2.6,0.9-3.4c0.6-0.5,1.5-0.3,2,0.3c0.3,0.3,0.3,0.7,0.2,1.1c-0.2,0.5-1,0.5-0.6,0.1c0.3-0.2-0.1-0.6-0.4-0.5
			c-1,0.6-0.2,1.6,0.7,1.3c1.4-0.4,0.9-2.1,0.1-2.8c-1.6-1.2-3.4,0.8-3.5,2.5c-0.7-1.3-1.4-2.5-2.1-3.7c0.5-0.6,1.1-1.3,1.4-2.1
			c0.2-0.6-0.3-1.4-1-1.2c-0.6,0.2-1.1,1.3-1.1,2.1c-1-1.6-2.2-3.1-3.4-4.5c-0.3-1-0.5-1.9-0.6-2.9c-0.1-0.9,0.1-1.8,0.1-2.7
			c0.5,0.4,1.5,0.3,2.1,0.2c0.7-0.1,1.8-0.6,1.9-1.4c0.1-0.8-0.9-1.2-1.6-1c-0.6,0.1-1.1,0.6-1.6,1c0.2-0.4,0.4-0.9,0.6-1.3
			c0.2-0.5,0.6-1.5,0.2-2c-0.5-0.6-1.7,0.1-2,0.6c-0.6,0.9-0.4,2.3,0,3.2c0,0.1,0.1,0,0.1,0c0,0,0,0,0,0.1c-0.4,1-0.3,2.3-0.3,3.3
			c0.1,0.8,0.2,1.6,0.5,2.3c-2.2-2.5-4.7-4.6-7.7-6.2c-0.8-1-1.1-2.4-0.3-3.4c0.5-0.7,1.8-1.2,2.3-0.2c0.2,0.5,0,0.9-0.5,1.1
			c-0.3,0.1-0.3-0.1-0.3-0.3c0-0.2-0.3-0.2-0.4-0.1c-0.3,0.2-0.3,0.8,0.1,0.9c0.4,0.2,0.8,0,1.2-0.2c1-0.8,0.3-2.5-0.9-2.5
			c-2.4-0.1-3,2.5-2.1,4.3c0,0,0,0-0.1,0c-2.5-1.2-5.1-2.2-7.5-3.4c0,0,0-0.1-0.1-0.1c0,0,0,0,0.1,0c0,0,0.1,0.1,0.1,0.1
			c0.1,0.1,0.2,0.1,0.3,0c0.3-0.2,0.4-0.9,0.6-1.2c0.2-0.5,0.2-0.9,0.2-1.4c-0.1-0.7-0.7-1.6-1.5-1.5c-0.9,0.2-1.2,1.2-1.2,2
			c0.1,0.5,0.3,1.1,0.6,1.5c0,0,0,0,0,0c-0.1-0.1-0.3-0.2-0.5-0.2c-0.4-0.2-0.8-0.5-1.1-0.7c0,0,0,0,0,0c0,0,0,0,0,0
			c-0.1,0-0.1-0.1-0.2-0.1c0.1-0.1,0.1-0.3,0-0.4c-0.4-0.3-0.6-0.6-0.8-1.1c-0.1-0.4-0.2-0.8-0.4-1.2c0-0.1-0.3-0.1-0.2,0
			c0,0.6,0,1.3,0.3,1.9c-0.7-0.5-1.4-1-2.1-1.5c-0.5-0.6-0.8-1.3-1-2c-0.1-0.4-0.2-0.9-0.3-1.3c0-0.2,0-0.4,0-0.6c0,0,0.1,0,0.1-0.1
			c0.4-0.6,0.4-1.5,0.4-2.2c0-0.4-0.1-1.5-0.7-1.6c-0.7-0.2-1,1.1-1,1.5c0,0.6,0.1,1.7,0.8,2c-0.3,0.6,0,1.6,0.2,2.2
			c0.1,0.4,0.3,0.9,0.6,1.3c-1.9-1.6-3.5-3.5-4.7-5.7c0.2,0.1,0.4-0.1,0.3-0.3c0,0,0,0,0-0.1c0.5-0.6,1-1.2,1.2-2
			c0.1-0.6-0.1-1.3-0.9-1.2c-1,0.2-2.3,2.6-1,3.1c0.2,0.5,0.4,1,0.6,1.4c-0.5-0.4-1.1-0.7-1.7-0.7c-0.8-0.1-1.9,0.5-1.9,1.4
			c0,0.6,0.6,1.7,1.4,1.2c0.7-0.5,0.2-1.2-0.4-1.3c-0.2,0-0.3,0.1-0.3,0.2c0-0.4,0.3-0.7,0.7-0.8c1-0.4,2.4,0.6,2.9,1.4
			c0,0,0.1,0,0.1,0.1c1.1,1.6,2.5,3,4.1,4.2c-1-0.4-2.3-0.3-3.4-0.1c0-0.1,0-0.1-0.1-0.2c-0.2-0.1-0.4-0.1-0.6-0.1
			c-0.2-0.2-0.5-0.4-0.7-0.5c-0.5-0.3-1-0.3-1.5-0.2c-0.5,0.1-1.2,0.4-0.9,1c0.2,0.5,0.9,0.8,1.4,0.9c0.6,0.1,1.4,0.1,1.9-0.3
			c0.1,0.1,0.2,0.2,0.3,0.1c0.7-0.2,1.4-0.3,2.1-0.3c0.7,0,1.3,0.2,1.9,0.3c0.9,1.1,2.6,1.8,3.6,2.4c1.3,0.7,2.5,1.3,3.8,1.9
			c1.2,0.7,2.4,1.3,3.7,1.9c-0.7-0.1-1.4-0.2-2.2,0c-0.5,0.1-1,0.3-1.5,0.5c-0.4,0.1-0.8,0.2-1.2,0.3c-0.2,0.1-0.2,0.4,0,0.5
			c0.7,0.2,1.6-0.4,2.2-0.6c1.1-0.4,2.1-0.2,3.3-0.3c0,0,0,0,0,0c1.2,0.6,2.4,1.2,3.6,1.9c-0.3-0.1-0.6-0.2-0.9-0.3
			c-0.8-0.2-1.8-0.3-2.3,0.5c-1,1.5,2.5,1.2,3.1,1.1c0.2,0,0.9-0.1,1.1-0.4c0.1,0,0.3,0.1,0.4,0.1c0.1,0,0.1,0,0.2-0.1c0,0,0,0,0,0
			c0.6,0.4,1.3,0.9,1.8,1.3c2.1,1.7,3.9,3.7,5.5,5.9c-1.4-0.7-3-1.3-4.6-1.1c-0.3,0-0.3,0.5,0,0.5c1.8-0.1,3.4,0.6,5,1.2
			c1.4,1.9,2.6,3.9,3.8,6c1.2,2.2,2.3,4.4,3.5,6.6c-1.8-1.1-3.6-2.1-5.7-2.5c0-0.1-0.1-0.2-0.2-0.2c-0.3-0.7-1.3-1.4-1.9-1.7
			c-0.7-0.3-1.9-0.5-2.4,0.3c-0.5,0.8,0.4,1.5,1,1.9c0.8,0.5,2.2,0.5,3.1,0.2c1.2,0.6,2.5,0.7,3.7,1.3c0.8,0.4,1.7,1,2.6,1.2
			c0.7,1.3,1.4,2.5,2.2,3.7c-0.6-0.5-1.5-0.8-2.2-0.7c-0.6,0.1-1.5,0.6-1.4,1.3c0.1,0.7,0.8,1.1,1.4,1.2c0.7,0.2,2,0,2.3-0.8
			c0-0.1,0-0.2-0.1-0.3c0,0,0,0,0.1,0c0.1,0.1,0.2,0.1,0.2,0.2c0.1,0,0.1,0,0.2,0c1.5,2.2,3.3,4.3,5.7,6c1.2,0.8,4.1,3,6.4,3.4
			c0.6,0.1,1.2,0.2,1.8,0.1C384.2,363.4,384.3,363.2,384.2,363z M374,348.4C374.1,348.4,374.1,348.3,374,348.4
			c0.1-0.5,0.3-0.9,0.6-1.2c0.1-0.1-0.1-0.3-0.2-0.2c-0.4,0.3-0.6,0.7-0.8,1.1c0,0,0,0.1-0.1,0.1c0.1-1,0.3-2.3,0.9-2.3
			c0.3,0,0.6,0.5,0.6,0.7c0.1,0.4-0.2,0.7-0.4,1C374.5,348,374.3,348.2,374,348.4z M359.4,326c0.3-0.2,0.6-0.4,1-0.4
			c0.4,0,0.9,0.3,0.8,0.7c-0.1,0.6-1.2,0.8-1.6,0.9c-0.4,0.1-0.8,0.1-1.1,0c0.5-0.2,0.9-0.4,1.4-0.6c0.2-0.1,0.1-0.5-0.1-0.4
			c-0.6,0.2-1.1,0.5-1.7,0.8c0,0,0,0,0,0C358.5,326.7,358.9,326.3,359.4,326z M357.4,326.8C357.4,326.8,357.4,326.8,357.4,326.8
			c-0.1-1-0.3-2,0.1-2.8c0.2-0.5,1.5-1.2,1.4-0.2c-0.1,0.9-0.5,1.6-1,2.3c0-0.5,0.2-0.9,0.4-1.4c0.2-0.3-0.3-0.5-0.4-0.2
			c-0.3,0.6-0.5,1.5-0.4,2.2c0,0-0.1,0.1-0.1,0.1C357.5,326.8,357.4,326.8,357.4,326.8z M333.6,312.1c0,0.4,0,0.9,0,1.3
			c0,0,0,0.1,0,0.1c-0.2-0.4-0.2-0.8-0.2-1.3c0-0.3,0.2-0.6,0.3-0.9c0,0,0.1-0.1,0.1-0.1c0,0,0,0,0,0c0.2,0.4,0.2,1,0.2,1.4
			c0,0.1,0,0.3,0,0.4c0-0.3-0.1-0.6-0.1-0.9C333.9,311.8,333.6,311.8,333.6,312.1z M330,310.7c0-0.3,0.1-0.7,0.2-1
			c0-0.2-0.2-0.2-0.3-0.1c-0.2,0.5-0.5,1.1-0.5,1.7c0,0,0,0,0,0c0,0,0,0-0.1-0.1c-0.1-0.3-0.1-0.6,0-1c0.2-0.5,0.5-1.1,1.1-1.2
			c0.7-0.2,0.2,1.1,0.1,1.3c-0.2,0.3-0.4,0.5-0.6,0.8C330,310.9,330,310.8,330,310.7z M329.7,318.9c-0.5,0-1-0.1-1.4-0.3
			c-0.4-0.3,0.1-0.4,0.4-0.5c0.5-0.1,1-0.1,1.4,0.2c-0.3,0-0.6,0.1-0.9,0.1c-0.2,0-0.2,0.3,0,0.3c0.3,0,0.7,0,1,0c0.1,0,0.2,0,0.3,0
			C330.2,318.7,330,318.8,329.7,318.9z M340.6,320.8c-0.1-0.4-0.2-0.8-0.1-1.1c0.1-0.4,0.5-0.9,0.9-0.8c0.7,0.1,0.8,1.4,0.7,1.9
			c0,0.1-0.1,0.3-0.3,0.6c0-0.1-0.1-0.3-0.1-0.4c0-0.4-0.1-0.8-0.1-1.1c0-0.2-0.2-0.2-0.3,0c-0.2,0.7-0.2,1.6-0.1,2.3
			C341,321.6,340.8,321.2,340.6,320.8z M349.2,328.3c-0.4,0-0.9,0-1.3-0.2c-0.2-0.1,0-0.2,0.1-0.3c0.2-0.2,0.6-0.2,0.8-0.2
			c0.3,0,0.6,0.1,1,0.2c-0.3,0-0.7,0-1,0.1c-0.2,0-0.2,0.3,0,0.3c0.4,0,0.8,0.1,1.2,0.1C349.8,328.3,349.5,328.3,349.2,328.3z
			 M362.7,337c0.1-0.1-0.1-0.2-0.2-0.2c-0.3,0.1-0.5,0.4-0.7,0.8c0-0.7,0.4-1.6,0.8-1.7c0.2-0.1,0.5,0.2,0.5,0.4
			c0,0.3-0.2,0.6-0.4,0.9c-0.1,0.1-0.2,0.3-0.3,0.4C362.6,337.4,362.6,337.2,362.7,337z M358.9,345.8c0.3,0.3,0.7,0.5,1,0.6
			c-0.3,0-0.6,0-0.9-0.1c-0.3-0.1-2-0.7-1.4-1.2c0.6-0.5,1.7,0,2.2,0.4c0.2,0.1,0.4,0.3,0.6,0.5c-0.5-0.1-1-0.2-1.3-0.5
			C358.9,345.3,358.7,345.6,358.9,345.8z M368,354.1c0.5-0.2,1-0.3,1.5-0.3c-0.2,0.1-0.4,0.3-0.6,0.4c-0.3,0.2-0.6,0.2-0.9,0.2
			c-0.5,0-1-0.2-1.3-0.6c-0.4-0.5,0.6-0.8,0.9-0.9c0.5-0.1,1,0.1,1.4,0.4c-0.5,0.1-0.9,0.3-1.2,0.6C367.7,354,367.8,354.2,368,354.1
			z"/>
		<path fill="#E1E1D6" d="M353.6,334.5c0.2-0.2,0.1-0.4-0.1-0.5c0,0,0-0.1,0-0.1c0-0.2-0.4-0.2-0.4,0c0,0,0,0,0,0c0,0-0.1,0-0.1,0
			c-0.2,0.1-0.2,0.2-0.2,0.4c0,0,0,0,0,0c-0.2,0.2,0.1,0.5,0.3,0.4c0.1-0.1,0.3-0.1,0.4-0.2C353.4,334.7,353.5,334.6,353.6,334.5
			C353.5,334.6,353.5,334.6,353.6,334.5z"/>
		<path fill="#E1E1D6" d="M352,334.8c0.1-0.1,0.2-0.3,0.1-0.4c0,0,0-0.1-0.1-0.1c0-0.1-0.1-0.1-0.1-0.2c-0.1-0.1-0.2-0.1-0.3-0.1
			c0,0,0,0-0.1,0c0,0,0,0,0,0c-0.1,0.1-0.2,0.2-0.3,0.3c-0.2,0.2,0,0.6,0.3,0.5c0,0,0,0,0,0C351.7,334.9,351.9,334.9,352,334.8z"/>
		<path fill="#E1E1D6" d="M340.7,326.8c-0.2-0.1-0.3-0.2-0.5-0.3c0,0-0.1,0-0.1,0c0,0-0.1-0.1-0.2-0.1c0,0,0,0,0,0
			c-0.1,0-0.1,0-0.1,0.1c0,0,0,0,0,0c0,0-0.1,0-0.1,0c-0.4,0-0.3,0.6,0,0.5c0.1,0,0.2,0,0.3,0c0,0,0.1,0,0.1,0
			c0,0.1,0.1,0.1,0.2,0.1c0.1,0.1,0.3,0,0.5,0C340.7,327.1,340.8,326.9,340.7,326.8z"/>
		<path fill="#E1E1D6" d="M338.2,326.9c-0.1,0-0.2,0-0.2,0c0,0-0.1-0.1-0.2-0.1c-0.1,0-0.1,0-0.2,0c0,0,0,0-0.1,0c0,0,0,0,0,0
			c-0.3-0.1-0.5,0.2-0.4,0.4c0,0.2,0.1,0.4,0.3,0.3c0.1,0,0.2,0,0.4,0c0,0,0,0,0,0l0,0c0.1,0,0.2-0.1,0.2-0.1c0,0,0.1,0,0.1-0.1
			C338.5,327.2,338.5,326.9,338.2,326.9z"/>
	</g>
	<path fill="#E1E1D6" d="M342.2,319c-4.9,2-9.8,2.5-15,2.5c0,0,0,0,0,0c0-1.5-0.8-3.1-1.6-4.4c-0.3-0.5-1.2-1.9-1.9-1.2
		c-1,0.8-0.1,2.9,0.4,3.7c0.4,0.7,1,1.5,1.7,1.9c-0.1,0-0.2,0-0.3,0c-3,0-5.9-0.2-8.8-0.7c0-0.1,0-0.1,0-0.2c0-0.1,0-0.1,0-0.2
		c-0.2-1-0.6-2-1-3c-0.2-0.6-0.8-2.4-1.7-2.2c-1.2,0.2-0.8,2-0.5,2.7c0.3,0.8,1,1.9,1.8,2.5c-0.1,0-0.2,0-0.3-0.1
		c-0.1-0.1-0.1-0.1-0.2,0c-2-0.5-4-1.1-6-2c-0.3-0.2-0.7-0.3-1-0.4c0.3-1.6-1.3-6.9-3.6-5.5c-1.5,0.9,0.5,3.4,2,4.8
		c-2.8-1.1-5.6-2-8.5-2.8c0.3-0.6-0.4-2-0.6-2.3c-0.6-1-1.6-2.5-2.8-2.8c-1.3-0.3-1.1,1.5-0.8,2.2c0.6,1,1.5,1.9,2.5,2.5
		c-0.9-0.2-1.8-0.4-2.8-0.6c-2.5-0.5-5-0.9-7.5-0.9c0,0,0-0.1-0.1-0.1c0,0-0.1,0-0.1-0.1c0,0,0,0,0,0c0-0.6-0.4-1.2-0.7-1.7
		c-0.3-0.6-0.6-1.1-1.1-1.6c-0.4-0.4-1.5-1-1.9-0.3c-0.5,0.9-0.1,2,0.5,2.6c0.5,0.5,1.2,0.9,1.9,1.2c-2.1,0.3-3.9,1.2-6,1.6
		c-0.1,0-0.1,0.2,0,0.2c0.9-0.1,1.7-0.4,2.5-0.7c1.8-0.6,3.5-0.8,5.3-0.8c1.8,0,3.6,0.3,5.5,0.6c-0.2,0.1-0.4,0.3-0.5,0.5
		c-0.6,0.2-1.1,0.5-1.6,0.9c-0.4,0.3-1.7,1.8-1.1,2.4c0.6,0.5,1.6,0,2.1-0.4c1-0.6,2.3-1.9,2.3-3.2c0.9,0.2,1.7,0.4,2.5,0.6
		c2.5,0.6,4.8,1.3,7.1,2.2c-0.1,0.1-0.2,0.1-0.3,0.2c-1.1,0.2-2.2,0.5-3.1,1c-0.7,0.3-1.9,1.7-0.9,2.4c0.9,0.6,2.3-0.1,3.2-0.6
		c0.9-0.5,2-1.5,2.2-2.6c2.5,1,5,2,7.6,3c0.8,0.3,1.7,0.6,2.5,0.8c0,0,0,0,0,0c-2.3,0.2-6.1,1-4.6,3.4c0.7,1,2.2,0.2,2.9-0.3
		c0.7-0.5,1.4-1.1,2-1.7c0.3-0.3,0.8-0.7,0.9-1.1c2.2,0.5,4.5,0.7,6.8,0.8c-2.5,0.3-5.8,1.3-5.6,3.7c0.2,1.8,6.2-1.3,6.3-3.3
		c0.4-0.1,0.7-0.2,1.1-0.3c0,0,0,0,0,0c1.1,0,2.2,0,3.2,0c5.1,0,11-0.1,15.6-2.7C342.8,319.3,342.6,318.8,342.2,319z M284.4,311.8
		c-0.5-0.4-1-0.9-1.3-1.5c0-0.1-0.2,0-0.2,0.1c0.2,0.7,0.5,1.3,1,1.8c-1-0.6-1.9-1.5-1.5-2.7c0.3-0.9,1.7,0.9,1.9,1.1
		c0.3,0.4,0.4,1.1,0.7,1.6C284.7,312.1,284.5,312,284.4,311.8z M290.9,316.2c-0.3,0.3-0.7,0.5-1,0.7c-0.2,0.1-0.4,0.2-0.6,0.2
		c-0.5,0.1-0.1-0.5,0-0.6c0.3-0.6,0.8-1.1,1.4-1.4c-0.2,0.3-0.4,0.6-0.7,0.9c-0.1,0.2,0.1,0.4,0.3,0.3c0.4-0.4,0.7-0.8,1-1.2
		c0.3-0.3,0.6-0.6,0.9-0.8C291.8,315,291.5,315.7,290.9,316.2z M295.5,312.8c0.3,0.3,0.6,0.6,0.8,0.9c0.2,0.2,0.4,0.4,0.7,0.5
		c0,0,0,0,0,0c-0.1,0-0.1,0-0.2,0c-0.6-0.5-1.2-1.2-1.8-1.8c-0.3-0.4-0.7-0.8-0.9-1.3c-0.2-0.3-0.3-1.3,0.3-1.1
		c0.8,0.3,1.5,1.4,1.9,2.1c0.3,0.4,0.5,0.8,0.6,1.2c-0.2-0.2-0.5-0.4-0.7-0.6c-0.4-0.3-1-0.9-1.1-1.5c0-0.1-0.2-0.1-0.2,0
		C294.8,311.9,295.1,312.4,295.5,312.8z M299,319.9c-0.7,0-0.2-0.8,0.1-1.1c0.4-0.4,1-0.7,1.6-0.9c0.2-0.1,0.5-0.2,0.7-0.2
		c-0.5,0.4-0.9,0.9-1.1,1.5c0,0.1,0.1,0.1,0.1,0.1c0.5-0.9,1.6-1.3,2.5-1.8C302.1,318.8,300.6,320,299,319.9z M307.1,316.9
		c-0.1-0.1-0.2-0.2-0.2-0.3c-0.5-0.6-1-1.3-1-2.1c0-0.1-0.2-0.2-0.2,0c-0.2,0.6-0.1,1.2,0.2,1.8c0.1,0.3,0.3,0.6,0.5,0.9
		c-0.2-0.3-0.4-0.5-0.7-0.8c-0.7-0.8-1.6-1.9-1.6-3c0-0.9,1.2-0.4,1.5,0c0.4,0.4,0.6,1,0.8,1.6C306.8,315.5,307,316.2,307.1,316.9z
		 M309.6,324.1c-0.9-1.4,1.4-2.1,3.4-2.4c-0.5,0.4-0.9,0.8-1.3,1.2c-0.1,0.1,0,0.4,0.2,0.2c0.6-0.5,1.2-0.8,1.9-1.2
		C312.5,323.1,310.5,325.3,309.6,324.1z M315.3,319.1c-0.4-0.6-0.6-1.2-0.6-1.9c0-0.1-0.1-0.1-0.2,0c-0.3,0.8-0.1,1.8,0.4,2.6
		c-0.4-0.4-0.6-0.9-0.9-1.4c-0.3-0.6-0.5-1.3-0.4-2c0.2-0.7,0.6-0.5,0.9-0.1c0.7,1,0.9,2.2,1.2,3.4
		C315.6,319.5,315.5,319.3,315.3,319.1z M321,323.1c-0.5,0.3-0.9,0.7-1.3,1.1c-0.1,0.1,0,0.4,0.2,0.3c0.3-0.2,0.7-0.4,1.1-0.6
		c-0.4,0.4-0.9,0.8-1.5,1.1c-0.4,0.2-0.8,0.4-1.2,0.6c-0.4,0.2-0.7,0.3-1.1,0.3c-1,0,0.2-1.5,0.3-1.6c1.1-1.1,2.6-1.3,4.1-1.6
		C321.3,322.9,321.2,323,321,323.1z M326.4,320.7c-0.2-0.2-0.4-0.4-0.6-0.7c-0.4-0.6-0.6-1.2-0.9-1.9c-0.1-0.1-0.2-0.1-0.2,0.1
		c0.1,0.7,0.4,1.8,0.9,2.6c-1.1-1-1.8-2.5-1.8-3.8c0.1-1.6,1.3,0.5,1.5,0.9C325.9,318.8,326.3,319.7,326.4,320.7z"/>
	<g>
		<path fill="#E1E1D6" d="M290.2,313.8c0,0,0-0.1-0.1-0.1c-0.2-0.3-0.6,0-0.4,0.3c0.1,0.2,0.2,0.5,0.2,0.8c-0.2,0.7-0.6,1.5-1.1,2.1
			c-0.5,0.7-1.2,1.4-1.7,1.9c-0.3,0.3-0.6,0.6-0.9,0.9c-1.7,1.7-3.6,3-5.7,4.1c0,0,0,0,0,0c-1.2-0.6-2.4-1-3.6-1.5
			c-0.7-0.3-1.5-0.8-2.2-1c0-0.7-0.7-1.5-1.2-2c-0.7-0.7-1.6-0.7-2.3,0c-1.2,1.1,1.4,2.1,2.7,2.3c0,0,0,0,0,0
			c1.9,1.1,4.2,1.8,6.3,2.5c-0.8,0.4-1.5,0.8-2.3,1.1c-2.8,1.2-5.8,2.1-8.7,2.9c-0.6,0.1-1.2,0.3-1.8,0.4c0,0,0,0,0,0
			c-1.2,0.4-2.6-0.5-3.1-1.6c-0.4-0.7,0-1.5,0.7-1.9c0.4-0.2,0.8-0.2,1.1,0.1c0.4,0.3,0.3,1.1,0,0.7c-0.2-0.3-0.6,0-0.5,0.3
			c0.4,1.1,1.5,0.6,1.4-0.4c-0.1-1.4-1.9-1.4-2.7-0.7c-1.5,1.3,0,3.5,1.6,4c-1.4,0.4-2.8,0.8-4.1,1.3c-0.5-0.7-1-1.4-1.7-1.8
			c-0.5-0.3-1.4,0-1.4,0.7c0,0.6,1,1.4,1.8,1.6c-1.7,0.7-3.4,1.4-5.1,2.3c-1,0.1-2,0.1-3,0c-0.9-0.1-1.7-0.5-2.6-0.7
			c0.5-0.4,0.6-1.4,0.6-2c0-0.7-0.2-1.9-1-2.2c-0.8-0.3-1.3,0.7-1.3,1.3c0,0.6,0.3,1.2,0.7,1.8c-0.4-0.3-0.8-0.6-1.1-0.8
			c-0.5-0.3-1.3-0.9-2-0.6c-0.7,0.4-0.3,1.7,0.1,2.1c0.7,0.8,2.2,0.9,3.2,0.7c0.1,0,0.1-0.1,0-0.1c0,0,0,0,0,0
			c0.9,0.6,2.2,0.8,3.2,1c0.8,0.1,1.6,0.1,2.3,0c-2.9,1.6-5.5,3.6-7.7,6.2c-1.1,0.5-2.6,0.5-3.4-0.5c-0.6-0.7-0.8-2,0.3-2.3
			c0.5-0.1,0.9,0.2,1,0.7c0.1,0.3-0.1,0.2-0.4,0.2c-0.2,0-0.2,0.2-0.2,0.3c0.2,0.3,0.7,0.4,0.9,0.1c0.3-0.4,0.2-0.8,0-1.2
			c-0.5-1.1-2.4-0.9-2.7,0.3c-0.6,2.3,1.8,3.4,3.7,3c0,0,0,0,0,0c-1.7,2.2-3.2,4.5-5,6.6c0,0-0.1,0-0.1,0c0,0,0,0,0-0.1
			c0,0,0.1,0,0.1-0.1c0.1-0.1,0.1-0.2,0.1-0.3c-0.1-0.3-0.8-0.6-1.1-0.8c-0.4-0.3-0.8-0.4-1.3-0.5c-0.7-0.1-1.7,0.3-1.8,1.2
			c0,0.9,0.9,1.5,1.7,1.6c0.5,0,1.1,0,1.6-0.2c0,0,0,0,0,0c-0.1,0.1-0.2,0.3-0.3,0.4c-0.3,0.3-0.6,0.6-0.9,1c0,0,0,0,0,0
			c0,0,0,0,0,0c-0.1,0.1-0.1,0.1-0.2,0.2c-0.1-0.1-0.3-0.1-0.4,0c-0.4,0.3-0.7,0.5-1.3,0.6c-0.4,0.1-0.9,0-1.3,0.1
			c-0.1,0-0.1,0.2,0,0.3c0.6,0.1,1.3,0.3,1.9,0.1c-0.6,0.6-1.2,1.2-1.9,1.7c-0.7,0.3-1.4,0.5-2.2,0.6c-0.4,0-0.9,0-1.3,0
			c-0.2,0-0.4-0.1-0.6-0.1c0,0,0-0.1-0.1-0.1c-0.5-0.6-1.4-0.7-2.1-0.8c-0.4-0.1-1.5-0.2-1.7,0.3c-0.3,0.6,0.9,1.2,1.3,1.3
			c0.5,0.2,1.7,0.2,2.2-0.3c0.5,0.4,1.6,0.3,2.2,0.3c0.4,0,0.9-0.1,1.4-0.3c-2,1.5-4.2,2.7-6.6,3.4c0.1-0.2,0-0.4-0.2-0.4
			c0,0,0,0-0.1,0c-0.5-0.6-0.9-1.3-1.7-1.6c-0.5-0.2-1.3-0.2-1.3,0.6c0,1,2,2.8,2.9,1.7c0.5,0,1-0.1,1.5-0.3
			c-0.5,0.4-0.9,0.9-1.1,1.5c-0.2,0.7,0.1,1.9,0.9,2.1c0.6,0.1,1.8-0.2,1.5-1.1c-0.3-0.8-1.1-0.5-1.4,0.1c-0.1,0.1,0,0.3,0.1,0.4
			c-0.4-0.1-0.6-0.4-0.7-0.9c-0.2-1.1,1.1-2.2,2-2.6c0,0,0.1,0,0.1-0.1c1.8-0.7,3.5-1.8,5-3.1c-0.6,0.9-0.8,2.2-0.8,3.3
			c-0.1,0-0.1,0-0.2,0.1c-0.1,0.2-0.2,0.4-0.2,0.6c-0.2,0.2-0.5,0.4-0.7,0.6c-0.4,0.4-0.5,0.9-0.5,1.4c0,0.5,0.2,1.2,0.8,1.1
			c0.6-0.1,0.9-0.7,1.1-1.2c0.3-0.6,0.4-1.4,0.1-1.9c0.1,0,0.2-0.1,0.2-0.3c0-0.7,0-1.4,0.1-2.2c0.1-0.7,0.4-1.2,0.7-1.8
			c1.3-0.6,2.3-2.1,3.1-3c0.9-1.1,1.8-2.2,2.7-3.3c0.9-1,1.8-2.1,2.6-3.2c-0.3,0.7-0.5,1.4-0.5,2.1c0,0.5,0.1,1.1,0.1,1.6
			c0.1,0.4,0,0.9,0,1.3c0,0.3,0.3,0.3,0.5,0.1c0.4-0.6,0-1.6-0.1-2.3c-0.2-1.2,0.3-2.1,0.4-3.2c0,0,0,0,0,0c0.9-1.1,1.7-2.1,2.6-3.1
			c-0.2,0.3-0.3,0.5-0.5,0.8c-0.4,0.7-0.7,1.7,0,2.4c1.2,1.3,1.7-2.2,1.7-2.8c0-0.2,0.1-0.9-0.1-1.1c0.1-0.1,0.2-0.3,0.2-0.4
			c0-0.1,0-0.1,0-0.2c0,0,0,0,0,0c0.5-0.5,1.1-1,1.7-1.5c2.1-1.6,4.5-3,7-4.1c-1,1.3-1.9,2.6-2.1,4.2c0,0.3,0.4,0.4,0.5,0.1
			c0.3-1.8,1.3-3.2,2.3-4.6c2.2-0.9,4.4-1.7,6.7-2.4c2.4-0.7,4.8-1.3,7.2-2c-1.4,1.5-2.8,3.1-3.7,5c-0.1,0-0.2,0.1-0.3,0.2
			c-0.8,0.2-1.6,1-2.1,1.5c-0.5,0.6-0.9,1.8-0.2,2.4c0.7,0.6,1.6,0,2-0.6c0.6-0.7,1-2,0.9-3c0.8-1.1,1.2-2.3,2.1-3.4
			c0.6-0.7,1.4-1.4,1.8-2.3c1.4-0.4,2.7-0.8,4.1-1.3c-0.6,0.5-1.1,1.3-1.2,2c-0.1,0.6,0.2,1.6,1,1.6c0.7,0,1.2-0.6,1.5-1.2
			c0.3-0.7,0.4-1.9-0.3-2.4c-0.1-0.1-0.2,0-0.3,0c0,0,0,0,0-0.1c0.1-0.1,0.1-0.1,0.2-0.2c0.1-0.1,0.1-0.1,0-0.2c2.5-1,4.9-2.3,7-4.2
			c1.1-0.9,3.9-3.4,4.7-5.5c0.3-0.5,0.4-1.1,0.5-1.7C290.6,313.9,290.4,313.8,290.2,313.8z M273.7,320.7
			C273.7,320.7,273.6,320.6,273.7,320.7c-0.4-0.2-0.8-0.5-1.1-0.8c-0.1-0.1-0.3,0.1-0.2,0.2c0.2,0.4,0.5,0.7,0.9,1
			c0,0,0.1,0,0.1,0.1c-0.9-0.3-2.2-0.8-2-1.3c0.1-0.3,0.6-0.5,0.9-0.5c0.4,0,0.7,0.3,0.9,0.6C273.4,320.1,273.6,320.4,273.7,320.7z
			 M248.7,330.2c-0.1-0.3-0.2-0.7-0.2-1.1c0-0.4,0.5-0.8,0.9-0.7c0.5,0.2,0.5,1.3,0.5,1.8c0,0.4-0.1,0.8-0.2,1.1
			c-0.1-0.5-0.2-1-0.3-1.5c0-0.3-0.5-0.2-0.4,0c0.1,0.6,0.3,1.2,0.5,1.8c0,0,0,0,0,0C249.2,331.2,248.9,330.7,248.7,330.2z
			 M249.1,332.3C249.1,332.3,249,332.3,249.1,332.3c-1-0.1-2-0.1-2.8-0.7c-0.4-0.3-0.8-1.7,0.1-1.5c0.8,0.3,1.4,0.8,2,1.4
			c-0.5-0.2-0.9-0.4-1.3-0.7c-0.2-0.2-0.5,0.2-0.3,0.4c0.5,0.4,1.3,0.8,2.1,0.8c0,0,0.1,0.1,0.1,0.1
			C249,332.2,249,332.3,249.1,332.3z M229.6,352.4c0.4,0.1,0.8,0.2,1.3,0.3c0,0,0.1,0,0.1,0c-0.4,0.1-0.9,0-1.3-0.1
			c-0.3-0.1-0.5-0.3-0.8-0.5c0,0-0.1-0.1-0.1-0.1c0,0,0,0,0,0c0.4-0.2,1,0,1.4,0.1c0.1,0,0.3,0.1,0.4,0.1c-0.3,0-0.6-0.1-0.9-0.1
			C229.4,352.1,229.4,352.4,229.6,352.4z M227.5,355.7c-0.3-0.1-0.6-0.3-1-0.4c-0.1-0.1-0.3,0.1-0.1,0.2c0.4,0.3,1,0.7,1.6,0.8
			c0,0,0,0,0,0c0,0-0.1,0-0.1,0c-0.3,0-0.7,0-1-0.2c-0.5-0.3-0.9-0.7-1-1.3c-0.1-0.7,1.1,0,1.3,0.2c0.2,0.2,0.4,0.5,0.6,0.8
			C227.7,355.7,227.6,355.7,227.5,355.7z M235.4,357.7c-0.1,0.5-0.3,1-0.6,1.3c-0.4,0.4-0.4-0.2-0.4-0.5c0-0.6,0.1-0.9,0.5-1.3
			c0,0.3-0.1,0.6-0.1,0.9c0,0.2,0.3,0.3,0.3,0.1c0.1-0.3,0.1-0.7,0.2-1c0-0.1,0-0.2,0.1-0.3C235.4,357.2,235.4,357.4,235.4,357.7z
			 M239.6,347.5c-0.4,0.1-0.8,0-1.1-0.1c-0.4-0.1-0.8-0.7-0.6-1.1c0.3-0.7,1.5-0.5,2-0.2c0.1,0.1,0.3,0.2,0.5,0.4
			c-0.2,0-0.3,0-0.5,0c-0.4,0-0.8-0.1-1.1-0.1c-0.2,0-0.2,0.2-0.1,0.3c0.7,0.3,1.5,0.6,2.2,0.6C240.4,347.3,240.1,347.4,239.6,347.5
			z M248.8,340.7c-0.1,0.4-0.2,0.9-0.4,1.2c-0.1,0.1-0.2-0.1-0.3-0.2c-0.2-0.2-0.1-0.6,0-0.8c0.1-0.3,0.2-0.6,0.4-0.9
			c-0.1,0.3-0.1,0.6-0.1,1c0,0.2,0.2,0.2,0.3,0c0.1-0.4,0.3-0.7,0.4-1.1C248.9,340.1,248.8,340.4,248.8,340.7z M260.2,329.3
			c-0.1-0.1-0.3,0-0.3,0.1c0,0.3,0.3,0.6,0.7,0.8c-0.7-0.2-1.4-0.8-1.5-1.2c0-0.2,0.3-0.4,0.5-0.4c0.3,0,0.6,0.3,0.8,0.6
			c0.1,0.1,0.2,0.3,0.3,0.4C260.5,329.5,260.3,329.4,260.2,329.3z M267.9,334.9c0.3-0.2,0.6-0.5,0.8-0.9c-0.1,0.3-0.1,0.5-0.3,0.8
			c-0.1,0.3-1.2,1.8-1.5,1.1c-0.4-0.7,0.4-1.6,0.9-2.1c0.2-0.2,0.4-0.3,0.6-0.4c-0.2,0.4-0.4,0.9-0.8,1.2
			C267.5,334.8,267.7,335.1,267.9,334.9z M278,327.9c-0.1-0.5,0-1,0-1.5c0.1,0.2,0.2,0.4,0.2,0.6c0.1,0.3,0.1,0.6,0,0.9
			c-0.1,0.5-0.4,0.9-0.8,1.1c-0.6,0.2-0.7-0.7-0.7-1.1c0-0.5,0.3-0.9,0.7-1.3c0,0.5,0.1,0.9,0.3,1.3
			C277.8,328.1,278.1,328,278,327.9z"/>
		<path fill="#E1E1D6" d="M255.8,337.7c-0.1-0.2-0.4-0.1-0.5,0c0,0-0.1,0-0.1,0c-0.2,0-0.3,0.3-0.1,0.4c0,0,0,0,0,0c0,0,0,0.1,0,0.1
			c0,0.2,0.2,0.3,0.4,0.2c0,0,0,0,0,0c0.2,0.2,0.5,0,0.4-0.2c0-0.1-0.1-0.3-0.1-0.4C255.9,337.9,255.9,337.8,255.8,337.7
			C255.8,337.8,255.8,337.7,255.8,337.7z"/>
		<path fill="#E1E1D6" d="M255.7,339.3c-0.1-0.1-0.2-0.3-0.4-0.2c0,0-0.1,0-0.1,0c-0.1,0-0.2,0-0.2,0.1c-0.1,0.1-0.2,0.2-0.2,0.3
			c0,0,0,0,0,0.1c0,0,0,0,0,0c0,0.1,0.1,0.3,0.2,0.4c0.2,0.3,0.6,0.1,0.6-0.2c0,0,0,0,0,0C255.8,339.6,255.8,339.5,255.7,339.3z"/>
		<path fill="#E1E1D6" d="M245.5,348.7c-0.2,0.1-0.3,0.3-0.4,0.5c0,0,0,0.1,0,0.1c0,0-0.1,0.1-0.1,0.2c0,0,0,0,0,0
			c0,0.1,0,0.1,0,0.2c0,0,0,0,0,0c0,0,0,0.1,0,0.1c-0.1,0.3,0.5,0.4,0.5,0.1c0-0.1,0-0.2,0-0.3c0,0,0-0.1,0-0.1
			c0.1,0,0.1-0.1,0.2-0.1c0.1-0.1,0.1-0.3,0.1-0.4C245.8,348.7,245.6,348.5,245.5,348.7z"/>
		<path fill="#E1E1D6" d="M245,351.1c0,0.1,0,0.2-0.1,0.2c0,0-0.1,0.1-0.1,0.1c0,0,0,0.1,0,0.2c0,0,0,0,0,0.1c0,0,0,0,0,0
			c-0.1,0.3,0.1,0.5,0.3,0.4c0.2,0.1,0.4,0,0.4-0.2c0-0.1,0-0.2,0.1-0.4c0,0,0,0,0,0l0,0c0-0.1,0-0.2-0.1-0.2c0-0.1,0-0.1,0-0.2
			C245.4,350.9,245.1,350.9,245,351.1z"/>
	</g>
	<path fill="#548E40" d="M260.1,323.6c-3,0.6-5.8,2.3-7.6,4.4c-1.4,1.6-1.5,3.5-0.9,5.7c-0.1,0.6,0,1.3,0.1,2
		c-0.2,0.8-0.4,1.6-0.7,2.3c-0.2,0.3-0.3,0.5-0.4,0.8c-0.2,0.3-0.5,0.7-0.8,0.9c-3,1.4-5.8,2.7-8.1,4.9c-1.7,1.7-2.9,3.5-4.1,5.4
		c0.4-1.9,0.1-4.1,0.3-6c1.6-1.4,2.6-3,3-5.1c0.2-1.4,0-3,0.4-4.3c0.4-1.3,1.2-2.5,1.8-3.7c0.1-0.2-0.2-0.5-0.4-0.4
		c-2.5,1.2-5.5,2.5-6.6,5c-1.2,2.6-0.8,5.4,0.8,8.3c0,0,0,0.1,0.1,0.1c0.1,0.9,0.3,1.9,0.2,2.8c-0.1,1.2-0.2,2.4,0,3.6
		c0,0.2,0,0.4,0,0.6c-0.4,0.7-0.8,1.4-1.1,2.1c-0.6,1.1-1.2,2.2-1.9,3.3c-0.3,0.4-0.6,0.9-0.9,1.3c0,0.1-0.1,0.3-0.2,0.6
		c-0.1-0.1-0.4-0.2-0.5,0c0,0-0.1,0.1-0.1,0.1c-0.1,0.1,0,0.3,0.1,0.4c0,0,0,0,0.1,0c0.1,0.1,0.2,0.1,0.3,0c1.6-0.8,2.6-3.3,3.3-4.7
		c1.1-2.1,2.2-4.1,3.5-6c2.1-1.3,4.3-1.8,6.8-2.2c3.1,0.7,6.3,1.9,8.7,0.2c2.7-1.9,4.1-5,7.3-6.4c0.2-0.1,0.1-0.5-0.2-0.5
		c-2.9,0.7-6.6,0.1-9.1,1.5c-2.3,1.3-4,3.4-6.5,4.5c-0.7,0.1-1.5,0.2-2.2,0.3c-1.3,0.3-2.7,0.7-3.9,1.4c0.7-0.9,1.6-1.8,2.5-2.6
		c1.7-1.4,3.5-2.6,5.6-3.4c1.5-0.5,2.9-1.2,4.1-2.1c1.4-1,2.5-2.2,3.4-3.5c0,0,0,0,0.1,0c0.9-0.1,1.8-0.3,2.7-0.6
		c5,0.8,7.7-3.8,9.7-6.9c0.1-0.2-0.1-0.4-0.3-0.4c-2.4,0.3-4.4,1-6.2,2.3c-0.7,0.5-1.5,1.1-2,1.8c-0.6,0.8-0.8,1.7-1.4,2.5
		c0,0,0,0.1,0,0.1c-0.2,0.1-0.3,0.1-0.5,0.2c-0.3,0-0.5,0.1-0.8,0.1c-0.2,0.1-0.5,0.1-0.7,0.1c0.5-0.8,0.9-1.7,1.3-2.6
		c0.1-0.2-0.3-0.4-0.4-0.2c-1.7,2.9-3.6,5.8-6.9,7.4c0.3-0.4,0.6-1,0.7-1.6c0.2-0.3,0.3-0.6,0.4-1c0-0.2,0-0.4,0.1-0.6
		c0.2-0.5,0.3-1,0.5-1.5c0,0,0,0,0.1,0c4.7-2,4-7.9,7.8-10.6C260.6,323.9,260.3,323.5,260.1,323.6z M266,331c0.3-0.4,0.6-0.9,1-1.3
		C266.7,330.1,266.4,330.6,266,331z"/>
	<path fill="#548E40" d="M305.6,309.6c-3-0.8-6.2-0.3-8.7,0.8c-2,0.9-2.8,2.5-3.2,4.8c-0.4,0.5-0.6,1.2-0.8,1.9
		c-0.5,0.6-1,1.3-1.6,1.8c-0.3,0.2-0.5,0.4-0.7,0.6c-0.3,0.2-0.7,0.4-1.1,0.5c-3.3,0-6.4,0-9.4,1.1c-2.2,0.8-4.1,1.9-6,3.2
		c1.1-1.6,1.8-3.6,2.8-5.3c2-0.6,3.6-1.6,4.8-3.4c0.8-1.2,1.3-2.8,2.2-3.7c1-1,2.2-1.7,3.2-2.6c0.2-0.1,0.1-0.5-0.2-0.5
		c-2.8,0-6-0.1-8.1,1.7c-2.2,1.9-3,4.5-2.8,7.8c0,0,0,0.1,0,0.1c-0.3,0.9-0.5,1.9-1,2.6c-0.6,1-1.2,2.1-1.5,3.3
		c-0.1,0.2-0.2,0.3-0.2,0.5c-0.6,0.5-1.3,0.9-1.9,1.4c-1,0.8-2,1.5-3.1,2.2c-0.5,0.3-0.9,0.5-1.4,0.8c-0.1,0-0.2,0.2-0.4,0.4
		c-0.1-0.2-0.3-0.4-0.5-0.3c0,0-0.1,0.1-0.1,0.1c-0.1,0.1-0.1,0.3-0.1,0.4c0,0,0,0,0,0.1c0.1,0.1,0.2,0.2,0.3,0.2
		c1.7,0,3.8-1.9,5-2.8c1.9-1.5,3.7-2.8,5.7-4c2.4-0.3,4.6,0.1,7.1,0.9c2.5,1.9,4.9,4.4,7.8,3.9c3.3-0.5,5.8-2.8,9.3-2.7
		c0.3,0,0.3-0.4,0-0.5c-2.9-0.6-6-2.7-8.9-2.5c-2.7,0.2-5.1,1.4-7.8,1.4c-0.7-0.2-1.4-0.5-2.1-0.6c-1.3-0.3-2.8-0.5-4.1-0.4
		c1.1-0.5,2.2-0.9,3.4-1.2c2.1-0.5,4.2-0.9,6.5-0.7c1.6,0.1,3.1,0.1,4.6-0.2c1.7-0.3,3.2-0.9,4.6-1.7c0,0,0,0,0,0
		c0.8,0.3,1.7,0.5,2.7,0.6c4.2,2.8,8.6-0.2,11.7-2.1c0.2-0.1,0.1-0.4-0.1-0.5c-2.3-0.7-4.4-1-6.6-0.5c-0.9,0.2-1.8,0.3-2.6,0.7
		c-0.9,0.5-1.5,1.2-2.4,1.6c0,0-0.1,0.1-0.1,0.1c-0.2,0-0.4,0-0.6,0c-0.3-0.1-0.5-0.2-0.8-0.2c-0.2,0-0.5-0.1-0.7-0.2
		c0.8-0.5,1.5-1.1,2.2-1.8c0.1-0.1-0.1-0.4-0.3-0.3c-2.8,1.9-5.7,3.7-9.4,3.8c0.5-0.3,0.9-0.7,1.3-1.1c0.3-0.2,0.6-0.4,0.8-0.7
		c0.1-0.2,0.2-0.3,0.3-0.5c0.4-0.4,0.7-0.8,1.1-1.1c0,0,0,0,0.1,0c5.1,0.2,7-5.4,11.6-6.3C305.9,310.1,305.8,309.7,305.6,309.6z
		 M307.8,318.8c0.5-0.3,1-0.5,1.4-0.8C308.8,318.3,308.3,318.6,307.8,318.8z"/>
	<path fill="#548E40" d="M383.1,353.5c-0.6-3-2.3-5.8-4.4-7.6c-1.6-1.4-3.5-1.5-5.7-0.9c-0.6-0.1-1.3,0-2,0.1
		c-0.8-0.2-1.6-0.4-2.3-0.7c-0.3-0.2-0.5-0.3-0.8-0.4c-0.3-0.2-0.7-0.5-0.9-0.8c-1.4-3-2.7-5.8-4.9-8.1c-1.7-1.7-3.5-2.9-5.4-4.1
		c1.9,0.4,4.1,0.1,6,0.3c1.4,1.6,2.9,2.6,5.1,3c1.4,0.2,3,0,4.3,0.4c1.3,0.5,2.5,1.2,3.7,1.8c0.2,0.1,0.5-0.2,0.4-0.4
		c-1.2-2.5-2.5-5.5-5-6.6c-2.6-1.2-5.3-0.8-8.3,0.8c0,0-0.1,0-0.1,0.1c-0.9,0.1-1.9,0.3-2.8,0.2c-1.2-0.1-2.4-0.2-3.6,0
		c-0.2,0-0.4,0-0.6,0c-0.7-0.4-1.4-0.8-2.1-1.1c-1.1-0.6-2.2-1.2-3.3-1.9c-0.4-0.3-0.9-0.6-1.3-0.9c-0.1,0-0.3-0.1-0.6-0.2
		c0.1-0.1,0.2-0.4,0-0.5c0,0-0.1-0.1-0.1-0.1c-0.1-0.1-0.3,0-0.4,0.1c0,0,0,0,0,0.1c-0.1,0.1-0.1,0.2,0,0.3c0.8,1.6,3.3,2.6,4.7,3.3
		c2.1,1.1,4.1,2.2,6,3.5c1.3,2.1,1.8,4.3,2.2,6.8c-0.7,3.1-1.9,6.2-0.3,8.7c1.9,2.8,5,4.1,6.4,7.3c0.1,0.2,0.5,0.1,0.5-0.2
		c-0.7-2.9-0.1-6.6-1.5-9.1c-1.3-2.3-3.4-4-4.5-6.5c-0.1-0.7-0.2-1.5-0.3-2.2c-0.3-1.3-0.7-2.7-1.4-3.9c0.9,0.8,1.8,1.6,2.6,2.5
		c1.4,1.7,2.6,3.5,3.4,5.6c0.5,1.5,1.2,2.9,2.1,4.1c1,1.4,2.2,2.5,3.5,3.4c0,0,0,0,0,0.1c0.1,0.9,0.3,1.8,0.6,2.7
		c-0.8,5,3.8,7.7,6.8,9.7c0.2,0.1,0.4-0.1,0.4-0.3c-0.3-2.4-1-4.4-2.3-6.2c-0.5-0.7-1.1-1.5-1.8-2c-0.8-0.6-1.7-0.9-2.5-1.5
		c0,0-0.1,0-0.1,0c-0.1-0.2-0.1-0.3-0.2-0.5c0-0.3-0.1-0.5-0.1-0.8c-0.1-0.2-0.1-0.5-0.1-0.7c0.8,0.5,1.7,0.9,2.6,1.3
		c0.2,0.1,0.4-0.3,0.2-0.4c-2.9-1.8-5.8-3.7-7.4-6.9c0.4,0.3,1,0.6,1.6,0.7c0.3,0.2,0.6,0.3,1,0.4c0.2,0,0.4,0,0.6,0.1
		c0.5,0.2,1,0.3,1.5,0.5c0,0,0,0,0,0.1c2,4.7,7.9,4,10.6,7.8C382.8,354,383.2,353.8,383.1,353.5z M375.7,359.4
		c0.4,0.3,0.9,0.6,1.3,1C376.6,360.1,376.1,359.8,375.7,359.4z"/>
	<path fill="#548E40" d="M351.3,318.8c-2.3-2.1-5.3-3.2-8.1-3.4c-2.2-0.2-3.7,0.9-5.1,2.7c-0.6,0.3-1.1,0.8-1.6,1.3
		c-0.7,0.3-1.5,0.7-2.3,0.8c-0.3,0-0.6,0.1-0.9,0.2c-0.4,0-0.8,0-1.2-0.1c-2.9-1.6-5.6-3-8.8-3.5c-2.3-0.3-4.5-0.3-6.8,0
		c1.7-0.9,3.3-2.4,5-3.4c2,0.5,3.9,0.3,5.9-0.7c1.2-0.7,2.4-1.8,3.7-2.3c1.3-0.4,2.7-0.5,4.1-0.8c0.2,0,0.3-0.4,0.1-0.6
		c-2.5-1.3-5.3-2.9-8-2.3c-2.8,0.7-4.7,2.6-6.2,5.6c0,0,0,0.1,0,0.1c-0.7,0.6-1.3,1.4-2.1,1.9c-1,0.6-2,1.2-2.9,2.2
		c-0.2,0.1-0.3,0.2-0.5,0.3c-0.8,0.1-1.6,0.2-2.4,0.4c-1.2,0.2-2.5,0.4-3.7,0.5c-0.5,0-1,0.1-1.6,0c-0.1,0-0.3,0.1-0.6,0.2
		c0-0.2-0.1-0.4-0.3-0.4c0,0-0.1,0-0.1,0c-0.2,0-0.3,0.2-0.2,0.4c0,0,0,0.1,0,0.1c0,0.1,0.1,0.2,0.2,0.3c1.5,0.8,4.2,0.1,5.7-0.2
		c2.3-0.4,4.6-0.7,6.9-0.8c2.3,0.8,4,2.3,5.9,4.1c1.3,2.9,2.2,6.2,5,7.1c3.1,1.1,6.5,0.3,9.5,2c0.2,0.1,0.5-0.3,0.2-0.5
		c-2.3-1.9-4-5.2-6.6-6.4c-2.4-1.1-5.1-1.2-7.5-2.5c-0.5-0.5-1-1.1-1.6-1.6c-1-0.9-2.2-1.8-3.4-2.3c1.2,0.1,2.4,0.2,3.6,0.5
		c2.1,0.5,4.2,1.2,6.1,2.4c1.3,0.8,2.7,1.6,4.1,2c1.6,0.5,3.2,0.7,4.8,0.6c0,0,0,0,0,0.1c0.6,0.7,1.3,1.3,2.1,1.8
		c2.4,4.5,7.7,3.8,11.3,3.7c0.2,0,0.3-0.3,0.1-0.5c-1.6-1.7-3.4-3-5.5-3.6c-0.8-0.2-1.7-0.5-2.6-0.5c-1,0-1.9,0.4-2.8,0.3
		c0,0-0.1,0-0.1,0c-0.2-0.1-0.3-0.2-0.5-0.3c-0.2-0.2-0.4-0.4-0.6-0.6c-0.2-0.1-0.4-0.3-0.5-0.5c0.9-0.1,1.9-0.3,2.8-0.5
		c0.2-0.1,0.1-0.4-0.1-0.4c-3.4,0.4-6.8,0.5-10.1-1.1c0.6,0,1.1-0.2,1.7-0.4c0.4,0,0.7-0.1,1-0.3c0.2-0.1,0.3-0.2,0.5-0.3
		c0.5-0.2,1-0.3,1.5-0.5c0,0,0,0,0,0c4.4,2.5,8.7-1.5,13.2-0.1C351.3,319.4,351.5,319,351.3,318.8z M349,328c0.5,0,1.1,0,1.6,0
		C350,328,349.5,328,349,328z"/>
</g>
</svg>
