<?xml version="1.0" encoding="utf-8"?>
<!-- Generator: Adobe Illustrator 22.1.0, SVG Export Plug-In . SVG Version: 6.00 Build 0)  -->
<svg version="1.1" id="Layer_1" xmlns="http://www.w3.org/2000/svg" xmlns:xlink="http://www.w3.org/1999/xlink" x="0px" y="0px"
	 viewBox="0 0 391.9 179.6" enable-background="new 0 0 391.9 179.6" xml:space="preserve">
<path fill="#811517" d="M194.7,94.4"/>
<path fill="#811517" d="M194.5,103.9c0.1-0.2,0.3-0.3,0.4-0.5c0,0.3,0.2,0.6-0.1,0.8C194.7,104.3,194.5,104.1,194.5,103.9z"/>
<g>
	<path fill="#D8D8C0" d="M121.5,128.3c5.1,1.3,9.4,3.7,13.6,6.7c0,0,0,0,0,0.1c-0.9,1.2-1.1,3-1.2,4.5c0,0.6-0.2,2.2,0.8,2.1
		c1.3-0.1,1.7-2.3,1.8-3.3c0.1-0.8,0-1.8-0.3-2.6c0.1,0.1,0.1,0.1,0.2,0.2c2.5,1.8,4.7,3.6,6.7,5.7c0,0,0,0.1-0.1,0.1
		c0,0-0.1,0.1-0.1,0.2c-0.4,1-0.7,2-0.9,3c-0.2,0.6-0.8,2.4,0.1,2.8c1.1,0.5,1.8-1.2,2-1.9c0.2-0.9,0.3-2.1,0-3.1
		c0.1,0.1,0.1,0.2,0.2,0.2c0,0.1,0.1,0.1,0.1,0.2c1.4,1.6,2.6,3.3,3.7,5.2c0.2,0.3,0.4,0.6,0.6,0.9c-1.2,1.1-3,6.4-0.2,6.6
		c1.7,0.1,1.6-3,1.2-5.1c1.6,2.5,3.3,4.9,5.2,7.2c-0.6,0.3-0.9,1.8-0.9,2.2c-0.1,1.1-0.2,2.9,0.6,3.8c0.9,1,1.8-0.6,1.9-1.3
		c0.2-1.2-0.2-2.4-0.6-3.5c0.6,0.7,1.3,1.4,1.9,2.1c1.7,1.8,3.5,3.6,5.6,5.1c0,0,0,0.1,0,0.1c0,0,0,0.1,0,0.1c0,0,0,0,0,0
		c-0.3,0.5-0.3,1.2-0.5,1.8c-0.1,0.7-0.1,1.3,0,1.9c0.1,0.6,0.6,1.7,1.4,1.4c1-0.4,1.3-1.5,1.1-2.4c-0.1-0.7-0.4-1.5-0.9-2.1
		c1.9,1,3.9,1.3,5.8,2.2c0.1,0.1,0.2-0.1,0.1-0.2c-0.8-0.4-1.6-0.7-2.4-1c-1.8-0.5-3.3-1.4-4.8-2.5c-1.4-1.1-2.8-2.4-4.1-3.7
		c0.2,0,0.5,0,0.7-0.1c0.6,0.2,1.2,0.3,1.8,0.2c0.5,0,2.5-0.5,2.3-1.3c-0.1-0.8-1.3-0.9-1.9-0.9c-1.2-0.1-2.9,0.2-3.7,1.2
		c-0.6-0.6-1.2-1.3-1.7-1.9c-1.7-1.9-3.1-3.9-4.5-6c0.1,0,0.2,0,0.3,0c1,0.5,2.1,0.8,3.1,1c0.7,0.1,2.5-0.2,2.1-1.4
		c-0.4-1.1-2-1.3-2.9-1.4c-1-0.1-2.5,0-3.3,0.8c-1.5-2.3-2.9-4.6-4.4-6.9c-0.5-0.7-1-1.5-1.6-2.1c0,0,0,0,0,0c2,1.2,5.6,2.8,5.7-0.1
		c0.1-1.2-1.7-1.4-2.5-1.4c-0.9,0-1.8,0.1-2.6,0.2c-0.4,0.1-1,0.1-1.4,0.4c-1.5-1.7-3.2-3.2-5.1-4.6c2.2,1.2,5.5,2.4,6.6,0.3
		c0.9-1.5-5.8-2.6-7.1-1c-0.3-0.1-0.7-0.3-1-0.4c0,0,0,0,0,0c-0.9-0.6-1.7-1.3-2.6-1.9c-4.2-3-9-6.4-14.2-6.9
		C121.2,127.7,121.1,128.2,121.5,128.3z M164.3,167.9c0.2,0.6,0.3,1.3,0.2,2c0,0.1,0.1,0.1,0.2,0.1c0.3-0.7,0.3-1.3,0.2-2.1
		c0.5,1.1,0.7,2.3-0.3,3.1c-0.8,0.6-0.9-1.7-0.9-2c0-0.5,0.3-1.1,0.4-1.7C164.1,167.5,164.2,167.7,164.3,167.9z M161.6,160.5
		c0.4-0.1,0.8,0,1.2,0c0.2,0,0.4,0.1,0.6,0.2c0.5,0.2-0.2,0.4-0.4,0.5c-0.6,0.3-1.3,0.4-1.9,0.3c0.4-0.1,0.7-0.3,1.1-0.4
		c0.2-0.1,0.1-0.4-0.1-0.4c-0.5,0.1-1,0.2-1.5,0.4c-0.4,0.1-0.8,0.1-1.2,0.1C160.1,160.9,160.7,160.6,161.6,160.5z M155.9,160.6
		c0-0.4-0.1-0.8-0.1-1.3c0-0.3-0.1-0.6-0.2-0.8c0,0,0,0,0,0c0,0,0.1,0.1,0.1,0.1c0.2,0.8,0.3,1.7,0.4,2.5c0.1,0.5,0.1,1,0,1.6
		c-0.1,0.3-0.5,1.3-0.9,0.7c-0.5-0.7-0.4-2-0.4-2.8c0-0.5,0.1-0.9,0.2-1.3c0.1,0.3,0.2,0.6,0.2,0.9c0.1,0.5,0.3,1.4,0,1.8
		c0,0.1,0.1,0.2,0.1,0.1C155.9,161.8,155.9,161.2,155.9,160.6z M157.1,152.8c0.5,0.4-0.4,0.8-0.7,0.8c-0.6,0.1-1.2,0-1.8-0.2
		c-0.2-0.1-0.5-0.1-0.7-0.2c0.6,0,1.2-0.2,1.8-0.5c0.1,0,0-0.2-0.1-0.1c-1,0.5-2,0.1-3.1,0C154,151.9,155.9,151.8,157.1,152.8z
		 M148.8,150.5c0,0.1,0,0.2,0,0.3c0.1,0.8,0.1,1.7-0.5,2.3c-0.1,0.1,0,0.2,0.1,0.1c0.6-0.4,0.8-0.9,0.9-1.6c0-0.3,0.1-0.6,0.1-1
		c0,0.3,0.1,0.7,0.1,1c0.1,1,0.2,2.5-0.5,3.4c-0.6,0.7-1.2-0.4-1.2-0.8c-0.1-0.6,0.1-1.2,0.2-1.8
		C148.2,151.8,148.5,151.1,148.8,150.5z M150.9,143.2c-0.1,1.7-2.3,0.8-4.2,0c0.6,0,1.2-0.1,1.8-0.2c0.2,0,0.2-0.3,0-0.3
		c-0.7,0-1.5-0.1-2.2-0.1C148.1,142.3,151,141.8,150.9,143.2z M143.5,143.9c0,0.7-0.2,1.4-0.7,1.9c-0.1,0.1,0,0.2,0.1,0.1
		c0.7-0.4,1.1-1.4,1.1-2.3c0,0.6,0,1.1-0.1,1.6c-0.1,0.7-0.3,1.4-0.8,1.8c-0.5,0.5-0.8,0.1-0.7-0.5c0.1-1.2,0.6-2.3,1-3.5
		C143.4,143.4,143.5,143.6,143.5,143.9z M141.2,137.3c0.6,0,1.1,0,1.7-0.1c0.2,0,0.2-0.3,0-0.3c-0.4-0.1-0.8-0.1-1.2-0.2
		c0.6-0.1,1.2-0.1,1.9,0c0.4,0,0.9,0.1,1.3,0.2c0.4,0.1,0.7,0.2,1.1,0.4c0.8,0.5-1,1.1-1.1,1.1c-1.5,0.3-2.9-0.5-4.2-1.1
		C140.8,137.4,141,137.3,141.2,137.3z M135.3,136.1c0,0.3,0.1,0.6,0.1,0.9c-0.1,0.7-0.2,1.4-0.3,2.1c0,0.1,0.2,0.2,0.2,0.1
		c0.3-0.7,0.7-1.7,0.8-2.7c0.3,1.4,0.1,3.1-0.8,4.1c-1,1.3-0.8-1.1-0.7-1.7C134.7,138,134.9,137,135.3,136.1z"/>
	<g>
		<path fill="#D8D8C0" d="M165.6,166.3c0,0,0,0.1,0,0.1c0,0.3,0.5,0.2,0.5-0.1c0-0.3,0.1-0.5,0.2-0.8c0.5-0.6,1.2-1,1.9-1.4
			c0.8-0.4,1.7-0.7,2.3-0.9c0.4-0.1,0.9-0.3,1.3-0.4c2.3-0.7,4.6-1,6.9-1c0,0,0,0,0,0c0.8,1.1,1.7,2,2.5,3c0.5,0.6,0.9,1.4,1.5,1.9
			c-0.3,0.7-0.1,1.7,0.1,2.3c0.3,0.9,1.1,1.4,2,1.1c1.5-0.5-0.3-2.5-1.3-3.3c0,0,0,0,0,0c-1.2-1.9-2.9-3.5-4.5-5.1
			c0.8,0,1.7,0,2.6,0.1c3.1,0.2,6.1,0.8,9.1,1.5c0.6,0.1,1.2,0.3,1.8,0.4c0,0,0,0,0,0c1.3,0.3,2.1,1.6,2,2.9c0,0.8-0.7,1.3-1.5,1.3
			c-0.4,0-0.8-0.2-0.9-0.6c-0.2-0.4,0.3-1.1,0.3-0.6c0,0.3,0.6,0.3,0.6,0c0.1-1.1-1.1-1.2-1.5-0.3c-0.6,1.3,1,2.1,2.1,1.8
			c1.9-0.4,1.6-3.1,0.4-4.3c1.4,0.3,2.8,0.6,4.2,0.8c0.1,0.8,0.2,1.7,0.7,2.4c0.3,0.5,1.2,0.7,1.5,0c0.2-0.5-0.3-1.7-0.9-2.3
			c1.9,0.2,3.7,0.3,5.6,0.3c0.9,0.4,1.8,0.8,2.6,1.4c0.7,0.5,1.3,1.2,2,1.8c-0.7,0.1-1.2,1-1.5,1.5c-0.3,0.6-0.7,1.8-0.1,2.4
			c0.6,0.6,1.5,0,1.8-0.6c0.3-0.5,0.3-1.2,0.2-1.9c0.2,0.5,0.4,0.9,0.6,1.3c0.3,0.5,0.8,1.5,1.5,1.4c0.8,0,1-1.3,0.9-1.9
			c-0.3-1.1-1.5-1.8-2.5-2c-0.1,0-0.1,0-0.1,0.1c0,0,0,0,0-0.1c-0.5-0.9-1.6-1.7-2.4-2.3c-0.6-0.4-1.3-0.8-2.1-1.1
			c3.3-0.1,6.6-0.7,9.7-1.9c1.2,0.1,2.5,0.7,2.8,2c0.2,0.9-0.3,2.2-1.4,1.9c-0.5-0.1-0.7-0.6-0.6-1.1c0.1-0.3,0.2-0.1,0.4,0
			c0.2,0.1,0.3-0.1,0.3-0.2c0-0.3-0.4-0.7-0.8-0.5c-0.4,0.2-0.6,0.6-0.6,1.1c0,1.2,1.7,1.9,2.5,1c1.6-1.7,0-3.9-1.9-4.4
			c0,0,0,0,0.1,0c2.5-1.1,4.9-2.5,7.4-3.6c0,0,0.1,0,0.1,0c0,0,0,0-0.1,0c0,0-0.1,0-0.2,0c-0.1,0-0.2,0.1-0.2,0.2
			c-0.1,0.4,0.4,0.9,0.6,1.2c0.2,0.4,0.6,0.8,1,1c0.6,0.4,1.7,0.5,2.1-0.2c0.5-0.8-0.1-1.7-0.8-2.2c-0.4-0.3-1-0.5-1.6-0.5
			c0,0,0,0,0,0c0.2-0.1,0.3-0.1,0.5-0.2c0.4-0.1,0.8-0.3,1.3-0.4c0,0,0,0,0,0c0,0,0,0,0,0c0.1,0,0.1-0.1,0.2-0.1
			c0,0.1,0.2,0.2,0.3,0.2c0.5-0.1,0.9-0.1,1.4,0.1c0.4,0.1,0.8,0.4,1.2,0.5c0.1,0.1,0.2-0.1,0.1-0.2c-0.4-0.4-1-0.8-1.6-1
			c0.8-0.2,1.6-0.5,2.5-0.6c0.8,0,1.5,0.2,2.2,0.5c0.4,0.2,0.8,0.4,1.2,0.6c0.2,0.1,0.3,0.3,0.5,0.4c0,0,0,0.1,0,0.1
			c0.2,0.7,0.9,1.3,1.5,1.7c0.4,0.3,1.2,0.9,1.7,0.5c0.5-0.4-0.2-1.4-0.5-1.7c-0.4-0.4-1.4-1-2.1-0.7c-0.3-0.6-1.3-1-1.9-1.3
			c-0.4-0.2-0.9-0.3-1.4-0.4c2.5-0.4,5-0.5,7.4,0.1c-0.2,0.1-0.2,0.3,0,0.4c0,0,0,0,0.1,0c0.1,0.8,0.3,1.5,0.8,2.2
			c0.4,0.4,1.1,0.8,1.5,0.1c0.5-0.9-0.5-3.4-1.8-2.8c-0.5-0.2-1-0.3-1.5-0.5c0.6-0.1,1.2-0.4,1.7-0.8c0.6-0.5,0.8-1.8,0.1-2.3
			c-0.5-0.4-1.7-0.6-1.8,0.3c-0.1,0.8,0.8,1,1.3,0.5c0.1-0.1,0.1-0.2,0.1-0.4c0.3,0.2,0.3,0.7,0.2,1.1c-0.3,1.1-2,1.4-2.9,1.4
			c0,0-0.1,0-0.1,0c-1.9-0.2-3.9,0-5.9,0.4c1-0.5,1.7-1.6,2.2-2.5c0,0.1,0.1,0.1,0.2,0c0.2-0.1,0.3-0.2,0.5-0.4
			c0.3-0.1,0.6-0.1,0.9-0.2c0.5-0.2,0.8-0.6,1.1-1c0.2-0.4,0.4-1.2-0.2-1.4c-0.5-0.2-1.2,0.2-1.5,0.5c-0.5,0.4-1,1-1,1.7
			c-0.1,0-0.2,0-0.3,0.2c-0.3,0.7-0.7,1.3-1.1,1.9c-0.4,0.5-1,0.9-1.5,1.3c-1.4,0-3,0.8-4.2,1.3c-1.3,0.5-2.6,1.1-3.9,1.7
			c-1.3,0.5-2.5,1-3.8,1.6c0.5-0.5,1.1-1,1.4-1.7c0.3-0.5,0.4-1,0.6-1.5c0.2-0.4,0.4-0.8,0.6-1.2c0.1-0.2-0.2-0.4-0.4-0.3
			c-0.6,0.4-0.8,1.5-1,2.1c-0.4,1.1-1.2,1.7-1.8,2.7c0,0,0,0,0,0c-1.2,0.5-2.5,1.1-3.8,1.6c0.3-0.1,0.5-0.3,0.8-0.5
			c0.7-0.5,1.4-1.2,1.1-2.1c-0.5-1.7-2.5,1.2-2.8,1.7c-0.1,0.1-0.5,0.7-0.4,1.1c-0.1,0.1-0.3,0.2-0.4,0.2c-0.1,0-0.1,0.1,0,0.2
			c0,0,0,0,0,0c-0.7,0.2-1.5,0.4-2.2,0.6c-2.6,0.5-5.4,0.6-8.1,0.4c1.4-0.7,2.9-1.5,3.8-2.8c0.2-0.3-0.2-0.6-0.4-0.3
			c-1.1,1.4-2.6,2.2-4.2,3c-2.4-0.2-4.7-0.5-7-0.9c-2.4-0.5-4.9-1.1-7.3-1.6c2-0.7,3.9-1.5,5.6-2.7c0.1,0.1,0.2,0.1,0.3,0
			c0.8,0.2,1.9-0.1,2.5-0.4c0.7-0.3,1.6-1.2,1.3-2c-0.3-0.9-1.4-0.7-2.1-0.4c-0.9,0.3-1.8,1.3-2.2,2.2c-1.2,0.6-2.2,1.5-3.4,2
			c-0.9,0.4-1.9,0.6-2.6,1.2c-1.4-0.3-2.8-0.5-4.2-0.7c0.8-0.1,1.6-0.6,2-1.2c0.4-0.5,0.5-1.5-0.1-1.9c-0.6-0.3-1.3,0-1.8,0.3
			c-0.6,0.4-1.2,1.5-0.9,2.3c0.1,0.1,0.2,0.2,0.3,0.1c0,0,0,0,0,0c-0.1,0-0.2,0-0.3,0.1c-0.1,0-0.1,0.1-0.1,0.2
			c-2.7-0.3-5.4-0.2-8.2,0.5c-1.4,0.4-5,1.2-6.8,2.7c-0.5,0.4-0.9,0.8-1.2,1.3C165.3,166.1,165.5,166.3,165.6,166.3z M183.4,167.9
			C183.4,167.9,183.5,167.9,183.4,167.9c0.3,0.4,0.5,0.8,0.6,1.2c0,0.2,0.3,0.1,0.3-0.1c0-0.5-0.1-0.9-0.3-1.3c0,0,0-0.1-0.1-0.1
			c0.7,0.7,1.6,1.7,1.2,2.1c-0.2,0.2-0.7,0.2-1,0c-0.3-0.2-0.5-0.6-0.5-0.9C183.4,168.5,183.4,168.2,183.4,167.9z M210,170.9
			c0,0.4-0.1,0.7-0.3,1c-0.2,0.3-0.8,0.5-1.1,0.2c-0.4-0.4,0.1-1.4,0.3-1.8c0.2-0.4,0.4-0.6,0.7-0.8c-0.2,0.5-0.3,1-0.5,1.5
			c-0.1,0.2,0.3,0.4,0.4,0.2c0.2-0.6,0.3-1.2,0.4-1.8c0,0,0,0,0,0C210,169.8,210,170.4,210,170.9z M210.7,168.9
			C210.7,168.9,210.7,168.9,210.7,168.9c0.8,0.5,1.7,1,2.1,1.9c0.2,0.5-0.1,1.9-0.7,1.3c-0.6-0.6-0.9-1.4-1.1-2.2
			c0.3,0.3,0.6,0.7,0.8,1.2c0.1,0.3,0.6,0.1,0.4-0.2c-0.3-0.6-0.8-1.3-1.5-1.7c0-0.1,0-0.1-0.1-0.2C210.6,169,210.7,169,210.7,168.9
			z M237.2,160.1c-0.3-0.3-0.6-0.6-1-0.9c0,0-0.1,0-0.1-0.1c0.4,0.1,0.8,0.4,1.1,0.7c0.2,0.2,0.4,0.5,0.5,0.8c0,0.1,0,0.1,0,0.2
			c0,0,0,0,0,0c-0.4-0.1-0.9-0.4-1.2-0.7c-0.1-0.1-0.2-0.2-0.3-0.3c0.3,0.2,0.5,0.4,0.8,0.5C237.2,160.5,237.4,160.3,237.2,160.1z
			 M240.6,158.2c0.2,0.2,0.4,0.5,0.6,0.8c0.1,0.1,0.3,0,0.2-0.1c-0.2-0.4-0.5-1.1-1-1.5c0,0,0,0,0,0c0,0,0.1,0,0.1,0
			c0.3,0.1,0.6,0.3,0.8,0.7c0.3,0.5,0.5,1.1,0.3,1.6c-0.3,0.6-1-0.5-1.1-0.7c-0.1-0.3-0.2-0.6-0.2-1
			C240.4,158.1,240.5,158.1,240.6,158.2z M234.5,152.8c0.3-0.4,0.7-0.8,1.2-0.9c0.5-0.1,0.3,0.3,0.2,0.6c-0.2,0.5-0.6,0.8-1.1,1
			c0.2-0.2,0.4-0.5,0.5-0.8c0.1-0.2-0.1-0.4-0.3-0.2c-0.2,0.3-0.4,0.5-0.6,0.8c-0.1,0.1-0.1,0.1-0.2,0.2
			C234.3,153.2,234.3,153,234.5,152.8z M226,159.9c0.4,0.1,0.7,0.3,1,0.6c0.3,0.3,0.4,0.9,0.1,1.2c-0.6,0.5-1.5-0.3-1.9-0.7
			c-0.1-0.1-0.2-0.3-0.3-0.6c0.1,0.1,0.3,0.1,0.4,0.2c0.3,0.2,0.6,0.4,0.9,0.6c0.1,0.1,0.3-0.1,0.2-0.2c-0.4-0.6-1-1.2-1.7-1.5
			C225.2,159.7,225.6,159.7,226,159.9z M214.7,161.7c0.3-0.3,0.6-0.7,0.9-0.9c0.2-0.1,0.1,0.2,0.2,0.3c0,0.3-0.2,0.6-0.4,0.8
			c-0.2,0.2-0.5,0.5-0.7,0.6c0.2-0.3,0.4-0.5,0.6-0.8c0.1-0.2-0.1-0.3-0.2-0.2c-0.3,0.3-0.6,0.5-0.8,0.8
			C214.4,162.1,214.6,161.9,214.7,161.7z M199.4,166.5c0,0.1,0.2,0.1,0.3,0c0.2-0.3,0-0.7-0.2-1c0.5,0.5,0.9,1.3,0.8,1.8
			c-0.1,0.2-0.4,0.2-0.6,0.1c-0.3-0.2-0.4-0.6-0.4-0.8c0-0.2-0.1-0.3-0.1-0.5C199.2,166.1,199.3,166.3,199.4,166.5z M195.1,157.9
			c-0.4,0.1-0.8,0.2-1.1,0.4c0.2-0.2,0.4-0.4,0.6-0.6c0.3-0.2,1.9-1.1,1.9-0.3c0,0.8-1.1,1.3-1.7,1.5c-0.2,0.1-0.5,0.1-0.8,0.1
			c0.4-0.3,0.8-0.6,1.2-0.7C195.4,158.2,195.4,157.9,195.1,157.9z M182.9,159.5c-0.1,0.5-0.4,0.9-0.7,1.3c0.1-0.2,0-0.4,0.1-0.7
			c0.1-0.3,0.2-0.6,0.4-0.8c0.3-0.4,0.8-0.6,1.3-0.6c0.6,0.1,0.3,1,0.1,1.3c-0.3,0.5-0.7,0.7-1.2,0.8c0.2-0.4,0.4-0.9,0.3-1.3
			C183.2,159.4,182.9,159.4,182.9,159.5z"/>
		<path fill="#D8D8C0" d="M207.2,161c0,0.2,0.3,0.3,0.4,0.2c0,0,0.1,0,0.1,0c0.2,0.1,0.4-0.2,0.2-0.3c0,0,0,0,0,0c0,0,0-0.1,0.1-0.1
			c0.1-0.2,0-0.3-0.2-0.4c0,0,0,0,0,0c0-0.3-0.4-0.3-0.5,0c0,0.1-0.1,0.3-0.1,0.4C207.2,160.9,207.2,160.9,207.2,161
			C207.2,161,207.2,161,207.2,161z"/>
		<path fill="#D8D8C0" d="M208,159.7c0,0.2,0.1,0.3,0.2,0.4c0,0,0.1,0,0.1,0c0.1,0,0.1,0,0.2,0c0.1,0,0.2-0.1,0.3-0.2c0,0,0,0,0-0.1
			c0,0,0,0,0,0c0-0.1,0-0.3,0-0.4c0-0.3-0.5-0.4-0.6-0.1c0,0,0,0,0,0C208.1,159.4,207.9,159.5,208,159.7z"/>
		<path fill="#D8D8C0" d="M221.4,156.1c0.2-0.1,0.4-0.1,0.6-0.2c0,0,0.1-0.1,0.1-0.1c0.1,0,0.1,0,0.1-0.1c0,0,0,0,0,0
			c0-0.1,0-0.1,0-0.2c0,0,0,0,0,0c0,0,0.1-0.1,0.1-0.1c0.2-0.3-0.2-0.6-0.4-0.3c-0.1,0.1-0.1,0.2-0.2,0.3c0,0-0.1,0.1-0.1,0.1
			c-0.1,0-0.1,0-0.2,0c-0.2,0.1-0.2,0.2-0.3,0.4C221.1,155.9,221.2,156.1,221.4,156.1z"/>
		<path fill="#D8D8C0" d="M222.9,154.2c0.1-0.1,0.1-0.1,0.2-0.2c0.1,0,0.1,0,0.2-0.1c0,0,0.1-0.1,0.1-0.1c0,0,0,0,0,0c0,0,0,0,0,0
			c0.2-0.2,0.2-0.5-0.1-0.5c-0.1-0.1-0.3-0.2-0.4,0c-0.1,0.1-0.2,0.2-0.2,0.3c0,0,0,0,0,0l0,0c-0.1,0.1-0.1,0.2,0,0.3
			c0,0.1,0,0.1,0,0.2C222.5,154.1,222.7,154.3,222.9,154.2z"/>
	</g>
	<path fill="#D8D8C0" d="M232,164.1c1.2-5.1,3.7-9.4,6.7-13.7c0,0,0,0,0.1,0c1.2,0.9,3,1.1,4.5,1.2c0.6,0,2.2,0.2,2.1-0.8
		c-0.1-1.3-2.3-1.7-3.3-1.8c-0.8-0.1-1.8,0-2.6,0.3c0.1-0.1,0.1-0.1,0.2-0.2c1.8-2.5,3.6-4.7,5.7-6.8c0,0,0.1,0,0.1,0.1
		c0,0,0.1,0.1,0.2,0.1c1,0.4,2,0.7,3,0.9c0.6,0.2,2.4,0.7,2.8-0.1c0.5-1.1-1.2-1.8-1.9-2c-0.9-0.2-2.1-0.3-3.1,0
		c0.1-0.1,0.2-0.1,0.2-0.2c0.1,0,0.1-0.1,0.2-0.1c1.6-1.4,3.3-2.6,5.2-3.7c0.3-0.2,0.6-0.4,0.9-0.6c1.1,1.2,6.4,3,6.6,0.2
		c0.1-1.7-3-1.6-5.1-1.2c2.5-1.6,4.9-3.4,7.2-5.3c0.3,0.6,1.8,0.8,2.2,0.9c1.1,0.1,2.9,0.2,3.8-0.6c1-0.9-0.6-1.8-1.3-1.9
		c-1.2-0.1-2.4,0.2-3.5,0.6c0.7-0.6,1.4-1.3,2.1-1.9c1.8-1.7,3.6-3.5,5.1-5.6c0,0,0.1,0,0.1,0c0,0,0.1,0,0.1,0c0,0,0,0,0,0
		c0.5,0.3,1.2,0.3,1.8,0.5c0.7,0.1,1.3,0.1,1.9,0c0.6-0.1,1.7-0.6,1.4-1.4c-0.4-0.9-1.5-1.3-2.4-1.1c-0.7,0.1-1.5,0.4-2.1,0.9
		c1-1.9,1.3-3.9,2.2-5.8c0.1-0.1-0.1-0.2-0.2-0.1c-0.4,0.8-0.7,1.6-0.9,2.4c-0.5,1.8-1.3,3.3-2.5,4.8c-1.1,1.4-2.4,2.8-3.7,4.1
		c0-0.2,0-0.5-0.1-0.7c0.2-0.6,0.3-1.2,0.2-1.8c0-0.5-0.5-2.5-1.3-2.3c-0.8,0.1-0.9,1.3-0.9,1.9c-0.1,1.2,0.2,2.9,1.2,3.7
		c-0.6,0.6-1.3,1.2-1.9,1.7c-1.9,1.7-3.9,3.1-5.9,4.5c0-0.1,0-0.2,0-0.3c0.5-1,0.8-2.1,1-3.1c0.1-0.7-0.2-2.5-1.4-2.1
		c-1.1,0.4-1.3,2-1.4,2.9c-0.1,1,0,2.5,0.8,3.3c-2.3,1.5-4.6,2.9-6.9,4.4c-0.7,0.5-1.4,1-2.1,1.6c0,0,0,0,0,0c1.2-2,2.7-5.6-0.1-5.7
		c-1.2-0.1-1.4,1.7-1.4,2.5c0,0.9,0.1,1.8,0.2,2.6c0.1,0.4,0.1,1,0.4,1.4c-1.7,1.5-3.2,3.3-4.6,5.1c1.2-2.2,2.4-5.5,0.3-6.6
		c-1.6-0.9-2.6,5.8-1,7.1c-0.1,0.3-0.3,0.7-0.4,1c0,0,0,0,0,0c-0.6,0.9-1.3,1.7-1.9,2.6c-3,4.2-6.3,9-6.9,14.2
		C231.4,164.4,231.9,164.4,232,164.1z M271.5,121.2c0.6-0.2,1.3-0.3,2-0.2c0.1,0,0.1-0.1,0.1-0.2c-0.7-0.3-1.3-0.3-2.1-0.2
		c1.1-0.5,2.3-0.7,3.1,0.3c0.6,0.8-1.7,0.9-2,0.9c-0.5,0-1.1-0.3-1.7-0.4C271.1,121.3,271.3,121.2,271.5,121.2z M264.1,123.9
		c-0.1-0.4,0-0.8,0-1.2c0-0.2,0.1-0.4,0.2-0.6c0.2-0.5,0.4,0.2,0.5,0.3c0.3,0.6,0.4,1.3,0.3,1.9c-0.1-0.4-0.3-0.7-0.4-1.1
		c-0.1-0.2-0.4-0.1-0.4,0.1c0.1,0.5,0.2,1,0.4,1.5c0.1,0.4,0.1,0.8,0.1,1.2C264.6,125.4,264.3,124.8,264.1,123.9z M264.2,129.6
		c-0.4,0-0.8,0.1-1.3,0.1c-0.3,0-0.6,0.1-0.8,0.2c0,0,0,0,0,0c0,0,0.1-0.1,0.1-0.1c0.8-0.2,1.7-0.3,2.5-0.4c0.5-0.1,1-0.1,1.6,0
		c0.3,0,1.3,0.5,0.7,0.9c-0.7,0.5-2,0.4-2.8,0.4c-0.5,0-0.9-0.1-1.3-0.2c0.3-0.1,0.6-0.2,0.9-0.2c0.5-0.1,1.4-0.3,1.8,0
		c0.1,0,0.2-0.1,0.1-0.1C265.4,129.6,264.8,129.6,264.2,129.6z M256.4,128.4c0.4-0.5,0.8,0.4,0.8,0.7c0.1,0.6,0,1.2-0.2,1.8
		c-0.1,0.2-0.1,0.5-0.2,0.7c0-0.6-0.2-1.2-0.5-1.8c0-0.1-0.2,0-0.1,0.1c0.5,1,0.1,2,0,3.1C255.5,131.6,255.4,129.6,256.4,128.4z
		 M254.2,136.7c0.1,0,0.2,0,0.3,0c0.8-0.1,1.7-0.1,2.3,0.5c0.1,0.1,0.2,0,0.1-0.1c-0.4-0.5-0.9-0.8-1.6-0.8c-0.3,0-0.6-0.1-1-0.1
		c0.3,0,0.7-0.1,1-0.1c1-0.1,2.5-0.2,3.4,0.5c0.7,0.6-0.4,1.2-0.8,1.2c-0.6,0.1-1.2-0.1-1.8-0.2
		C255.5,137.3,254.8,137.1,254.2,136.7z M246.9,134.6c1.7,0.1,0.8,2.3,0,4.2c0-0.6-0.1-1.2-0.2-1.8c0-0.2-0.3-0.2-0.3,0
		c0,0.7-0.1,1.5-0.1,2.2C246,137.4,245.4,134.6,246.9,134.6z M247.6,142.1c0.7,0,1.4,0.2,1.9,0.7c0.1,0.1,0.2,0,0.1-0.1
		c-0.4-0.7-1.4-1.1-2.3-1.1c0.6,0,1.1,0,1.6,0.1c0.7,0.1,1.4,0.3,1.8,0.8c0.5,0.5,0.1,0.8-0.5,0.7c-1.2-0.1-2.3-0.6-3.5-1
		C247.1,142.1,247.3,142.1,247.6,142.1z M241,144.4c0-0.6,0-1.1-0.1-1.7c0-0.2-0.3-0.2-0.3,0c-0.1,0.4-0.1,0.8-0.2,1.2
		c-0.1-0.6-0.1-1.2,0-1.9c0-0.4,0.1-0.9,0.2-1.3c0.1-0.4,0.2-0.7,0.4-1.1c0.5-0.8,1.1,1,1.1,1.1c0.3,1.5-0.4,2.9-1.1,4.2
		C241,144.8,241,144.6,241,144.4z M239.8,150.2c0.3,0,0.6-0.1,0.9-0.1c0.7,0,1.4,0.2,2.1,0.3c0.1,0,0.2-0.2,0.1-0.2
		c-0.7-0.3-1.7-0.7-2.7-0.8c1.4-0.3,3.1-0.1,4.1,0.8c1.3,1-1.1,0.8-1.7,0.7C241.7,150.9,240.7,150.7,239.8,150.2z"/>
	<path fill="#547239" d="M179.8,166.5c-1.4,0.7-3.5,0.4-4.9,1.4c-1-0.5-4-1.3-5-0.7c1.1,0.6,2.7,0.3,3.7,1.2c-1.6,0.2-3.4-0.2-4.9-1
		c-0.3-0.2-2.4-0.7-2.4-0.1c1.2-0.5,3.9,1.7,5.3,1.7c-0.8,0.5-6.7-2-6.8-1.4c0,0.1,3.3,1.6,3.4,1.6c0,0,0.9,0.2,1.1,0.3
		c-1.2,0.3-2.9-0.1-4-1c-0.1-0.3-2.7-1.2-3.3-0.6c1,0.2,4.7,1.7,4.7,2.2c-1.2,0.4-8.2-2.9-8.4-2.3c0.2,0.3,2.5,0.9,2.3,1.1
		c0.5-0.2,2.6,1.2,3.1,1.4c-2.6-0.3-5.5-1.9-7.9-1.2c0.9,0.7,2.9,0.8,4,1.1c-1.1,0.2-2.7,0-3.7,0.6c0.7,0.2,1,0.3,2.1,0.2
		c1.2-0.1,2.5-0.3,3.8-0.1c-0.3,0.2-1.2,0.5-1.5,0.5c-0.8,0-0.3,0.2-0.3,0.2c-0.6,0.2-1.4,0.2-1.9,0.5c0.3,0.2,0.6,0.2,0.8-0.1
		c0.9,0.7,3.7-0.5,4.8-1.1c-0.2,0.9-1.9,1.2-2.4,2c2.2,0,3.1-2.3,5.4-2.3c-1.1,1-2.3,1.9-3.5,2.9c0.8,1.3,5.6-4.4,6.4-3.6
		c-0.8,0.6-2.8,1.9-3,2.8c1.2,0,4-3.2,4.7-2.8c-0.6,1-2.1,1.4-2.5,2.4c1.3,0.1,1.9-1.2,3-1.5c-0.1,0.2-0.2,0.4-0.2,0.7
		c1.2,0.1,2.5-1.7,3-2.4c0.9-1.2,3.3-1.4,4.9-1.7c3.7-0.6,7.8-0.1,11.6,0c1.2,0,3.8-0.3,4.9,0.2c0.4-0.3,2.1-0.1,2.4,0.1
		c0.4,0.3,2.7-0.8,3.5-0.7c1.4,0.1,2.6-0.6,4-0.4c-2.1,1.1-3.7,2.5-5.6,3.7c-1.3,0.8-1.5,1.2-3.1,0.8c-1.1-0.3-2.1-0.5-3.2-0.3
		c1.3,0.5,2.8,0.6,4.1,1.1c-0.9-0.1,0.2,0.6-1.3,0.2c-0.6-0.2-1.1-0.3-1.7-0.5c-1.2-0.3-2.4-0.3-3.5,0.1c0.2,0.3,4.4,0.7,5.2,0.9
		c-0.3,1.6-5.2-0.5-6.7,0c0.4,0.6,3.7,0.8,4.6,1.1c-1.5,1.6-5.4-1.3-7.2-0.6c1.6,0.8,3.4,1.1,5,1.7c-2.8,1.3-4.8-1.5-7.7-1.2
		c1.4,0.7,3.5,1.8,4.9,2c-1.4,0.7-4.2-0.3-5.7-0.8c-0.3-0.1-2.9-0.4-2.6,0.3c1.8,0,3.5,0.4,5.1,0.9c-2.7,0-5.1,0.4-7.3,1.3
		c0.1,0.2,4.8-0.6,5.6-0.5c-0.5,0.1-3.7,1.4-3.6,1.8c1.5-0.3,4.8-2.4,6.1-2c-0.8,1.2-2.8,2-4.2,2.7c2.9,0.5,4.6-2.9,7.2-3.1
		c-0.7,1.1-3.2,2.1-3.3,3c2.9-0.3,3.5-3.5,6-3.8c-0.4,0.6-3.6,3.9-1.3,2.1c1.1-0.8,2.1-2.8,3.5-3.2c0.1,0.8-2.3,3.3-1.9,3.7
		c1.1-0.5,3.3-5,4.1-4.6c-0.3,0.5-1.8,2.5-1,2.9c0.7-0.6,1.6-3.9,2.2-4c0.8,1-0.9,2-0.3,2.8c0.8-0.6,1.2-1.4,1.2-2.3
		c0-1.4,0-1.3,1.4-2.3c2-1.4,4-2.7,6.2-3.9c2.5-1.3,4.7-0.5,7.4-1.4c1.3-0.4,3.4-0.4,4.5-1.1c1.3-0.9,1.7-1.6,3-2.7
		c1.5-1.3,0.2-0.3,1.4-1.8c-0.9-0.1,0.7-0.6,0,0s-0.7-0.1-1.3,0.5c-1.6,1.5-1.3,2.2-3.4,3c-4.3,1.5-10.3,1.7-14.9,1.3
		c-0.7-0.1-1.9-0.6-2.5-0.4c-0.2-0.2-0.5-1-0.8-1.1c0.6-0.3-0.8-1.6-1.5-1.6c-0.3,0.2,1.1,1.6,1.2,1.9c-1.5-0.2-3.1-2.5-3.8-3.4
		c-1.2,0.4,2.5,3.2,2.9,3.7c-1.9,0.4-3.3-2.6-4.7-3.6c-0.8,0.4,2,2.8,2.3,3.2c-1.6,0.4-4.5-3.8-4.8-3.6c-0.4-0.5-1-0.2-0.2,0.6
		c0.8,0.8,1.6,1.6,2.4,2.4c-0.8,0.1-1.8-0.7-2.3-1.1c-0.4-0.4-2-2.5-2.8-2.6c0,0.1-0.1,0.2-0.2,0.2c0.8,0.9,1.8,1.9,2.6,2.9
		c-1.8-0.4-2.2-1-3.6-2c-0.3-0.2-1.9-1.6-2.2-1.3c-0.6,0.5,2.1,2,2.5,2.3c-1.9,0.3-3.4-2.5-5.2-1.2c0.9,0.1,2.2,0.3,2.7,1.1
		c-1-0.1-2.3-0.3-3.2,0.1c0.8,0.4,1.8,0.2,2.6,0.4c-0.6,0.5-1.9,0-2.2,0.8c2.3,0.4,3.6-0.9,6-0.2c-1.2,0.7-3.1,0.2-4.3,1
		c2.3,0.5,4.5-1.1,6.7-0.3c-0.9,0.6-3.3,0.3-3.7,1.2c1.3,0,2.6-0.3,3.9-0.6c1.6-0.4,0.8,0.1,2.1,0.3c-0.5,0.1-3.3,0.7-3.2,1.1
		c1.2,0.2,2.4-0.2,3.5-0.6c1-0.3,1.9,0,2.9,0.2c-1.1,0.8-2.7,0.5-3.8,1.2c2.1,0.8,4.1-1.6,6.2-0.8c-0.8,0.7-1.8,1.1-2.8,1.6
		c1.1,0.5,2.3-0.7,3.3-0.9c-0.2,0.2-0.4,0.4-0.5,0.6c1.3,0.2,1.5-1.1,3-0.8c1.4,0.3,3.2,0.4,4.6,0.3c-0.8,0.2-1.8,0.3-2.6,0.2
		c-0.4,0.5-1.2,0.7-1.9,0.7c-1.2,0.1-2.2,0.2-3.2,0.3c-2.7,0.2-5.7-0.5-8.5,0c-3.3,0-7.3-0.9-10-2.8c-1.4-1-1.5-1.2-1.2-2.8
		c0.2-1.1,0.4-2,0.1-3.1c-0.1,0-0.2,0-0.3,0c-0.1,1.3-0.5,2.6-0.6,4c-0.7,0.5-0.3-2.8-0.3-3c0.1-1,0.1-2.1-0.7-2.9
		c-0.5,0.1,0.1,3.6-0.3,4.5c-1-0.4-0.9-1.7-0.9-2.5c0.1,0,0.1,0,0.1,0.1c0.2-0.5-0.7-4.4-1.4-4.3c0.1,0.8,1.2,4.9,0.5,5.2
		c-1.2-1-1.5-2-1.7-3c0.5-0.4-0.9-3.3-1.5-3.8c-0.6,0.3,0.5,2.4,0.6,2.9c-0.1,0-0.1,0-0.1-0.1c-0.1,0.5,0.6,1.1,0.5,1.7
		c-2.1,0.2-1.1-3.6-2.7-3.9c0.2,0-1.1-1.5-1.4-1.9c0.1,0.4-0.3-0.2-0.5-0.2c0,0.9,1.6,3.2,2,3.9c-1.3-0.3-1.6-1.4-2.2-1.9
		c-1-0.8-2.7-3-4.1-2.5c1.2,0.7,2.2,1.6,3.1,2.6c-1.1-0.1-2.1-0.7-3.2-1c-0.7-0.2-0.6,0.4-1,0.4c0.4,0.2,2,0.7,2,0.7
		c1.1,0.5,2.5,0.7,3.2,1.4c-1.4,0-2.2-0.7-3.5-0.3c1.3,0.3,2.5,0.8,3.8,1.1c0.1,0,2.4,1,2,1.2c-1.1,0.6-3.2-1.4-3.9-0.3
		c1.1,0.6,2.4,0.7,3.6,0.9c0.9,0.2,1.3,0,1.9,0.7c0.2,0.2,0.7,0.8,1,0.9c-1.4,0-2.8-1.6-4.2-0.7c0.8,0.5,5.1,1.3,5.2,1.8
		c-1,0.2-1.8-0.7-2.8-0.3c-0.1,0.8,1.3,0.8,2,0.9c1.8,0.4,1.7,0.5,3,1.4c-1.3,0.2-2.6-0.9-3.8-0.2c1.3,1,4.3,0.2,5.1,1.9
		c-0.2,0-0.3,0-0.1,0.1c-1.1,0.2-2.4-0.6-3.4,0c2.7,0.9,5.5,0.6,7.7,2.5 M172,170.9c0-0.5,1.3-1.6,1.8-1.9
		C173.2,169.7,172.9,170.5,172,170.9z"/>
	<path fill="#547239" d="M272.9,127.1c0.2-0.3,2.6,1.7,3.2,1.8c0-0.3-0.8-0.9-0.4-1.1c0.5-0.2-0.2-1.1-0.3-1.2
		c-0.2-0.3-1.4-1.9-1.4-1.8c-0.5,0.1-1.2-0.3-1.7-0.3c0-0.3-0.1-0.6-0.2-0.9c1-0.1,3.2,2.2,3.7,1.7c0-0.5-0.7-1.1-1-1.5
		c0.1,0,0.3,0,0.4-0.1c-0.1-0.8-1.9-1.9-1.9-1.8c-1.4,0.3-2.1-0.7-2.5-1.8c-0.5-1.2-0.8-2.5-1.3-3.7c-0.1-0.1-0.1-0.3-0.3-0.3
		c-0.1-0.1-0.3-0.1-0.4,0.1c-0.2,0.2-0.2,0.4-0.3,0.7c-0.1,0.3-0.4,0.4-0.5,0.7c-0.2,0.3-0.1,0.7-0.2,1c-0.1,0.5-0.4,0.9-0.4,1.4
		c-0.6,3.8-1.2,8.1-3.4,11.6c-1.1,1.7-2.5,3.2-4,4.6c-0.4,0.4-1.5,0.9-1.8,1.4c-0.3,0-1-0.3-1.2-0.2c0.2-0.5-1.5-0.5-1.9,0
		c0,0.3,1.7,0.3,2,0.5c-1,0.9-3.5,0.4-4.5,0.3c-0.5,1,3.6,0.4,4.1,0.5c-1,1.5-3.7,0.5-5.2,0.7c-0.3,0.9,3,0.5,3.5,0.6
		c-0.8,1.4-5.2,0.5-5.3,0.8c-0.5-0.1-0.8,0.5,0.2,0.5c1,0,2,0,3,0c-0.5,0.6-1.6,0.8-2.2,0.8c-0.5,0-2.8-0.3-3.4,0.1
		c0.1,0.1,0.1,0.2,0,0.3c1,0.1,2.3,0,3.5,0.1c-1.4,1-2,0.8-3.5,1.1c-0.3,0.1-2.2,0.3-2.2,0.6c-0.1,0.7,2.5-0.1,3-0.2
		c-1,1.5-3.7,0.6-4,2.7c0.6-0.5,1.6-1.3,2.4-1.1c-0.7,0.6-1.6,1.3-2,2.1c0.8-0.3,1.2-1.1,1.9-1.5c0,0.7-1.2,1.3-0.9,2
		c1.7-1.2,1.7-3,3.7-4.1c-0.3,1.3-1.8,2.1-2.1,3.5c1.7-1.2,2.2-3.7,4-4.7c-0.2,1-1.9,2.4-1.5,3.2c0.9-0.9,1.5-2,2-3
		c0.7-1.3,0.6-0.5,1.5-1.2c-0.2,0.4-1.6,2.7-1.3,2.9c0.9-0.7,1.4-1.8,1.8-2.7c0.4-0.8,1.2-1.3,1.9-1.8c-0.2,1.2-1.4,2.1-1.6,3.4
		c1.9-0.9,1.5-3.8,3.4-4.6c-0.1,1-0.4,1.9-0.8,2.9c1-0.4,1-2,1.5-2.8c0,0.3,0,0.5,0.1,0.8c0.9-0.7,0.3-1.8,1.4-2.5
		c1-0.7,2.3-1.9,3.1-2.9c-0.4,0.7-0.9,1.4-1.5,1.9c0.1,0.6-0.3,1.2-0.7,1.7c-0.7,0.9-1.2,1.6-1.8,2.3c-1.6,1.9-3.9,3.5-5.3,5.6
		c-2.1,2.2-5.2,4.3-8,4.8c-1.6,0.3-1.6,0.2-2.6-1c-0.6-0.8-1-1.6-1.9-2.1c-0.1,0.1-0.1,0.1-0.2,0.2c0.8,0.9,1.3,2.1,2.1,3
		c-0.1,0.8-1.9-1.6-2.1-1.7c-0.6-0.7-1.3-1.4-2.3-1.4c-0.2,0.4,2.3,2.3,2.6,3.1c-0.9,0.4-1.7-0.6-2.1-1c0,0,0.1-0.1,0.1,0
		c-0.2-0.4-3.2-2.5-3.6-1.9c0.6,0.4,3.8,2.4,3.6,3.1c-1.4,0.2-2.1-0.3-2.9-0.8c0.1-0.6-2.7-1.6-3.3-1.5c-0.2,0.6,1.9,1.2,2.2,1.4
		c0,0-0.1,0.1-0.1,0c0.3,0.4,1,0.3,1.4,0.8c-1.2,1.6-3-1.6-4.2-0.8c0.1-0.1-1.6-0.2-2-0.3c0.3,0.2-0.4,0.1-0.5,0.2
		c0.5,0.6,3,1.1,3.7,1.2c-1,0.7-1.9,0.1-2.6,0.2c-1.1,0.1-3.6-0.2-4.1,1.1c1.2-0.3,2.4-0.4,3.6-0.4c-0.8,0.7-1.8,0.9-2.6,1.4
		c-0.6,0.4-0.2,0.6-0.4,0.9c0.4-0.1,1.7-0.9,1.7-0.9c1-0.4,2-1.2,2.9-1.2c-0.9,0.9-1.8,1-2.4,2.1c1-0.6,2.1-1.1,3.1-1.8
		c0.1-0.1,2.1-1,2-0.6c-0.3,1.1-2.9,1.3-2.6,2.5c1-0.3,1.9-1.2,2.8-1.8c0.7-0.5,0.8-0.9,1.7-0.8c0.2,0,1,0.1,1.2-0.1
		c-0.9,1-2.8,0.8-3.1,2.4c0.8-0.2,4-2.6,4.4-2.2c-0.5,0.8-1.6,0.8-2,1.7c0.4,0.6,1.3-0.4,1.8-0.8c1.4-1,1.4-0.8,2.7-1
		c-0.7,1-2.2,1.1-2.5,2.4c1.5-0.2,2.9-2.7,4.4-2.2c-0.1,0.1-0.1,0.2,0,0.1c-0.6,0.9-1.8,1.2-2.1,2.3c2.3-1.2,3.8-3.2,6.4-3.5
		c-0.2,0.7-2.8,2.8-3.5,2.5c-1,0.7-2.6,1.4-3.8,1.9c-3.1,1.3-6.4,2.6-9.4,3.1c-0.5,0.1-1.7-0.3-2-0.1c-0.2,0.2-0.4,0.3-0.6,0.4l0,0
		c0,0,0,0,0,0c-0.4,0.2-0.9,0.2-1.3,0.3c-0.1,0-0.2,0-0.3,0.1c-0.2,0-0.4,0-0.6,0.1c-0.9,0.2-1.8,0.3-2.8,0.5c0,0-0.1,0-0.1,0
		c-0.6,0-1.1-0.2-1.3-0.6c-0.4-0.8-0.6-1.7-1.5-2.1c0.1,1,0.8,1.6,1.1,2.5c-0.7,0.8-2.4-3-3.6-2.9c0.6,1,1.7,1.8,2,3
		c-1.1-0.4-1.3-0.1-1.8-1.4c-0.3-1-1-2.4-2.2-2.5c0.9,0.8,1.6,2.5,2.1,3.8c-2.8,0.3-2.7-5.5-4.8-5.1c0.9,1.5,1.7,3.2,2.5,4.7
		c-1.5-0.1-1.8-0.8-2.2-2.1c-0.2-0.6-1.2-3.5-2-3.4c0.7,1,1.2,3.4,1.7,4.8c-2.4-0.8-1.9-4.1-3.9-5.2c-0.2,0.2,1.5,3.6,1.7,4.1
		c-1.1-0.1-2.1-4.9-4-4c0.8,1.1,2.1,1.8,2.6,3.1c-0.9-0.9-3.2-3.5-4.6-2.3c0.5,0.1,3.3,1.1,2.7,1.8c-1-0.1-1.9-0.7-3-0.5
		c-0.6,1,4.8,1,4.5,1.8c-0.8,0-1.9-0.3-2.6-0.1c1,1.3,3.3,0,4.3,1.1c-0.7,0.1-2.8,0.2-3.3,0.7c1.1,0.5,4.6-1,5,0.1
		c-1.1,0.6-2.4,0.2-3.3,1c0.4,0.3,2.1-0.1,2.8-0.2c1.3-0.2,1.7-0.2,3-0.1c-0.3,0.6-4.6,1-4.3,1.6c1.2-0.1,2.4-0.1,3.5-0.6
		c0.5-0.2,1.9-1.4,2.3-0.6c0.1,0.3-3.1,2-3.5,2.6c0.3,0.1,1.3-0.5,1.2-0.1c-0.1,0.5,1.1,0.1,1.3,0c0.4-0.2,2.6-0.8,2.5-0.9
		c0.2-0.5,1-1.1,1.2-1.5c0.3,0,0.6,0,1,0c-0.5,1-3.9,2.5-3.7,3c0.5,0.1,1.5-0.4,2-0.6c-0.1,0.1-0.2,0.3-0.2,0.4
		c0.8,0.1,2.8-1.4,2.8-1.4c0.3-0.9,1-1.4,1.8-1.6c0,0,0,0,0.1,0c0.5,0.1,1,0.1,1.6,0c0.2,0,0.9-0.2,1-0.2c0.4,0.1,1.6,0.1,1.7-0.1
		c0.4-0.1,0.7-0.1,1.1,0c-1.1,1.2-1.6,3.5-3.3,3.1c-0.6-0.1-3,0.3-2.9,1c0.5,0.1,3.4-0.6,3.3-0.1c-1,0.9-5.2,0-5.4,1.7
		c1.4-0.1,2.8-0.5,4.2-0.6c-0.7,0.8-3.5,1-3.5,0.8c-0.6,0.2-1.6-0.1-1.9,0.8c1.1-0.1,2.5,0.3,3.7-0.1c-0.9,2.3-5.2-0.2-5.6,1.2
		c0.6,0.7,2.6,0.6,3.8,0.6c-0.6,0.3-1,0.7-1.3,0.7c-0.8-0.5-2.4-0.7-3.3-0.6c-2.5,0.2,1.5,0.8,1.5,0.8c-0.2,0.6,1.1-0.1,0.9,0.6
		c-1.3,0.7-2.4-0.8-3.9-0.2c0.1-0.1,0.2-0.1,0.3-0.2c-0.4-0.1-1.6,0-1.8,0.6c0.9,0.4,2.7,0.5,3.6,0.6c-0.5,0.1-1.9-0.1-1.8,0.2
		c-0.7-0.2-3.3-0.1-3.8,0.9c0.5,0.2,1.7-0.4,2,0c-2.1,0.7-2,1.7,0.2,0.6c0.2,0,1.5-0.3,1.5-0.3c-0.2,0.1-1.9,1.6-2,1.4
		c-0.3,0.8,1.5-0.2,1.6-0.4c0.9-0.5,1.8-1.3,2.4-1.2c0.1-0.4,0.3-0.6,0.6-0.7c-0.4,0.6-2.9,2.6-2.5,2.9c0.6-0.6,1.3-0.7,1.9-1.2
		c-0.1,0-0.1,0.1,0,0.1c0.4-0.6,1-1.1,1.4-1.6c0.1,0.6-0.6,1.3-0.7,1.9c1.3,0.1,1.9-3.6,3.4-4c-0.6,0.4-1.9,3-1.7,3.5
		c0.8-0.8,2.7-5.1,3.5-5.2c-0.3,0.4-1.7,3.4-1.6,3.7c1.5,0.1,2.1-4.9,3.3-5.5c-0.3,0.3-0.3,0.5,0,0.5c0-0.1,0-0.1,0.1-0.2
		c-0.2,0.6-0.6,2.1-1,2.2c-0.1,0.6-0.6,1.1-0.7,1.7c1.5,0.4,2.3-5.1,2.9-5.1c-0.1,0.5-1,3.2-0.6,3.2c0.5-0.8,1.2-4,1.6-4.1
		c0.2,0.5-0.5,2.1,0.3,2.2c0.4-1.1,0.2-2.3,0.7-3.3c0.4-0.8,1.3-1.5,1.7-2.2c0.6-1.2,2.2-1.5,3.4-1.8c1.8-0.4,3.4-1.3,5.2-2
		c1.1-0.4,2.3-0.8,3.4-1.2c0.3-0.1,3.9-0.7,3.7-1.2c-0.4,0.2-0.7,0.3-1.1,0.4c0.4-0.7,1.4-1.1,2.1-1.3c-0.4,1.3-1.9,2.6-2.2,4.2
		c-0.9,0.4-3.3,1.8-3.6,2.8c1.1-0.4,1.9-1.6,3-1.7c-0.9,1.2-2.3,2.1-3.7,2.6c-0.3,0.1-1.9,1.1-1.5,1.5c0.4-1.1,3.5-1.4,4.4-2.4
		c-0.2,0.9-5.4,3.1-5.1,3.6c0,0.1,3.1-1.1,3.1-1.2c0,0,0.7-0.4,0.8-0.5c-0.5,1-1.9,1.9-3.1,2c-0.2-0.1-2.5,1-2.4,1.8
		c0.8-0.5,4-2,4.3-1.6c-0.5,1.1-7,3.6-6.7,4.1c0.3,0,2.2-1.1,2.2-0.8c0.2-0.5,2.4-0.9,2.8-1.1c-1.8,1.5-4.6,2.4-5.7,4.5
		c1-0.1,2.3-1.4,3.2-1.9c-0.6,0.9-1.6,1.8-1.9,2.8c0.6-0.3,0.8-0.4,1.4-1.2c0.7-0.9,1.4-1.9,2.3-2.6c-0.1,0.4-0.4,1.1-0.6,1.3
		c-0.5,0.5,0,0.3-0.1,0.3c-0.2,0.6-0.8,1-0.9,1.6c0.3-0.1,0.5-0.3,0.5-0.6c1-0.1,2-2.8,2.3-3.9c0.5,0.7-0.5,2.1-0.2,2.9
		c1.4-1.5,0.5-3.6,2-5.1c0,1.4-0.3,2.8-0.4,4.2c1.3,0.3,0.8-6.6,1.8-6.6c-0.1,0.9-0.5,3.1-0.1,3.8c0.8-0.8,0.5-4.8,1.2-4.9
		c0.2,1-0.4,2.3,0,3.3c0.8-0.8,0.5-2.1,0.9-3c0,0.2,0.1,0.4,0.3,0.6c0.8-0.8,0.5-2.8,0.4-3.6c-0.2-1.4,1.2-3.1,2-4.4
		c1.9-2.9,4.8-5.3,7.3-7.7c0.8-0.8,2.2-2.8,3.3-3.1c0.1-0.4,1.3-1.5,1.6-1.5c0.4-0.1,1.2-2.3,1.7-2.8c1-0.8,1.3-2.2,2.3-3
		c-0.6,2.1-0.8,4.1-1.2,6.1c-0.3,1.4-0.2,1.8-1.5,2.6c-0.8,0.5-1.7,1-2.2,1.9c1.1-0.6,2.1-1.5,3.3-2c-0.6,0.5,0.5,0.3-0.7,1
		c-0.5,0.3-0.9,0.5-1.3,0.8c-0.9,0.6-1.7,1.4-2.1,2.4c0.3,0,3.2-2.4,3.9-2.9c0.8,1.2-3.6,3.1-4.2,4.5c0.6,0.1,2.8-1.9,3.6-2.4
		c0.1,2.1-4.2,2.7-4.9,4.3c1.5-0.6,2.8-1.5,4.2-2.3c-0.9,2.7-3.9,2.2-5.6,4.4c1.3-0.5,3.3-1.1,4.3-1.9c-0.5,1.4-2.9,2.6-4.1,3.2
		c-0.3,0.1-2.1,1.7-1.4,1.9c1.1-1.2,2.4-2,3.8-2.8c-1.7,1.8-3,3.7-3.8,5.7c0.2,0,2.7-3.6,3.2-4.1c-0.3,0.4-1.4,3.4-1.1,3.6
		c0.8-1.2,1.5-4.8,2.6-5.4c0.3,1.4-0.5,3.2-0.9,4.6c2.2-1.6,1.1-4.9,2.5-6.8c0.3,1.2-0.7,3.5-0.2,4.2c1.6-2.2,0-4.6,1.4-6.5
		c0.1,0.7,0.2,5,0.5,2.2c0.2-1.3-0.4-3.2,0.2-4.4c0.5,0.5,0.7,3.7,1.1,3.7c0.4-1.1-1.1-5.5-0.3-5.8c0.2,0.5,0.5,2.8,1.2,2.6
		c0.1-0.9-1.4-3.7-1.1-4.1c1.1,0.1,0.7,1.9,1.6,2c0.1-0.9-0.1-1.8-0.7-2.3c-0.9-0.9-0.8-0.8-0.6-2.4c0.3-2.2,0.8-4.4,1.5-6.7
		c0.8-2.5,2.2-4.4,3.4-6.8c0.6-1.2,0.9-2.4,1.1-3.6c0.1-0.7,1-1.4,0.6-1.8c-0.1,0.1-0.2,0.1-0.3,0.2c0.2-2.1,0.4-4.3,0.6-6.4
		c1,0.1,0.1,2,0.9,2.2c0.5,0.9,1.6,2.9,0.8,3.9c-0.6,0.8-1.5,1.6-1.6,2.6c0.9-0.6,1.3-1.7,2.1-2.5c1,0.2-2.2,4-1.9,5
		c0.8-1.2,1.3-2.6,2.4-3.6c-0.1,1.2,0.2,1.3-0.9,2.4c-0.8,0.9-2,2.3-1.8,3.4c0.6-1.4,2-2.9,3.1-4.1c0.9,2.4-4.5,5.7-3.6,7.3
		c1.2-1.7,2.6-3.4,3.8-5.1c0.3,1.5-0.3,2.2-1.5,3.2c-0.5,0.5-3,3.2-2.8,3.8c0.8-1.2,2.9-3.1,4.1-4.3c-0.2,2.7-3.4,4.1-4,6.7
		c0.2,0.1,3-3.4,3.4-3.9c0.2,1.1-4.1,4.8-2.8,6c0.9-1.3,1.2-3,2.3-4.2c-0.6,1.4-2.6,5-1.1,5.6c0-0.5,0.2-3.7,1-3.5
		c0.1,1-0.2,2.1,0.2,3c1,0-0.2-5,0.6-5.2c0.2,0.8,0.2,1.9,0.5,2.5c1-1.7-0.8-3.1,0.1-4.7c0.3,0.6,0.8,2.5,1.5,2.7
		c0.2-1.3-2-3.7-1-4.7c0.8,0.7,0.7,2.1,1.7,2.5c0.2-0.6-0.6-1.9-0.9-2.5c-0.5-1-0.6-1.5-0.8-2.7c0.7-0.1,2,3.7,2.5,3.1
		c-0.4-1-0.7-2.1-1.4-3C273.7,128.5,272.3,127.9,272.9,127.1z M217.8,171.7c-0.3-0.4,0.2-0.7,0.5-1.1
		C218.2,171,218.1,171.4,217.8,171.7z M243.5,161.6c-0.3-0.4-0.2-1.9,0-2.4C243.5,160,243.8,160.7,243.5,161.6z M274.4,123.4
		c-0.2,0-2.3-0.4-2.4-0.6C272.1,122.2,274.4,122.6,274.4,123.4z M272.7,125.2c1,0.3,2.1,1.1,2.5,2.5
		C274.1,127.4,272.6,126.1,272.7,125.2z"/>
	<path fill="#203F1F" stroke="#203F1F" stroke-width="0.25" stroke-miterlimit="10" d="M163.6,171.1"/>
	<path fill="#203F1F" stroke="#203F1F" stroke-width="0.25" stroke-miterlimit="10" d="M184.1,165.8c0.2,1-1.9,0.7-1.8,1.5"/>
	<path fill="#547239" d="M184.6,166.3c0.1-0.1,0.2-0.2,0.2-0.3c0-0.1,0-0.3-0.2-0.4c-0.2-0.1-0.5-0.1-0.7-0.1
		c-0.3-0.1-0.5-0.3-0.8-0.3c-0.3-0.1-0.6,0.1-1,0.1c-0.5,0-1-0.1-1.4,0c-3.8,0.5-8.1,1.2-12.1,0c-1.9-0.6-3.8-1.5-5.5-2.6
		c-0.5-0.3-1.3-1.2-1.9-1.3c-0.1-0.3,0-1-0.2-1.2c0.6,0,0.1-1.6-0.5-1.9c-0.3,0.1,0.2,1.7,0.1,2c-1.1-0.8-1.4-3.2-1.6-4.3
		c-1.1-0.2,0.6,3.6,0.7,4.1c-1.7-0.5-1.5-3.4-2.2-4.8c-0.9,0,0.4,3,0.5,3.5c-1.5-0.4-1.9-4.8-2.3-4.8c-0.1-0.6-0.7-0.6-0.4,0.4
		c0.3,1,0.6,1.9,0.9,2.9c-0.7-0.3-1.2-1.3-1.4-1.8c-0.2-0.4-0.5-2.8-1.1-3.3c-0.1,0.1-0.1,0.1-0.3,0.1c0.2,1,0.6,2.2,0.8,3.4
		c-1.3-1.1-1.3-1.7-2-3c-0.1-0.3-0.9-2.1-1.2-2c-0.7,0.1,0.8,2.4,1,2.8c-1.7-0.5-1.6-3.4-3.7-3.1c0.7,0.4,1.7,1.2,1.8,2
		c-0.8-0.5-1.7-1.2-2.6-1.3c0.5,0.6,1.4,0.9,2,1.4c-0.7,0.2-1.6-0.8-2.1-0.3c1.7,1.3,3.3,0.8,5,2.3c-1.3,0.1-2.6-1.1-3.9-1
		c1.6,1.3,4.2,1,5.6,2.5c-1,0.1-2.9-1.1-3.5-0.6c1.1,0.6,2.3,0.8,3.5,1.1c1.5,0.3,0.6,0.4,1.6,1.1c-0.4-0.1-3-0.8-3.1-0.5
		c0.9,0.7,2.1,0.8,3.1,1c0.9,0.1,1.6,0.8,2.3,1.3c-1.2,0.2-2.4-0.7-3.7-0.6c1.3,1.5,4,0.4,5.4,1.9c-1,0.2-1.9,0.1-3,0.1
		c0.7,0.8,2.2,0.4,3.1,0.7c-0.3,0.1-0.5,0.2-0.7,0.3c0.9,0.7,1.8-0.2,2.8,0.6c1,0.8,2.5,1.6,3.6,2.2c-0.8-0.2-1.6-0.5-2.2-0.9
		c-0.6,0.2-1.3,0-1.9-0.2c-1-0.4-1.9-0.7-2.7-1.1c-2.3-1-4.5-2.7-6.9-3.5c-2.7-1.4-5.6-3.8-6.9-6.3c-0.7-1.4-0.7-1.5,0.3-2.7
		c0.6-0.8,1.2-1.4,1.5-2.4c-0.1,0-0.2-0.1-0.2-0.1c-0.7,1-1.6,1.9-2.3,2.9c-0.8,0.1,1-2.3,1.1-2.5c0.5-0.7,1-1.6,0.7-2.6
		c-0.5-0.1-1.6,2.9-2.3,3.4c-0.6-0.7,0.1-1.7,0.4-2.3c0.1,0,0.1,0.1,0.1,0.1c0.3-0.3,1.5-3.8,0.8-4c-0.2,0.7-1.2,4.3-2,4.3
		c-0.5-1.3-0.3-2.1-0.1-3c0.6-0.1,0.7-3,0.5-3.6c-0.6,0-0.6,2.1-0.8,2.5c-0.1,0-0.1-0.1-0.1-0.1c-0.3,0.4,0,1.1-0.3,1.5
		c-1.9-0.7,0.7-3.3-0.4-4.2c0.1,0.1-0.2-1.6-0.3-2c-0.1,0.4-0.2-0.3-0.3-0.4c-0.4,0.7-0.2,3.2-0.1,3.9c-0.9-0.7-0.7-1.8-1-2.4
		c-0.5-1-0.8-3.5-2.2-3.6c0.7,1.1,1.1,2.2,1.4,3.3c-0.9-0.6-1.4-1.4-2.1-2.1c-0.5-0.4-0.7,0-1-0.1c0.2,0.3,1.4,1.4,1.3,1.3
		c0.7,0.9,1.7,1.6,2,2.4c-1.2-0.6-1.5-1.5-2.7-1.7c0.9,0.8,1.7,1.7,2.6,2.4c0.1,0.1,1.5,1.8,1.1,1.8c-1.1,0-2-2.4-3.1-1.8
		c0.6,0.9,1.7,1.5,2.5,2.2c0.7,0.5,1.1,0.5,1.3,1.4c0.1,0.2,0.2,1,0.4,1.2c-1.2-0.6-1.6-2.4-3.2-2.3c0.5,0.7,3.6,3.1,3.4,3.6
		c-0.9-0.3-1.2-1.3-2.2-1.4c-0.4,0.6,0.7,1.1,1.2,1.5c1.3,1.1,1.2,1.1,1.8,2.3c-1.1-0.4-1.7-1.8-3-1.7c0.6,1.3,3.4,2,3.3,3.6
		c-0.2-0.1-0.2-0.1-0.1,0c-1-0.3-1.7-1.4-2.8-1.4c1.8,1.8,4.2,2.7,5.2,5.1c-0.7,0-3.5-1.9-3.4-2.6c-1-0.7-2.1-2.1-2.9-3.1
		c-2.1-2.6-4.3-5.4-5.6-8.1c-0.2-0.4-0.2-1.7-0.5-1.9c-0.2-0.1-0.4-0.3-0.5-0.5l0,0c0,0,0,0,0,0c-0.3-0.4-0.5-0.8-0.7-1.2
		c0-0.1-0.1-0.2-0.1-0.3c0-0.2-0.1-0.4-0.3-0.6c-0.4-0.8-0.8-1.7-1.2-2.5c0,0,0-0.1-0.1-0.1c-0.2-0.6-0.2-1.1,0.2-1.4
		c0.6-0.6,1.5-1.1,1.6-2c-0.9,0.4-1.3,1.3-2.1,1.8c-1-0.4,2.2-3.2,1.8-4.3c-0.8,0.9-1.2,2.2-2.3,2.8c0.1-1.1-0.3-1.3,0.8-2.1
		c0.8-0.6,2-1.6,1.8-2.8c-0.5,1.1-2,2.2-3,3c-1.1-2.6,4.5-4.2,3.5-6c-1.2,1.3-2.6,2.5-3.8,3.8c-0.3-1.5,0.3-2,1.4-2.7
		c0.5-0.3,3-2.2,2.8-2.8c-0.8,1-2.9,2.1-4.2,3c0.1-2.5,3.4-3,3.9-5.3c-0.2-0.1-3,2.4-3.4,2.8c-0.3-1.1,4.1-3.4,2.7-5
		c-0.9,1-1.1,2.5-2.3,3.4c0.6-1.1,2.5-4,0.9-5.1c0,0.5-0.1,3.5-0.9,3.1c-0.2-1,0.1-2-0.4-3c-1.1-0.2,0.4,4.9-0.4,4.8
		c-0.2-0.8-0.3-1.9-0.7-2.5c-1,1.4,1,3.2,0.1,4.5c-0.3-0.6-1-2.6-1.6-3c-0.1,1.2,2.2,4.1,1.3,4.8c-0.8-0.9-0.8-2.2-1.9-2.8
		c-0.2,0.5,0.7,2,1,2.6c0.6,1.1,0.7,1.6,1,2.8c-0.7-0.1-2.2-4.1-2.8-3.6c0.5,1.1,0.8,2.2,1.6,3.2c0.3,0.4,1.9,1.4,1.2,2
		c-0.2,0.2-2.8-2.4-3.4-2.6c0,0.3,0.9,1.1,0.4,1.2c-0.5,0.1,0.3,1.1,0.4,1.2c0.3,0.4,1.5,2.2,1.6,2.2c0.6,0.1,1.3,0.6,1.8,0.7
		c0.1,0.3,0.1,0.6,0.3,0.9c-1.1-0.2-3.5-3-3.9-2.7c0,0.5,0.8,1.3,1.1,1.7c-0.1-0.1-0.3-0.1-0.4,0c0.1,0.8,2.1,2.3,2.1,2.3
		c1,0.1,1.6,0.6,2.1,1.3c0,0,0,0.1,0,0.1c0,0.5,0.2,1,0.4,1.5c0.1,0.2,0.4,0.8,0.4,0.9c0,0.4,0.3,1.5,0.6,1.6
		c0.2,0.3,0.2,0.7,0.3,1.1c-1.4-0.7-3.9-0.6-4-2.3c0-0.6-1.1-2.8-1.8-2.5c0,0.5,1.5,3.1,1,3.1c-1.2-0.7-1.5-5-3.1-4.7
		c0.5,1.3,1.3,2.5,1.7,3.8c-0.9-0.4-2-3.1-1.8-3.1c-0.4-0.5-0.4-1.6-1.3-1.6c0.4,1,0.4,2.5,1.1,3.5c-2.5-0.2-1.2-5-2.8-5
		c-0.5,0.8,0.2,2.7,0.5,3.8c-0.5-0.5-0.9-0.8-1-1c0.2-0.9-0.1-2.5-0.4-3.3c-0.9-2.4-0.3,1.6-0.3,1.6c-0.6,0,0.4,1-0.3,1
		c-1-1.1,0.1-2.5-0.9-3.8c0.1,0.1,0.2,0.2,0.2,0.3c0-0.4-0.5-1.5-1.1-1.6c-0.1,1,0.3,2.8,0.5,3.6c-0.3-0.5-0.4-1.8-0.7-1.6
		c0-0.7-0.9-3.2-1.9-3.3c-0.1,0.6,0.9,1.5,0.6,1.9c-1.3-1.8-2.2-1.5-0.6,0.4c0.1,0.2,0.7,1.3,0.7,1.3c-0.2-0.2-2.1-1.4-1.9-1.5
		c-0.9-0.1,0.6,1.4,0.8,1.4c0.7,0.8,1.8,1.3,1.8,1.9c0.4,0,0.6,0.1,0.8,0.4c-0.7-0.2-3.3-2-3.5-1.6c0.7,0.4,1,1,1.7,1.5
		c-0.1,0-0.1,0-0.1,0c0.7,0.2,1.3,0.6,2,0.9c-0.6,0.3-1.4-0.2-2.1-0.1c0.3,1.2,4,0.8,4.8,2.1c-0.5-0.5-3.4-1-3.8-0.6
		c0.9,0.5,5.6,1.1,6,1.9c-0.5-0.2-3.7-0.7-4-0.5c0.3,1.5,5.3,0.7,6.2,1.6c-0.4-0.2-0.6-0.1-0.4,0.1c0.1-0.1,0.1-0.1,0.2,0
		c-0.6,0-2.2,0-2.4-0.3c-0.6,0.1-1.2-0.3-1.8-0.2c0,1.6,5.5,0.8,5.8,1.4c-0.5,0.1-3.4,0-3.2,0.3c0.9,0.3,4.1,0,4.4,0.3
		c-0.4,0.4-2.1,0.1-2,0.9c1.1,0.1,2.3-0.5,3.4-0.3c0.9,0.2,1.8,0.9,2.6,1c1.3,0.2,2.1,1.7,2.7,2.8c0.9,1.6,2.2,2.9,3.4,4.5
		c0.7,1,1.4,2,2.2,2.9c0.2,0.2,1.8,3.5,2.3,3.2c-0.3-0.3-0.5-0.6-0.7-0.9c0.8,0.2,1.5,1,1.8,1.6c-1.4,0-3.1-1.1-4.6-1
		c-0.6-0.8-2.7-2.7-3.7-2.7c0.7,0.9,2.1,1.4,2.5,2.4c-1.4-0.5-2.7-1.6-3.6-2.8c-0.2-0.3-1.6-1.5-1.9-1c1.2,0.1,2.4,3,3.5,3.5
		c-0.9,0.1-4.5-4.3-4.9-3.9c0,0,2,2.7,2,2.7c0,0,0.6,0.6,0.8,0.6c-1.1-0.2-2.4-1.3-2.8-2.4c0-0.3-1.7-2.1-2.4-1.8
		c0.7,0.6,3.1,3.3,2.8,3.7c-1.2-0.2-5.4-5.7-5.9-5.3c0.1,0.3,1.7,1.8,1.4,1.8c0.5,0,1.6,2.1,1.9,2.3c-2-1.3-3.6-3.7-5.9-4.2
		c0.4,1,2,1.8,2.8,2.6c-1-0.3-2.2-1.1-3.3-1c0.5,0.5,0.6,0.7,1.6,1c1.1,0.4,2.2,0.8,3.1,1.5c-0.4,0-1.2-0.1-1.4-0.2
		c-0.7-0.3-0.3,0-0.3,0c-0.6-0.1-1.2-0.4-1.8-0.4c0.2,0.3,0.4,0.4,0.7,0.3c0.4,0.9,3.3,1.1,4.4,1.1c-0.5,0.7-2.1,0.1-2.8,0.6
		c1.8,0.9,3.6-0.5,5.4,0.4c-1.3,0.4-2.8,0.6-4.2,0.8c0.1,1.4,6.5-1.1,6.8-0.1c-0.9,0.1-3.1,0.3-3.7,1c0.9,0.5,4.7-0.9,5.1-0.3
		c-0.9,0.5-2.3,0.2-3.1,0.9c1,0.6,2.1-0.1,3.1,0c-0.2,0.1-0.4,0.2-0.5,0.4c1,0.6,2.8-0.3,3.6-0.7c1.3-0.5,3.3,0.3,4.8,0.7
		c3.3,1,6.4,3.1,9.5,4.8c1,0.5,3.3,1.3,3.9,2.2c0.4,0,1.8,0.8,1.9,1.1c0.2,0.4,2.6,0.5,3.1,0.9c1.1,0.7,2.4,0.6,3.5,1.3
		c-2.2,0-4.1,0.4-6.2,0.6c-1.4,0.1-1.8,0.3-2.9-0.7c-0.7-0.7-1.5-1.3-2.5-1.5c0.9,0.9,2,1.6,2.8,2.6c-0.7-0.4-0.1,0.6-1.2-0.4
		c-0.4-0.4-0.8-0.7-1.2-1.1c-0.8-0.7-1.8-1.2-2.9-1.4c0,0.3,3.2,2.4,3.8,2.9c-1,1.1-4-2.6-5.5-2.7c0.1,0.6,2.6,2.2,3.3,2.8
		c-2,0.6-3.8-3.3-5.5-3.5c0.9,1.3,2.2,2.3,3.4,3.4c-2.9-0.1-3.3-3.1-5.8-4.2c0.8,1.1,2,2.8,3.1,3.6c-1.4-0.1-3.3-2-4.2-3
		c-0.2-0.2-2.2-1.5-2.2-0.8c1.4,0.7,2.6,1.8,3.8,2.8c-2.2-1.1-4.4-1.8-6.6-2c0,0.2,4.2,1.5,4.8,2c-0.4-0.2-3.7-0.4-3.7-0.1
		c1.3,0.4,5,0.1,5.9,0.9c-1.2,0.6-3.2,0.4-4.6,0.4c2.2,1.6,5-0.4,7.3,0.5c-1,0.6-3.5,0.3-4.1,1c2.6,0.9,4.4-1.3,6.7-0.5
		c-0.6,0.3-4.7,1.6-2,1.1c1.3-0.2,3-1.3,4.3-1c-0.3,0.6-3.3,1.7-3.2,2.1c1.1,0.1,5-2.6,5.5-1.9c-0.5,0.3-2.6,1.3-2.1,1.8
		c0.9-0.2,3.1-2.4,3.6-2.2c0.2,1.1-1.6,1.2-1.5,2.1c0.9-0.1,1.6-0.6,2-1.3c0.6-1.1,0.5-1,2.1-1.2c2.2-0.3,4.5-0.5,6.8-0.5
		c2.6,0,4.9,0.9,7.5,1.3c1.3,0.2,2.6,0.2,3.8,0c0.7-0.1,1.6,0.5,1.9,0.1c-0.1-0.1-0.2-0.1-0.2-0.3"/>
	<path fill="#203F1F" stroke="#203F1F" stroke-width="0.25" stroke-miterlimit="10" d="M116.9,132.5c0.3-0.4,0.7,0,1.2,0.2
		C117.7,132.6,117.3,132.6,116.9,132.5z"/>
	<path fill="#203F1F" stroke="#203F1F" stroke-width="0.25" stroke-miterlimit="10" d="M133.9,154.2c0.3-0.4,1.8-0.7,2.3-0.7
		C135.4,153.8,134.8,154.2,133.9,154.2z"/>
	<path fill="#203F1F" stroke="#203F1F" stroke-width="0.25" stroke-miterlimit="10" d="M179.2,170.5"/>
</g>
<g>
	<path fill="#203F1F" d="M0,84.3V63.4l14.3,15V64.7h3v20.8L3,70.6v13.7H0z"/>
	<path fill="#203F1F" d="M32.8,67.5h-7.9v4.7h7.6V75h-7.6v6.6h7.9v2.8H22V64.7h10.8V67.5z"/>
	<path fill="#203F1F" d="M37.6,64.7l5.1,13.1l5.3-14.1l5.1,14.1l5.4-13.1h3.2L53,85.6l-5-13.9l-5.3,13.9l-8.3-20.9H37.6z"/>
	<path fill="#203F1F" d="M75.2,64.7v16.8H81v2.8h-8.7V64.7H75.2z"/>
	<path fill="#203F1F" d="M94.6,67.5h-7.9v4.7h7.6V75h-7.6v6.6h7.9v2.8H83.8V64.7h10.8V67.5z"/>
	<path fill="#203F1F" d="M110,79.6h-8.4l-2.2,4.8h-3.2l9.7-20.8l9.4,20.8H112L110,79.6z M108.8,76.8l-2.9-6.7l-3,6.7H108.8z"/>
	<path fill="#203F1F" d="M127.5,67.5h-6.8v4.7h6.6V75h-6.6v9.3h-3V64.7h9.8V67.5z"/>
	<path fill="#203F1F" d="M149.1,74.1h8.1v0.6c0,1.5-0.2,2.8-0.5,3.9c-0.3,1-0.9,2-1.7,2.9c-1.8,2-4.1,3.1-6.9,3.1c-2.7,0-5.1-1-7-3
		c-2-2-2.9-4.4-2.9-7.2c0-2.8,1-5.3,3-7.2c2-2,4.4-3,7.3-3c1.5,0,3,0.3,4.3,0.9c1.3,0.6,2.5,1.6,3.7,3l-2.1,2
		c-1.6-2.1-3.6-3.2-5.9-3.2c-2.1,0-3.8,0.7-5.2,2.1c-1.4,1.4-2.1,3.2-2.1,5.3c0,2.2,0.8,4,2.3,5.4c1.5,1.3,3.1,2,4.8,2
		c1.5,0,2.8-0.5,3.9-1.5c1.2-1,1.8-2.2,1.9-3.6h-4.9V74.1z"/>
	<path fill="#203F1F" d="M171.5,79.6h-8.4l-2.2,4.8h-3.2l9.7-20.8l9.4,20.8h-3.2L171.5,79.6z M170.3,76.8l-2.9-6.7l-3,6.7H170.3z"/>
	<path fill="#203F1F" d="M185.9,76l6.1,8.4h-3.6l-5.6-8h-0.5v8h-3V64.7h3.5c2.6,0,4.5,0.5,5.6,1.5c1.3,1.1,1.9,2.5,1.9,4.3
		c0,1.4-0.4,2.6-1.2,3.6S187.2,75.7,185.9,76z M182.2,73.7h0.9c2.8,0,4.2-1.1,4.2-3.2c0-2-1.4-3-4.1-3h-1.1V73.7z"/>
	<path fill="#203F1F" d="M194.9,84.3V64.7h4.1c2,0,3.5,0.2,4.7,0.6c1.2,0.4,2.3,1,3.3,1.9c2,1.8,3,4.3,3,7.3c0,3-1.1,5.5-3.2,7.3
		c-1.1,0.9-2.2,1.6-3.3,1.9c-1.1,0.4-2.6,0.5-4.6,0.5H194.9z M197.9,81.5h1.3c1.3,0,2.4-0.1,3.3-0.4c0.9-0.3,1.7-0.8,2.4-1.4
		c1.5-1.3,2.2-3.1,2.2-5.2c0-2.1-0.7-3.9-2.2-5.2c-1.3-1.2-3.2-1.8-5.7-1.8h-1.3V81.5z"/>
	<path fill="#203F1F" d="M224.6,67.5h-7.9v4.7h7.6V75h-7.6v6.6h7.9v2.8h-10.8V64.7h10.8V67.5z"/>
	<path fill="#203F1F" d="M228.5,84.3V63.4l14.3,15V64.7h3v20.8l-14.3-14.9v13.7H228.5z"/>
	<path fill="#203F1F" d="M272.9,65.8v3.5c-1.7-1.4-3.5-2.1-5.3-2.1c-2,0-3.7,0.7-5.1,2.2c-1.4,1.4-2.1,3.2-2.1,5.3
		c0,2.1,0.7,3.8,2.1,5.2s3.1,2.1,5.1,2.1c1,0,1.9-0.2,2.7-0.5c0.4-0.2,0.8-0.4,1.3-0.7c0.4-0.3,0.9-0.6,1.4-1v3.6
		c-1.7,1-3.5,1.4-5.3,1.4c-2.8,0-5.2-1-7.2-2.9c-2-2-3-4.4-3-7.1c0-2.5,0.8-4.7,2.5-6.7c2-2.4,4.7-3.6,7.9-3.6
		C269.6,64.3,271.3,64.8,272.9,65.8z"/>
	<path fill="#203F1F" d="M275.6,74.4c0-2.8,1-5.1,3-7.1c2-2,4.4-3,7.3-3c2.8,0,5.2,1,7.2,3c2,2,3,4.4,3,7.2c0,2.8-1,5.2-3,7.2
		c-2,2-4.5,3-7.3,3c-2.5,0-4.8-0.9-6.8-2.6C276.7,80.1,275.6,77.6,275.6,74.4z M278.5,74.5c0,2.2,0.7,3.9,2.2,5.3
		c1.4,1.4,3.1,2.1,5,2.1c2.1,0,3.8-0.7,5.2-2.1c1.4-1.4,2.1-3.2,2.1-5.3c0-2.1-0.7-3.8-2.1-5.3c-1.4-1.4-3.1-2.1-5.2-2.1
		c-2,0-3.8,0.7-5.2,2.1C279.3,70.7,278.5,72.4,278.5,74.5z"/>
	<path fill="#203F1F" d="M299.1,84.3l4.1-21.1l6.7,15.2l7-15.2l3.7,21.1h-3l-1.9-11.8l-5.8,12.7l-5.6-12.7l-2.1,11.8H299.1z"/>
	<path fill="#203F1F" d="M327.7,76.4v8h-3V64.7h3.4c1.6,0,2.9,0.1,3.7,0.3c0.8,0.2,1.6,0.7,2.2,1.3c1.1,1.1,1.7,2.5,1.7,4.2
		c0,1.8-0.6,3.2-1.8,4.3s-2.8,1.6-4.9,1.6H327.7z M327.7,73.6h1.1c2.7,0,4.1-1,4.1-3.1c0-2-1.4-3-4.2-3h-1V73.6z"/>
	<path fill="#203F1F" d="M348.9,79.6h-8.4l-2.2,4.8h-3.2l9.7-20.8l9.4,20.8h-3.2L348.9,79.6z M347.7,76.8l-2.9-6.7l-3,6.7H347.7z"/>
	<path fill="#203F1F" d="M356.6,84.3V63.4l14.3,15V64.7h3v20.8l-14.3-14.9v13.7H356.6z"/>
	<path fill="#203F1F" d="M382.5,75.9l-6.4-11.1h3.4l4.5,7.8l4.5-7.8h3.4l-6.4,11.1v8.5h-3V75.9z"/>
</g>
<g>
	<path fill="#811517" d="M83.2,98.5h2v8.6h-2v-0.9c-0.8,0.8-1.7,1.1-2.6,1.1c-1.2,0-2.2-0.4-2.9-1.3c-0.8-0.9-1.2-2-1.2-3.3
		c0-1.3,0.4-2.4,1.2-3.2s1.7-1.3,2.9-1.3c1,0,1.9,0.4,2.7,1.2V98.5z M78.5,102.8c0,0.8,0.2,1.5,0.7,2c0.5,0.5,1,0.8,1.7,0.8
		c0.7,0,1.3-0.3,1.8-0.8c0.5-0.5,0.7-1.2,0.7-2s-0.2-1.5-0.7-2c-0.5-0.5-1-0.8-1.8-0.8c-0.7,0-1.2,0.3-1.7,0.8
		C78.7,101.4,78.5,102,78.5,102.8z"/>
	<path fill="#811517" d="M89.7,100.4v6.7h-2v-6.7h-0.8v-1.8h0.8v-3.1h2v3.1h1.5v1.8H89.7z"/>
	<path fill="#811517" d="M100.6,98.8h5.9v-5.3h2v13.6h-2v-6.3h-5.9v6.3h-2V93.5h2V98.8z"/>
	<path fill="#811517" d="M117.6,98.5h2v8.6h-2v-0.9c-0.8,0.8-1.7,1.1-2.6,1.1c-1.2,0-2.2-0.4-2.9-1.3c-0.8-0.9-1.2-2-1.2-3.3
		c0-1.3,0.4-2.4,1.2-3.2s1.7-1.3,2.9-1.3c1,0,1.9,0.4,2.7,1.2V98.5z M113,102.8c0,0.8,0.2,1.5,0.7,2c0.5,0.5,1,0.8,1.7,0.8
		c0.7,0,1.3-0.3,1.8-0.8c0.5-0.5,0.7-1.2,0.7-2s-0.2-1.5-0.7-2c-0.5-0.5-1-0.8-1.8-0.8c-0.7,0-1.2,0.3-1.7,0.8
		C113.2,101.4,113,102,113,102.8z"/>
	<path fill="#811517" d="M124.1,92.3v14.8h-2V92.3H124.1z"/>
	<path fill="#811517" d="M128.6,92.3v14.8h-2V92.3H128.6z"/>
	<path fill="#811517" d="M132.9,92.9l1.8,0.7l-2.5,5l-1.3-0.6L132.9,92.9z"/>
	<path fill="#811517" d="M141.9,100l-1.6,0.9c-0.3-0.5-0.6-0.8-1-0.8c-0.2,0-0.3,0.1-0.5,0.2c-0.1,0.1-0.2,0.3-0.2,0.5
		c0,0.3,0.4,0.7,1.1,1c1,0.5,1.8,0.9,2.1,1.2s0.5,0.9,0.5,1.5c0,0.8-0.3,1.5-0.9,2.1c-0.6,0.5-1.3,0.8-2.1,0.8c-1.4,0-2.5-0.7-3-2.1
		l1.7-0.8c0.2,0.4,0.4,0.7,0.5,0.8c0.2,0.2,0.5,0.3,0.9,0.3c0.7,0,1-0.3,1-0.9c0-0.4-0.3-0.7-0.8-1c-0.2-0.1-0.4-0.2-0.6-0.3
		s-0.4-0.2-0.6-0.3c-0.6-0.3-1-0.6-1.2-0.8c-0.3-0.4-0.4-0.8-0.4-1.4c0-0.7,0.3-1.4,0.8-1.8c0.5-0.5,1.2-0.7,1.9-0.7
		C140.6,98.3,141.4,98.9,141.9,100z"/>
	<path fill="#811517" d="M160.2,94.3v2.4c-1.2-1-2.4-1.5-3.7-1.5c-1.4,0-2.6,0.5-3.5,1.5c-1,1-1.4,2.2-1.4,3.7
		c0,1.4,0.5,2.6,1.4,3.6s2.1,1.5,3.5,1.5c0.7,0,1.3-0.1,1.8-0.4c0.3-0.1,0.6-0.3,0.9-0.5s0.6-0.4,1-0.7v2.5c-1.2,0.7-2.4,1-3.7,1
		c-1.9,0-3.6-0.7-5-2c-1.4-1.4-2-3-2-4.9c0-1.7,0.6-3.3,1.7-4.6c1.4-1.7,3.2-2.5,5.5-2.5C157.9,93.3,159.1,93.6,160.2,94.3z"/>
	<path fill="#811517" d="M162.4,92.3h2v7c0.7-0.6,1.5-0.9,2.3-0.9c1,0,1.7,0.3,2.3,0.9c0.5,0.5,0.7,1.4,0.7,2.6v5.2h-2V102
		c0-0.7-0.1-1.2-0.4-1.5c-0.2-0.3-0.6-0.5-1.2-0.5c-0.7,0-1.2,0.2-1.5,0.6c-0.3,0.4-0.4,1.2-0.4,2.2v4.1h-2V92.3z"/>
	<path fill="#811517" d="M172.3,98.5h2v0.8c0.4-0.4,0.7-0.6,1-0.8c0.3-0.1,0.6-0.2,1-0.2c0.5,0,1.1,0.2,1.6,0.5l-0.9,1.8
		c-0.4-0.3-0.7-0.4-1.1-0.4c-1.1,0-1.6,0.8-1.6,2.4v4.4h-2V98.5z"/>
	<path fill="#811517" d="M179,95c0-0.3,0.1-0.6,0.4-0.9s0.6-0.4,0.9-0.4c0.4,0,0.7,0.1,0.9,0.4c0.3,0.2,0.4,0.5,0.4,0.9
		s-0.1,0.7-0.4,0.9c-0.2,0.3-0.5,0.4-0.9,0.4s-0.7-0.1-0.9-0.4S179,95.3,179,95z M181.3,98.5v8.6h-2v-8.6H181.3z"/>
	<path fill="#811517" d="M188.8,100l-1.6,0.9c-0.3-0.5-0.6-0.8-1-0.8c-0.2,0-0.3,0.1-0.5,0.2c-0.1,0.1-0.2,0.3-0.2,0.5
		c0,0.3,0.4,0.7,1.1,1c1,0.5,1.8,0.9,2.1,1.2s0.5,0.9,0.5,1.5c0,0.8-0.3,1.5-0.9,2.1c-0.6,0.5-1.3,0.8-2.1,0.8c-1.4,0-2.5-0.7-3-2.1
		l1.7-0.8c0.2,0.4,0.4,0.7,0.5,0.8c0.2,0.2,0.5,0.3,0.9,0.3c0.7,0,1-0.3,1-0.9c0-0.4-0.3-0.7-0.8-1c-0.2-0.1-0.4-0.2-0.6-0.3
		s-0.4-0.2-0.6-0.3c-0.6-0.3-1-0.6-1.2-0.8c-0.3-0.4-0.4-0.8-0.4-1.4c0-0.7,0.3-1.4,0.8-1.8c0.5-0.5,1.2-0.7,1.9-0.7
		C187.4,98.3,188.2,98.9,188.8,100z"/>
	<path fill="#811517" d="M193.1,100.4v6.7h-2v-6.7h-0.8v-1.8h0.8v-3.1h2v3.1h1.5v1.8H193.1z"/>
	<path fill="#811517" d="M196,98.5h2v0.8c0.4-0.4,0.7-0.7,1-0.8c0.3-0.1,0.6-0.2,1.1-0.2c1,0,1.7,0.4,2.3,1.3
		c0.6-0.8,1.5-1.3,2.5-1.3c1.9,0,2.9,1.2,2.9,3.5v5.3h-2v-4.8c0-0.8-0.1-1.4-0.3-1.7c-0.2-0.3-0.5-0.5-1-0.5c-0.5,0-0.9,0.2-1.2,0.6
		c-0.2,0.4-0.4,1.1-0.4,2v4.4h-2v-4.7c0-1.5-0.4-2.3-1.3-2.3c-0.6,0-1,0.2-1.2,0.6c-0.3,0.4-0.4,1.1-0.4,2v4.4h-2V98.5z"/>
	<path fill="#811517" d="M216.6,98.5h2v8.6h-2v-0.9c-0.8,0.8-1.7,1.1-2.6,1.1c-1.2,0-2.2-0.4-2.9-1.3c-0.8-0.9-1.2-2-1.2-3.3
		c0-1.3,0.4-2.4,1.2-3.2s1.7-1.3,2.9-1.3c1,0,1.9,0.4,2.7,1.2V98.5z M211.9,102.8c0,0.8,0.2,1.5,0.7,2c0.5,0.5,1,0.8,1.7,0.8
		c0.7,0,1.3-0.3,1.8-0.8c0.5-0.5,0.7-1.2,0.7-2s-0.2-1.5-0.7-2c-0.5-0.5-1-0.8-1.8-0.8c-0.7,0-1.2,0.3-1.7,0.8
		C212.1,101.4,211.9,102,211.9,102.8z"/>
	<path fill="#811517" d="M226,100l-1.6,0.9c-0.3-0.5-0.6-0.8-1-0.8c-0.2,0-0.3,0.1-0.5,0.2c-0.1,0.1-0.2,0.3-0.2,0.5
		c0,0.3,0.4,0.7,1.1,1c1,0.5,1.8,0.9,2.1,1.2s0.5,0.9,0.5,1.5c0,0.8-0.3,1.5-0.9,2.1c-0.6,0.5-1.3,0.8-2.1,0.8c-1.4,0-2.5-0.7-3-2.1
		l1.7-0.8c0.2,0.4,0.4,0.7,0.5,0.8c0.2,0.2,0.5,0.3,0.9,0.3c0.7,0,1-0.3,1-0.9c0-0.4-0.3-0.7-0.8-1c-0.2-0.1-0.4-0.2-0.6-0.3
		s-0.4-0.2-0.6-0.3c-0.6-0.3-1-0.6-1.2-0.8c-0.3-0.4-0.4-0.8-0.4-1.4c0-0.7,0.3-1.4,0.8-1.8c0.5-0.5,1.2-0.7,1.9-0.7
		C224.7,98.3,225.5,98.9,226,100z"/>
	<path fill="#811517" d="M238,95.4v11.6h-2V95.4h-3.1v-1.9h8.3v1.9H238z"/>
	<path fill="#811517" d="M242,98.5h2v0.8c0.4-0.4,0.7-0.6,1-0.8c0.3-0.1,0.6-0.2,1-0.2c0.5,0,1.1,0.2,1.6,0.5l-0.9,1.8
		c-0.4-0.3-0.7-0.4-1.1-0.4c-1.1,0-1.6,0.8-1.6,2.4v4.4h-2V98.5z"/>
	<path fill="#811517" d="M256.4,103.3h-6.1c0.1,0.7,0.3,1.3,0.7,1.7c0.4,0.4,0.9,0.6,1.6,0.6c0.5,0,0.9-0.1,1.2-0.4
		c0.3-0.2,0.7-0.7,1.1-1.3l1.7,0.9c-0.3,0.4-0.5,0.8-0.8,1.1c-0.3,0.3-0.6,0.6-0.9,0.8c-0.3,0.2-0.7,0.3-1.1,0.4s-0.8,0.1-1.2,0.1
		c-1.3,0-2.3-0.4-3.1-1.2c-0.8-0.8-1.2-1.9-1.2-3.3c0-1.4,0.4-2.4,1.1-3.3c0.8-0.8,1.8-1.2,3-1.2c1.3,0,2.3,0.4,3,1.2
		c0.7,0.8,1.1,1.9,1.1,3.3L256.4,103.3z M254.4,101.7c-0.3-1.1-0.9-1.6-2-1.6c-0.2,0-0.5,0-0.7,0.1c-0.2,0.1-0.4,0.2-0.6,0.3
		c-0.2,0.1-0.3,0.3-0.4,0.5s-0.2,0.4-0.3,0.7H254.4z"/>
	<path fill="#811517" d="M266.3,103.3h-6.1c0.1,0.7,0.3,1.3,0.7,1.7c0.4,0.4,0.9,0.6,1.6,0.6c0.5,0,0.9-0.1,1.2-0.4
		c0.3-0.2,0.7-0.7,1.1-1.3l1.7,0.9c-0.3,0.4-0.5,0.8-0.8,1.1c-0.3,0.3-0.6,0.6-0.9,0.8c-0.3,0.2-0.7,0.3-1.1,0.4s-0.8,0.1-1.2,0.1
		c-1.3,0-2.3-0.4-3.1-1.2c-0.8-0.8-1.2-1.9-1.2-3.3c0-1.4,0.4-2.4,1.1-3.3c0.8-0.8,1.8-1.2,3-1.2c1.3,0,2.3,0.4,3,1.2
		c0.7,0.8,1.1,1.9,1.1,3.3L266.3,103.3z M264.3,101.7c-0.3-1.1-0.9-1.6-2-1.6c-0.2,0-0.5,0-0.7,0.1c-0.2,0.1-0.4,0.2-0.6,0.3
		c-0.2,0.1-0.3,0.3-0.4,0.5s-0.2,0.4-0.3,0.7H264.3z"/>
	<path fill="#811517" d="M281.2,95.4h-4.7v3.3h4.6v1.9h-4.6v6.5h-2V93.5h6.8V95.4z"/>
	<path fill="#811517" d="M289.4,98.5h2v8.6h-2v-0.9c-0.8,0.8-1.7,1.1-2.6,1.1c-1.2,0-2.2-0.4-2.9-1.3c-0.8-0.9-1.2-2-1.2-3.3
		c0-1.3,0.4-2.4,1.2-3.2s1.7-1.3,2.9-1.3c1,0,1.9,0.4,2.7,1.2V98.5z M284.7,102.8c0,0.8,0.2,1.5,0.7,2c0.5,0.5,1,0.8,1.7,0.8
		c0.7,0,1.3-0.3,1.8-0.8c0.5-0.5,0.7-1.2,0.7-2s-0.2-1.5-0.7-2c-0.5-0.5-1-0.8-1.8-0.8c-0.7,0-1.2,0.3-1.7,0.8
		C284.9,101.4,284.7,102,284.7,102.8z"/>
	<path fill="#811517" d="M293.9,98.5h2v0.8c0.4-0.4,0.7-0.6,1-0.8c0.3-0.1,0.6-0.2,1-0.2c0.5,0,1.1,0.2,1.6,0.5l-0.9,1.8
		c-0.4-0.3-0.7-0.4-1.1-0.4c-1.1,0-1.6,0.8-1.6,2.4v4.4h-2V98.5z"/>
	<path fill="#811517" d="M300.9,98.5h2v0.8c0.4-0.4,0.7-0.7,1-0.8c0.3-0.1,0.6-0.2,1.1-0.2c1,0,1.7,0.4,2.3,1.3
		c0.6-0.8,1.5-1.3,2.5-1.3c1.9,0,2.9,1.2,2.9,3.5v5.3h-2v-4.8c0-0.8-0.1-1.4-0.3-1.7c-0.2-0.3-0.5-0.5-1-0.5c-0.5,0-0.9,0.2-1.2,0.6
		c-0.2,0.4-0.4,1.1-0.4,2v4.4h-2v-4.7c0-1.5-0.4-2.3-1.3-2.3c-0.6,0-1,0.2-1.2,0.6c-0.3,0.4-0.4,1.1-0.4,2v4.4h-2V98.5z"/>
</g>
<g>
	<g>
		<path fill="#D8D8C0" d="M273.1,56.2c0,0,0.1-0.1,0.1-0.1c0.2-0.2-0.1-0.6-0.4-0.3c-0.2,0.2-0.4,0.3-0.7,0.3
			c-0.8,0-1.5-0.3-2.3-0.6c-0.8-0.4-1.6-0.8-2.2-1.2c-0.4-0.2-0.8-0.5-1.1-0.7c-2-1.3-3.7-2.9-5.2-4.7c0,0,0,0,0,0
			c0.3-1.3,0.4-2.6,0.7-3.9c0.1-0.7,0.4-1.6,0.5-2.4c0.7-0.2,1.4-1,1.7-1.6c0.5-0.8,0.3-1.7-0.5-2.2c-1.3-0.9-1.8,1.8-1.7,3.1
			c0,0,0,0,0,0c-0.6,2.1-0.8,4.5-1,6.7c-0.5-0.7-1.1-1.3-1.6-2c-1.8-2.5-3.3-5.2-4.7-7.9c-0.3-0.5-0.5-1.1-0.8-1.6c0,0,0,0,0,0
			c-0.6-1.1-0.1-2.6,0.9-3.4c0.6-0.5,1.5-0.3,2,0.3c0.3,0.3,0.3,0.7,0.2,1.1c-0.2,0.5-1,0.5-0.6,0.1c0.3-0.2-0.1-0.6-0.4-0.5
			c-1,0.6-0.2,1.6,0.7,1.3c1.4-0.4,0.9-2.1,0.1-2.8c-1.6-1.2-3.4,0.8-3.5,2.5c-0.7-1.3-1.4-2.5-2.1-3.7c0.5-0.6,1.1-1.3,1.4-2.1
			c0.2-0.6-0.3-1.4-1-1.2c-0.6,0.2-1.1,1.3-1.1,2.1c-1-1.6-2.2-3.1-3.4-4.5c-0.3-1-0.5-1.9-0.6-2.9c-0.1-0.9,0.1-1.8,0.1-2.7
			c0.5,0.4,1.5,0.3,2.1,0.2c0.7-0.1,1.8-0.6,1.9-1.4c0.1-0.8-0.9-1.2-1.6-1c-0.6,0.1-1.1,0.6-1.6,1c0.2-0.4,0.4-0.9,0.6-1.3
			c0.2-0.5,0.6-1.5,0.2-2c-0.5-0.6-1.7,0.1-2,0.6c-0.6,0.9-0.4,2.3,0,3.2c0,0.1,0.1,0,0.1,0c0,0,0,0,0,0.1c-0.4,1-0.3,2.3-0.3,3.3
			c0.1,0.8,0.2,1.6,0.5,2.3c-2.2-2.5-4.7-4.6-7.7-6.2c-0.8-1-1.1-2.4-0.3-3.4c0.5-0.7,1.8-1.2,2.3-0.2c0.2,0.5,0,0.9-0.5,1.1
			c-0.3,0.1-0.3-0.1-0.3-0.3c0-0.2-0.3-0.2-0.4-0.1c-0.3,0.2-0.3,0.8,0.1,0.9c0.4,0.2,0.8,0,1.2-0.2c1-0.8,0.3-2.5-0.9-2.5
			c-2.4-0.1-3,2.5-2.1,4.3c0,0,0,0-0.1,0c-2.5-1.2-5.1-2.2-7.5-3.4c0,0,0-0.1-0.1-0.1c0,0,0,0,0.1,0c0,0,0.1,0.1,0.1,0.1
			c0.1,0.1,0.2,0.1,0.3,0c0.3-0.2,0.4-0.9,0.6-1.2c0.2-0.5,0.2-0.9,0.2-1.4c-0.1-0.7-0.7-1.6-1.5-1.5c-0.9,0.2-1.2,1.2-1.2,2
			c0.1,0.5,0.3,1.1,0.6,1.5c0,0,0,0,0,0c-0.1-0.1-0.3-0.2-0.5-0.2c-0.4-0.2-0.8-0.5-1.1-0.7c0,0,0,0,0,0c0,0,0,0,0,0
			c-0.1,0-0.1-0.1-0.2-0.1c0.1-0.1,0.1-0.3,0-0.4c-0.4-0.3-0.6-0.6-0.8-1.1c-0.1-0.4-0.2-0.8-0.4-1.2c0-0.1-0.3-0.1-0.2,0
			c0,0.6,0,1.3,0.3,1.9c-0.7-0.5-1.4-1-2.1-1.5c-0.5-0.6-0.8-1.3-1-2c-0.1-0.4-0.2-0.9-0.3-1.3c0-0.2,0-0.4,0-0.6c0,0,0.1,0,0.1-0.1
			c0.4-0.6,0.4-1.5,0.4-2.2c0-0.4-0.1-1.5-0.7-1.6c-0.7-0.2-1,1.1-1,1.5c0,0.6,0.1,1.7,0.8,2c-0.3,0.6,0,1.6,0.2,2.2
			c0.1,0.4,0.3,0.9,0.6,1.3c-1.9-1.6-3.5-3.5-4.7-5.7c0.2,0.1,0.4-0.1,0.3-0.3c0,0,0,0,0-0.1c0.5-0.6,1-1.2,1.2-2
			c0.1-0.6-0.1-1.3-0.9-1.2c-1,0.2-2.3,2.6-1,3.1c0.2,0.5,0.4,1,0.6,1.4c-0.5-0.4-1.1-0.7-1.7-0.7c-0.8-0.1-1.9,0.5-1.9,1.4
			c0,0.6,0.6,1.7,1.4,1.2c0.7-0.5,0.2-1.2-0.4-1.3c-0.2,0-0.3,0.1-0.3,0.2c0-0.4,0.3-0.7,0.7-0.8c1-0.4,2.4,0.6,2.9,1.4
			c0,0,0.1,0,0.1,0.1c1.1,1.6,2.5,3,4.1,4.2c-1-0.4-2.3-0.3-3.4-0.1c0-0.1,0-0.1-0.1-0.2c-0.2-0.1-0.4-0.1-0.6-0.1
			c-0.2-0.2-0.5-0.4-0.7-0.5c-0.5-0.3-1-0.3-1.5-0.2c-0.5,0.1-1.2,0.4-0.9,1c0.2,0.5,0.9,0.8,1.4,0.9c0.6,0.1,1.4,0.1,1.9-0.3
			c0.1,0.1,0.2,0.2,0.3,0.1c0.7-0.2,1.4-0.3,2.1-0.3c0.7,0,1.3,0.2,1.9,0.3c0.9,1.1,2.6,1.8,3.6,2.4c1.3,0.7,2.5,1.3,3.8,1.9
			c1.2,0.7,2.4,1.3,3.7,1.9c-0.7-0.1-1.4-0.2-2.2,0c-0.5,0.1-1,0.3-1.5,0.5c-0.4,0.1-0.8,0.2-1.2,0.3c-0.2,0.1-0.2,0.4,0,0.5
			c0.7,0.2,1.6-0.4,2.2-0.6c1.1-0.4,2.1-0.2,3.3-0.3c0,0,0,0,0,0c1.2,0.6,2.4,1.2,3.6,1.9c-0.3-0.1-0.6-0.2-0.9-0.3
			c-0.8-0.2-1.8-0.3-2.3,0.5c-1,1.5,2.5,1.2,3.1,1.1c0.2,0,0.9-0.1,1.1-0.4c0.1,0,0.3,0.1,0.4,0.1c0.1,0,0.1,0,0.2-0.1c0,0,0,0,0,0
			c0.6,0.4,1.3,0.9,1.8,1.3c2.1,1.7,3.9,3.7,5.5,5.9c-1.4-0.7-3-1.3-4.6-1.1c-0.3,0-0.3,0.5,0,0.5c1.8-0.1,3.4,0.6,5,1.2
			c1.4,1.9,2.6,3.9,3.8,6c1.2,2.2,2.3,4.4,3.5,6.6c-1.8-1.1-3.6-2.1-5.7-2.5c0-0.1-0.1-0.2-0.2-0.2c-0.3-0.7-1.3-1.4-1.9-1.7
			c-0.7-0.3-1.9-0.5-2.4,0.3c-0.5,0.8,0.4,1.5,1,1.9c0.8,0.5,2.2,0.5,3.1,0.2c1.2,0.6,2.5,0.7,3.7,1.3c0.8,0.4,1.7,1,2.6,1.2
			c0.7,1.3,1.4,2.5,2.2,3.7c-0.6-0.5-1.5-0.8-2.2-0.7c-0.6,0.1-1.5,0.6-1.4,1.3c0.1,0.7,0.8,1.1,1.4,1.2c0.7,0.2,2,0,2.3-0.8
			c0-0.1,0-0.2-0.1-0.3c0,0,0,0,0.1,0c0.1,0.1,0.2,0.1,0.2,0.2c0.1,0,0.1,0,0.2,0c1.5,2.2,3.3,4.3,5.7,6c1.2,0.8,4.1,3,6.4,3.4
			c0.6,0.1,1.2,0.2,1.8,0.1C273.1,56.6,273.2,56.3,273.1,56.2z M262.9,41.5C262.9,41.5,262.9,41.5,262.9,41.5
			c0.1-0.5,0.3-0.9,0.6-1.2c0.1-0.1-0.1-0.3-0.2-0.2c-0.4,0.3-0.6,0.7-0.8,1.1c0,0,0,0.1-0.1,0.1c0.1-1,0.3-2.3,0.9-2.3
			c0.3,0,0.6,0.5,0.6,0.7c0.1,0.4-0.2,0.7-0.4,1C263.4,41.1,263.1,41.3,262.9,41.5z M248.2,19.2c0.3-0.2,0.6-0.4,1-0.4
			c0.4,0,0.9,0.3,0.8,0.7c-0.1,0.6-1.2,0.8-1.6,0.9c-0.4,0.1-0.8,0.1-1.1,0c0.5-0.2,0.9-0.4,1.4-0.6c0.2-0.1,0.1-0.5-0.1-0.4
			c-0.6,0.2-1.1,0.5-1.7,0.8c0,0,0,0,0,0C247.4,19.8,247.8,19.5,248.2,19.2z M246.2,20C246.2,19.9,246.2,19.9,246.2,20
			c-0.1-1-0.3-2,0.1-2.8c0.2-0.5,1.5-1.2,1.4-0.2c-0.1,0.9-0.5,1.6-1,2.3c0-0.5,0.2-0.9,0.4-1.4c0.2-0.3-0.3-0.5-0.4-0.2
			c-0.3,0.6-0.5,1.5-0.4,2.2c0,0-0.1,0.1-0.1,0.1C246.3,19.9,246.3,19.9,246.2,20z M222.5,5.2c0,0.4,0,0.9,0,1.3c0,0,0,0.1,0,0.1
			c-0.2-0.4-0.2-0.8-0.2-1.3c0-0.3,0.2-0.6,0.3-0.9c0,0,0.1-0.1,0.1-0.1c0,0,0,0,0,0c0.2,0.4,0.2,1,0.2,1.4c0,0.1,0,0.3,0,0.4
			c0-0.3-0.1-0.6-0.1-0.9C222.8,5,222.5,5,222.5,5.2z M218.8,3.9c0-0.3,0.1-0.7,0.2-1c0-0.2-0.2-0.2-0.3-0.1
			c-0.2,0.5-0.5,1.1-0.5,1.7c0,0,0,0,0,0c0,0,0,0-0.1-0.1c-0.1-0.3-0.1-0.6,0-1c0.2-0.5,0.5-1.1,1.1-1.2c0.7-0.2,0.2,1.1,0.1,1.3
			c-0.2,0.3-0.4,0.5-0.6,0.8C218.8,4,218.8,3.9,218.8,3.9z M218.6,12c-0.5,0-1-0.1-1.4-0.3c-0.4-0.3,0.1-0.4,0.4-0.5
			c0.5-0.1,1-0.1,1.4,0.2c-0.3,0-0.6,0.1-0.9,0.1c-0.2,0-0.2,0.3,0,0.3c0.3,0,0.7,0,1,0c0.1,0,0.2,0,0.3,0
			C219.1,11.9,218.8,12,218.6,12z M229.5,13.9c-0.1-0.4-0.2-0.8-0.1-1.1c0.1-0.4,0.5-0.9,0.9-0.8c0.7,0.1,0.8,1.4,0.7,1.9
			c0,0.1-0.1,0.3-0.3,0.6c0-0.1-0.1-0.3-0.1-0.4c0-0.4-0.1-0.8-0.1-1.1c0-0.2-0.2-0.2-0.3,0c-0.2,0.7-0.2,1.6-0.1,2.3
			C229.8,14.7,229.6,14.4,229.5,13.9z M238,21.5c-0.4,0-0.9,0-1.3-0.2c-0.2-0.1,0-0.2,0.1-0.3c0.2-0.2,0.6-0.2,0.8-0.2
			c0.3,0,0.6,0.1,1,0.2c-0.3,0-0.7,0-1,0.1c-0.2,0-0.2,0.3,0,0.3c0.4,0,0.8,0.1,1.2,0.1C238.6,21.4,238.3,21.5,238,21.5z
			 M251.6,30.2c0.1-0.1-0.1-0.2-0.2-0.2c-0.3,0.1-0.5,0.4-0.7,0.8c0-0.7,0.4-1.6,0.8-1.7c0.2-0.1,0.5,0.2,0.5,0.4
			c0,0.3-0.2,0.6-0.4,0.9c-0.1,0.1-0.2,0.3-0.3,0.4C251.4,30.5,251.5,30.3,251.6,30.2z M247.7,38.9c0.3,0.3,0.7,0.5,1,0.6
			c-0.3,0-0.6,0-0.9-0.1c-0.3-0.1-2-0.7-1.4-1.2c0.6-0.5,1.7,0,2.2,0.4c0.2,0.1,0.4,0.3,0.6,0.5c-0.5-0.1-1-0.2-1.3-0.5
			C247.8,38.5,247.5,38.8,247.7,38.9z M256.8,47.3c0.5-0.2,1-0.3,1.5-0.3c-0.2,0.1-0.4,0.3-0.6,0.4c-0.3,0.2-0.6,0.2-0.9,0.2
			c-0.5,0-1-0.2-1.3-0.6c-0.4-0.5,0.6-0.8,0.9-0.9c0.5-0.1,1,0.1,1.4,0.4c-0.5,0.1-0.9,0.3-1.2,0.6
			C256.5,47.1,256.7,47.3,256.8,47.3z"/>
		<path fill="#D8D8C0" d="M242.4,27.7c0.2-0.2,0.1-0.4-0.1-0.5c0,0,0-0.1,0-0.1c0-0.2-0.4-0.2-0.4,0c0,0,0,0,0,0c0,0-0.1,0-0.1,0
			c-0.2,0.1-0.2,0.2-0.2,0.4c0,0,0,0,0,0c-0.2,0.2,0.1,0.5,0.3,0.4c0.1-0.1,0.3-0.1,0.4-0.2C242.3,27.8,242.3,27.8,242.4,27.7
			C242.4,27.7,242.4,27.7,242.4,27.7z"/>
		<path fill="#D8D8C0" d="M240.8,27.9c0.1-0.1,0.2-0.3,0.1-0.4c0,0,0-0.1-0.1-0.1c0-0.1-0.1-0.1-0.1-0.2c-0.1-0.1-0.2-0.1-0.3-0.1
			c0,0,0,0-0.1,0c0,0,0,0,0,0c-0.1,0.1-0.2,0.2-0.3,0.3c-0.2,0.2,0,0.6,0.3,0.5c0,0,0,0,0,0C240.6,28.1,240.7,28.1,240.8,27.9z"/>
		<path fill="#D8D8C0" d="M229.5,20c-0.2-0.1-0.3-0.2-0.5-0.3c0,0-0.1,0-0.1,0c0,0-0.1-0.1-0.2-0.1c0,0,0,0,0,0
			c-0.1,0-0.1,0-0.1,0.1c0,0,0,0,0,0c0,0-0.1,0-0.1,0c-0.4,0-0.3,0.6,0,0.5c0.1,0,0.2,0,0.3,0c0,0,0.1,0,0.1,0
			c0,0.1,0.1,0.1,0.2,0.1c0.1,0.1,0.3,0,0.5,0C229.6,20.3,229.7,20.1,229.5,20z"/>
		<path fill="#D8D8C0" d="M227.1,20c-0.1,0-0.2,0-0.2,0c0,0-0.1-0.1-0.2-0.1c-0.1,0-0.1,0-0.2,0c0,0,0,0-0.1,0c0,0,0,0,0,0
			c-0.3-0.1-0.5,0.2-0.4,0.4c0,0.2,0.1,0.4,0.3,0.3c0.1,0,0.2,0,0.4,0c0,0,0,0,0,0l0,0c0.1,0,0.2-0.1,0.2-0.1c0,0,0.1,0,0.1-0.1
			C227.3,20.3,227.3,20,227.1,20z"/>
	</g>
	<path fill="#D8D8C0" d="M231.1,12.1c-4.9,2-9.8,2.5-15,2.5c0,0,0,0,0,0c0-1.5-0.8-3.1-1.6-4.4c-0.3-0.5-1.2-1.9-1.9-1.2
		c-1,0.8-0.1,2.9,0.4,3.7c0.4,0.7,1,1.5,1.7,1.9c-0.1,0-0.2,0-0.3,0c-3,0-5.9-0.2-8.8-0.7c0-0.1,0-0.1,0-0.2c0-0.1,0-0.1,0-0.2
		c-0.2-1-0.6-2-1-3c-0.2-0.6-0.8-2.4-1.7-2.2c-1.2,0.2-0.8,2-0.5,2.7c0.3,0.8,1,1.9,1.8,2.5c-0.1,0-0.2,0-0.3-0.1
		c-0.1-0.1-0.1-0.1-0.2,0c-2-0.5-4-1.1-6-2c-0.3-0.2-0.7-0.3-1-0.4c0.3-1.6-1.3-6.9-3.6-5.5c-1.5,0.9,0.5,3.4,2,4.8
		c-2.8-1.1-5.6-2-8.5-2.8c0.3-0.6-0.4-2-0.6-2.3c-0.6-1-1.6-2.5-2.8-2.8c-1.3-0.3-1.1,1.5-0.8,2.2c0.6,1,1.5,1.9,2.5,2.5
		c-0.9-0.2-1.8-0.4-2.8-0.6c-2.5-0.5-5-0.9-7.5-0.9c0,0,0-0.1-0.1-0.1c0,0-0.1,0-0.1-0.1c0,0,0,0,0,0c0-0.6-0.4-1.2-0.7-1.7
		c-0.3-0.6-0.6-1.1-1.1-1.6c-0.4-0.4-1.5-1-1.9-0.3c-0.5,0.9-0.1,2,0.5,2.6c0.5,0.5,1.2,0.9,1.9,1.2c-2.1,0.3-3.9,1.2-6,1.6
		c-0.1,0-0.1,0.2,0,0.2c0.9-0.1,1.7-0.4,2.5-0.7c1.8-0.6,3.5-0.8,5.3-0.8c1.8,0,3.6,0.3,5.5,0.6c-0.2,0.1-0.4,0.3-0.5,0.5
		c-0.6,0.2-1.1,0.5-1.6,0.9c-0.4,0.3-1.7,1.8-1.1,2.4c0.6,0.5,1.6,0,2.1-0.4c1-0.6,2.3-1.9,2.3-3.2c0.9,0.2,1.7,0.4,2.5,0.6
		c2.5,0.6,4.8,1.3,7.1,2.2c-0.1,0.1-0.2,0.1-0.3,0.2c-1.1,0.2-2.2,0.5-3.1,1c-0.7,0.3-1.9,1.7-0.9,2.4c0.9,0.6,2.3-0.1,3.2-0.6
		c0.9-0.5,2-1.5,2.2-2.6c2.5,1,5,2,7.6,3c0.8,0.3,1.7,0.6,2.5,0.8c0,0,0,0,0,0c-2.3,0.2-6.1,1-4.6,3.4c0.7,1,2.2,0.2,2.9-0.3
		c0.7-0.5,1.4-1.1,2-1.7c0.3-0.3,0.8-0.7,0.9-1.1c2.2,0.5,4.5,0.7,6.8,0.8c-2.5,0.3-5.8,1.3-5.6,3.7c0.2,1.8,6.2-1.3,6.3-3.3
		c0.4-0.1,0.7-0.2,1.1-0.3c0,0,0,0,0,0c1.1,0,2.2,0,3.2,0c5.1,0,11-0.1,15.6-2.7C231.7,12.5,231.4,12,231.1,12.1z M173.2,5
		c-0.5-0.4-1-0.9-1.3-1.5c0-0.1-0.2,0-0.2,0.1c0.2,0.7,0.5,1.3,1,1.8c-1-0.6-1.9-1.5-1.5-2.7c0.3-0.9,1.7,0.9,1.9,1.1
		c0.3,0.4,0.4,1.1,0.7,1.6C173.6,5.2,173.4,5.1,173.2,5z M179.7,9.4c-0.3,0.3-0.7,0.5-1,0.7c-0.2,0.1-0.4,0.2-0.6,0.2
		c-0.5,0.1-0.1-0.5,0-0.6c0.3-0.6,0.8-1.1,1.4-1.4c-0.2,0.3-0.4,0.6-0.7,0.9c-0.1,0.2,0.1,0.4,0.3,0.3c0.4-0.4,0.7-0.8,1-1.2
		c0.3-0.3,0.6-0.6,0.9-0.8C180.7,8.2,180.4,8.8,179.7,9.4z M184.3,6c0.3,0.3,0.6,0.6,0.8,0.9c0.2,0.2,0.4,0.4,0.7,0.5c0,0,0,0,0,0
		c-0.1,0-0.1,0-0.2,0c-0.6-0.5-1.2-1.2-1.8-1.8c-0.3-0.4-0.7-0.8-0.9-1.3c-0.2-0.3-0.3-1.3,0.3-1.1c0.8,0.3,1.5,1.4,1.9,2.1
		c0.3,0.4,0.5,0.8,0.6,1.2c-0.2-0.2-0.5-0.4-0.7-0.6c-0.4-0.3-1-0.9-1.1-1.5c0-0.1-0.2-0.1-0.2,0C183.6,5.1,184,5.5,184.3,6z
		 M187.9,13c-0.7,0-0.2-0.8,0.1-1.1c0.4-0.4,1-0.7,1.6-0.9c0.2-0.1,0.5-0.2,0.7-0.2c-0.5,0.4-0.9,0.9-1.1,1.5c0,0.1,0.1,0.1,0.1,0.1
		c0.5-0.9,1.6-1.3,2.5-1.8C191,11.9,189.5,13.2,187.9,13z M196,10c-0.1-0.1-0.2-0.2-0.2-0.3c-0.5-0.6-1-1.3-1-2.1
		c0-0.1-0.2-0.2-0.2,0c-0.2,0.6-0.1,1.2,0.2,1.8c0.1,0.3,0.3,0.6,0.5,0.9c-0.2-0.3-0.4-0.5-0.7-0.8c-0.7-0.8-1.6-1.9-1.6-3
		c0-0.9,1.2-0.4,1.5,0c0.4,0.4,0.6,1,0.8,1.6C195.7,8.6,195.9,9.3,196,10z M198.5,17.2c-0.9-1.4,1.4-2.1,3.4-2.4
		c-0.5,0.4-0.9,0.8-1.3,1.2c-0.1,0.1,0,0.4,0.2,0.2c0.6-0.5,1.2-0.8,1.9-1.2C201.3,16.3,199.3,18.4,198.5,17.2z M204.1,12.3
		c-0.4-0.6-0.6-1.2-0.6-1.9c0-0.1-0.1-0.1-0.2,0c-0.3,0.8-0.1,1.8,0.4,2.6c-0.4-0.4-0.6-0.9-0.9-1.4c-0.3-0.6-0.5-1.3-0.4-2
		c0.2-0.7,0.6-0.5,0.9-0.1c0.7,1,0.9,2.2,1.2,3.4C204.5,12.7,204.3,12.5,204.1,12.3z M209.9,16.3c-0.5,0.3-0.9,0.7-1.3,1.1
		c-0.1,0.1,0,0.4,0.2,0.3c0.3-0.2,0.7-0.4,1.1-0.6c-0.4,0.4-0.9,0.8-1.5,1.1c-0.4,0.2-0.8,0.4-1.2,0.6c-0.4,0.2-0.7,0.3-1.1,0.3
		c-1,0,0.2-1.5,0.3-1.6c1.1-1.1,2.6-1.3,4.1-1.6C210.2,16,210,16.1,209.9,16.3z M215.3,13.8c-0.2-0.2-0.4-0.4-0.6-0.7
		c-0.4-0.6-0.6-1.2-0.9-1.9c-0.1-0.1-0.2-0.1-0.2,0.1c0.1,0.7,0.4,1.8,0.9,2.6c-1.1-1-1.8-2.5-1.8-3.8c0.1-1.6,1.3,0.5,1.5,0.9
		C214.7,11.9,215.1,12.8,215.3,13.8z"/>
	<g>
		<path fill="#D8D8C0" d="M179,7c0,0,0-0.1-0.1-0.1c-0.2-0.3-0.6,0-0.4,0.3c0.1,0.2,0.2,0.5,0.2,0.8c-0.2,0.7-0.6,1.5-1.1,2.1
			c-0.5,0.7-1.2,1.4-1.7,1.9c-0.3,0.3-0.6,0.6-0.9,0.9c-1.7,1.7-3.6,3-5.7,4.1c0,0,0,0,0,0c-1.2-0.6-2.4-1-3.6-1.5
			c-0.7-0.3-1.5-0.8-2.2-1c0-0.7-0.7-1.5-1.2-2c-0.7-0.7-1.6-0.7-2.3,0c-1.2,1.1,1.4,2.1,2.7,2.3c0,0,0,0,0,0
			c1.9,1.1,4.2,1.8,6.3,2.5c-0.8,0.4-1.5,0.8-2.3,1.1c-2.8,1.2-5.8,2.1-8.7,2.9c-0.6,0.1-1.2,0.3-1.8,0.4c0,0,0,0,0,0
			c-1.2,0.4-2.6-0.5-3.1-1.6c-0.4-0.7,0-1.5,0.7-1.9c0.4-0.2,0.8-0.2,1.1,0.1c0.4,0.3,0.3,1.1,0,0.7c-0.2-0.3-0.6,0-0.5,0.3
			c0.4,1.1,1.5,0.6,1.4-0.4c-0.1-1.4-1.9-1.4-2.7-0.7c-1.5,1.3,0,3.5,1.6,4c-1.4,0.4-2.8,0.8-4.1,1.3c-0.5-0.7-1-1.4-1.7-1.8
			c-0.5-0.3-1.4,0-1.4,0.7c0,0.6,1,1.4,1.8,1.6c-1.7,0.7-3.4,1.4-5.1,2.3c-1,0.1-2,0.1-3,0c-0.9-0.1-1.7-0.5-2.6-0.7
			c0.5-0.4,0.6-1.4,0.6-2c0-0.7-0.2-1.9-1-2.2c-0.8-0.3-1.3,0.7-1.3,1.3c0,0.6,0.3,1.2,0.7,1.8c-0.4-0.3-0.8-0.6-1.1-0.8
			c-0.5-0.3-1.3-0.9-2-0.6c-0.7,0.4-0.3,1.7,0.1,2.1c0.7,0.8,2.2,0.9,3.2,0.7c0.1,0,0.1-0.1,0-0.1c0,0,0,0,0,0
			c0.9,0.6,2.2,0.8,3.2,1c0.8,0.1,1.6,0.1,2.3,0c-2.9,1.6-5.5,3.6-7.7,6.2c-1.1,0.5-2.6,0.5-3.4-0.5c-0.6-0.7-0.8-2,0.3-2.3
			c0.5-0.1,0.9,0.2,1,0.7c0.1,0.3-0.1,0.2-0.4,0.2c-0.2,0-0.2,0.2-0.2,0.3c0.2,0.3,0.7,0.4,0.9,0.1c0.3-0.4,0.2-0.8,0-1.2
			c-0.5-1.1-2.4-0.9-2.7,0.3c-0.6,2.3,1.8,3.4,3.7,3c0,0,0,0,0,0c-1.7,2.2-3.2,4.5-5,6.6c0,0-0.1,0-0.1,0c0,0,0,0,0-0.1
			c0,0,0.1,0,0.1-0.1c0.1-0.1,0.1-0.2,0.1-0.3c-0.1-0.3-0.8-0.6-1.1-0.8c-0.4-0.3-0.8-0.4-1.3-0.5c-0.7-0.1-1.7,0.3-1.8,1.2
			c0,0.9,0.9,1.5,1.7,1.6c0.5,0,1.1,0,1.6-0.2c0,0,0,0,0,0c-0.1,0.1-0.2,0.3-0.3,0.4c-0.3,0.3-0.6,0.6-0.9,1c0,0,0,0,0,0
			c0,0,0,0,0,0c-0.1,0.1-0.1,0.1-0.2,0.2c-0.1-0.1-0.3-0.1-0.4,0c-0.4,0.3-0.7,0.5-1.3,0.6c-0.4,0.1-0.9,0-1.3,0.1
			c-0.1,0-0.1,0.2,0,0.3c0.6,0.1,1.3,0.3,1.9,0.1c-0.6,0.6-1.2,1.2-1.9,1.7c-0.7,0.3-1.4,0.5-2.2,0.6c-0.4,0-0.9,0-1.3,0
			c-0.2,0-0.4-0.1-0.6-0.1c0,0,0-0.1-0.1-0.1c-0.5-0.6-1.4-0.7-2.1-0.8c-0.4-0.1-1.5-0.2-1.7,0.3c-0.3,0.6,0.9,1.2,1.3,1.3
			c0.5,0.2,1.7,0.2,2.2-0.3c0.5,0.4,1.6,0.3,2.2,0.3c0.4,0,0.9-0.1,1.4-0.3c-2,1.5-4.2,2.7-6.6,3.4c0.1-0.2,0-0.4-0.2-0.4
			c0,0,0,0-0.1,0c-0.5-0.6-0.9-1.3-1.7-1.6c-0.5-0.2-1.3-0.2-1.3,0.6c0,1,2,2.8,2.9,1.7c0.5,0,1-0.1,1.5-0.3
			c-0.5,0.4-0.9,0.9-1.1,1.5c-0.2,0.7,0.1,1.9,0.9,2.1c0.6,0.1,1.8-0.2,1.5-1.1c-0.3-0.8-1.1-0.5-1.4,0.1c-0.1,0.1,0,0.3,0.1,0.4
			c-0.4-0.1-0.6-0.4-0.7-0.9c-0.2-1.1,1.1-2.2,2-2.6c0,0,0.1,0,0.1-0.1c1.8-0.7,3.5-1.8,5-3.1c-0.6,0.9-0.8,2.2-0.8,3.3
			c-0.1,0-0.1,0-0.2,0.1c-0.1,0.2-0.2,0.4-0.2,0.6c-0.2,0.2-0.5,0.4-0.7,0.6c-0.4,0.4-0.5,0.9-0.5,1.4c0,0.5,0.2,1.2,0.8,1.1
			c0.6-0.1,0.9-0.7,1.1-1.2c0.3-0.6,0.4-1.4,0.1-1.9c0.1,0,0.2-0.1,0.2-0.3c0-0.7,0-1.4,0.1-2.2c0.1-0.7,0.4-1.2,0.7-1.8
			c1.3-0.6,2.3-2.1,3.1-3c0.9-1.1,1.8-2.2,2.7-3.3c0.9-1,1.8-2.1,2.6-3.2c-0.3,0.7-0.5,1.4-0.5,2.1c0,0.5,0.1,1.1,0.1,1.6
			c0.1,0.4,0,0.9,0,1.3c0,0.3,0.3,0.3,0.5,0.1c0.4-0.6,0-1.6-0.1-2.3c-0.2-1.2,0.3-2.1,0.4-3.2c0,0,0,0,0,0c0.9-1.1,1.7-2.1,2.6-3.1
			c-0.2,0.3-0.3,0.5-0.5,0.8c-0.4,0.7-0.7,1.7,0,2.4c1.2,1.3,1.7-2.2,1.7-2.8c0-0.2,0.1-0.9-0.1-1.1c0.1-0.1,0.2-0.3,0.2-0.4
			c0-0.1,0-0.1,0-0.2c0,0,0,0,0,0c0.5-0.5,1.1-1,1.7-1.5c2.1-1.6,4.5-3,7-4.1c-1,1.3-1.9,2.6-2.1,4.2c0,0.3,0.4,0.4,0.5,0.1
			c0.3-1.8,1.3-3.2,2.3-4.6c2.2-0.9,4.4-1.7,6.7-2.4c2.4-0.7,4.8-1.3,7.2-2c-1.4,1.5-2.8,3.1-3.7,5c-0.1,0-0.2,0.1-0.3,0.2
			c-0.8,0.2-1.6,1-2.1,1.5c-0.5,0.6-0.9,1.8-0.2,2.4c0.7,0.6,1.6,0,2-0.6c0.6-0.7,1-2,0.9-3c0.8-1.1,1.2-2.3,2.1-3.4
			c0.6-0.7,1.4-1.4,1.8-2.3c1.4-0.4,2.7-0.8,4.1-1.3c-0.6,0.5-1.1,1.3-1.2,2c-0.1,0.6,0.2,1.6,1,1.6c0.7,0,1.2-0.6,1.5-1.2
			c0.3-0.7,0.4-1.9-0.3-2.4c-0.1-0.1-0.2,0-0.3,0c0,0,0,0,0-0.1c0.1-0.1,0.1-0.1,0.2-0.2c0.1-0.1,0.1-0.1,0-0.2c2.5-1,4.9-2.3,7-4.2
			c1.1-0.9,3.9-3.4,4.7-5.5c0.3-0.5,0.4-1.1,0.5-1.7C179.4,7.1,179.2,6.9,179,7z M162.5,13.8C162.5,13.8,162.5,13.8,162.5,13.8
			c-0.4-0.2-0.8-0.5-1.1-0.8c-0.1-0.1-0.3,0.1-0.2,0.2c0.2,0.4,0.5,0.7,0.9,1c0,0,0.1,0,0.1,0.1c-0.9-0.3-2.2-0.8-2-1.3
			c0.1-0.3,0.6-0.5,0.9-0.5c0.4,0,0.7,0.3,0.9,0.6C162.2,13.3,162.4,13.5,162.5,13.8z M137.6,23.4c-0.1-0.3-0.2-0.7-0.2-1.1
			c0-0.4,0.5-0.8,0.9-0.7c0.5,0.2,0.5,1.3,0.5,1.8c0,0.4-0.1,0.8-0.2,1.1c-0.1-0.5-0.2-1-0.3-1.5c0-0.3-0.5-0.2-0.4,0
			c0.1,0.6,0.3,1.2,0.5,1.8c0,0,0,0,0,0C138,24.4,137.8,23.9,137.6,23.4z M137.9,25.5C137.9,25.5,137.9,25.5,137.9,25.5
			c-1-0.1-2-0.1-2.8-0.7c-0.4-0.3-0.8-1.7,0.1-1.5c0.8,0.3,1.4,0.8,2,1.4c-0.5-0.2-0.9-0.4-1.3-0.7c-0.2-0.2-0.5,0.2-0.3,0.4
			c0.5,0.4,1.3,0.8,2.1,0.8c0,0,0.1,0.1,0.1,0.1C137.9,25.4,137.9,25.4,137.9,25.5z M118.4,45.5c0.4,0.1,0.8,0.2,1.3,0.3
			c0,0,0.1,0,0.1,0c-0.4,0.1-0.9,0-1.3-0.1c-0.3-0.1-0.5-0.3-0.8-0.5c0,0-0.1-0.1-0.1-0.1c0,0,0,0,0,0c0.4-0.2,1,0,1.4,0.1
			c0.1,0,0.3,0.1,0.4,0.1c-0.3,0-0.6-0.1-0.9-0.1C118.3,45.2,118.2,45.5,118.4,45.5z M116.3,48.8c-0.3-0.1-0.6-0.3-1-0.4
			c-0.1-0.1-0.3,0.1-0.1,0.2c0.4,0.3,1,0.7,1.6,0.8c0,0,0,0,0,0c0,0-0.1,0-0.1,0c-0.3,0-0.7,0-1-0.2c-0.5-0.3-0.9-0.7-1-1.3
			c-0.1-0.7,1.1,0,1.3,0.2c0.2,0.2,0.4,0.5,0.6,0.8C116.5,48.9,116.4,48.8,116.3,48.8z M124.2,50.8c-0.1,0.5-0.3,1-0.6,1.3
			c-0.4,0.4-0.4-0.2-0.4-0.5c0-0.6,0.1-0.9,0.5-1.3c0,0.3-0.1,0.6-0.1,0.9c0,0.2,0.3,0.3,0.3,0.1c0.1-0.3,0.1-0.7,0.2-1
			c0-0.1,0-0.2,0.1-0.3C124.2,50.3,124.3,50.5,124.2,50.8z M128.5,40.6c-0.4,0.1-0.8,0-1.1-0.1c-0.4-0.1-0.8-0.7-0.6-1.1
			c0.3-0.7,1.5-0.5,2-0.2c0.1,0.1,0.3,0.2,0.5,0.4c-0.2,0-0.3,0-0.5,0c-0.4,0-0.8-0.1-1.1-0.1c-0.2,0-0.2,0.2-0.1,0.3
			c0.7,0.3,1.5,0.6,2.2,0.6C129.3,40.4,128.9,40.5,128.5,40.6z M137.6,33.8c-0.1,0.4-0.2,0.9-0.4,1.2c-0.1,0.1-0.2-0.1-0.3-0.2
			c-0.2-0.2-0.1-0.6,0-0.8c0.1-0.3,0.2-0.6,0.4-0.9c-0.1,0.3-0.1,0.6-0.1,1c0,0.2,0.2,0.2,0.3,0c0.1-0.4,0.3-0.7,0.4-1.1
			C137.7,33.3,137.7,33.5,137.6,33.8z M149,22.4c-0.1-0.1-0.3,0-0.3,0.1c0,0.3,0.3,0.6,0.7,0.8c-0.7-0.2-1.4-0.8-1.5-1.2
			c0-0.2,0.3-0.4,0.5-0.4c0.3,0,0.6,0.3,0.8,0.6c0.1,0.1,0.2,0.3,0.3,0.4C149.3,22.7,149.2,22.6,149,22.4z M156.8,28.1
			c0.3-0.2,0.6-0.5,0.8-0.9c-0.1,0.3-0.1,0.5-0.3,0.8c-0.1,0.3-1.2,1.8-1.5,1.1c-0.4-0.7,0.4-1.6,0.9-2.1c0.2-0.2,0.4-0.3,0.6-0.4
			c-0.2,0.4-0.4,0.9-0.8,1.2C156.4,27.9,156.6,28.2,156.8,28.1z M166.9,21c-0.1-0.5,0-1,0-1.5c0.1,0.2,0.2,0.4,0.2,0.6
			c0.1,0.3,0.1,0.6,0,0.9c-0.1,0.5-0.4,0.9-0.8,1.1c-0.6,0.2-0.7-0.7-0.7-1.1c0-0.5,0.3-0.9,0.7-1.3c0,0.5,0.1,0.9,0.3,1.3
			C166.7,21.2,166.9,21.1,166.9,21z"/>
		<path fill="#D8D8C0" d="M144.6,30.9c-0.1-0.2-0.4-0.1-0.5,0c0,0-0.1,0-0.1,0c-0.2,0-0.3,0.3-0.1,0.4c0,0,0,0,0,0c0,0,0,0.1,0,0.1
			c0,0.2,0.2,0.3,0.4,0.2c0,0,0,0,0,0c0.2,0.2,0.5,0,0.4-0.2c0-0.1-0.1-0.3-0.1-0.4C144.7,31,144.7,31,144.6,30.9
			C144.7,30.9,144.7,30.9,144.6,30.9z"/>
		<path fill="#D8D8C0" d="M144.6,32.5c-0.1-0.1-0.2-0.3-0.4-0.2c0,0-0.1,0-0.1,0c-0.1,0-0.2,0-0.2,0.1c-0.1,0.1-0.2,0.2-0.2,0.3
			c0,0,0,0,0,0.1c0,0,0,0,0,0c0,0.1,0.1,0.3,0.2,0.4c0.2,0.3,0.6,0.1,0.6-0.2c0,0,0,0,0,0C144.6,32.8,144.7,32.6,144.6,32.5z"/>
		<path fill="#D8D8C0" d="M134.3,41.8c-0.2,0.1-0.3,0.3-0.4,0.5c0,0,0,0.1,0,0.1c0,0-0.1,0.1-0.1,0.2c0,0,0,0,0,0c0,0.1,0,0.1,0,0.2
			c0,0,0,0,0,0c0,0,0,0.1,0,0.1c-0.1,0.3,0.5,0.4,0.5,0.1c0-0.1,0-0.2,0-0.3c0,0,0-0.1,0-0.1c0.1,0,0.1-0.1,0.2-0.1
			c0.1-0.1,0.1-0.3,0.1-0.4C134.7,41.8,134.5,41.7,134.3,41.8z"/>
		<path fill="#D8D8C0" d="M133.9,44.2c0,0.1,0,0.2-0.1,0.2c0,0-0.1,0.1-0.1,0.1c0,0,0,0.1,0,0.2c0,0,0,0,0,0.1c0,0,0,0,0,0
			c-0.1,0.3,0.1,0.5,0.3,0.4c0.2,0.1,0.4,0,0.4-0.2c0-0.1,0-0.2,0.1-0.4c0,0,0,0,0,0l0,0c0-0.1,0-0.2-0.1-0.2c0-0.1,0-0.1,0-0.2
			C134.2,44.1,133.9,44,133.9,44.2z"/>
	</g>
	<path fill="#A8C060" d="M148.9,16.7c-3,0.6-5.8,2.3-7.6,4.4c-1.4,1.6-1.5,3.5-0.9,5.7c-0.1,0.6,0,1.3,0.1,2
		c-0.2,0.8-0.4,1.6-0.7,2.3c-0.2,0.3-0.3,0.5-0.4,0.8c-0.2,0.3-0.5,0.7-0.8,0.9c-3,1.4-5.8,2.7-8.1,4.9c-1.7,1.7-2.9,3.5-4.1,5.4
		c0.4-1.9,0.1-4.1,0.3-6c1.6-1.4,2.6-3,3-5.1c0.2-1.4,0-3,0.4-4.3c0.4-1.3,1.2-2.5,1.8-3.7c0.1-0.2-0.2-0.5-0.4-0.4
		c-2.5,1.2-5.5,2.5-6.6,5c-1.2,2.6-0.8,5.4,0.8,8.3c0,0,0,0.1,0.1,0.1c0.1,0.9,0.3,1.9,0.2,2.8c-0.1,1.2-0.2,2.4,0,3.6
		c0,0.2,0,0.4,0,0.6c-0.4,0.7-0.8,1.4-1.1,2.1c-0.6,1.1-1.2,2.2-1.9,3.3c-0.3,0.4-0.6,0.9-0.9,1.3c0,0.1-0.1,0.3-0.2,0.6
		c-0.1-0.1-0.4-0.2-0.5,0c0,0-0.1,0.1-0.1,0.1c-0.1,0.1,0,0.3,0.1,0.4c0,0,0,0,0.1,0c0.1,0.1,0.2,0.1,0.3,0c1.6-0.8,2.6-3.3,3.3-4.7
		c1.1-2.1,2.2-4.1,3.5-6c2.1-1.3,4.3-1.8,6.8-2.2c3.1,0.7,6.3,1.9,8.7,0.2c2.7-1.9,4.1-5,7.3-6.4c0.2-0.1,0.1-0.5-0.2-0.5
		c-2.9,0.7-6.6,0.1-9.1,1.5c-2.3,1.3-4,3.4-6.5,4.5c-0.7,0.1-1.5,0.2-2.2,0.3c-1.3,0.3-2.7,0.7-3.9,1.4c0.7-0.9,1.6-1.8,2.5-2.6
		c1.7-1.4,3.5-2.6,5.6-3.4c1.5-0.5,2.9-1.2,4.1-2.1c1.4-1,2.5-2.2,3.4-3.5c0,0,0,0,0.1,0c0.9-0.1,1.8-0.3,2.7-0.6
		c5,0.8,7.7-3.8,9.7-6.9c0.1-0.2-0.1-0.4-0.3-0.4c-2.4,0.3-4.4,1-6.2,2.3c-0.7,0.5-1.5,1.1-2,1.8c-0.6,0.8-0.8,1.7-1.4,2.5
		c0,0,0,0.1,0,0.1c-0.2,0.1-0.3,0.1-0.5,0.2c-0.3,0-0.5,0.1-0.8,0.1c-0.2,0.1-0.5,0.1-0.7,0.1c0.5-0.8,0.9-1.7,1.3-2.6
		c0.1-0.2-0.3-0.4-0.4-0.2c-1.7,2.9-3.6,5.8-6.9,7.4c0.3-0.4,0.6-1,0.7-1.6c0.2-0.3,0.3-0.6,0.4-1c0-0.2,0-0.4,0.1-0.6
		c0.2-0.5,0.3-1,0.5-1.5c0,0,0,0,0.1,0c4.7-2,4-7.9,7.8-10.6C149.4,17.1,149.2,16.7,148.9,16.7z M154.9,24.1c0.3-0.4,0.6-0.9,1-1.3
		C155.5,23.3,155.2,23.7,154.9,24.1z"/>
	<path fill="#A8C060" d="M194.4,2.7c-3-0.8-6.2-0.3-8.7,0.8c-2,0.9-2.8,2.5-3.2,4.8c-0.4,0.5-0.6,1.2-0.8,1.9
		c-0.5,0.6-1,1.3-1.6,1.8c-0.3,0.2-0.5,0.4-0.7,0.6c-0.3,0.2-0.7,0.4-1.1,0.5c-3.3,0-6.4,0-9.4,1.1c-2.2,0.8-4.1,1.9-6,3.2
		c1.1-1.6,1.8-3.6,2.8-5.3c2-0.6,3.6-1.6,4.8-3.4c0.8-1.2,1.3-2.8,2.2-3.7c1-1,2.2-1.7,3.2-2.6c0.2-0.1,0.1-0.5-0.2-0.5
		c-2.8,0-6-0.1-8.1,1.7c-2.2,1.9-3,4.5-2.8,7.8c0,0,0,0.1,0,0.1c-0.3,0.9-0.5,1.9-1,2.6c-0.6,1-1.2,2.1-1.5,3.3
		c-0.1,0.2-0.2,0.3-0.2,0.5c-0.6,0.5-1.3,0.9-1.9,1.4c-1,0.8-2,1.5-3.1,2.2c-0.5,0.3-0.9,0.5-1.4,0.8c-0.1,0-0.2,0.2-0.4,0.4
		c-0.1-0.2-0.3-0.4-0.5-0.3c0,0-0.1,0.1-0.1,0.1c-0.1,0.1-0.1,0.3-0.1,0.4c0,0,0,0,0,0.1c0.1,0.1,0.2,0.2,0.3,0.2
		c1.7,0,3.8-1.9,5-2.8c1.9-1.5,3.7-2.8,5.7-4c2.4-0.3,4.6,0.1,7.1,0.9c2.5,1.9,4.9,4.4,7.8,3.9c3.3-0.5,5.8-2.8,9.3-2.7
		c0.3,0,0.3-0.4,0-0.5c-2.9-0.6-6-2.7-8.9-2.5c-2.7,0.2-5.1,1.4-7.8,1.4c-0.7-0.2-1.4-0.5-2.1-0.6c-1.3-0.3-2.8-0.5-4.1-0.4
		c1.1-0.5,2.2-0.9,3.4-1.2c2.1-0.5,4.2-0.9,6.5-0.7c1.6,0.1,3.1,0.1,4.6-0.2c1.7-0.3,3.2-0.9,4.6-1.7c0,0,0,0,0,0
		c0.8,0.3,1.7,0.5,2.7,0.6c4.2,2.8,8.6-0.2,11.7-2.1c0.2-0.1,0.1-0.4-0.1-0.5c-2.3-0.7-4.4-1-6.6-0.5c-0.9,0.2-1.8,0.3-2.6,0.7
		c-0.9,0.5-1.5,1.2-2.4,1.6c0,0-0.1,0.1-0.1,0.1c-0.2,0-0.4,0-0.6,0c-0.3-0.1-0.5-0.2-0.8-0.2c-0.2,0-0.5-0.1-0.7-0.2
		c0.8-0.5,1.5-1.1,2.2-1.8c0.1-0.1-0.1-0.4-0.3-0.3c-2.8,1.9-5.7,3.7-9.4,3.8c0.5-0.3,0.9-0.7,1.3-1.1c0.3-0.2,0.6-0.4,0.8-0.7
		c0.1-0.2,0.2-0.3,0.3-0.5c0.4-0.4,0.7-0.8,1.1-1.1c0,0,0,0,0.1,0c5.1,0.2,7-5.4,11.6-6.3C194.7,3.3,194.7,2.8,194.4,2.7z
		 M196.7,11.9c0.5-0.3,1-0.5,1.4-0.8C197.6,11.4,197.2,11.7,196.7,11.9z"/>
	<path fill="#A8C060" d="M272,46.6c-0.6-3-2.3-5.8-4.4-7.6c-1.6-1.4-3.5-1.5-5.7-0.9c-0.6-0.1-1.3,0-2,0.1c-0.8-0.2-1.6-0.4-2.3-0.7
		c-0.3-0.2-0.5-0.3-0.8-0.4c-0.3-0.2-0.7-0.5-0.9-0.8c-1.4-3-2.7-5.8-4.9-8.1c-1.7-1.7-3.5-2.9-5.4-4.1c1.9,0.4,4.1,0.1,6,0.3
		c1.4,1.6,2.9,2.6,5.1,3c1.4,0.2,3,0,4.3,0.4c1.3,0.5,2.5,1.2,3.7,1.8c0.2,0.1,0.5-0.2,0.4-0.4c-1.2-2.5-2.5-5.5-5-6.6
		c-2.6-1.2-5.3-0.8-8.3,0.8c0,0-0.1,0-0.1,0.1c-0.9,0.1-1.9,0.3-2.8,0.2c-1.2-0.1-2.4-0.2-3.6,0c-0.2,0-0.4,0-0.6,0
		c-0.7-0.4-1.4-0.8-2.1-1.1c-1.1-0.6-2.2-1.2-3.3-1.9c-0.4-0.3-0.9-0.6-1.3-0.9c-0.1,0-0.3-0.1-0.6-0.2c0.1-0.1,0.2-0.4,0-0.5
		c0,0-0.1-0.1-0.1-0.1c-0.1-0.1-0.3,0-0.4,0.1c0,0,0,0,0,0.1c-0.1,0.1-0.1,0.2,0,0.3c0.8,1.6,3.3,2.6,4.7,3.3c2.1,1.1,4.1,2.2,6,3.5
		c1.3,2.1,1.8,4.3,2.2,6.8c-0.7,3.1-1.9,6.2-0.3,8.7c1.9,2.8,5,4.1,6.4,7.3c0.1,0.2,0.5,0.1,0.5-0.2c-0.7-2.9-0.1-6.6-1.5-9.1
		c-1.3-2.3-3.4-4-4.5-6.5c-0.1-0.7-0.2-1.5-0.3-2.2c-0.3-1.3-0.7-2.7-1.4-3.9c0.9,0.8,1.8,1.6,2.6,2.5c1.4,1.7,2.6,3.5,3.4,5.6
		c0.5,1.5,1.2,2.9,2.1,4.1c1,1.4,2.2,2.5,3.5,3.4c0,0,0,0,0,0.1c0.1,0.9,0.3,1.8,0.6,2.7c-0.8,5,3.8,7.7,6.8,9.7
		c0.2,0.1,0.4-0.1,0.4-0.3c-0.3-2.4-1-4.4-2.3-6.2c-0.5-0.7-1.1-1.5-1.8-2c-0.8-0.6-1.7-0.9-2.5-1.5c0,0-0.1,0-0.1,0
		c-0.1-0.2-0.1-0.3-0.2-0.5c0-0.3-0.1-0.5-0.1-0.8c-0.1-0.2-0.1-0.5-0.1-0.7c0.8,0.5,1.7,0.9,2.6,1.3c0.2,0.1,0.4-0.3,0.2-0.4
		c-2.9-1.8-5.8-3.7-7.4-6.9c0.4,0.3,1,0.6,1.6,0.7c0.3,0.2,0.6,0.3,1,0.4c0.2,0,0.4,0,0.6,0.1c0.5,0.2,1,0.3,1.5,0.5c0,0,0,0,0,0.1
		c2,4.7,7.9,4,10.6,7.8C271.6,47.1,272,46.9,272,46.6z M264.6,52.6c0.4,0.3,0.9,0.6,1.3,1C265.4,53.2,265,52.9,264.6,52.6z"/>
	<path fill="#A8C060" d="M240.1,11.9c-2.3-2.1-5.3-3.2-8.1-3.4c-2.2-0.2-3.7,0.9-5.1,2.7c-0.6,0.3-1.1,0.8-1.6,1.3
		c-0.7,0.3-1.5,0.7-2.3,0.8c-0.3,0-0.6,0.1-0.9,0.2c-0.4,0-0.8,0-1.2-0.1c-2.9-1.6-5.6-3-8.8-3.5c-2.3-0.3-4.5-0.3-6.8,0
		c1.7-0.9,3.3-2.4,5-3.4c2,0.5,3.9,0.3,5.9-0.7c1.2-0.7,2.4-1.8,3.7-2.3c1.3-0.4,2.7-0.5,4.1-0.8c0.2,0,0.3-0.4,0.1-0.6
		c-2.5-1.3-5.3-2.9-8-2.3c-2.8,0.7-4.7,2.6-6.2,5.6c0,0,0,0.1,0,0.1c-0.7,0.6-1.3,1.4-2.1,1.9c-1,0.6-2,1.2-2.9,2.2
		c-0.2,0.1-0.3,0.2-0.5,0.3c-0.8,0.1-1.6,0.2-2.4,0.4c-1.2,0.2-2.5,0.4-3.7,0.5c-0.5,0-1,0.1-1.6,0c-0.1,0-0.3,0.1-0.6,0.2
		c0-0.2-0.1-0.4-0.3-0.4c0,0-0.1,0-0.1,0c-0.2,0-0.3,0.2-0.2,0.4c0,0,0,0.1,0,0.1c0,0.1,0.1,0.2,0.2,0.3c1.5,0.8,4.2,0.1,5.7-0.2
		c2.3-0.4,4.6-0.7,6.9-0.8c2.3,0.8,4,2.3,5.9,4.1c1.3,2.9,2.2,6.2,5,7.1c3.1,1.1,6.5,0.3,9.5,2c0.2,0.1,0.5-0.3,0.2-0.5
		c-2.3-1.9-4-5.2-6.6-6.4c-2.4-1.1-5.1-1.2-7.5-2.5c-0.5-0.5-1-1.1-1.6-1.6c-1-0.9-2.2-1.8-3.4-2.3c1.2,0.1,2.4,0.2,3.6,0.5
		c2.1,0.5,4.2,1.2,6.1,2.4c1.3,0.8,2.7,1.6,4.1,2c1.6,0.5,3.2,0.7,4.8,0.6c0,0,0,0,0,0.1c0.6,0.7,1.3,1.3,2.1,1.8
		c2.4,4.5,7.7,3.8,11.3,3.7c0.2,0,0.3-0.3,0.1-0.5c-1.6-1.7-3.4-3-5.5-3.6c-0.8-0.2-1.7-0.5-2.6-0.5c-1,0-1.9,0.4-2.8,0.3
		c0,0-0.1,0-0.1,0c-0.2-0.1-0.3-0.2-0.5-0.3c-0.2-0.2-0.4-0.4-0.6-0.6c-0.2-0.1-0.4-0.3-0.5-0.5c0.9-0.1,1.9-0.3,2.8-0.5
		c0.2-0.1,0.1-0.4-0.1-0.4c-3.4,0.4-6.8,0.5-10.1-1.1c0.6,0,1.1-0.2,1.7-0.4c0.4,0,0.7-0.1,1-0.3c0.2-0.1,0.3-0.2,0.5-0.3
		c0.5-0.2,1-0.3,1.5-0.5c0,0,0,0,0,0c4.4,2.5,8.7-1.5,13.2-0.1C240.2,12.6,240.3,12.1,240.1,11.9z M237.8,21.1c0.5,0,1.1,0,1.6,0
		C238.9,21.2,238.3,21.2,237.8,21.1z"/>
</g>
</svg>
