<?xml version="1.0" encoding="utf-8"?>
<!-- Generator: Adobe Illustrator 22.1.0, SVG Export Plug-In . SVG Version: 6.00 Build 0)  -->
<svg version="1.1" id="Layer_1" xmlns="http://www.w3.org/2000/svg" xmlns:xlink="http://www.w3.org/1999/xlink" x="0px" y="0px"
	 viewBox="0 0 295 180" enable-background="new 0 0 295 180" xml:space="preserve">
<g>
	<path fill="#223F21" d="M18.5,154.8c0,0.8,0,3.9,0.1,4.6c-0.1,0.2-0.2,0.3-0.5,0.3c-0.3-0.4-1.1-1.4-3.3-3.9l-6-6.9
		c-0.7-0.8-2.5-2.9-3-3.5H5.7c-0.1,0.3-0.1,0.9-0.1,1.7v5.7c0,1.2,0,4.6,0.5,5.4c0.2,0.3,0.7,0.4,1.3,0.5l0.8,0.1
		c0.2,0.2,0.1,0.5-0.1,0.6c-1.2-0.1-2.1-0.1-3-0.1c-1.1,0-1.8,0-2.7,0.1c-0.2-0.1-0.2-0.5-0.1-0.6l0.7-0.1c0.6-0.1,1-0.2,1.1-0.5
		c0.4-0.9,0.3-4.1,0.3-5.4v-7.5c0-0.7,0-1.3-0.6-1.9c-0.4-0.4-1-0.5-1.6-0.6l-0.4-0.1c-0.2-0.2-0.2-0.5,0.1-0.7
		C3,142,4.4,142,4.9,142c0.4,0,0.9,0,1.2-0.1c0.5,1.3,3.6,4.8,4.4,5.7l2.5,2.8c1.8,2,3.1,3.5,4.3,4.7h0.1c0.1-0.1,0.1-0.5,0.1-1.1
		v-5.6c0-1.2,0-4.6-0.5-5.4c-0.2-0.2-0.6-0.4-1.6-0.5l-0.4-0.1c-0.2-0.2-0.2-0.6,0.1-0.7C16.1,142,17,142,18,142
		c1.1,0,1.8,0,2.7-0.1c0.2,0.1,0.2,0.5,0.1,0.7l-0.4,0.1c-0.8,0.1-1.4,0.3-1.5,0.5c-0.4,0.9-0.4,4.2-0.4,5.4V154.8z"/>
	<path fill="#223F21" d="M24.9,145.9c0-2.7-0.1-3.1-1.6-3.3l-0.4-0.1c-0.2-0.1-0.1-0.6,0.1-0.7c1.1,0.1,2,0.1,3.1,0.1h4.9
		c1.7,0,3.2,0,3.5-0.1c0.2,0.4,0.3,2.3,0.4,3.5c-0.1,0.2-0.5,0.2-0.6,0.1c-0.4-1.2-0.6-2.1-2-2.5c-0.5-0.1-1.4-0.2-2.5-0.2h-1.9
		c-0.8,0-0.8,0.1-0.8,1v5.2c0,0.7,0.1,0.7,0.9,0.7h1.5c1.1,0,1.9-0.1,2.2-0.2c0.3-0.1,0.5-0.3,0.6-0.9l0.2-1.1
		c0.1-0.2,0.6-0.2,0.7,0c0,0.6-0.1,1.6-0.1,2.6c0,0.9,0.1,1.9,0.1,2.5c-0.1,0.2-0.5,0.2-0.7,0l-0.2-1c-0.1-0.5-0.3-0.9-0.8-1
		c-0.4-0.1-1-0.1-2-0.1h-1.5c-0.8,0-0.9,0-0.9,0.7v3.7c0,1.4,0.1,2.3,0.5,2.7c0.3,0.3,0.9,0.6,3.1,0.6c2,0,2.8-0.1,3.3-0.4
		c0.5-0.3,1.2-1.2,1.8-2.5c0.2-0.1,0.5-0.1,0.6,0.2c-0.2,0.9-0.8,2.9-1.2,3.6c-2.3-0.1-4.7-0.1-7-0.1H26c-1.1,0-2,0-3.5,0.1
		c-0.2-0.1-0.2-0.5-0.1-0.6l0.9-0.1c1.5-0.1,1.6-0.5,1.6-3.2V145.9z"/>
	<path fill="#223F21" d="M36.4,142.6c-0.2-0.2-0.1-0.5,0.1-0.6c0.7,0.1,1.9,0.1,2.7,0.1c0.7,0,2.1,0,3-0.1c0.2,0.1,0.2,0.4,0.1,0.6
		l-0.6,0.1c-0.5,0.1-0.9,0.2-0.9,0.4c0,0.3,0.5,1.6,1.4,3.5c1.5,3.2,3,6.5,4.5,9.7c0.6-1.3,1.3-2.8,2-4.2c0.2-0.5,0.4-0.9,0.4-1.1
		s-0.1-0.4-0.2-0.7c-0.9-2.1-1.9-4.2-2.9-6.2c-0.4-0.8-0.8-1.4-1.7-1.4l-0.6-0.1c-0.2-0.2-0.2-0.5,0.1-0.6c0.8,0.1,1.7,0.1,2.8,0.1
		c1.3,0,2.3,0,2.9-0.1c0.2,0.1,0.2,0.4,0.1,0.6l-0.7,0.1c-1,0.1-1,0.3-0.5,1.4c0.5,1.3,1.3,2.9,2,4.5c0.5-1,1-2,1.5-3.4
		c0.9-2.2,0.8-2.5,0-2.5l-0.8-0.1c-0.2-0.3-0.1-0.5,0.1-0.6c0.7,0.1,1.5,0.1,2.4,0.1c0.9,0,1.9,0,2.5-0.1c0.2,0.1,0.2,0.4,0.1,0.6
		l-0.8,0.1c-1.1,0.1-1.6,1.2-2.1,2.3c-0.5,1-1.6,3.2-2,4.1c-0.1,0.3-0.2,0.5-0.2,0.6s0.1,0.3,0.2,0.6c0.9,2,1.8,4,2.7,5.9
		c0.8-1.8,1.6-3.6,2.3-5.5c0.5-1.2,1.9-4.7,2.1-5.2c0.3-0.9,0.8-2.1,0.8-2.4c0-0.4-0.3-0.6-0.9-0.6l-0.8-0.1c-0.2-0.2-0.2-0.5,0-0.6
		c1,0.1,1.7,0.1,2.5,0.1c1,0,1.7,0,2.4-0.1c0.2,0.1,0.2,0.4,0.1,0.6l-0.5,0.1c-1.3,0.1-1.5,0.9-3.1,4.5l-1.9,4.4
		c-1.1,2.7-2.2,5.2-3.3,8c-0.1,0.1-0.2,0.1-0.3,0.1s-0.3,0-0.4-0.1c-0.8-2.3-2.3-5.6-3.1-7.4c-0.9,1.9-2.5,5.2-3.3,7.4
		c-0.1,0.1-0.2,0.1-0.3,0.1s-0.3,0-0.4-0.1c-0.4-1.1-1.5-3.4-1.8-4.2c-1.7-3.6-3.3-7.2-5-10.8c-0.5-1.1-0.8-1.8-1.9-1.9L36.4,142.6z
		"/>
	<path fill="#223F21" d="M71.2,145.9c0-2.7-0.1-3.1-1.7-3.3l-0.7-0.1c-0.2-0.1-0.1-0.6,0.1-0.7c1.5,0.1,2.3,0.1,3.4,0.1
		c1,0,1.9,0,3.2-0.1c0.2,0.1,0.2,0.5,0.1,0.7l-0.6,0.1c-1.5,0.1-1.6,0.5-1.6,3.3v9c0,1.6,0.1,2.3,0.5,2.8c0.3,0.3,0.8,0.6,2.8,0.6
		c2.2,0,2.8-0.1,3.2-0.3c0.5-0.3,1.2-1.2,1.7-2.6c0.2-0.1,0.6,0,0.6,0.2c0,0.3-0.7,2.9-1.1,3.6c-1.3-0.1-3.8-0.1-6.5-0.1h-2.4
		c-1.1,0-1.9,0-3.4,0.1c-0.2-0.1-0.2-0.5-0.1-0.6l0.8-0.1c1.5-0.2,1.6-0.5,1.6-3.2V145.9z"/>
	<path fill="#223F21" d="M85.6,145.9c0-2.7-0.1-3.1-1.6-3.3l-0.4-0.1c-0.2-0.1-0.1-0.6,0.1-0.7c1.1,0.1,2,0.1,3.1,0.1h4.9
		c1.7,0,3.2,0,3.5-0.1c0.2,0.4,0.3,2.3,0.4,3.5c-0.1,0.2-0.5,0.2-0.6,0.1c-0.4-1.2-0.6-2.1-2-2.5c-0.5-0.1-1.4-0.2-2.5-0.2h-1.9
		c-0.8,0-0.8,0.1-0.8,1v5.2c0,0.7,0.1,0.7,0.9,0.7h1.5c1.1,0,1.9-0.1,2.2-0.2c0.3-0.1,0.5-0.3,0.6-0.9l0.2-1.1
		c0.1-0.2,0.6-0.2,0.7,0c0,0.6-0.1,1.6-0.1,2.6c0,0.9,0.1,1.9,0.1,2.5c-0.1,0.2-0.5,0.2-0.7,0l-0.2-1c-0.1-0.5-0.3-0.9-0.8-1
		c-0.4-0.1-1-0.1-2-0.1h-1.5c-0.8,0-0.9,0-0.9,0.7v3.7c0,1.4,0.1,2.3,0.5,2.7c0.3,0.3,0.9,0.6,3.1,0.6c2,0,2.8-0.1,3.3-0.4
		c0.5-0.3,1.2-1.2,1.8-2.5c0.2-0.1,0.5-0.1,0.6,0.2c-0.2,0.9-0.8,2.9-1.2,3.6c-2.3-0.1-4.7-0.1-7-0.1h-2.3c-1.1,0-2,0-3.5,0.1
		c-0.2-0.1-0.2-0.5-0.1-0.6l0.9-0.1c1.5-0.1,1.6-0.5,1.6-3.2V145.9z"/>
	<path fill="#223F21" d="M108.1,153.1c-0.2-0.6-0.3-0.6-1.1-0.6h-3.9c-0.6,0-0.8,0.1-1,0.6l-0.9,2.7c-0.4,1.2-0.6,1.9-0.6,2.2
		c0,0.3,0.1,0.5,0.8,0.5l0.9,0.1c0.2,0.1,0.2,0.5-0.1,0.6c-0.7-0.1-1.5-0.1-2.7-0.1c-0.9,0-1.8,0.1-2.5,0.1
		c-0.2-0.1-0.2-0.5-0.1-0.6l0.9-0.1c0.6-0.1,1.2-0.3,1.6-1.3c0.5-1.2,1.2-2.9,2.3-5.8l2.7-7c0.4-0.9,0.5-1.4,0.4-1.8
		c0.6-0.2,1.1-0.7,1.4-1c0.2,0,0.3,0.1,0.4,0.2c0.3,1.1,0.8,2.3,1.1,3.5l3.6,10.5c0.8,2.2,1.1,2.6,2.2,2.8l0.7,0.1
		c0.2,0.1,0.1,0.5,0,0.6c-1.1-0.1-2-0.1-3.1-0.1c-1.2,0-2.2,0.1-3,0.1c-0.2-0.1-0.2-0.5-0.1-0.6l0.8-0.1c0.5-0.1,0.9-0.2,0.9-0.5
		c0-0.3-0.1-0.8-0.3-1.4L108.1,153.1z M102.9,150.8c-0.2,0.6-0.2,0.6,0.5,0.6h3.2c0.8,0,0.8-0.1,0.6-0.8l-1.4-4.2
		c-0.2-0.6-0.4-1.3-0.6-1.6h-0.1c-0.1,0.1-0.3,0.8-0.6,1.5L102.9,150.8z"/>
	<path fill="#223F21" d="M119.1,149.3c0,0.7,0.1,0.7,0.9,0.7h1.8c1.1,0,1.9-0.1,2.2-0.2c0.3-0.1,0.5-0.2,0.7-0.9l0.2-1
		c0.1-0.2,0.6-0.2,0.7,0c0,0.6-0.1,1.7-0.1,2.6c0,0.9,0.1,1.9,0.1,2.5c-0.1,0.2-0.5,0.2-0.7,0l-0.3-1c-0.1-0.5-0.3-0.8-0.8-1
		c-0.4-0.1-1-0.1-2-0.1H120c-0.8,0-0.9,0-0.9,0.7v3.6c0,2.7,0.1,3.1,1.6,3.2l0.9,0.1c0.2,0.1,0.1,0.6-0.1,0.6
		c-1.5-0.1-2.4-0.1-3.5-0.1c-1.1,0-2,0-3.2,0.1c-0.2-0.1-0.2-0.5-0.1-0.6l0.7-0.1c1.5-0.2,1.6-0.5,1.6-3.2v-9.4
		c0-2.7-0.1-3.1-1.6-3.3l-0.4-0.1c-0.2-0.1-0.1-0.6,0.1-0.7c1.1,0.1,2,0.1,3,0.1h4.8c1.7,0,3.2,0,3.5-0.1c0,1.2,0,2.4,0.1,3.4
		c-0.1,0.2-0.4,0.2-0.6,0.1c-0.2-1.2-0.5-2.1-1.8-2.5c-0.6-0.2-1.4-0.2-2.5-0.2h-1.6c-0.8,0-0.8,0.1-0.8,1V149.3z"/>
	<path fill="#223F21" d="M151,156.5c0,1,0.2,1.7,0.6,1.8c0.1,0.1,0.1,0.2,0,0.3c-0.3,0-0.8,0.1-1.3,0.2c-1.4,0.4-3.3,0.7-4.7,0.7
		c-3.1,0-5.9-0.9-7.9-2.9c-1.6-1.6-2.4-3.6-2.4-5.9c0-2.2,0.7-4.4,2.3-6.2c1.7-1.8,4.3-3,8.2-3c1.5,0,2.9,0.3,3.3,0.4
		c0.5,0.1,1.3,0.3,1.6,0.2c0,0.9,0.2,2.2,0.4,3.8c-0.1,0.2-0.5,0.2-0.7,0.1c-0.7-2.8-2.7-3.7-5.3-3.7c-5,0-7.3,3.6-7.3,7.5
		c0,5,2.6,8.9,7.8,8.9c1.6,0,2.6-0.3,2.9-0.8c0.1-0.2,0.3-0.6,0.3-1.5v-1c0-2.2-0.1-2.3-1.7-2.5l-1.1-0.1c-0.2-0.1-0.2-0.6,0-0.6
		c0.8,0.1,2.2,0.1,3.7,0.1c1,0,1.9,0,2.8-0.1c0.2,0.1,0.2,0.5,0,0.6l-0.4,0.1c-1.1,0.1-1.1,0.9-1.1,2.2V156.5z"/>
	<path fill="#223F21" d="M164.2,153.1c-0.2-0.6-0.3-0.6-1.1-0.6h-3.9c-0.6,0-0.8,0.1-1,0.6l-0.9,2.7c-0.4,1.2-0.6,1.9-0.6,2.2
		c0,0.3,0.1,0.5,0.8,0.5l0.9,0.1c0.2,0.1,0.2,0.5-0.1,0.6c-0.7-0.1-1.5-0.1-2.7-0.1c-0.9,0-1.8,0.1-2.5,0.1
		c-0.2-0.1-0.2-0.5-0.1-0.6l0.9-0.1c0.6-0.1,1.2-0.3,1.6-1.3c0.5-1.2,1.2-2.9,2.3-5.8l2.7-7c0.4-0.9,0.5-1.4,0.4-1.8
		c0.6-0.2,1.1-0.7,1.4-1c0.2,0,0.3,0.1,0.4,0.2c0.3,1.1,0.8,2.3,1.1,3.5l3.6,10.5c0.8,2.2,1.1,2.6,2.2,2.8l0.7,0.1
		c0.2,0.1,0.1,0.5,0,0.6c-1.1-0.1-2-0.1-3.1-0.1c-1.2,0-2.2,0.1-3,0.1c-0.2-0.1-0.2-0.5-0.1-0.6l0.8-0.1c0.5-0.1,0.9-0.2,0.9-0.5
		c0-0.3-0.1-0.8-0.3-1.4L164.2,153.1z M159,150.8c-0.2,0.6-0.2,0.6,0.5,0.6h3.2c0.8,0,0.8-0.1,0.6-0.8l-1.4-4.2
		c-0.2-0.6-0.4-1.3-0.6-1.6h-0.1c-0.1,0.1-0.3,0.8-0.6,1.5L159,150.8z"/>
	<path fill="#223F21" d="M173.1,145.9c0-2.5-0.1-2.9-1.1-3l-0.8-0.1c-0.2-0.1-0.2-0.5,0-0.7c1.5-0.1,3.2-0.2,5.8-0.2
		c1.6,0,3.1,0.1,4.3,0.8c1.2,0.6,2.2,1.8,2.2,3.6c0,2.5-2,3.8-3.2,4.3c-0.1,0.2,0,0.4,0.1,0.6c2.1,3.4,3.5,5.4,5.2,6.9
		c0.4,0.4,1.1,0.7,1.8,0.7c0.1,0.1,0.2,0.3,0,0.4c-0.2,0.1-0.7,0.1-1.1,0.1c-2.2,0-3.5-0.6-5.4-3.3c-0.7-1-1.7-2.8-2.5-3.9
		c-0.4-0.6-0.8-0.8-1.8-0.8c-1.2,0-1.2,0-1.2,0.6v3.3c0,2.7,0.1,3,1.6,3.2l0.5,0.1c0.2,0.1,0.1,0.6-0.1,0.6
		c-1.2-0.1-2.1-0.1-3.1-0.1c-1.1,0-2,0-3.2,0.1c-0.2-0.1-0.2-0.5-0.1-0.6l0.7-0.1c1.5-0.2,1.6-0.5,1.6-3.2V145.9z M175.2,149.7
		c0,0.5,0,0.8,0.1,0.9c0.1,0.1,0.5,0.1,1.8,0.1c0.9,0,1.9-0.1,2.7-0.7c0.7-0.5,1.3-1.5,1.3-3.2c0-2.1-1.3-4-4.2-4
		c-1.6,0-1.7,0.1-1.7,0.8V149.7z"/>
	<path fill="#223F21" d="M189.9,145.4c0-1.8-0.1-2.4-1.2-2.5l-0.6-0.1c-0.2-0.1-0.2-0.5,0-0.7c2.2-0.1,4.3-0.2,6.5-0.2
		c2.2,0,4,0.2,5.7,0.8c3.5,1.3,5.3,4.2,5.3,7.7c0,3.3-1.6,6.1-4.6,7.7c-1.7,0.9-3.8,1.2-5.8,1.2c-1.7,0-3.3-0.2-4.2-0.2
		c-1.1,0-2,0-3.2,0.1c-0.2-0.1-0.2-0.5-0.1-0.6l0.6-0.1c1.5-0.2,1.6-0.5,1.6-3.2V145.4z M192,154.7c0,1.4,0.1,2.2,0.5,2.8
		c0.6,0.8,1.6,1.1,3.2,1.1c5,0,7.3-3.3,7.3-8.1c0-2.9-1.4-7.7-8.2-7.7c-1.5,0-2.4,0.2-2.6,0.4c-0.2,0.2-0.3,0.8-0.3,2V154.7z"/>
	<path fill="#223F21" d="M210.2,145.9c0-2.7-0.1-3.1-1.6-3.3l-0.4-0.1c-0.2-0.1-0.1-0.6,0.1-0.7c1.1,0.1,2,0.1,3.1,0.1h4.9
		c1.7,0,3.2,0,3.5-0.1c0.2,0.4,0.3,2.3,0.4,3.5c-0.1,0.2-0.5,0.2-0.7,0.1c-0.4-1.2-0.6-2.1-2-2.5c-0.5-0.1-1.4-0.2-2.5-0.2h-1.9
		c-0.8,0-0.8,0.1-0.8,1v5.2c0,0.7,0.1,0.7,0.9,0.7h1.5c1.1,0,1.9-0.1,2.2-0.2c0.3-0.1,0.5-0.3,0.6-0.9l0.2-1.1
		c0.1-0.2,0.6-0.2,0.7,0c0,0.6-0.1,1.6-0.1,2.6c0,0.9,0.1,1.9,0.1,2.5c-0.1,0.2-0.5,0.2-0.7,0l-0.2-1c-0.1-0.5-0.3-0.9-0.8-1
		c-0.4-0.1-1-0.1-2-0.1h-1.5c-0.8,0-0.9,0-0.9,0.7v3.7c0,1.4,0.1,2.3,0.5,2.7c0.3,0.3,0.9,0.6,3.1,0.6c2,0,2.8-0.1,3.3-0.4
		c0.5-0.3,1.2-1.2,1.8-2.5c0.2-0.1,0.5-0.1,0.7,0.2c-0.2,0.9-0.8,2.9-1.2,3.6c-2.3-0.1-4.7-0.1-7-0.1h-2.3c-1.1,0-2,0-3.5,0.1
		c-0.2-0.1-0.2-0.5-0.1-0.6l0.9-0.1c1.5-0.1,1.6-0.5,1.6-3.2V145.9z"/>
	<path fill="#223F21" d="M239.3,154.8c0,0.8,0,3.9,0.1,4.6c-0.1,0.2-0.2,0.3-0.5,0.3c-0.3-0.4-1.1-1.4-3.3-3.9l-6-6.9
		c-0.7-0.8-2.5-2.9-3-3.5h-0.1c-0.1,0.3-0.1,0.9-0.1,1.7v5.7c0,1.2,0,4.6,0.5,5.4c0.2,0.3,0.7,0.4,1.3,0.5l0.8,0.1
		c0.2,0.2,0.1,0.5-0.1,0.6c-1.2-0.1-2.1-0.1-3-0.1c-1.1,0-1.8,0-2.7,0.1c-0.2-0.1-0.2-0.5-0.1-0.6l0.7-0.1c0.6-0.1,1-0.2,1.1-0.5
		c0.4-0.9,0.3-4.1,0.3-5.4v-7.5c0-0.7,0-1.3-0.6-1.9c-0.4-0.4-1-0.5-1.6-0.6l-0.4-0.1c-0.2-0.2-0.2-0.5,0.1-0.7
		c1.1,0.1,2.5,0.1,2.9,0.1c0.4,0,0.9,0,1.2-0.1c0.5,1.3,3.6,4.8,4.4,5.7l2.5,2.8c1.8,2,3.1,3.5,4.3,4.7h0.1c0.1-0.1,0.1-0.5,0.1-1.1
		v-5.6c0-1.2,0-4.6-0.5-5.4c-0.2-0.2-0.6-0.4-1.6-0.5l-0.4-0.1c-0.2-0.2-0.2-0.6,0.1-0.7c1.2,0.1,2.1,0.1,3.1,0.1
		c1.1,0,1.8,0,2.7-0.1c0.2,0.1,0.2,0.5,0.1,0.7l-0.4,0.1c-0.8,0.1-1.4,0.3-1.5,0.5c-0.4,0.9-0.4,4.2-0.4,5.4V154.8z"/>
	<path fill="#223F21" d="M253.3,143.8c1.9-1.5,4.3-2.2,7-2.2c1.4,0,3.4,0.3,4.6,0.6c0.3,0.1,0.5,0.1,0.7,0.1c0,0.6,0.2,2.2,0.4,3.8
		c-0.1,0.2-0.5,0.2-0.7,0.1c-0.4-1.8-1.6-3.8-5.3-3.8c-4,0-7.4,2.5-7.4,7.9c0,5.5,3.5,8.5,7.7,8.5c3.4,0,4.8-2.2,5.4-3.7
		c0.2-0.1,0.6-0.1,0.7,0.1c-0.2,1.4-0.9,3.1-1.2,3.6c-0.3,0.1-0.6,0.2-0.9,0.3c-0.6,0.2-2.4,0.6-4.1,0.6c-2.3,0-4.6-0.5-6.5-1.7
		c-2.1-1.4-3.7-3.8-3.7-7.1C250,147.8,251.3,145.3,253.3,143.8z"/>
	<path fill="#223F21" d="M268.2,150.8c0-5.2,3.9-9.2,9.3-9.2c6,0,9,4.3,9,8.9c0,5.3-4,9.1-9,9.1
		C271.6,159.6,268.2,155.5,268.2,150.8z M283.8,151.3c0-4.3-1.9-8.9-6.9-8.9c-2.7,0-6.2,1.8-6.2,7.5c0,3.8,1.9,8.8,7,8.8
		C280.9,158.8,283.8,156.4,283.8,151.3z"/>
	<path fill="#223F21" d="M289.4,158.1c0-0.9,0.6-1.5,1.5-1.5c0.9,0,1.5,0.7,1.5,1.5s-0.6,1.4-1.5,1.4
		C290.1,159.5,289.4,159,289.4,158.1z"/>
</g>
<g>
	<path fill="#811517" d="M7.8,173.1c-0.1-0.3-0.1-0.3-0.5-0.3H5.5c-0.3,0-0.4,0-0.5,0.3l-0.4,1.3c-0.2,0.5-0.3,0.9-0.3,1
		c0,0.1,0.1,0.2,0.3,0.2l0.4,0c0.1,0.1,0.1,0.3,0,0.3c-0.3,0-0.7,0-1.2,0c-0.4,0-0.8,0-1.2,0c-0.1,0-0.1-0.2,0-0.3l0.4,0
		c0.3,0,0.6-0.2,0.7-0.6c0.2-0.6,0.6-1.3,1.1-2.7l1.2-3.2c0.2-0.4,0.2-0.7,0.2-0.9c0.3-0.1,0.5-0.3,0.6-0.5c0.1,0,0.2,0,0.2,0.1
		c0.2,0.5,0.3,1.1,0.5,1.6l1.6,4.8c0.3,1,0.5,1.2,1,1.3l0.3,0c0.1,0.1,0.1,0.3,0,0.3c-0.5,0-0.9,0-1.5,0c-0.6,0-1,0-1.4,0
		c-0.1,0-0.1-0.2,0-0.3l0.3,0c0.3,0,0.4-0.1,0.4-0.2c0-0.1-0.1-0.3-0.2-0.6L7.8,173.1z M5.4,172c-0.1,0.3-0.1,0.3,0.3,0.3h1.5
		c0.3,0,0.4,0,0.3-0.4l-0.6-2c-0.1-0.3-0.2-0.6-0.3-0.8h0c0,0.1-0.2,0.3-0.3,0.7L5.4,172z"/>
	<path fill="#811517" d="M21.3,173.9c0,0.4,0,1.8,0,2.1c0,0.1-0.1,0.1-0.2,0.1c-0.1-0.2-0.5-0.6-1.5-1.8l-2.8-3.2
		c-0.3-0.4-1.1-1.4-1.4-1.6h0c0,0.1-0.1,0.4-0.1,0.8v2.6c0,0.6,0,2.1,0.2,2.5c0.1,0.1,0.3,0.2,0.6,0.2l0.4,0c0.1,0.1,0.1,0.2,0,0.3
		c-0.5,0-1,0-1.4,0c-0.5,0-0.8,0-1.2,0c-0.1-0.1-0.1-0.2,0-0.3l0.3,0c0.3,0,0.5-0.1,0.5-0.2c0.2-0.4,0.2-1.9,0.2-2.5v-3.5
		c0-0.3,0-0.6-0.3-0.9c-0.2-0.2-0.5-0.3-0.7-0.3l-0.2,0c-0.1-0.1-0.1-0.3,0-0.3c0.5,0,1.1,0,1.4,0c0.2,0,0.4,0,0.6,0
		c0.2,0.6,1.7,2.2,2.1,2.6l1.2,1.3c0.8,0.9,1.4,1.6,2,2.2h0c0-0.1,0-0.3,0-0.5V171c0-0.6,0-2.1-0.2-2.5c-0.1-0.1-0.3-0.2-0.7-0.2
		l-0.2,0c-0.1-0.1-0.1-0.3,0-0.3c0.6,0,1,0,1.4,0c0.5,0,0.8,0,1.2,0c0.1,0.1,0.1,0.2,0,0.3l-0.2,0c-0.4,0.1-0.6,0.2-0.7,0.3
		c-0.2,0.4-0.2,1.9-0.2,2.5V173.9z"/>
	<path fill="#811517" d="M27.1,169.5c0-0.8-0.1-1.1-0.6-1.2l-0.3,0c-0.1-0.1-0.1-0.3,0-0.3c1-0.1,2-0.1,3-0.1c1,0,1.9,0.1,2.6,0.4
		c1.6,0.6,2.4,2,2.4,3.5c0,1.5-0.7,2.8-2.1,3.6c-0.8,0.4-1.8,0.6-2.7,0.6c-0.8,0-1.5-0.1-2-0.1c-0.5,0-0.9,0-1.5,0
		c-0.1,0-0.1-0.2,0-0.3l0.3,0c0.7-0.1,0.7-0.2,0.7-1.5V169.5z M28.1,173.8c0,0.6,0,1,0.2,1.3c0.3,0.4,0.7,0.5,1.5,0.5
		c2.3,0,3.4-1.5,3.4-3.8c0-1.3-0.6-3.6-3.8-3.6c-0.7,0-1.1,0.1-1.2,0.2c-0.1,0.1-0.1,0.4-0.1,0.9V173.8z"/>
	<path fill="#811517" d="M46.9,172c-0.6,0-0.6,0-0.6,0.4v1.7c0,1.3,0.1,1.4,0.7,1.5l0.3,0c0.1,0,0,0.3,0,0.3c-0.6,0-1.1,0-1.5,0
		c-0.5,0-0.9,0-1.4,0c-0.1,0-0.1-0.2,0-0.3l0.2,0c0.7-0.1,0.7-0.2,0.7-1.5v-4.3c0-1.3-0.1-1.5-0.7-1.5l-0.3,0c-0.1,0,0-0.3,0-0.3
		c0.6,0,1,0,1.5,0c0.5,0,0.9,0,1.4,0c0.1,0,0.1,0.3,0,0.3l-0.2,0c-0.7,0.1-0.7,0.3-0.7,1.5v1.4c0,0.4,0,0.4,0.6,0.4h3.4
		c0.6,0,0.6,0,0.6-0.4v-1.4c0-1.3,0-1.4-0.7-1.5l-0.2,0c-0.1,0,0-0.3,0-0.3c0.6,0,1,0,1.5,0c0.5,0,0.9,0,1.4,0c0.1,0,0.1,0.3,0,0.3
		l-0.3,0c-0.7,0.1-0.7,0.3-0.7,1.5v4.3c0,1.3,0,1.4,0.7,1.5l0.3,0c0.1,0,0,0.3,0,0.3c-0.6,0-1,0-1.5,0c-0.5,0-0.9,0-1.5,0
		c-0.1,0-0.1-0.2,0-0.3l0.2,0c0.7-0.1,0.7-0.2,0.7-1.5v-1.7c0-0.4,0-0.4-0.6-0.4H46.9z"/>
	<path fill="#811517" d="M61.3,173.1c-0.1-0.3-0.1-0.3-0.5-0.3H59c-0.3,0-0.4,0-0.5,0.3l-0.4,1.3c-0.2,0.5-0.3,0.9-0.3,1
		c0,0.1,0.1,0.2,0.3,0.2l0.4,0c0.1,0.1,0.1,0.3,0,0.3c-0.3,0-0.7,0-1.2,0c-0.4,0-0.8,0-1.2,0c-0.1,0-0.1-0.2,0-0.3l0.4,0
		c0.3,0,0.6-0.2,0.7-0.6c0.2-0.6,0.6-1.3,1.1-2.7l1.2-3.2c0.2-0.4,0.2-0.7,0.2-0.9c0.3-0.1,0.5-0.3,0.6-0.5c0.1,0,0.2,0,0.2,0.1
		c0.2,0.5,0.3,1.1,0.5,1.6l1.6,4.8c0.3,1,0.5,1.2,1,1.3l0.3,0c0.1,0.1,0.1,0.3,0,0.3c-0.5,0-0.9,0-1.5,0c-0.6,0-1,0-1.4,0
		c-0.1,0-0.1-0.2,0-0.3l0.3,0c0.3,0,0.4-0.1,0.4-0.2c0-0.1-0.1-0.3-0.2-0.6L61.3,173.1z M58.9,172c-0.1,0.3-0.1,0.3,0.3,0.3h1.5
		c0.3,0,0.4,0,0.3-0.4l-0.6-2c-0.1-0.3-0.2-0.6-0.3-0.8h0c0,0.1-0.2,0.3-0.3,0.7L58.9,172z"/>
	<path fill="#811517" d="M68.3,169.8c0-1.3,0-1.5-0.8-1.5l-0.3,0c-0.1,0,0-0.3,0-0.3c0.7,0,1.1,0,1.6,0c0.5,0,0.9,0,1.5,0
		c0.1,0,0.1,0.3,0,0.3l-0.3,0c-0.7,0.1-0.7,0.3-0.7,1.5v4.2c0,0.8,0,1.1,0.3,1.3c0.1,0.1,0.4,0.3,1.3,0.3c1,0,1.3,0,1.5-0.2
		c0.2-0.1,0.6-0.6,0.8-1.2c0.1-0.1,0.3,0,0.3,0.1c0,0.1-0.3,1.4-0.5,1.7c-0.6,0-1.8,0-3,0h-1.1c-0.5,0-0.9,0-1.6,0
		c-0.1,0-0.1-0.2,0-0.3l0.4,0c0.7-0.1,0.7-0.2,0.7-1.5V169.8z"/>
	<path fill="#811517" d="M77.9,169.8c0-1.3,0-1.5-0.8-1.5l-0.3,0c-0.1,0,0-0.3,0-0.3c0.7,0,1.1,0,1.6,0c0.5,0,0.9,0,1.5,0
		c0.1,0,0.1,0.3,0,0.3l-0.3,0c-0.7,0.1-0.7,0.3-0.7,1.5v4.2c0,0.8,0,1.1,0.3,1.3c0.1,0.1,0.4,0.3,1.3,0.3c1,0,1.3,0,1.5-0.2
		c0.2-0.1,0.6-0.6,0.8-1.2c0.1-0.1,0.3,0,0.3,0.1c0,0.1-0.3,1.4-0.5,1.7c-0.6,0-1.8,0-3,0h-1.1c-0.5,0-0.9,0-1.6,0
		c-0.1,0-0.1-0.2,0-0.3l0.4,0c0.7-0.1,0.7-0.2,0.7-1.5V169.8z"/>
	<path fill="#811517" d="M86.5,168.7c0,0.8-0.6,1.4-1.4,1.6c-0.1,0-0.1-0.2-0.1-0.3c0.4-0.2,0.9-0.5,0.9-1c0-0.5-0.4-0.7-0.6-0.7
		c-0.2,0-0.3-0.1-0.3-0.3c0-0.2,0.1-0.5,0.6-0.5C86,167.5,86.5,168,86.5,168.7z"/>
	<path fill="#811517" d="M92.7,176.1c-1,0-1.6-0.3-1.9-0.4c-0.1-0.3-0.3-1.1-0.3-1.7c0.1-0.1,0.2-0.1,0.3,0c0.2,0.6,0.7,1.8,2.1,1.8
		c1,0,1.5-0.7,1.5-1.4c0-0.5-0.1-1.1-1-1.7l-1.1-0.7c-0.6-0.4-1.3-1.1-1.3-2.1c0-1.1,0.9-2.1,2.4-2.1c0.4,0,0.8,0.1,1.1,0.2
		c0.2,0,0.3,0.1,0.4,0.1c0.1,0.3,0.2,1,0.2,1.5c0,0.1-0.2,0.1-0.3,0c-0.2-0.6-0.5-1.4-1.6-1.4c-1.2,0-1.4,0.8-1.4,1.3
		c0,0.7,0.6,1.2,1,1.5l1,0.6c0.8,0.5,1.5,1.2,1.5,2.3C95.3,175.2,94.3,176.1,92.7,176.1z"/>
	<path fill="#811517" d="M106.8,168.8c0.9-0.7,2-1,3.2-1c0.6,0,1.6,0.1,2.1,0.3c0.1,0,0.2,0.1,0.3,0c0,0.3,0.1,1,0.2,1.8
		c-0.1,0.1-0.2,0.1-0.3,0c-0.2-0.8-0.7-1.8-2.5-1.8c-1.8,0-3.4,1.2-3.4,3.6c0,2.5,1.6,3.9,3.6,3.9c1.5,0,2.2-1,2.5-1.7
		c0.1-0.1,0.3,0,0.3,0c-0.1,0.6-0.4,1.4-0.6,1.6c-0.1,0-0.3,0.1-0.4,0.1c-0.3,0.1-1.1,0.3-1.9,0.3c-1.1,0-2.1-0.2-3-0.8
		c-1-0.7-1.7-1.8-1.7-3.3C105.3,170.7,105.9,169.5,106.8,168.8z"/>
	<path fill="#811517" d="M119.1,172c-0.6,0-0.6,0-0.6,0.4v1.7c0,1.3,0.1,1.4,0.7,1.5l0.3,0c0.1,0,0,0.3,0,0.3c-0.6,0-1.1,0-1.5,0
		c-0.5,0-0.9,0-1.4,0c-0.1,0-0.1-0.2,0-0.3l0.2,0c0.7-0.1,0.7-0.2,0.7-1.5v-4.3c0-1.3-0.1-1.5-0.7-1.5l-0.3,0c-0.1,0,0-0.3,0-0.3
		c0.6,0,1,0,1.5,0c0.5,0,0.9,0,1.4,0c0.1,0,0.1,0.3,0,0.3l-0.2,0c-0.7,0.1-0.7,0.3-0.7,1.5v1.4c0,0.4,0,0.4,0.6,0.4h3.4
		c0.6,0,0.6,0,0.6-0.4v-1.4c0-1.3,0-1.4-0.7-1.5l-0.2,0c-0.1,0,0-0.3,0-0.3c0.6,0,1,0,1.5,0c0.5,0,0.9,0,1.4,0c0.1,0,0.1,0.3,0,0.3
		l-0.3,0c-0.7,0.1-0.7,0.3-0.7,1.5v4.3c0,1.3,0,1.4,0.7,1.5l0.3,0c0.1,0,0,0.3,0,0.3c-0.6,0-1,0-1.5,0c-0.5,0-0.9,0-1.5,0
		c-0.1,0-0.1-0.2,0-0.3l0.2,0c0.7-0.1,0.7-0.2,0.7-1.5v-1.7c0-0.4,0-0.4-0.6-0.4H119.1z"/>
	<path fill="#811517" d="M130.1,169.8c0-1.1,0-1.3-0.5-1.4l-0.4,0c-0.1-0.1-0.1-0.3,0-0.3c0.7-0.1,1.5-0.1,2.7-0.1
		c0.7,0,1.5,0.1,2,0.4c0.6,0.3,1,0.8,1,1.7c0,1.1-0.9,1.8-1.5,2c-0.1,0.1,0,0.2,0.1,0.3c1,1.5,1.6,2.5,2.4,3.2
		c0.2,0.2,0.5,0.3,0.8,0.3c0.1,0,0.1,0.1,0,0.2c-0.1,0-0.3,0.1-0.5,0.1c-1,0-1.6-0.3-2.5-1.5c-0.3-0.4-0.8-1.3-1.2-1.8
		c-0.2-0.3-0.4-0.4-0.9-0.4c-0.5,0-0.6,0-0.6,0.3v1.5c0,1.3,0,1.4,0.7,1.5l0.3,0c0.1,0.1,0,0.3,0,0.3c-0.5,0-0.9,0-1.4,0
		c-0.5,0-0.9,0-1.5,0c-0.1,0-0.1-0.2,0-0.3l0.3,0c0.7-0.1,0.7-0.2,0.7-1.5V169.8z M131.1,171.5c0,0.2,0,0.3,0,0.4
		c0,0,0.2,0.1,0.8,0.1c0.4,0,0.9,0,1.2-0.3c0.3-0.3,0.6-0.7,0.6-1.5c0-0.9-0.6-1.8-1.9-1.8c-0.7,0-0.8,0-0.8,0.4V171.5z"/>
	<path fill="#811517" d="M140.8,169.8c0-1.3,0-1.5-0.7-1.5l-0.3,0c-0.1,0,0-0.3,0-0.3c0.6,0,1,0,1.5,0c0.5,0,0.9,0,1.5,0
		c0.1,0,0.1,0.3,0,0.3l-0.3,0c-0.7,0.1-0.7,0.3-0.7,1.5v4.3c0,1.3,0,1.4,0.7,1.5l0.3,0c0.1,0,0,0.3,0,0.3c-0.6,0-1,0-1.5,0
		c-0.5,0-0.9,0-1.5,0c-0.1,0-0.1-0.2,0-0.3l0.3,0c0.7-0.1,0.7-0.3,0.7-1.5V169.8z"/>
	<path fill="#811517" d="M148.9,176.1c-1,0-1.6-0.3-1.9-0.4c-0.1-0.3-0.3-1.1-0.3-1.7c0.1-0.1,0.2-0.1,0.3,0
		c0.2,0.6,0.7,1.8,2.1,1.8c1,0,1.5-0.7,1.5-1.4c0-0.5-0.1-1.1-1-1.7l-1.1-0.7c-0.6-0.4-1.3-1.1-1.3-2.1c0-1.1,0.9-2.1,2.4-2.1
		c0.4,0,0.8,0.1,1.1,0.2c0.2,0,0.3,0.1,0.4,0.1c0.1,0.3,0.2,1,0.2,1.5c0,0.1-0.2,0.1-0.3,0c-0.2-0.6-0.5-1.4-1.6-1.4
		c-1.2,0-1.4,0.8-1.4,1.3c0,0.7,0.6,1.2,1,1.5l1,0.6c0.8,0.5,1.5,1.2,1.5,2.3C151.5,175.2,150.5,176.1,148.9,176.1z"/>
	<path fill="#811517" d="M159.4,174.1c0,1.3,0,1.4,0.7,1.5l0.4,0c0.1,0,0,0.3,0,0.3c-0.7,0-1.1,0-1.6,0s-0.9,0-1.7,0
		c-0.1,0-0.1-0.2,0-0.3l0.4,0c0.7-0.1,0.7-0.2,0.7-1.5v-5.4c0-0.4,0-0.4-0.4-0.4h-0.7c-0.5,0-1.2,0-1.5,0.3
		c-0.3,0.3-0.4,0.5-0.5,0.8c-0.1,0.1-0.3,0-0.3-0.1c0.2-0.5,0.4-1.3,0.5-1.8c0,0,0.2,0,0.2,0c0.1,0.4,0.5,0.4,1,0.4h4.9
		c0.6,0,0.8,0,0.9-0.3c0.1,0,0.2,0,0.2,0c-0.1,0.5-0.2,1.5-0.2,1.8c0,0.1-0.3,0.1-0.3,0c0-0.3-0.1-0.7-0.3-0.9
		c-0.3-0.2-0.7-0.3-1.4-0.3h-0.9c-0.4,0-0.3,0-0.3,0.4V174.1z"/>
	<path fill="#811517" d="M170.5,172.7c0.3,0.6,0.5,1.1,0.8,1.6h0c0.3-0.6,0.6-1.2,0.9-1.8l1.1-2.3c0.5-1.1,0.9-1.8,0.9-2.3
		c0.4,0,0.7,0,0.9,0c0.3,0,0.7,0,1.1,0c0.1,0,0.1,0.3,0,0.3l-0.3,0c-0.8,0.1-0.9,0.3-0.8,1.1c0,1.3,0,3.5,0.1,5.2c0,0.6,0,0.9,0.6,1
		l0.4,0c0.1,0.1,0.1,0.3,0,0.3c-0.5,0-1,0-1.4,0c-0.4,0-1,0-1.5,0c-0.1-0.1-0.1-0.2,0-0.3l0.3,0c0.6-0.1,0.6-0.3,0.6-1l0-5h0
		c-0.1,0.1-0.5,1.1-0.8,1.6l-1.1,2.1c-0.5,1.1-1.1,2.2-1.3,2.7c0,0-0.1,0-0.1,0c0,0-0.1,0-0.1,0c-0.2-0.6-0.8-1.8-1.1-2.4l-1.1-2.3
		c-0.3-0.6-0.5-1.2-0.8-1.7h0c0,0.7-0.1,1.4-0.1,2.1c0,0.7-0.1,1.8-0.1,2.8c0,0.9,0.1,1.1,0.5,1.1l0.5,0c0.1,0.1,0.1,0.3,0,0.3
		c-0.4,0-0.9,0-1.3,0c-0.4,0-0.8,0-1.2,0c-0.1-0.1-0.1-0.2,0-0.3l0.3,0c0.5-0.1,0.7-0.1,0.7-1c0.1-0.8,0.1-1.5,0.2-2.6
		c0.1-1,0.1-2,0.1-2.7c0-0.8-0.1-0.9-0.8-1l-0.2,0c-0.1-0.1,0-0.3,0-0.3c0.4,0,0.6,0,0.9,0c0.3,0,0.6,0,1,0c0,0.5,0.3,1.2,0.6,2
		L170.5,172.7z"/>
	<path fill="#811517" d="M184.6,173.1c-0.1-0.3-0.1-0.3-0.5-0.3h-1.8c-0.3,0-0.4,0-0.5,0.3l-0.4,1.3c-0.2,0.5-0.3,0.9-0.3,1
		c0,0.1,0.1,0.2,0.3,0.2l0.4,0c0.1,0.1,0.1,0.3,0,0.3c-0.3,0-0.7,0-1.2,0c-0.4,0-0.8,0-1.2,0c-0.1,0-0.1-0.2,0-0.3l0.4,0
		c0.3,0,0.6-0.2,0.7-0.6c0.2-0.6,0.6-1.3,1.1-2.7l1.2-3.2c0.2-0.4,0.2-0.7,0.2-0.9c0.3-0.1,0.5-0.3,0.6-0.5c0.1,0,0.2,0,0.2,0.1
		c0.2,0.5,0.3,1.1,0.5,1.6l1.6,4.8c0.3,1,0.5,1.2,1,1.3l0.3,0c0.1,0.1,0.1,0.3,0,0.3c-0.5,0-0.9,0-1.5,0c-0.6,0-1,0-1.4,0
		c-0.1,0-0.1-0.2,0-0.3l0.3,0c0.3,0,0.4-0.1,0.4-0.2c0-0.1-0.1-0.3-0.2-0.6L184.6,173.1z M182.2,172c-0.1,0.3-0.1,0.3,0.3,0.3h1.5
		c0.3,0,0.4,0,0.3-0.4l-0.6-2c-0.1-0.3-0.2-0.6-0.3-0.8h0c0,0.1-0.2,0.3-0.3,0.7L182.2,172z"/>
	<path fill="#811517" d="M192.8,176.1c-1,0-1.6-0.3-1.9-0.4c-0.1-0.3-0.3-1.1-0.3-1.7c0.1-0.1,0.2-0.1,0.3,0
		c0.2,0.6,0.7,1.8,2.1,1.8c1,0,1.5-0.7,1.5-1.4c0-0.5-0.1-1.1-1-1.7l-1.1-0.7c-0.6-0.4-1.3-1.1-1.3-2.1c0-1.1,0.9-2.1,2.4-2.1
		c0.4,0,0.8,0.1,1.1,0.2c0.2,0,0.3,0.1,0.4,0.1c0.1,0.3,0.2,1,0.2,1.5c0,0.1-0.2,0.1-0.3,0c-0.2-0.6-0.5-1.4-1.6-1.4
		c-1.2,0-1.4,0.8-1.4,1.3c0,0.7,0.6,1.2,1,1.5l1,0.6c0.8,0.5,1.5,1.2,1.5,2.3C195.3,175.2,194.4,176.1,192.8,176.1z"/>
	<path fill="#811517" d="M208.7,174.1c0,1.3,0,1.4,0.7,1.5l0.4,0c0.1,0,0,0.3,0,0.3c-0.7,0-1.1,0-1.6,0s-0.9,0-1.7,0
		c-0.1,0-0.1-0.2,0-0.3l0.4,0c0.7-0.1,0.7-0.2,0.7-1.5v-5.4c0-0.4,0-0.4-0.4-0.4h-0.7c-0.5,0-1.2,0-1.5,0.3
		c-0.3,0.3-0.4,0.5-0.5,0.8c-0.1,0.1-0.3,0-0.3-0.1c0.2-0.5,0.4-1.3,0.5-1.8c0,0,0.2,0,0.2,0c0.1,0.4,0.5,0.4,1,0.4h4.9
		c0.6,0,0.8,0,0.9-0.3c0.1,0,0.2,0,0.2,0c-0.1,0.5-0.2,1.5-0.2,1.8c0,0.1-0.3,0.1-0.3,0c0-0.3-0.1-0.7-0.3-0.9
		c-0.3-0.2-0.7-0.3-1.4-0.3H209c-0.4,0-0.3,0-0.3,0.4V174.1z"/>
	<path fill="#811517" d="M216.6,169.8c0-1.1,0-1.3-0.5-1.4l-0.4,0c-0.1-0.1-0.1-0.3,0-0.3c0.7-0.1,1.5-0.1,2.7-0.1
		c0.7,0,1.5,0.1,2,0.4c0.6,0.3,1,0.8,1,1.7c0,1.1-0.9,1.8-1.5,2c-0.1,0.1,0,0.2,0.1,0.3c1,1.5,1.6,2.5,2.4,3.2
		c0.2,0.2,0.5,0.3,0.8,0.3c0.1,0,0.1,0.1,0,0.2c-0.1,0-0.3,0.1-0.5,0.1c-1,0-1.6-0.3-2.5-1.5c-0.3-0.4-0.8-1.3-1.2-1.8
		c-0.2-0.3-0.4-0.4-0.9-0.4c-0.5,0-0.6,0-0.6,0.3v1.5c0,1.3,0,1.4,0.7,1.5l0.3,0c0.1,0.1,0,0.3,0,0.3c-0.5,0-0.9,0-1.4,0
		c-0.5,0-0.9,0-1.5,0c-0.1,0-0.1-0.2,0-0.3l0.3,0c0.7-0.1,0.7-0.2,0.7-1.5V169.8z M217.6,171.5c0,0.2,0,0.3,0,0.4
		c0,0,0.2,0.1,0.8,0.1c0.4,0,0.9,0,1.2-0.3c0.3-0.3,0.6-0.7,0.6-1.5c0-0.9-0.6-1.8-1.9-1.8c-0.7,0-0.8,0-0.8,0.4V171.5z"/>
	<path fill="#811517" d="M227.3,169.8c0-1.2,0-1.4-0.7-1.5l-0.2,0c-0.1,0,0-0.3,0-0.3c0.5,0,0.9,0,1.4,0h2.3c0.8,0,1.5,0,1.6,0
		c0.1,0.2,0.1,1.1,0.2,1.6c0,0.1-0.2,0.1-0.3,0c-0.2-0.6-0.3-1-0.9-1.1c-0.3-0.1-0.6-0.1-1.2-0.1h-0.9c-0.4,0-0.4,0-0.4,0.5v2.4
		c0,0.3,0,0.3,0.4,0.3h0.7c0.5,0,0.9,0,1-0.1c0.1,0,0.2-0.1,0.3-0.4l0.1-0.5c0.1-0.1,0.3-0.1,0.3,0c0,0.3,0,0.8,0,1.2
		c0,0.4,0,0.9,0,1.2c0,0.1-0.3,0.1-0.3,0l-0.1-0.5c0-0.2-0.1-0.4-0.4-0.5c-0.2,0-0.5-0.1-0.9-0.1h-0.7c-0.4,0-0.4,0-0.4,0.3v1.7
		c0,0.6,0,1,0.2,1.2c0.1,0.1,0.4,0.3,1.5,0.3c0.9,0,1.3,0,1.5-0.2c0.2-0.1,0.5-0.5,0.9-1.2c0.1-0.1,0.3,0,0.3,0.1
		c-0.1,0.4-0.4,1.3-0.5,1.7c-1.1,0-2.1,0-3.2,0h-1.1c-0.5,0-0.9,0-1.6,0c-0.1,0-0.1-0.2,0-0.3l0.4,0c0.7-0.1,0.7-0.2,0.7-1.5V169.8z
		"/>
	<path fill="#811517" d="M237.2,169.8c0-1.2,0-1.4-0.7-1.5l-0.2,0c-0.1,0,0-0.3,0-0.3c0.5,0,0.9,0,1.4,0h2.3c0.8,0,1.5,0,1.6,0
		c0.1,0.2,0.1,1.1,0.2,1.6c0,0.1-0.2,0.1-0.3,0c-0.2-0.6-0.3-1-0.9-1.1c-0.3-0.1-0.6-0.1-1.2-0.1h-0.9c-0.4,0-0.4,0-0.4,0.5v2.4
		c0,0.3,0,0.3,0.4,0.3h0.7c0.5,0,0.9,0,1-0.1c0.1,0,0.2-0.1,0.3-0.4l0.1-0.5c0.1-0.1,0.3-0.1,0.3,0c0,0.3,0,0.8,0,1.2
		c0,0.4,0,0.9,0,1.2c0,0.1-0.3,0.1-0.3,0l-0.1-0.5c0-0.2-0.1-0.4-0.4-0.5c-0.2,0-0.5-0.1-0.9-0.1h-0.7c-0.4,0-0.4,0-0.4,0.3v1.7
		c0,0.6,0,1,0.2,1.2c0.1,0.1,0.4,0.3,1.5,0.3c0.9,0,1.3,0,1.5-0.2c0.2-0.1,0.5-0.5,0.9-1.2c0.1-0.1,0.3,0,0.3,0.1
		c-0.1,0.4-0.4,1.3-0.5,1.7c-1.1,0-2.1,0-3.2,0h-1.1c-0.5,0-0.9,0-1.6,0c-0.1,0-0.1-0.2,0-0.3l0.4,0c0.7-0.1,0.7-0.2,0.7-1.5V169.8z
		"/>
	<path fill="#811517" d="M254,171.4c0,0.3,0,0.3,0.4,0.3h0.8c0.5,0,0.9,0,1-0.1c0.1,0,0.2-0.1,0.3-0.4l0.1-0.5
		c0.1-0.1,0.3-0.1,0.3,0c0,0.3,0,0.8,0,1.2c0,0.4,0,0.9,0,1.2c0,0.1-0.2,0.1-0.3,0l-0.1-0.5c-0.1-0.2-0.2-0.4-0.4-0.5
		c-0.2,0-0.5-0.1-0.9-0.1h-0.8c-0.4,0-0.4,0-0.4,0.3v1.7c0,1.3,0,1.4,0.7,1.5l0.4,0c0.1,0,0,0.3,0,0.3c-0.7,0-1.1,0-1.6,0
		c-0.5,0-0.9,0-1.5,0c-0.1,0-0.1-0.2,0-0.3l0.3,0c0.7-0.1,0.7-0.2,0.7-1.5v-4.3c0-1.3,0-1.4-0.7-1.5l-0.2,0c-0.1,0,0-0.3,0-0.3
		c0.5,0,0.9,0,1.4,0h2.2c0.8,0,1.5,0,1.6,0c0,0.6,0,1.1,0,1.6c0,0.1-0.2,0.1-0.3,0c-0.1-0.5-0.2-1-0.8-1.1c-0.3-0.1-0.7-0.1-1.2-0.1
		h-0.7c-0.4,0-0.4,0-0.4,0.5V171.4z"/>
	<path fill="#811517" d="M265.3,173.1c-0.1-0.3-0.1-0.3-0.5-0.3H263c-0.3,0-0.4,0-0.5,0.3l-0.4,1.3c-0.2,0.5-0.3,0.9-0.3,1
		c0,0.1,0.1,0.2,0.3,0.2l0.4,0c0.1,0.1,0.1,0.3,0,0.3c-0.3,0-0.7,0-1.2,0c-0.4,0-0.8,0-1.2,0c-0.1,0-0.1-0.2,0-0.3l0.4,0
		c0.3,0,0.6-0.2,0.7-0.6c0.2-0.6,0.6-1.3,1.1-2.7l1.2-3.2c0.2-0.4,0.2-0.7,0.2-0.9c0.3-0.1,0.5-0.3,0.6-0.5c0.1,0,0.2,0,0.2,0.1
		c0.2,0.5,0.3,1.1,0.5,1.6l1.6,4.8c0.3,1,0.5,1.2,1,1.3l0.3,0c0.1,0.1,0.1,0.3,0,0.3c-0.5,0-0.9,0-1.5,0c-0.6,0-1,0-1.4,0
		c-0.1,0-0.1-0.2,0-0.3l0.3,0c0.3,0,0.4-0.1,0.4-0.2c0-0.1-0.1-0.3-0.2-0.6L265.3,173.1z M263,172c-0.1,0.3-0.1,0.3,0.3,0.3h1.5
		c0.3,0,0.4,0,0.3-0.4l-0.6-2c-0.1-0.3-0.2-0.6-0.3-0.8h0c0,0.1-0.2,0.3-0.3,0.7L263,172z"/>
	<path fill="#811517" d="M272.4,169.8c0-1.1,0-1.3-0.5-1.4l-0.4,0c-0.1-0.1-0.1-0.3,0-0.3c0.7-0.1,1.5-0.1,2.7-0.1
		c0.7,0,1.5,0.1,2,0.4c0.6,0.3,1,0.8,1,1.7c0,1.1-0.9,1.8-1.5,2c-0.1,0.1,0,0.2,0.1,0.3c1,1.5,1.6,2.5,2.4,3.2
		c0.2,0.2,0.5,0.3,0.8,0.3c0.1,0,0.1,0.1,0,0.2c-0.1,0-0.3,0.1-0.5,0.1c-1,0-1.6-0.3-2.5-1.5c-0.3-0.4-0.8-1.3-1.2-1.8
		c-0.2-0.3-0.4-0.4-0.9-0.4c-0.5,0-0.6,0-0.6,0.3v1.5c0,1.3,0,1.4,0.7,1.5l0.3,0c0.1,0.1,0,0.3,0,0.3c-0.5,0-0.9,0-1.4,0
		c-0.5,0-0.9,0-1.5,0c-0.1,0-0.1-0.2,0-0.3l0.3,0c0.7-0.1,0.7-0.2,0.7-1.5V169.8z M273.4,171.5c0,0.2,0,0.3,0,0.4
		c0,0,0.2,0.1,0.8,0.1c0.4,0,0.9,0,1.2-0.3c0.3-0.3,0.6-0.7,0.6-1.5c0-0.9-0.6-1.8-1.9-1.8c-0.7,0-0.8,0-0.8,0.4V171.5z"/>
	<path fill="#811517" d="M286.2,172.7c0.3,0.6,0.5,1.1,0.8,1.6h0c0.3-0.6,0.6-1.2,0.9-1.8l1.1-2.3c0.5-1.1,0.9-1.8,0.9-2.3
		c0.4,0,0.7,0,0.9,0c0.3,0,0.7,0,1.1,0c0.1,0,0.1,0.3,0,0.3l-0.3,0c-0.8,0.1-0.9,0.3-0.8,1.1c0,1.3,0,3.5,0.1,5.2c0,0.6,0,0.9,0.6,1
		l0.4,0c0.1,0.1,0.1,0.3,0,0.3c-0.5,0-1,0-1.4,0c-0.4,0-1,0-1.5,0c-0.1-0.1-0.1-0.2,0-0.3l0.3,0c0.6-0.1,0.6-0.3,0.6-1l0-5h0
		c-0.1,0.1-0.5,1.1-0.8,1.6l-1.1,2.1c-0.5,1.1-1.1,2.2-1.3,2.7c0,0-0.1,0-0.1,0c0,0-0.1,0-0.1,0c-0.2-0.6-0.8-1.8-1.1-2.4l-1.1-2.3
		c-0.3-0.6-0.5-1.2-0.8-1.7h0c0,0.7-0.1,1.4-0.1,2.1c0,0.7-0.1,1.8-0.1,2.8c0,0.9,0.1,1.1,0.5,1.1l0.5,0c0.1,0.1,0.1,0.3,0,0.3
		c-0.4,0-0.9,0-1.3,0c-0.4,0-0.8,0-1.2,0c-0.1-0.1-0.1-0.2,0-0.3l0.3,0c0.5-0.1,0.7-0.1,0.7-1c0.1-0.8,0.1-1.5,0.2-2.6
		c0.1-1,0.1-2,0.1-2.7c0-0.8-0.1-0.9-0.8-1l-0.2,0c-0.1-0.1,0-0.3,0-0.3c0.4,0,0.6,0,0.9,0c0.3,0,0.6,0,1,0c0,0.5,0.3,1.2,0.6,2
		L286.2,172.7z"/>
</g>
<g>
	<path fill="#A8C060" d="M121.5,121.7c-2.4-1.8-9.1-7.3-12.5-9.9c-2-1.5-6.5-5.1-9.4-7.5c-2.9-2.4-6.5-4.9-8.6-6.8
		c-3.3-2.9-5.7-6.7-5.7-6.7s1.8,9.5,1,10.4c-0.8,0.9-2.5,0.4-2.5,1.8c0,1.4,2.9,5.1,2.9,6.3s-2.9,2.2-2.5,2.8
		c0.4,0.6,6.9,8.6,6.9,9.1s-1.7,1.8-2.5,2.6c-0.8,0.8,1.8,2.7,3.5,3.7c1.1,0.7,4.3,3.2,6.3,4.7H1.7v1.1h98.2
		c6-2.5,17.2-4.7,28.9-5.8C126.6,125.8,123.5,123.2,121.5,121.7z"/>
	<path fill="#A8C060" d="M292.7,132.3H201c0.5-0.8,0.6-1.7,0.5-2.1c-0.2-0.8-0.5-0.9,0.1-1.5c0.7-0.7,4-3.5,5.8-5.6
		c1.8-2.1,1.4-2.8,0.7-3.6c-0.7-0.8-2-1.6-1.1-2.5c0.9-0.9,5-5.4,6-7.6c1-2.1,0.7-3.2,0-3.6s-1.7-0.7-1.3-1.4c0.4-0.7,2.3-4,2.3-5.4
		c0-1.4-0.9-1.7-1.4-1.9c-0.5-0.2-1.5,0.2-0.9-0.8c0.7-1.1,1.8-2,1.7-3.7c-0.1-1.6-1.8-1-1.7-1.3c0.1-0.3,0.5-1,0.9-3.2
		c0.4-2.2,0.4-4.6,0.4-4.6s-1.7,3.4-3,4.9c-1.3,1.5-2.9,3.2-4.7,4.8c-1.8,1.6-3.7,3.7-5.2,5s-4.6,3.4-5.3,3.7
		c-0.7,0.3-3.3,3.1-4.5,4.4c-1.2,1.3-3.7,3.1-5.7,4.8c-1.8,1.5-9.3,8-10.7,9.2c-1.6,1.4-6,4.9-8,6.7c14.4,1,26.8,3.2,33.8,6.2h92.8
		V132.3z"/>
	<g>
		<path fill="#A8C060" d="M142.3,36.7c0.9,1.4,4.3,7.3,5.7,8.6c1.4,1.3,3.7,4,3.7,4s0.4-15.7,0.7-19.5c0.3-3.8,0-5.3,0-5.3
			s-5-3.7-5.8-5.7c-0.8-2-2.8-6.7-2.8-6.7s-1.1,2-1.9,3.3s-0.9,2.6-1.9,2.4s-3.3-1.5-3.3-1.5s-0.4,4.6,0.5,8.4
			S141.4,35.3,142.3,36.7z"/>
		<path fill="#A8C060" d="M152.1,22.8c0.4,0.3,0.9,0.7,0.9,0.7s0.3-14.6,0.4-15.9s0-5.3,0-5.3s-0.4,2.4-1.7,3.9
			c-1.3,1.5-0.6,1.3-1.9,1.2c-1.3-0.1-1,0.1-1.5,1.8c-0.5,1.7-0.6,2.8-1.2,2.8c-0.7,0.1-2.5-0.5-2.5-0.5s1.9,5,3,6.7
			C148.8,20,151.7,22.5,152.1,22.8z"/>
		<path fill="#A8C060" d="M153.4,34.5c0,0,5.2-4.2,7.3-8c2.1-3.8,3.2-5.8,3.3-8c0.2-2.3,0.2-2.3,0.2-2.3s-1.3,0.3-2.2,0.1
			c-0.9-0.2-1.6-2.8-2-4.1s-0.9-1.4-1.9-1.6c-1-0.2-0.7-1.3-1.1-2.6c-0.4-1.3-2-3.2-2.5-5.5c0,0-0.7,14.6-0.7,16.7
			c0,2.1-0.3,12.3-0.5,13.3C153.3,33.4,153.4,34.5,153.4,34.5z"/>
	</g>
	<path fill="#A8C060" d="M142.7,72.7c0.1,0.1,0.1,0.2,0.2,0.3l0.1-0.1C142.9,72.8,142.8,72.7,142.7,72.7z"/>
	<path fill="#A8C060" d="M158.2,61.6c0-0.1,0-0.1,0-0.1c-0.1,0.1-0.1,0.2-0.2,0.3C158,61.8,158.1,61.7,158.2,61.6z"/>
	<path fill="#A8C060" d="M156.8,63.4c-0.5,0.7-1,1.3-1.4,1.9c0.1,0,0.2,0.1,0.3,0.1c0.3,0.1,0.6,0.2,0.8,0.1c0.4-0.5,0.8-1,1.1-1.5
		C157.3,63.9,157,63.6,156.8,63.4z"/>
	<path fill="#A8C060" d="M153,60.1L153,60.1C153,60.1,153,60.1,153,60.1L153,60.1z"/>
	<path fill="#A8C060" d="M151.8,60.5c0,0.1,0,0.2,0,0.3C151.9,60.7,151.9,60.6,151.8,60.5z"/>
	<path fill="#A8C060" d="M153.1,61.5c-0.2,0.1-0.1,1,0.2,1.7C153.2,62.7,153.2,62.1,153.1,61.5C153.1,61.5,153.1,61.5,153.1,61.5z"
		/>
	<path fill="#A8C060" d="M151.7,53.7c0,0.3,0,0.7,0,1c0-0.1,0-0.3,0.1-0.6C151.8,54,151.7,53.8,151.7,53.7z"/>
	<path fill="#A8C060" d="M150,55.4c-0.1,0.1,0.4,0.9,0.6,0.9c0.1,0,0.4,0.2,0.6,0.4c0.4,0.6,0.6,0.4,0.3-0.3c-0.1-0.4-1-1.1-1.4-1.1
		C150.1,55.3,150,55.3,150,55.4z"/>
	<path fill="#A8C060" d="M151.3,51.2c0.1,0,0.2,0.1,0.2,0.3c0,0.2,0.1,0.4,0.2,0.4c-0.1-0.8-0.2-1.4-0.5-1.8c0,0-0.1-0.1-0.1-0.1
		c0,0.1,0,0.2,0,0.4C151.1,50.9,151.2,51.2,151.3,51.2z"/>
	<path fill="#A8C060" d="M153.1,59.1c0.1,0,0.2-0.1,0.2-0.2c0-0.1,0.2-0.2,0.4-0.2c0.2,0,0.8-0.4,1.3-0.8c0.8-0.6,0.8-0.7,0.5-0.8
		c-0.1,0-0.1,0-0.2,0c-0.1,0-0.2,0.1-0.2,0.2c0,0.2-0.1,0.3-0.3,0.3c-0.2,0-0.3,0.1-0.3,0.3c0,0.3-0.2,0.3-0.7,0.3
		c-0.6-0.1-0.7,0-0.8,0.4C152.9,58.8,153,59.1,153.1,59.1z"/>
	<path fill="#A8C060" d="M143.3,70.1c0.1-0.4,0-0.6-0.2-0.8c-0.5-0.3-0.4-0.6,0-0.5c0.2,0.1,0.3,0,0.3-0.1s0.2-0.2,0.6-0.2
		c0.4,0,0.7,0.2,0.8,0.3c0.1,0.2,0.1,0.2,0.4,0c0.4-0.4-0.2-1.3-0.6-1c-0.5,0.3-0.6,0.2-0.5-0.2c0.1-0.3,0-0.4-0.4-0.3
		c-0.4,0.1-0.5,0-0.4-0.3c0.1-0.3,0-0.4-0.3-0.3c-0.7,0.1-0.8,0-0.4-0.4c0.3-0.4,0.3-0.4-0.1-0.3c-0.3,0.1-0.4,0-0.4-0.3
		c0-0.4,0.7-0.8,0.9-0.5c0.1,0.1,0.4,0.1,0.7,0.1c0.5,0,0.6-0.1,0.5-0.3c-0.1-0.5,0.1-0.5,0.8-0.1c0.3,0.2,0.6,0.3,0.7,0.2
		c0.1-0.1,0.3,0,0.5,0.2c0.3,0.3,0.3,0.2,0-0.2c-0.4-0.5-0.4-0.9-0.1-0.8c0.1,0,0.7,0.3,1.2,0.6l0.9,0.5l1.2-0.7
		c0.7-0.4,1.5-1,1.9-1.4c0.6-0.6,0.7-0.8,0.6-1.2c-0.1-0.5-0.1-0.5-0.2-0.1c-0.1,0.7-1.1,1.5-1.9,1.4c-0.2,0-0.4,0.1-0.5,0.2
		c-0.1,0.2-0.2,0.2-0.3,0c-0.1-0.2-0.2-0.1-0.5,0.3c-0.4,0.7-0.8,0.7-0.6,0.1c0.1-0.4,0.1-0.4-0.3-0.1c-0.4,0.4-1,0.3-1-0.1
		c0-0.1,0.2-0.3,0.4-0.5c0.5-0.3,1-0.7,1-0.9c0-0.1-0.2,0-0.4,0.2c-0.2,0.2-0.5,0.4-0.6,0.4c-0.5,0.1-1.1,0.3-1.1,0.5
		c0,0.1-0.1,0.1-0.3,0.1c-0.2-0.1-0.2-0.2-0.2-0.4c0.1-0.1,0-0.3-0.2-0.4c-0.4-0.2-0.2-0.5,0.5-0.8c0.4-0.2,0.5-0.3,0.2-0.3
		c-0.2,0-0.5,0.1-0.8,0.4c-0.6,0.6-1.4,0.8-1.5,0.3c0-0.2,0.2-0.5,0.5-0.7l0.6-0.3l-0.8,0.1c-1.1,0.2-2.7-0.6-2-1
		c0.1-0.1,0.6-0.1,1.2-0.2c0.6,0,0.9-0.1,0.8-0.3c-0.3-0.3-0.2-0.7,0.2-0.7c0.2,0,0.5,0.1,0.6,0.3c0.5,0.5,1.6,1.2,2.2,1.3l0.7,0.1
		l-0.5-0.3c-0.3-0.2-0.5-0.4-0.5-0.5c0-0.5,0.6-0.4,1.5,0.2c0.8,0.6,1,0.6,2.3,0.6c0.8,0,1.5-0.1,1.5-0.2c0,0,0-0.1,0-0.1
		c0-0.1,0-0.2,0-0.3c0-0.1,0-0.2-0.1-0.3l-0.2-0.6l-0.3,0.5c-0.2,0.4-0.3,0.4-0.4,0.2c-0.1-0.2-0.1-0.2-0.1,0c0,0.1-0.2,0.3-0.4,0.3
		c-0.3,0-0.4-0.1-0.3-0.6c0.1-0.3,0.1-0.5,0-0.4c-0.3,0.3-0.8,0.5-1.1,0.3c-0.2-0.1-0.1-0.3,0.2-0.6l0.5-0.4l-0.4,0
		c-0.2,0-0.4,0.1-0.4,0.2c0,0.1-0.2,0.2-0.4,0.2s-0.4-0.1-0.4-0.2c0-0.3-0.7-0.4-1-0.2c-0.2,0.1-0.4,0.1-0.6-0.1
		c-0.5-0.5-0.3-0.8,0.6-0.9l0.8-0.2l-0.4-0.4c-0.3-0.3-0.4-0.4-0.2-0.5c0.2-0.1,0.2-0.1-0.1-0.1c-0.2,0-0.3-0.1-0.3-0.2
		s-0.1-0.2-0.2-0.1c-0.3,0.2-0.8-0.1-0.6-0.4c0.1-0.2,0.3-0.3,0.6-0.4l0.5-0.1l-0.6-0.3c-0.6-0.3-0.8-1.1-0.4-1.3
		c0.1,0,0.7,0.3,1.3,0.7c1.3,0.9,1.4,1,1.6,0.5c0.1-0.2,0.3-0.3,0.5-0.2c0.3,0.1,0.3,0-0.2-0.4c-0.3-0.3-0.6-0.7-0.6-0.9
		c0-0.5,0.1-0.5,0.8-0.1c0.6,0.4,0.7,0.4,0.7-0.3c0-0.8,0-0.8-0.3-0.5c-0.4,0.4-0.9,0.3-1-0.2c-0.1-0.3,0-0.4,0.3-0.5
		c0.5-0.1,0.5-0.3-0.2-1.3c-0.6-0.8-0.7-1.4-0.1-1.4c0.1,0,0.4,0.1,0.5,0.3c0.4,0.4,0.9,0.6,0.8,0.3c0-0.1,0-0.4,0.1-0.6
		c0,0,0-0.1,0.1-0.1c-1.7-2-5.7-6-7.9-10.1c-2.6-4.9-2.4-4.6-3.3-6.5c-0.8-2-3.3-7.2-3.6-10c-0.2-2.8-0.2-6.5-0.2-6.5s-1.6,2-2.1,3
		c-0.5,1.1-0.9,2.7-1.5,2.8s-2.1-0.3-2.4,0c-0.2,0.3-1.4,3-1.5,4c-0.1,1-0.3,2.4-0.3,2.4s-0.4-0.7-1.7-0.7c-1.3-0.1-2,0.2-2.5-0.3
		c-0.6-0.5-1.5-1-1.5-1s1,9.8,3.6,16.6c2.6,6.8,11.9,20.8,13.3,22.8c0.5,0.7,1.6,2.1,2.8,3.8c0.2,0.1,0.4,0.3,0.7,0.5
		C143.1,70.8,143.2,70.8,143.3,70.1z"/>
	<path fill="#A8C060" d="M138.9,103.6c1.8-0.6,2-0.7,2.3-1.4c0.2-0.5,0.2-0.5-0.2-0.2c-0.5,0.4-1.4,0.7-1.4,0.4
		c0-0.1,0.2-0.5,0.3-0.8l0.3-0.6l-0.4,0.5c-0.5,0.6-0.6,0.6-0.6,0.1c0-0.2-0.1-0.3-0.3-0.3c-0.6,0.1-0.7,0-0.3-0.3
		c0.4-0.3,0.4-0.3,0-0.2c-0.2,0.1-0.7,0.2-1,0.2c-0.5,0.1-0.6,0-0.6-0.3c0-0.3-0.1-0.3-0.4-0.1c-0.5,0.3-0.8,0-0.3-0.3
		c0.3-0.2,0.3-0.3,0.1-0.3c-0.2,0-0.4,0-0.5-0.1c-0.1,0-0.3-0.1-0.5-0.1c-0.2,0-0.3-0.2-0.3-0.4c0-0.2,0.2-0.3,0.7-0.3l0.7,0
		l-0.8-0.1c-0.7-0.1-1.9-1-1.7-1.2c0,0,0.5,0.1,1,0.2c0.5,0.2,1.2,0.3,1.4,0.3c0.3,0,0.9,0,1.3,0.1c0.6,0.1,0.8,0.1,0.4-0.1
		c-0.5-0.2-0.6-0.6-0.2-0.6c0.1,0,0.5,0.2,0.8,0.4c0.5,0.4,0.6,0.4,2.2,0.1c2.4-0.4,5-1.7,3-1.4c-0.4,0-0.5,0-0.5-0.2
		c0-0.2-0.1-0.3-0.3-0.3c-0.2,0-0.3,0.1-0.3,0.2c0,0.2-0.1,0.2-0.3,0c-0.2-0.1-0.4-0.2-0.6-0.1c-0.4,0.2-0.5-0.1-0.3-0.6
		c0.2-0.4,0.2-0.4-0.3,0c-0.8,0.7-1.2,0.6-1-0.2l0.1-0.6l-0.6,0.4c-0.7,0.5-0.9,0.5-1.1,0c-0.1-0.5-0.4-0.6-0.6-0.2
		c-0.1,0.2-0.9,0.3-0.9,0.1c0-0.1,0.2-0.3,0.3-0.5c0.2-0.2,0.2-0.4,0.1-0.4c-0.1,0-0.3,0.1-0.4,0.3c-0.3,0.4-0.8,0.4-0.8,0.1
		c0-0.1-0.2-0.2-0.4-0.1c-0.2,0.1-0.4,0-0.4-0.2c0-0.2-0.2-0.2-0.6-0.2l-0.6,0.1l0.4-0.4c0.2-0.2,0.5-0.4,0.6-0.4
		c0.1,0,0.2-0.1,0.2-0.2c0-0.1-0.2-0.2-0.4-0.2c-0.5,0-1.1-0.4-1.1-0.7c0-0.1,0.2-0.2,0.5-0.1c0.3,0.1,0.5,0,0.5-0.1
		c0-0.2,1.3-0.4,4.4-0.5c2.8-0.1,3.9-0.3,3.9-0.7c0-0.1-0.3-0.2-0.6-0.1c-0.5,0.1-1.2-0.4-1.2-0.8c0-0.1,0.4-0.2,0.9-0.1
		c0.5,0,0.9-0.1,1-0.2c0.1-0.1,0.3-0.3,0.6-0.3c0.6,0,1.8-0.7,2-1c0.1-0.2-0.1-0.2-0.5-0.1c-0.4,0.1-0.6,0.1-0.5-0.1
		c0.1-0.1,0.1-0.2,0-0.2c-0.1,0-0.3,0.2-0.3,0.5c-0.2,0.7-0.5,0.7-0.5,0.1c0-0.5,0-0.5-0.4,0.1l-0.4,0.5l-0.2-0.5l-0.2-0.5l-0.3,0.6
		c-0.3,0.6-0.5,0.7-1.6,0.5c-0.1,0-0.1-0.2-0.1-0.5c0-0.4,0-0.4-0.3,0.1c-0.3,0.6-0.8,0.6-0.6,0c0.1-0.3,0-0.3-0.6-0.3
		c-0.1,0-0.3,0.1-0.7,0.1c-0.5,0.1-0.5,0.1-0.4-0.2c0.1-0.2,0-0.3-0.4-0.3c-0.5,0-0.5,0-0.1-0.4c0.4-0.4,0.3-0.4-0.1-0.4
		c-0.5,0-1.5-0.6-1.5-0.9c0-0.1,0.2-0.2,0.3-0.1c0.2,0,0.4,0,0.5,0s0.4-0.1,0.7-0.1c0.3,0,0.5-0.2,0.6-0.5c0.1-0.4,0.2-0.5,0.7-0.4
		c0.3,0,0.7,0,0.9-0.1c0.1-0.1,0.6-0.2,1-0.2s0.8-0.1,0.9-0.2s0.3-0.2,0.4-0.2s0.4-0.1,0.6-0.3c0.2-0.2,0.5-0.3,0.7-0.3
		c0.4,0,0.4,0,0.1-0.5c-0.5-0.8-0.3-1.1,0.3-1c0.6,0.1,0.8-0.1,0.3-0.4c-0.4-0.3-0.8-0.1-1.5,0.6c-0.5,0.6-1,0.8-0.9,0.4
		c0-0.1-0.2-0.1-0.4-0.1c-0.3,0.1-0.4,0-0.3-0.3c0.1-0.3,0.1-0.3-0.3-0.3c-0.3,0.1-0.4,0-0.4-0.4c0-0.4,0-0.5-0.3-0.3
		c-0.5,0.3-1.1,0-1-0.4c0.1-0.3-0.1-0.4-0.5-0.6c-0.9-0.4-0.8-0.7,0.2-0.6c0.7,0.1,0.8,0.1,0.8-0.2c-0.1-0.4,0.5-0.4,0.8,0
		c0.3,0.4,1.3,0.4,2.2,0c0.7-0.3,0.5-0.7-0.2-0.4c-0.5,0.2-0.8-0.3-0.5-0.7c0.2-0.2,0.1-0.2-0.2,0c-0.6,0.4-1.2,0.1-1-0.4
		c0.1-0.3-0.1-0.4-0.7-0.3c-0.2,0-0.2-0.1-0.1-0.3c0.1-0.3,0-0.5-0.5-0.8c-0.6-0.4-0.6-0.4-0.2-0.7c0.3-0.2,0.4-0.2,0.6-0.1
		c0.1,0.1,0.4,0.2,0.7,0.2c0.5,0,0.5-0.1,0.5-0.4c-0.2-0.6,0.2-0.7,0.8-0.2c0.7,0.5,1.1,0.5,2.8,0.1c0.8-0.2,1.5-0.5,1.7-0.8
		l0.4-0.4l-0.5,0.4c-0.4,0.4-0.5,0.4-0.7,0.1c-0.1-0.2-0.4-0.4-0.5-0.4c-0.2,0-0.3-0.1-0.3-0.3c0-0.2-0.1-0.3-0.3-0.4
		c-0.2-0.1-0.4-0.4-0.5-0.7s-0.3-0.5-0.4-0.4c-0.1,0.1-0.2,0-0.2-0.2c0-0.3-0.1-0.3-0.4,0.1c-0.4,0.5-0.4,0.5-0.4,0.1
		c0-0.1,0-0.2,0-0.2l-0.1,0.1c-0.1-0.1-0.1-0.2-0.2-0.3c-0.1,0-0.1,0-0.2,0c-0.3,0-0.5-0.1-0.5-0.3c0.1-0.2-0.2-0.4-0.6-0.3
		c-0.1,0-0.3,0-0.5-0.1c-0.2-0.1-0.2-0.2,0-0.4c0.2-0.3,0.2-0.3-0.1-0.3c-0.5,0-1.4-0.6-1.4-0.9c0-0.2,0.3-0.2,0.7-0.1
		c0.4,0.1,0.7,0.1,0.9,0.2c-1.3-1.7-2.6-3.4-3.3-4.2c-1.7-2.2-10-15.8-10.9-17.8c-0.9-2-3.7-9.3-4.6-12.7c-0.9-3.4-1.2-9.3-1.2-9.3
		s-1.7,3.7-2.5,4.9c-0.7,1.1-1,1.6-2.3,1.3c-1.3-0.3-1.9,0.3-2.4,2c-0.6,1.7-0.2,4-0.7,4.5c-0.6,0.5-3.8,0.7-4,1.2
		c-0.3,0.5,0.1,6.7,0,7.8c-0.1,1.1-0.3,2.2-1,2.2s-5-1.5-5-1.5s0.9,4.8,1.8,7s4.1,8.1,5.1,10.1c1,2,2.1,4.7,4.3,7.9
		c2.2,3.2,5.1,7.5,5.9,8.9c0.8,1.4,6.2,8,7.5,9.4c1.3,1.5,7.2,9.3,8.5,11c0.1,0.2,0.3,0.4,0.5,0.8
		C137.4,104.1,137.5,104.1,138.9,103.6z"/>
	<path fill="#A8C060" d="M149.6,123.3c0.2-1.6,0.2-1.6-0.2-1.6c-0.2,0-0.5-0.2-0.6-0.4c-0.1-0.3-0.2-0.2-0.2,0.4
		c0,0.8-0.4,1.3-0.5,0.6c-0.1-0.3-0.1-0.3-0.1,0.1c0,0.2-0.3,0.6-0.5,0.8c-0.6,0.4-0.8,0.4-0.6-0.1c0.3-0.8-0.2-0.4-0.7,0.5
		c-0.4,0.7-0.5,0.9-0.9,0.9c-0.2,0-0.5-0.2-0.5-0.3c-0.1-0.2-0.2-0.1-0.3,0.3c-0.1,0.4-0.2,0.5-0.4,0.5c-0.2-0.1-0.3,0.1-0.4,0.3
		c-0.1,0.4-0.2,0.4-0.4,0.1c-0.2-0.3-0.3-0.3-0.6,0.1c-0.4,0.5-0.7,0.3-0.7-0.5c0-0.3,0-0.5-0.1-0.5c0,0-0.3,0.3-0.6,0.6
		c-0.8,0.9-1.3,0.9-1.1-0.1l0.2-0.7l-0.5,0.6c-0.6,0.7-1.7,0.9-1.6,0.3c0.1-0.4,0.1-0.4-0.3-0.1c-0.5,0.4-0.6,0.5-0.6,0.1
		c0-0.2-0.1-0.3-0.4-0.2c-0.5,0.1-0.5-0.1-0.1-0.7c0.5-0.6,0.4-0.8-0.3-0.4c-0.6,0.4-1.7,0.6-1.7,0.4c0-0.1,0.3-0.4,0.7-0.8
		c0.5-0.5,0.6-0.6,0.3-0.6c-1.2,0.3-1.4,0.4-1.6,0.1c-0.2-0.3,0.2-0.6,1.5-0.9c0.6-0.1,1.2-0.3,1.4-0.4c0.2-0.1,0.1-0.1-0.2-0.1
		c-0.3,0.1-0.5,0-0.5-0.1c0-0.1-0.3,0-0.6,0.2c-0.8,0.5-1.2,0.5-1.1,0.1c0.2-0.5-0.1-0.6-0.6-0.1c-0.4,0.4-0.5,0.4-0.4,0.1
		c0.1-0.4,0.1-0.4-0.2-0.1c-0.3,0.3-0.3,0.2-0.2-0.2c0.1-0.5,0.1-0.5-0.3-0.2c-0.9,0.7-1.4,0.7-0.9,0c0.2-0.3,0.2-0.3-0.3-0.2
		c-0.4,0.1-0.5,0.1-0.5-0.2c0-0.2,0.2-0.4,0.4-0.6c0.7-0.4,0.3-0.4-0.6-0.1c-1.8,0.7-2.1,0.1-0.4-0.6c1-0.4,1.1-0.7,0.3-0.7
		c-0.2,0-0.5-0.1-0.5-0.2c-0.1-0.3,0.7-0.5,1.4-0.4c0.5,0.1,0.6,0,0.3-0.4c-0.2-0.2,0-0.2,0.7-0.2c0.5,0.1,0.8,0.1,0.6,0
		c-0.2-0.1-0.3-0.2-0.3-0.3c0-0.2,1.1,0,1.5,0.3c0.2,0.1,0.8,0.1,1.8-0.1c1.4-0.3,1.6-0.3,1.6-0.8l0.1-0.5l-0.5,0.5
		c-0.5,0.4-0.5,0.5-0.6,0.2c-0.1-0.2,0-0.5,0.2-0.7c0.7-0.8,0.6-0.9-0.1-0.2c-1,1-1.9,1.7-1.9,1.4c0-0.1,0.1-0.5,0.2-0.7
		c0.1-0.3,0.1-0.6,0-0.7c-0.1-0.1-0.2,0-0.2,0.1c0,0.3-1.2,1-1.3,0.8c-0.1-0.1-0.1-0.3-0.1-0.4c0-0.1,0-0.4,0-0.6
		c0-0.2-0.1-0.3-0.2-0.3c-0.1,0.1-0.5,0.2-0.8,0.3c-0.7,0.2-0.8-0.2-0.1-1c0.6-0.6,0.5-0.6-0.6-0.2c-0.8,0.3-1.8,0.2-2-0.1
		c-0.2-0.3,0.3-0.6,1-0.6c0.3,0,0.7-0.1,0.9-0.1c0.3-0.1,0.3-0.2,0-0.4c-0.1-0.2-0.4-0.3-0.6-0.3c-0.2,0-0.3-0.1-0.3-0.2
		c0-0.1,1.1-0.2,2.8-0.2c2.2,0,2.8,0,3.1-0.2c0.2-0.2,0.2-0.3-0.1-0.2c-0.3,0.1-0.3,0.1-0.2-0.2c0.1-0.2,0-0.3-0.5-0.1
		c-0.3,0.1-0.6,0.1-0.7,0.1c-0.1-0.1,0-0.2,0.1-0.3c0.1-0.1,0.2-0.2,0.3-0.3c0-0.1-0.3,0-0.6,0.1c-0.6,0.3-1.1,0.2-0.6-0.1
		c0.2-0.1,0.1-0.2-0.2-0.1c-0.5,0.1-0.8-0.2-0.3-0.4c0.1,0,0.1-0.1,0,0s-0.4,0.1-0.6,0.2c-0.2,0.1-0.4,0-0.4-0.2
		c-0.1-0.2,0.1-0.5,0.6-0.7l0.7-0.4l-0.9,0.1c-0.6,0.1-1,0-1.2-0.1c-0.5-0.5-0.3-0.6,0.6-0.6c0.5,0,0.9-0.1,0.9-0.2
		c0-0.1,0.2-0.2,0.6-0.1c0.4,0.1,0.6,0.1,0.5-0.1c-0.1-0.1-0.1-0.2,0-0.2c0.3,0,0.2-0.5-0.2-0.9c-0.2-0.2-0.3-0.3-0.3-0.2
		c0,0.1-0.2,0.3-0.4,0.4c-0.3,0.2-0.5,0.2-0.7-0.1c-0.2-0.2-0.5-0.3-0.7-0.3c-0.3,0-0.4-0.1-0.3-0.5c0-0.4-0.1-0.5-0.3-0.4
		c-0.6,0.2-0.6-0.4,0-0.9l0.6-0.5l-0.6,0c-0.8,0-2-0.6-1.9-0.9c0.2-0.3,1.2-0.3,2,0l0.6,0.2l-0.4-0.5c-0.4-0.4-0.4-0.5-0.1-0.6
		c0.2-0.1,0.8,0,1.3,0.2c0.7,0.2,0.9,0.3,0.8,0.1c-0.1-0.1-0.2-0.3-0.2-0.4c0-0.1,0.2-0.2,0.5-0.2c-0.5-0.7-0.9-1.3-1.3-1.8
		c-4.3-5.4-7-8.6-9.3-11.5c-2.3-2.9-5-6.3-6.5-8.7c-1.5-2.4-2.9-4.7-4.3-6.3c-1.4-1.5-4.5-9.3-6.3-12.4c-1.8-3.1-3.7-6-4.1-8
		c-0.5-2-1.2-5.4-1.2-5.4s-1,3.3-1.1,4.6c-0.1,1.4-0.2,2.8-1,3.2c-0.8,0.3-2.8,0.7-3,1.3c-0.2,0.7,0.3,3.8-0.6,4.4s-3,0.3-3.3,0.6
		s0,5.9-0.1,7.2c-0.1,1.3,1,3.8,0.5,3.9c-0.5,0.1-3.8,0.5-4.1,1c-0.2,0.5,0,5.9-0.2,7s-0.6,2.4-0.5,3.3c0.1,0.8,2,2.4,1.5,2.8
		c-0.5,0.4-4,1.9-4,1.9s2.7,4,6.5,7.2c1.6,1.3,6,4.6,8.3,6.5c2.4,1.9,10.9,8.8,12.6,10c1.7,1.2,9.1,7.2,10.9,8.6
		c0.9,0.7,4.3,3.6,6.1,5c5.6-0.5,12-0.8,18-0.9c0.1-0.2,0.2-0.5,0.4-0.8C149.2,125.3,149.4,124.4,149.6,123.3z"/>
	<path fill="#A8C060" d="M155.6,60.8c0,0.2-0.1,0.2-0.3,0c-0.1-0.1-0.2-0.1-0.2-0.1c-0.1,0-0.1,0.1-0.1,0.3c0,0.5,0.1,0.6,0.7,0.2
		c0.3-0.2,0.3-0.3,0.1-0.4C155.7,60.6,155.6,60.6,155.6,60.8z"/>
	<path fill="#A8C060" d="M158,61.4c-0.2,0-0.3,0.1-0.3,0.2c0,0.2,0.1,0.2,0.3,0.2c0.1-0.1,0.1-0.2,0.2-0.3
		C158.1,61.4,158.1,61.4,158,61.4z"/>
	<path fill="#A8C060" d="M156.7,63c0-0.2-0.1-0.3-0.2-0.3s-0.2,0.1-0.2,0.2s-0.1,0.2-0.2,0.1c-0.2-0.2-0.2,0,0,0.5
		c0.2,0.4,0.1,0.4-0.3,0.4c-0.5,0-1-0.5-1.1-1.2c-0.1-0.3-0.1-0.3-0.1,0.1c0,0.3-0.2,0.7-0.3,0.8c-0.2,0.2-0.4,0.1-0.7-0.4
		c-0.2-0.4-0.4-0.8-0.3-0.9c0.1-0.5,0-0.9-0.1-0.9c0,0.6,0.1,1.2,0.1,1.7c0.1,0.3,0.2,0.5,0.3,0.6c0.3,0.3,0.6,0.4,1.2,0.4
		c0.7,0,0.9,0,0.9,0.3c0,0.2-0.2,0.4-0.4,0.5c-0.2,0.1-0.2,0.2,0.1,0.3c0.4-0.6,0.9-1.2,1.4-1.9C156.7,63.2,156.7,63.1,156.7,63z"/>
	<path fill="#A8C060" d="M154.2,60.9c0.2-0.1,0.4-0.1,0.5-0.1c0.1,0,0.2-0.1,0.2-0.2c0-0.1-0.2-0.2-0.5-0.1c-0.3,0.1-0.7,0-0.9-0.1
		l-0.4-0.2c0,0,0,0,0,0l0.4,0.4C153.7,60.8,154,60.9,154.2,60.9z"/>
	<path fill="#A8C060" d="M153,46.8c-0.1,1.1,0.2,1.5,0.6,0.5c0.2-0.6,1.2-0.9,1.2-0.4c0,0.2-0.4,0.8-0.9,1.4c-0.7,0.9-0.9,1.3-1,2.1
		c-0.1,0.9-0.1,1,0.1,0.7c0.2-0.2,0.3-0.3,0.4-0.2c0.1,0.1,0.1,0,0.1-0.2c0-0.5,0.8-1.9,1.1-1.7c0.1,0.1,0.1,0.3,0,0.6
		c-0.1,0.3-0.1,0.4,0,0.2c0.2-0.3,1.5-0.9,1.8-0.9c0.4,0,0.2,0.3-0.4,0.7c-0.3,0.2-0.6,0.5-0.6,0.6c0,0.1,0.1,0.1,0.2,0.1
		s0.3,0,0.4,0.2c0.1,0.2,0.4,0.3,0.5,0.3s0.2,0.1,0.2,0.3c-0.1,0.3-1,0.3-1.9,0.1c-0.6-0.1-0.9,0.2-0.4,0.3c0.2,0.1,0.4,0.1,0.5,0.1
		c0.2,0,1.1,1,1.1,1.2c0,0.3-0.8,0.4-0.9,0.1c-0.1-0.1-0.3,0-0.5,0.3c-0.4,0.5-0.9,0.4-0.7-0.2c0.1-0.3,0.1-0.4-0.4-0.2
		c-0.5,0.1-0.6,0.3-0.6,0.9c0,0.4,0,0.8,0.1,0.8c0.1,0,0.1,0.5,0.1,1.2s0,1.2,0,1.3c0.3,0.2,2.1-1.5,2.2-2c0.2-0.7,0.8-1.9,1-1.9
		c0.1,0,0.3,0.2,0.4,0.4c0.2,0.4,0.3,0.3,0.9-0.4c0.5-0.6,0.7-0.7,0.9-0.5c0.2,0.2,0.1,0.4-0.3,1l-0.5,0.7l0.7,0
		c0.8,0,1,0.4,0.3,0.7c-0.3,0.2-0.5,0.3-0.4,0.4c0,0.1,0,0.2-0.2,0.3c-0.4,0.2-0.4,0.6,0.1,0.6c0.6,0,1,0.2,1,0.6
		c0,0.2-0.2,0.3-0.4,0.3s-0.4,0.1-0.4,0.2c0,0.1-0.1,0.2-0.2,0.1c-0.1-0.1-0.2,0.1-0.3,0.3c-0.1,0.4-0.2,0.4-0.6,0.1
		c-0.4-0.3-0.5-0.3-0.7,0.1c-0.3,0.6-0.3,0.6,0.7,0.7c0.5,0.1,0.9,0.2,1,0.2c0.2,0.2-0.6,0.8-1,0.8c-0.3,0-0.3,0.1-0.1,0.3
		c0.2,0.3,0.1,0.3-0.3,0.4c-0.3,0.1-0.5,0.2-0.5,0.3c0,0.2,0.8,0,1.1-0.3c0.3-0.3,1.3-0.2,1.3,0.1c0,0.2-0.1,0.3-0.3,0.4
		c-0.2,0.1-0.1,0.2,0.1,0.3c0.8-1.1,1.4-2.2,1.8-3.1c1.5-3.3,5.3-9.3,6.4-11.2c1.1-2,2.7-5.4,3.8-7.8c1.1-2.4,2.2-3.8,3-6.3
		c0.8-2.5,1.1-6.3,1.1-7.1s-1.7,0.6-2.8,0.8c-1.1,0.2-1.5-0.2-1.6-1.4c-0.2-1.1,0-2.4-1-3.3c-1-0.9-2.4-0.7-4.1-4.7
		c0,0,0.1,4.8-1.9,7.7c-2,2.9-4,6.5-5.9,8c-1.9,1.5-4,2.8-4,2.8s-0.5,4.9-0.7,9.7l0,0C153,45.7,153,46,153,46.8z"/>
	<path fill="#A8C060" d="M160.1,61.8c0,0.1,0.2,0.4,0.5,0.5s0.6,0.3,0.6,0.4c0,0.2-0.8,0.6-1.3,0.7c-0.2,0-0.5,0.1-0.6,0.2
		c-0.1,0.1-0.3-0.1-0.5-0.3c-0.2-0.3-0.3-0.4-0.2-0.2c0.1,0.1,0,0.3-0.1,0.3c-0.1,0-0.2,0.2-0.2,0.4c0,0.2-0.1,0.5-0.2,0.5
		c-0.1,0-0.2,0-0.4-0.2c-0.3,0.4-0.7,0.9-1.1,1.5c0.2,0,0.4-0.1,0.8-0.3c0.4-0.2,0.9-0.5,0.9-0.7c0.2-0.4,0.5-0.2,0.4,0.2
		c-0.1,0.4-0.1,0.4,0.4,0.2c0.6-0.3,0.7-0.3,0.6,0.1c-0.1,0.2,0,0.3,0.2,0.3c0.2,0,0.3,0.1,0.2,0.3c-0.2,0.4,0,0.4,1-0.1
		c0.8-0.4,1.5-0.4,1.3,0c-0.1,0.1,0.2,0.2,0.7,0.2c1,0,1.2,0.3,0.8,0.7c-0.2,0.2-0.6,0.3-1,0.2c-0.7-0.1-0.7-0.1-0.3,0.2
		c0.3,0.2,0.4,0.3,0.2,0.3c-0.1,0-0.5,0.1-0.8,0.2c-0.5,0.2-0.5,0.2-0.2,0.5c0.3,0.3,0.3,0.3-0.1,0.3c-0.3,0-0.6-0.1-0.6-0.2
		c-0.1-0.1-0.2-0.2-0.3-0.1c-0.1,0.1-0.2,0-0.3-0.2c-0.1-0.2-0.3-0.3-0.4-0.3c-0.3,0-0.2,0.1,0.3,0.6c0.3,0.3,0.6,0.6,0.6,0.7
		c0,0.3-1.1,0-1.4-0.4c-0.4-0.6-0.9-0.4-0.8,0.4c0.1,0.5,0,0.6-0.3,0.6c-0.2,0-0.6-0.3-0.9-0.6c-0.4-0.5-0.4-0.5-0.3-0.1
		c0.1,0.4,0,0.4-0.3,0.4c-0.2,0-0.4-0.2-0.5-0.4s-0.3-0.3-0.6-0.4c-0.4,0-0.5,0-0.3,0.4c0.3,0.6,1.2,1.2,2.6,1.7
		c1.3,0.5,1.5,0.4,2.7-0.7c0.6-0.6,1.2-0.6,0.6-0.1c-0.3,0.4-0.3,0.6,0.1,0.5c0.3-0.1,0.3-0.1,0.1,0.2c-0.4,0.5,0.1,0.4,0.9-0.2
		c0.8-0.6,1.1-0.6,0.6,0c-0.2,0.3-0.2,0.3,0.2,0.3c0.3,0,0.7,0,1.1,0l0.6,0l-0.5,0.4c-0.3,0.2-0.6,0.4-0.8,0.4
		c-0.5,0-0.6,0.2-0.4,0.6c0.1,0.2,0.2,0.3,0.1,0.3c-0.8,0.2-0.9,0.1-1.2-0.2c-0.2-0.2-0.4-0.4-0.5-0.3c-0.1,0.1,0,0.3,0.1,0.5
		c0.3,0.4,0.3,0.4,0,0.4c-0.3,0-0.3,0-0.1,0.3c0.3,0.4,0.1,0.6-0.5,0.3c-0.5-0.2-0.5-0.2-0.4,0.3c0.1,0.3,0,0.5-0.1,0.4
		c-0.1-0.1-0.3,0.1-0.4,0.3c-0.2,0.3-0.4,0.4-0.7,0.2c-0.2-0.1-0.4-0.2-0.5-0.1c-0.1,0-0.1-0.1-0.2-0.4c-0.1-0.5-0.1-0.5-0.1-0.1
		c0,0.3-0.1,0.5-0.2,0.5c-0.3,0-1-0.4-1.2-0.7c-0.1-0.1-0.1,0-0.2,0.4c0,0.6,0,0.6-0.5,0.3c-0.3-0.2-0.6-0.3-0.7-0.2
		c-0.1,0.1-0.3-0.1-0.4-0.3c-0.2-0.4-0.2-0.4-0.2,0c0,0.3-0.1,0.3-0.4,0.2c-0.6-0.3-0.7-0.3-0.2,0.2c1.3,1.1,3.3,2,4.5,2
		c0.4,0,1-0.2,1.3-0.4c0.4-0.2,0.7-0.4,0.7-0.4c0.1,0.8,0.1,1-0.3,1.2c-0.3,0.2-0.2,0.2,0.5,0.2c0.6,0,1.1-0.2,1.4-0.4
		c0.6-0.4,1.1-0.3,0.7,0.2c-0.2,0.3-0.2,0.3,0.3,0.2c0.3-0.1,0.5-0.1,0.5,0.1c0,0.1,0.3,0.3,0.7,0.4l0.7,0.1l-0.6,0.5
		c-0.3,0.3-0.9,0.6-1.2,0.8c-0.4,0.2-0.5,0.3-0.3,0.3c0.5,0,0.4,0.4-0.2,0.6c-0.5,0.1-0.5,0.2-0.2,0.5c0.3,0.3,0.3,0.4-0.2,0.5
		c-0.2,0.1-0.5,0.1-0.6,0.1c-0.8-0.2-1.9-0.2-1.7,0c0.1,0.1,0.2,0.3,0.1,0.4c-0.1,0.2-0.3,0.1-0.8-0.2l-0.6-0.4l0,0.4
		c0,0.4-0.1,0.4-0.4,0.3c-0.2-0.1-0.7-0.1-1.1-0.1c-0.4,0-0.7-0.1-0.7-0.3c-0.1-0.2-0.2-0.3-0.3-0.3c-0.1,0-0.1,0.1,0,0.3
		c0.1,0.1,0.2,0.4,0.2,0.6c0,0.9,3.1,1.8,4.3,1.2c0.3-0.2,0.8-0.5,1-0.7c0.5-0.5,0.6-0.1,0.2,0.4c-0.3,0.3,0.1,0.4,0.6,0
		c0.6-0.3,0.5,0-0.2,0.6L163,83l0.5-0.1c0.3-0.1,0.7-0.2,1-0.2c0.3,0,0.6-0.1,0.8-0.2c0.2-0.1,0.2-0.1,0.1,0.2
		c-0.1,0.3-0.1,0.3,0.3,0.2c0.5-0.1,0.7,0.2,0.2,0.4c-0.1,0.1,0,0.1,0.3,0c0.3-0.1,0.6,0,0.7,0.2c0.2,0.2,0.2,0.3,0,0.3
		c-0.1,0-0.2,0.1-0.2,0.3c0,0.2-0.2,0.2-0.6,0.2c-0.4,0-0.5,0-0.2,0.1c0.6,0.1,0.5,0.5-0.1,0.5c-0.6,0-1.1,0.5-0.9,0.8
		c0.2,0.4-0.2,0.4-1.3,0.2l-1-0.2l0.6,0.6c0.7,0.7,0.7,0.9,0.1,0.9c-0.3,0-0.5,0.1-0.5,0.2c0,0.1-0.2,0.2-0.4,0.1
		c-0.2-0.1-0.4,0-0.4,0.1c0,0.2-0.6,0-1-0.4c-0.3-0.3-0.3-0.3-0.2,0.1c0.1,0.4,0,0.4-0.4,0.5c-0.4,0-0.4,0.1,0.2,0.4
		c0.8,0.4,4.9,0.5,5.6,0.1c0.4-0.2,0.4-0.2,0.3,0.1c-0.1,0.2-0.3,0.4-0.5,0.5c-0.3,0.1-0.3,0.2-0.1,0.2c0.2,0,0.3,0.1,0.3,0.2
		c0,0.2-0.4,0.3-1.1,0.2c-0.3,0-0.3,0,0.2,0.5c0.7,0.6,0.5,1-0.3,0.6c-0.3-0.1-0.7-0.2-0.9-0.1c-0.2,0.1-0.2,0.2,0.1,0.6
		c0.5,0.6,1.3,0.7,3.2,0.1l0,0c2-3,4.4-6.7,5.9-8.2c2.2-2.1,7-8.4,7.8-9.8c0.8-1.4,3.1-3.3,3.5-5c0.4-1.6,1.2-4.8,2.3-6.2
		c1.1-1.4,2.4-3,2.8-4.5c0.4-1.5,0.2-2.8,1.1-3.7c0.8-0.8,1.1-0.7,1.5-4.1c0.4-3.5,0.4-5.2,0.4-5.2s-4.6,0.3-4.8-0.3
		c-0.2-0.7-0.7-5.6-1.1-6.8c-0.3-1.2-1.1-1.6-2-1.5s-2.7,0.4-2.8,0c-0.2-0.4-0.1-2.5-0.9-3.8c-0.8-1.3-1.4-1.5-2-1.5
		c-0.7,0-1,0.1-1.4-0.9c-0.4-1-2.1-3.8-2.1-3.8s-0.1,5.9-1.4,8.5c-1.3,2.7-5.8,11.8-7.2,14.2c-1.5,2.4-3.2,5.3-5.4,9.1
		c-1.1,1.9-1.7,2.9-2.2,3.7c0,0,0.1,0,0.1,0C159.8,61.5,160.1,61.6,160.1,61.8z"/>
	<path fill="#A8C060" d="M153.3,68c0,0-0.1,0.2-0.1,0.4c0,0.3,0,0.5,0.1,0.3C153.4,68.5,153.4,68.2,153.3,68
		C153.3,68.1,153.3,68,153.3,68z"/>
	<path fill="#A8C060" d="M138.7,117C138.7,117.1,138.7,117.1,138.7,117c-0.3,0.2-0.3,0.3-0.1,0.4c0.1,0,0.2-0.1,0.2-0.2
		C138.8,117.1,138.8,117,138.7,117z"/>
	<path fill="#A8C060" d="M133.3,106.3c-0.3,0.1-0.4,0.3-0.1,0.3c0.1,0,0.2-0.1,0.3-0.2c0.1-0.1,0-0.1-0.1-0.1
		C133.4,106.3,133.4,106.3,133.3,106.3z"/>
	<path fill="#A8C060" d="M163.4,80c0-0.1-0.1-0.2-0.2-0.2c-0.1,0-0.2,0.1-0.1,0.2C163.3,80.3,163.4,80.3,163.4,80z"/>
	<path fill="#A8C060" d="M139.3,108.9c0,0.4-0.4,0.2-0.5-0.2c-0.1-0.3-0.2-0.4-0.3-0.2c-0.1,0.2-0.2,0.2-0.3-0.1
		c-0.2-0.3-0.2-0.3-0.5,0.2l-0.4,0.6l-0.4-0.5l-0.4-0.5l-0.4,0.5c-0.4,0.5-0.4,0.5-0.1,0.6c0.2,0.1,0.4,0.1,0.4-0.1
		c0-0.1,0.3-0.1,0.6,0.1c0.6,0.3,0.9,0.4,0.7,0.1c-0.1-0.1,0.3-0.1,0.7-0.1c0.5,0.1,1,0,1.4-0.2l0.6-0.3l-0.5,0
		C139.6,108.7,139.3,108.8,139.3,108.9z"/>
	<path fill="#A8C060" d="M141,108.3c-0.1,0-0.3,0.1-0.3,0.1c-0.1,0.2-0.1,0.2,0.3,0.1c0.3-0.1,0.4-0.2,0.2-0.2
		C141.1,108.3,141,108.3,141,108.3z"/>
	<path fill="#A8C060" d="M151.7,67.6C151.7,67.6,151.7,67.6,151.7,67.6c-0.3,0.2-0.3,0.3-0.1,0.4c0.1,0,0.2-0.1,0.2-0.2
		C151.9,67.6,151.8,67.6,151.7,67.6z"/>
	<path fill="#A8C060" d="M150.9,68.2c-0.1,0-0.2,0.1-0.2,0.2s0.1,0.2,0.2,0.1c0.1-0.1,0.2-0.2,0.2-0.2
		C151.1,68.2,151,68.2,150.9,68.2z"/>
	<path fill="#A8C060" d="M145.3,83c0,0.2,0.4,0.1,1.1-0.3c0.4-0.2,0.6-0.4,0.5-0.4C146.7,82.3,145.3,82.9,145.3,83z"/>
	<path fill="#A8C060" d="M149.9,68.6c-0.1,0-0.2,0.1-0.2,0.2c0,0.1,0.1,0.2,0.2,0.1c0.1-0.1,0.2-0.2,0.2-0.2
		C150.1,68.6,150,68.6,149.9,68.6z"/>
	<path fill="#A8C060" d="M167.5,124c0.1,0.1,0,0.4-0.2,0.6c-0.4,0.4-0.4,0.3-1.6-0.9c-0.5-0.5-0.6-0.6-0.4-0.2
		c0.1,0.3,0.1,0.5,0.1,0.5c-0.1,0,0,0.1,0.1,0.3c0.2,0.2,0.2,0.4-0.1,0.6c-0.4,0.4-0.5,0.4-0.8,0c-0.2-0.3-0.2-0.3-0.4,0.1l-0.2,0.5
		l-0.3-0.5c-0.3-0.4-0.3-0.5-0.6-0.2c-0.3,0.2-0.4,0.2-0.6-0.1c-0.1-0.2-0.2-0.5-0.2-0.6s-0.1-0.1-0.3-0.1c-0.1,0.1-0.4,0-0.5-0.1
		c-0.2-0.2-0.2-0.2,0,0.1c0.4,0.6,0.1,0.6-0.6,0.2c-0.7-0.4-0.9-0.3-0.5,0.2c0.2,0.2,0.2,0.3,0,0.4c-0.1,0.1-0.2,0.2-0.1,0.4
		c0.1,0.3,0,0.3-0.3,0.2c-0.5-0.3-1.6-0.3-1.6-0.1c0,0.2-0.6,0-0.8-0.3c-0.1-0.1-0.1,0-0.1,0.3c0.1,0.6-0.2,0.6-0.6,0.1
		c-0.2-0.3-0.4-0.3-0.4-0.2c-0.1,0.2-0.2,0.2-0.4,0c-0.1-0.1-0.5-0.2-0.7-0.2c-0.4,0-0.5-0.1-0.7-0.7c-0.2-0.7-0.6-1-0.4-0.4
		c0.2,0.6-0.2,0.3-0.6-0.3c-0.2-0.4-0.4-0.6-0.5-0.6c-0.3,0.1-0.2,1.9,0.1,2.8c0.2,0.4,0.2,0.7,0.2,0.9c3.8,0,7.5,0.2,11.1,0.4
		c0.8-0.6,2.1-1.7,3.5-2.9c-0.1-0.1-0.2-0.1-0.3-0.2C167.5,123.8,167.4,123.8,167.5,124z"/>
	<path fill="#A8C060" d="M163.9,91.5c-0.1-0.1-0.3-0.1-0.6-0.1c-0.4,0-0.7,0.1-0.7,0.2c0,0,0.4,0.1,0.8,0.1
		C164,91.6,164.1,91.6,163.9,91.5z"/>
	<path fill="#A8C060" d="M153.2,66.7c0.2,0.3,0.3,0.2,0.3-0.9c0-0.6,0-1.1-0.2-1.1C153.1,64.8,153,66.5,153.2,66.7z"/>
	<path fill="#A8C060" d="M169.3,123.1L169.3,123.1c0.2,0,0.3-0.1,0.4-0.2C168.9,122.4,168.6,122.5,169.3,123.1z"/>
	<path fill="#A8C060" d="M148.8,69c-0.1,0.1-0.3,0.2-0.4,0.2c-0.2,0-0.2-0.1-0.2-0.2c0.2-0.4-0.2-0.4-0.5,0c-0.4,0.5-1,0.4-1.4-0.2
		c-0.1-0.2-0.3-0.3-0.4-0.3c-0.1,0-0.2,0.1-0.2,0.2c0,0.1,0.1,0.4,0.2,0.7c0.2,0.4,0.3,0.4,1.3,0.3c0.6-0.1,1.3-0.2,1.6-0.3
		s0.5-0.3,0.5-0.4C149.3,68.7,149,68.7,148.8,69z"/>
	<path fill="#A8C060" d="M151.2,52.7c-0.2-0.3-0.4-0.5-0.5-0.5c0,0,0,0,0,0.1c0,0.2,0.1,0.4,0.3,0.6s0.3,0.5,0.3,0.8
		c0.1,0.5,0.3,1.2,0.4,1.2c0,0,0-0.1,0.1-0.2c0-0.3,0-0.7,0-1C151.6,53.4,151.5,53,151.2,52.7z"/>
	<path fill="#A8C060" d="M167.8,92.6c-0.1,0-0.1,0-0.2,0c-0.1,0-0.1,0-0.2,0.1c-0.1,0.1,0,0.1,0.2,0.1
		C167.9,92.7,168,92.6,167.8,92.6z"/>
	<path fill="#A8C060" d="M168.1,98.2c0.1,0,0.1-0.1-0.1-0.2c-0.2-0.1-0.4-0.2-0.5-0.2c0,0,0,0,0,0c-0.1,0,0,0.1,0.1,0.2
		C167.7,98.1,168,98.2,168.1,98.2z"/>
	<path fill="#A8C060" d="M211,80.7c-0.7-0.5-2-0.3-1.8-0.7c0.2-0.3,1.5-2.2,1-5.1s-0.7-6.3-0.8-7c-0.1-0.7-1.1-1.1-1.6-1.1
		s-2.7,0.1-2.8-0.3c-0.1-0.4,0.3-2.2-0.4-4.1c-0.7-1.9-0.6-3.5-0.8-3.8c-0.2-0.3-3.3,0.1-3.9,0c-0.6-0.1-0.8-1.4-0.9-2.7
		c-0.1-1.3,0.2-2.8-0.9-2.8c-1.1-0.1-2,0.7-2.3-0.4c-0.2-1.1-0.8-6-2-7.8c0,0-0.4,6.8-0.7,7.6c-0.2,0.8-1.2,2-1.8,2.9
		c-0.6,0.9-0.3,2.5-0.8,3.4c-0.5,0.9-2,2.4-3.1,4.7c-1.1,2.4-1.4,5-2,6.1s-3.7,4.8-5.9,7.8c-2.2,3-5.1,5.9-7.1,8.7
		c-1.3,1.8-2.7,4.1-4,6.1c0,0,0,0.1,0.1,0.1c0.2,0.2,0.2,0.3,0.1,0.4c-0.1,0.1-0.2,0.2-0.1,0.4c0.1,0.2,0,0.3-0.3,0.3
		c-0.3,0-0.4,0.1-0.3,0.3c0.1,0.3,0,0.3-0.3,0.2c-0.8-0.4-0.9-0.4-0.6-0.1c0.5,0.4,0.4,0.5-0.5,0.7c-0.6,0.1-0.9,0.1-1.2-0.2
		c-0.3-0.3-0.4-0.3-0.5-0.1c-0.1,0.1-0.3,0.2-0.4,0.2c-1.5-0.1-1,0.5,0.9,1.1c1.5,0.5,1.6,0.5,2.5,0.1c1.2-0.4,1.3-0.4,1.1,0.1
		c-0.1,0.5,0.1,0.5,1.3,0.1c1.1-0.4,1.6-0.3,1.2,0.3c-0.1,0.2-0.4,0.4-0.5,0.4c-0.1,0-0.4,0.2-0.7,0.5c-0.3,0.3-0.7,0.5-1.1,0.5
		l-0.6,0l0.7,0.4l0.7,0.4l-0.9,0.1l-0.9,0.1l0.4,0.4l0.4,0.4l-0.5,0c-0.3,0-0.7-0.1-0.9-0.3c-0.3-0.2-0.4-0.2-0.4-0.1
		c0,0.1-0.1,0.2-0.3,0.1s-0.3,0-0.3,0.1c0,0.1-0.2,0.2-0.5,0.2c-0.3,0-0.5,0.1-0.4,0.3c0.1,0.4,2.1,0.8,3.4,0.8
		c0.5,0,0.9,0.1,0.9,0.2c0,0.1-0.1,0.2-0.2,0.2s-0.2,0.1-0.2,0.2c0,0.2,2.6,0.2,3.7-0.1c1.2-0.2,0.8,0.2-0.5,0.6
		c-0.9,0.3-1.1,0.4-0.8,0.5c0.3,0.1,0.4,0.2,0.3,0.5c-0.1,0.3,0,0.4,0.4,0.5c0.5,0.1,0.5,0.2,0.2,0.4c-0.2,0.1-0.4,0.1-0.5,0.1
		c-0.1-0.1-0.2-0.1-0.2,0.1c0,0.1-0.6,0.3-1.3,0.5c-0.8,0.2-1.3,0.4-1.3,0.6c0,0.2-0.1,0.2-0.5,0.1c-0.7-0.3-0.8-0.3-0.4,0.1
		c0.3,0.3,0.3,0.3-0.2,0.6c-0.3,0.2-0.6,0.4-0.7,0.5c-0.1,0.1-0.3,0-0.6-0.2c-0.4-0.3-0.5-0.3-0.5,0c0,0.5-0.2,0.4-0.8-0.3
		c-0.4-0.4-0.5-0.4-0.2-0.1c0.3,0.4,0.3,0.6-0.2,0.5c-0.1,0-0.6,0-1.2,0c-0.5,0-1.2-0.1-1.5-0.3c-1-0.5-1.2-0.5-1.2-0.3
		c0,0.1-0.2,0.2-0.4,0.1c-0.5-0.2-0.5,0.1-0.1,0.6c0.4,0.4,4.1,1.8,5.2,1.9c0.5,0.1,1.2,0,1.7-0.2c1-0.4,1.2-0.2,0.8,0.4
		c-0.3,0.4-0.2,0.4,1.7,0.3c1.6-0.1,2-0.1,1.9,0.2c-0.1,0.2-0.4,0.4-0.7,0.4c-0.5,0.1-0.4,0.1,0.3,0.2c0.5,0,1,0.1,1.2,0.2
		c0.7,0.5-1,0.8-2.3,0.4c-1-0.3-0.9-0.1,0.2,0.3c1.6,0.7,1.3,1.3-0.4,0.7c-0.5-0.2-0.7-0.1-0.7,0.1c-0.1,0.2-0.3,0.3-0.8,0.2
		c-0.5-0.1-0.8,0-1,0.2c-0.2,0.2-0.4,0.3-0.4,0.2s-0.1,0-0.1,0.1c0,0.1,0.2,0.4,0.4,0.6c0.2,0.2,0.4,0.5,0.4,0.7
		c0,0.3-0.1,0.2-0.5-0.1c-0.3-0.2-0.6-0.5-0.7-0.7c-0.2-0.4-0.5-0.4-0.5,0c0,0.4-0.8,0.4-1.1,0.1c-0.2-0.2-0.2-0.1-0.1,0.5
		c0.1,0.7,0,0.8-0.7,0.1c-0.2-0.1-0.5-0.4-0.8-0.5c-0.5-0.2-0.5-0.2-0.4,0.4l0.1,0.7l-0.6-0.6c-0.5-0.5-0.6-0.6-0.6-0.2
		c0,0.3-0.1,0.3-0.3,0.1c-0.2-0.1-0.3-0.2-0.3-0.1c0,0.1-0.2,0-0.4-0.3c-0.5-0.6-0.6-0.6-0.4,0c0.2,0.4,3.1,2.1,4.9,2.8
		c1.6,0.6,2.4,0.5,3.9-0.3c1.5-0.9,2-0.8,1,0.2c-0.6,0.6-0.6,0.6-0.2,0.5c1.5-0.4,2.5-0.6,2.7-0.5c0.2,0.3-0.5,0.7-1.7,1
		c-0.6,0.2-1.2,0.4-1.3,0.4c-0.1,0.1,0.5,0.2,1.3,0.3c0.7,0.1,1.4,0.2,1.3,0.3c0,0.2-0.5,0.3-1.3,0.2c-0.3,0-0.4,0-0.3,0.2
		c0.1,0.1,0.3,0.2,0.5,0.2s0.5,0.1,0.7,0.3c0.3,0.3,0.3,0.3-0.9,0.2c-1-0.1-1.2-0.1-0.8,0.1c0.6,0.3,0.5,0.6-0.2,0.7l-0.6,0.1
		l0.6,0.2c0.9,0.3,0.6,0.7-0.5,0.6c-0.8,0-0.9,0-0.5,0.2c0.7,0.4,0.5,0.7-0.5,0.6c-0.7-0.1-0.8,0-0.6,0.2c0.5,0.4,0.1,0.6-0.5,0.3
		c-0.7-0.3-0.6,0.2,0.1,0.5c0.4,0.2,1.8,0.5,2.9,0.7c3.2-2.6,6.5-5.4,7.3-6.2c1.8-1.7,9.1-7.3,10.7-8.8c1-0.8,5.1-5.8,6.4-6.3
		c1.3-0.6,2.9-1.4,4.3-2.8c1.4-1.4,3.9-3.9,5.1-5c1.2-1.1,3-3.2,3.7-3.9c0.7-0.7,2.1-2,2.7-3.3s1.7-3.3,1.7-3.3S211.7,81.1,211,80.7
		z"/>
</g>
</svg>
